<svg xmlns="http://www.w3.org/2000/svg" width="32" height="32" viewBox="0 0 32 32">
    <g data-name="Group 22119">
        <path data-name="Rectangle 22383" style="fill:none" d="M0 0h32v32H0z"/>
        <g data-name="Group 22099">
            <path data-name="Union 160" d="M9.509.25a.925.925 0 0 0-.041 1.306l5.712 6.1H.926a.924.924 0 1 0 0 1.848h14.065L9.483 15.1a.925.925 0 0 0 1.317 1.3l7.115-7.227a.923.923 0 0 0 .016-1.281l-7.114-7.6A.928.928 0 0 0 10.14 0a.916.916 0 0 0-.631.25z" transform="rotate(180 12.5 12.336)" style="fill:#fff"/>
        </g>
    </g>
</svg>
