<svg xmlns="http://www.w3.org/2000/svg" width="32" height="32" viewBox="0 0 32 32">
    <g data-name="Group 21183">
        <path data-name="Rectangle 22383" style="fill:none" d="M0 0h32v32H0z"/>
        <g style="fill:none">
            <path d="m2.7.461 6.116 6.117L14.932.461a1.572 1.572 0 0 1 2.223 2.223L9.919 9.919a1.57 1.57 0 0 1-2.223 0L.461 2.684a1.57 1.57 0 0 1 0-2.223 1.6 1.6 0 0 1 2.239 0z" style="stroke:none" transform="translate(7 11)"/>
            <path d="M16.044 1.5a.067.067 0 0 0-.05.022L8.815 8.699 1.639 1.522c-.01-.01-.028-.016-.05-.016a.124.124 0 0 0-.074.023.066.066 0 0 0-.015.043c0 .03.015.045.022.051L8.757 8.86a.067.067 0 0 0 .051.022.067.067 0 0 0 .05-.022l7.236-7.236c.007-.006.022-.022.022-.05 0-.03-.015-.045-.022-.051a.067.067 0 0 0-.05-.022m0-1.5a1.57 1.57 0 0 1 1.111 2.684L9.92 9.919a1.57 1.57 0 0 1-2.222 0L.46 2.684a1.57 1.57 0 0 1 0-2.223c.615-.599 1.624-.615 2.239 0l6.116 6.117L14.932.46C15.24.154 15.642 0 16.044 0z" style="fill:#1272e2;stroke:none" transform="translate(7 11)"/>
        </g>
    </g>
</svg>
