<svg data-name="Icon/Search/Header/48px" xmlns="http://www.w3.org/2000/svg" width="48" height="48" viewBox="0 0 48 48">
    <rect data-name="Rectangle 21920" width="48" height="48" rx="12" style="fill:#3591ee;opacity:.1"/>
    <path data-name="Rectangle 4" transform="translate(12 12)" style="fill:none" d="M0 0h24v24H0z"/>
    <path data-name="Union 3" d="m30.874 32.282-4.636-3.711a6.967 6.967 0 0 1-4.24 1.43 7 7 0 0 1-7-7 7 7 0 0 1 7-7 7 7 0 0 1 7 7 6.969 6.969 0 0 1-1.354 4.138l4.477 3.581a1 1 0 0 1 .156 1.408 1 1 0 0 1-.779.375 1.006 1.006 0 0 1-.624-.221zM17 23a5.006 5.006 0 0 0 5 5 5.007 5.007 0 0 0 5-5 5.009 5.009 0 0 0-5-5 5.008 5.008 0 0 0-5 5z"/>
</svg>
