<svg xmlns="http://www.w3.org/2000/svg" width="24" height="24" viewBox="0 0 24 24">
    <path data-name="Rectangle 22873" style="fill:none" d="M0 0h24v24H0z"/>
    <path d="M14.384 4.25a2.006 2.006 0 0 1 1.966 2.039v3.052h2.85a2.5 2.5 0 0 1 1.989 1 2.759 2.759 0 0 1 .465 2.381l-1.494 5.55a1.967 1.967 0 0 1-1.877 1.478H10.8a.75.75 0 0 1-.433-.138l-1.8-1.273a.75.75 0 0 1-.317-.612v-6.363a.747.747 0 0 1 .156-.458l4.43-5.874a1.929 1.929 0 0 1 1.548-.782zm3.9 14a.467.467 0 0 0 .428-.368l1.494-5.552A1.249 1.249 0 0 0 20 11.25a1 1 0 0 0-.8-.409h-3.6a.75.75 0 0 1-.75-.75v-3.8a.507.507 0 0 0-.466-.539.442.442 0 0 0-.35.185L9.75 11.615v5.724l1.288.911z" style="fill:#1272e2"/>
    <path d="M0-.75h5a.75.75 0 0 1 .75.75v9a.75.75 0 0 1-.75.75H0A.75.75 0 0 1-.75 9V0A.75.75 0 0 1 0-.75zM4.25.75H.75v7.5h3.5z" transform="translate(4 10)" style="fill:#1272e2"/>
</svg>
