<svg xmlns="http://www.w3.org/2000/svg" width="64" height="64" viewBox="0 0 64 64">
    <g data-name="Group 22452">
        <path data-name="Rectangle 23576" style="fill:none" d="M0 0h64v64H0z"/>
        <g data-name="Group 22291">
            <path data-name="Rectangle 23577" style="opacity:.2;fill:none" d="M0 0h52.917v52.917H0z" transform="translate(5.291 4.868)"/>
            <g data-name="Group 22290" transform="translate(13.227 7.556)">
                <path data-name="Subtraction 35" d="M16.526 44.348a.15.15 0 0 1-.047-.031 121.982 121.982 0 0 1-9-11.143C2.587 26.263 0 20.675 0 17.013A17.147 17.147 0 0 1 4.861 4.984 16.182 16.182 0 0 1 16.527 0a16.8 16.8 0 0 1 16.545 17.013c0 3.659-2.589 9.247-7.488 16.159a123.781 123.781 0 0 1-8.993 11.147.1.1 0 0 1-.065.029z" transform="translate(1.985 2.016)" style="fill:#feee97"/>
                <path d="M192.391 58.016A16.179 16.179 0 0 0 180.726 63a17.146 17.146 0 0 0-4.862 12.029c0 3.661 2.587 9.249 7.481 16.16a122.734 122.734 0 0 0 9 11.144.135.135 0 0 0 .048.032.1.1 0 0 0 .065-.029 123.365 123.365 0 0 0 8.993-11.147c4.9-6.913 7.488-12.5 7.488-16.159a16.8 16.8 0 0 0-16.546-17.014m0-2.016c10.207 0 18.53 8.547 18.53 19.03 0 9.877-15.292 26.791-17.019 28.686a2.028 2.028 0 0 1-3 0c-1.747-1.894-17.019-18.808-17.019-28.686C173.88 64.547 182.2 56 192.391 56z" transform="translate(-173.88 -56)" style="fill:#094771"/>
                <ellipse data-name="Ellipse 5234" cx="9.26" cy="9.407" rx="9.26" ry="9.407" transform="translate(9.262 8.063)" style="fill:#0275e9"/>
            </g>
        </g>
    </g>
</svg>
