<svg xmlns="http://www.w3.org/2000/svg" width="24" height="24" viewBox="0 0 24 24">
    <g data-name="Group 21501" transform="translate(-1127 -44)">
        <rect data-name="Rectangle 208" width="24" height="24" rx="8" transform="translate(1127 44)" style="fill:none"/>
        <path data-name="Path 12279" d="M264.36 171.461a1.264 1.264 0 0 1-1.261 1.264h-12.642a1.264 1.264 0 0 1-1.261-1.264 7.582 7.582 0 0 1 15.164 0zm-7.582-5.9a5.9 5.9 0 0 0-5.882 5.476h11.765a5.9 5.9 0 0 0-5.882-5.476zm0-.3a4.633 4.633 0 1 1 4.634-4.633 4.633 4.633 0 0 1-4.634 4.639zm0-1.685a2.949 2.949 0 1 0-2.948-2.948 2.949 2.949 0 0 0 2.948 2.954z" transform="translate(882.126 -108.861)" style="fill:#1272e2;stroke:#1272e2;stroke-width:.2px"/>
    </g>
</svg>
