<svg xmlns="http://www.w3.org/2000/svg" width="48" height="48" viewBox="0 0 48 48">
    <defs>
        <clipPath id="6zu9wwz4aa">
            <circle data-name="Ellipse 5241" cx="24" cy="24" r="24" transform="translate(387 2734)" style="fill:#fff"/>
        </clipPath>
        <clipPath id="ie10sqyvfb">
            <path data-name="Rectangle 22610" style="fill:none" d="M0 0h19.796v19.796H0z"/>
        </clipPath>
    </defs>
    <g data-name="Play" transform="translate(-1488 -267)">
        <circle data-name="Ellipse 5242" cx="24" cy="24" r="24" transform="translate(1488 267)" style="fill:#fff"/>
        <g data-name="Mask Group 5807" transform="translate(1101 -2467)" style="clip-path:url(#6zu9wwz4aa)">
            <g data-name="Group 22435">
                <g data-name="Group 21171" style="opacity:.5">
                    <g data-name="Group 21170">
                        <g data-name="Group 21169" style="clip-path:url(#ie10sqyvfb)" transform="translate(396.617 2755.455)">
                            <path data-name="Path 12659" d="M27.627 31.075a9.9 9.9 0 1 1-9.9-9.9 9.9 9.9 0 0 1 9.9 9.9" transform="translate(-7.831 -21.176)" style="fill:#ffd315"/>
                        </g>
                    </g>
                </g>
                <path data-name="Path 12660" d="M23.469 42.829a18.974 18.974 0 0 1-8.474-2.009.858.858 0 0 1 .77-1.534 17.163 17.163 0 0 0 24.867-15.337.858.858 0 1 1 1.716 0 18.9 18.9 0 0 1-18.88 18.88" transform="translate(387.652 2734.171)" style="fill:#00385f"/>
                <path data-name="Path 12661" d="M10.375 37.256a.855.855 0 0 1-.6-.24 18.88 18.88 0 0 1-3.321-22.91.858.858 0 0 1 1.492.847A17.163 17.163 0 0 0 10.97 35.78a.858.858 0 0 1-.6 1.476" transform="translate(389 2734.699)" style="fill:#00385f"/>
                <path data-name="Path 12662" d="M40.081 20.214a.843.843 0 0 1-.821-.691A16.915 16.915 0 0 0 22.816 5.716a16.609 16.609 0 0 0-12.571 5.805.824.824 0 0 1-1.183.076.873.873 0 0 1-.074-1.211A18.269 18.269 0 0 1 22.816 4 18.6 18.6 0 0 1 40.9 19.188a.856.856 0 0 1-.658 1.009.808.808 0 0 1-.164.017" transform="translate(388.733 2736)" style="fill:#00385f"/>
                <path data-name="Path 12663" d="m30.573 22.227-8.754-5.054a1.888 1.888 0 0 0-2.832 1.635v10.108a1.888 1.888 0 0 0 2.832 1.635l8.754-5.051a1.888 1.888 0 0 0 0-3.27" transform="translate(387.735 2734.889)" style="fill:#0275e9"/>
            </g>
        </g>
    </g>
</svg>
