<svg xmlns="http://www.w3.org/2000/svg" width="173.866" height="67.653" viewBox="0 0 173.866 67.653">
    <g data-name="Group 32">
        <path data-name="Path 48" d="M1040.476 266.644z" transform="translate(-1011.732 -218.249)" style="fill:#fff"/>
        <path data-name="Path 49" d="M1040.594 266.644z" transform="translate(-1011.732 -218.249)" style="stroke:#59221c;fill:none;stroke-miterlimit:10;stroke-width:.5px"/>
        <path data-name="Path 50" d="M1036.878 275.281c0 4.793 3.544 8.68 7.918 8.68h-2.096c-4.534 0-7.862-3.887-7.862-8.68s3.328-8.679 7.862-8.679h2.095c-4.374 0-7.918 3.884-7.918 8.679" transform="translate(-1011.732 -218.249)" style="fill:#fff"/>
        <path data-name="Path 51" d="M1036.878 275.281c0 4.793 3.544 8.68 7.918 8.68h-2.096c-4.534 0-7.862-3.887-7.862-8.68s3.328-8.679 7.862-8.679h2.095c-4.373-.002-7.917 3.884-7.917 8.679z" transform="translate(-1011.732 -218.249)" style="stroke:#002b49;fill:none;stroke-miterlimit:10;stroke-width:.5px"/>
        <path data-name="Path 52" d="M1044.913 283.961z" transform="translate(-1011.732 -218.249)" style="fill:#fff"/>
        <path data-name="Path 53" d="M1044.913 283.961z" transform="translate(-1011.732 -218.249)" style="stroke:#59221c;fill:none;stroke-miterlimit:10;stroke-width:.5px"/>
        <path data-name="Path 54" d="M1052.715 275.281c0 4.751-3.482 8.61-7.8 8.678h-.118c-4.373 0-7.918-3.886-7.918-8.679s3.545-8.679 7.918-8.679h.118c4.319.071 7.8 3.929 7.8 8.68" transform="translate(-1011.732 -218.249)" style="fill:#002b49"/>
        <path data-name="Path 55" d="M1052.715 275.281c0 4.751-3.482 8.61-7.8 8.678h-.118c-4.373 0-7.918-3.886-7.918-8.679s3.545-8.679 7.918-8.679h.118c4.318.071 7.8 3.929 7.8 8.68z" transform="translate(-1011.732 -218.249)" style="stroke:#002b49;fill:none;stroke-miterlimit:10;stroke-width:.5px"/>
        <path data-name="Path 56" d="M1044.8 269.17a6.205 6.205 0 1 1-5.637 6.179 5.926 5.926 0 0 1 5.637-6.179z" transform="translate(-1011.732 -218.249)" style="stroke:#fff;fill:none;stroke-miterlimit:10;stroke-width:.5px"/>
        <path data-name="Path 57" d="M1179.9 255.055v20.225h-155v-17.271a6.035 6.035 0 0 1 3.531-5.491l22.314-8.723 14.129-22.168a6.76 6.76 0 0 1 5.7-3.128h52.026c12.037 0 16.9 3.749 22.58 10.281l4.319 4.961a48.056 48.056 0 0 0 10.036 8.726h13.442a6.9 6.9 0 0 1 6.9 6.9v5.141a4.8 4.8 0 0 1 .031.549" transform="translate(-1011.732 -218.249)" style="fill:#fd0"/>
        <path data-name="Path 58" d="M1179.9 255.055v20.225h-155v-17.271a6.035 6.035 0 0 1 3.531-5.491l22.314-8.723 14.129-22.168a6.76 6.76 0 0 1 5.7-3.128h52.026c12.037 0 16.9 3.749 22.58 10.281l4.319 4.961a48.056 48.056 0 0 0 10.036 8.726h13.442a6.9 6.9 0 0 1 6.9 6.9v5.141a4.8 4.8 0 0 1 .023.547z" transform="translate(-1011.732 -218.249)" style="stroke:#000;fill:none;stroke-miterlimit:10;stroke-width:.5px"/>
        <path data-name="Path 59" d="M1179.748 252.136v22.1H1024.49l.407-14.7c0-2.222 1.437-6.1 3.539-7.021l20.074-7.68h123.938a7.3 7.3 0 0 1 7.3 7.3" transform="translate(-1011.732 -218.249)" style="fill:#1272e2"/>
        <path data-name="Path 60" d="M1179.748 252.136v22.1H1024.49l.407-14.7c0-2.222 1.437-6.1 3.539-7.021l20.074-7.68h123.938a7.3 7.3 0 0 1 7.3 7.301z" transform="translate(-1011.732 -218.249)" style="stroke:#002b49;fill:none;stroke-miterlimit:10;stroke-width:.5px"/>
        <path data-name="Path 61" d="M1022.678 271.427h160.962a1.958 1.958 0 0 1 1.958 1.958v.031a1.959 1.959 0 0 1-1.958 1.958h-160.962a1.958 1.958 0 0 1-1.958-1.958v-.031a1.958 1.958 0 0 1 1.958-1.958" transform="translate(-1011.732 -218.249)" style="fill:#002b49"/>
        <path data-name="Path 62" d="M1144.154 232.643v11.215h-34.872v-21.341a2.469 2.469 0 0 1 2.47-2.469h9.865c10.054 0 15.154 3 20.7 8.309a5.938 5.938 0 0 1 1.837 4.286z" transform="translate(-1011.732 -218.249)" style="stroke-linecap:round;stroke:#59221c;fill:none;stroke-miterlimit:10;stroke-width:.5px"/>
        <path data-name="Path 63" d="M1153.08 243.858h-7.244v-10.6a.393.393 0 0 1 .688-.258l1.995 2.293a48.137 48.137 0 0 0 5.659 5.511 1.726 1.726 0 0 1-1.098 3.054z" transform="translate(-1011.732 -218.249)" style="stroke-linecap:round;stroke:#59221c;fill:none;stroke-miterlimit:10;stroke-width:.5px"/>
        <path data-name="Path 64" d="M1068.258 243.858h-9.341c-.153-2.889 1.427-5.118 3.786-5.139 2.383-.019 4.743 2.215 5.555 5.139z" transform="translate(-1011.732 -218.249)" style="stroke-linecap:round;stroke:#002b49;fill:none;stroke-miterlimit:10;stroke-width:.5px"/>
        <path data-name="Path 65" d="M1144.185 275.411h23.18c-.193-5.722-4.195-11.29-11.6-11.29a11.867 11.867 0 0 0-11.578 11.29" transform="translate(-1011.732 -218.249)" style="fill:#002b49"/>
        <path data-name="Path 66" d="M1144.185 275.411h23.18c-.193-5.722-4.195-11.29-11.6-11.29a11.867 11.867 0 0 0-11.58 11.29z" transform="translate(-1011.732 -218.249)" style="stroke:#002b49;fill:none;stroke-miterlimit:10;stroke-width:.5px"/>
        <path data-name="Path 67" d="M1168.5 269.763a13.695 13.695 0 0 0-25.688.537" transform="translate(-1011.732 -218.249)" style="stroke-linecap:round;stroke:#002b49;fill:none;stroke-miterlimit:10;stroke-width:.5px"/>
        <path data-name="Path 68" d="M1156.82 284h-2.095c-4.534 0-7.862-3.886-7.862-8.68s3.328-8.678 7.862-8.678h2.095c-4.374 0-7.919 3.885-7.919 8.678s3.545 8.68 7.919 8.68" transform="translate(-1011.732 -218.249)" style="fill:#002b49"/>
        <path data-name="Path 69" d="M1156.82 284h-2.095c-4.534 0-7.862-3.886-7.862-8.68s3.328-8.678 7.862-8.678h2.095c-4.374 0-7.919 3.885-7.919 8.678s3.545 8.68 7.919 8.68z" transform="translate(-1011.732 -218.249)" style="stroke:#002b49;fill:none;stroke-miterlimit:10;stroke-width:.5px"/>
        <path data-name="Path 70" d="M1164.738 275.322c0 4.751-3.482 8.61-7.8 8.678h-.117c-4.373 0-7.919-3.886-7.919-8.679s3.546-8.679 7.919-8.679h.117c4.319.07 7.8 3.929 7.8 8.68" transform="translate(-1011.732 -218.249)" style="fill:#fff"/>
        <path data-name="Path 71" d="M1164.738 275.322c0 4.751-3.482 8.61-7.8 8.678h-.117c-4.373 0-7.919-3.886-7.919-8.679s3.546-8.679 7.919-8.679h.117c4.318.07 7.8 3.929 7.8 8.68z" transform="translate(-1011.732 -218.249)" style="stroke-linecap:round;stroke:#002b49;fill:none;stroke-miterlimit:10;stroke-width:.5px"/>
        <path data-name="Path 72" d="M1156.819 269.211a6.205 6.205 0 1 1-5.637 6.179 5.926 5.926 0 0 1 5.637-6.179z" transform="translate(-1011.732 -218.249)" style="stroke-linecap:round;stroke:#002b49;fill:none;stroke-miterlimit:10;stroke-width:.5px"/>
        <path data-name="Path 73" d="M1054.508 275.411h23.18c-.193-5.722-4.195-11.29-11.6-11.29a11.867 11.867 0 0 0-11.578 11.29" transform="translate(-1011.732 -218.249)" style="fill:#002b49"/>
        <path data-name="Path 74" d="M1054.508 275.411h23.18c-.193-5.722-4.195-11.29-11.6-11.29a11.867 11.867 0 0 0-11.58 11.29z" transform="translate(-1011.732 -218.249)" style="stroke:#002b49;fill:none;stroke-miterlimit:10;stroke-width:.5px"/>
        <path data-name="Path 75" d="M1078.822 269.763a13.695 13.695 0 0 0-25.688.537" transform="translate(-1011.732 -218.249)" style="stroke-linecap:round;stroke:#002b49;fill:none;stroke-miterlimit:10;stroke-width:.5px"/>
        <path data-name="Path 76" d="M1067.143 284h-2.095c-4.533 0-7.862-3.886-7.862-8.68s3.329-8.678 7.862-8.678h2.095c-4.373 0-7.918 3.885-7.918 8.678s3.545 8.68 7.918 8.68" transform="translate(-1011.732 -218.249)" style="fill:#002b49"/>
        <path data-name="Path 77" d="M1075.061 275.322c0 4.751-3.482 8.61-7.8 8.678h-.117c-4.373 0-7.919-3.886-7.919-8.679s3.546-8.679 7.919-8.679h.117c4.319.071 7.8 3.929 7.8 8.68" transform="translate(-1011.732 -218.249)" style="fill:#fff"/>
        <path data-name="Path 78" d="M1075.061 275.322c0 4.751-3.482 8.61-7.8 8.678h-.117c-4.373 0-7.919-3.886-7.919-8.679s3.546-8.679 7.919-8.679h.117c4.318.071 7.8 3.929 7.8 8.68z" transform="translate(-1011.732 -218.249)" style="stroke-linecap:round;stroke:#002b49;fill:none;stroke-miterlimit:10;stroke-width:.5px"/>
        <path data-name="Path 79" d="M1067.143 269.211a6.205 6.205 0 1 1-5.637 6.179 5.926 5.926 0 0 1 5.637-6.179z" transform="translate(-1011.732 -218.249)" style="stroke-linecap:round;stroke:#002b49;fill:none;stroke-miterlimit:10;stroke-width:.5px"/>
        <path data-name="Path 80" d="M1179.871 253.968h-4.56a2 2 0 0 1-1.822-1.283l-.952-2.316a1.011 1.011 0 0 1 .852-1.427h6.482z" transform="translate(-1011.732 -218.249)" style="fill:#fff"/>
        <path data-name="Path 81" d="M1179.88 253.968h-5.51a2.166 2.166 0 0 1-1.975-1.283l-1.034-2.316a1.014 1.014 0 0 1 .925-1.427h7.6z" transform="translate(-1011.732 -218.249)" style="stroke-linecap:round;stroke:#002b49;fill:none;stroke-miterlimit:10;stroke-width:.5px"/>
        <path data-name="Line 5" transform="translate(159.851 32.421)" style="stroke-linecap:round;stroke:#002b49;fill:none;stroke-miterlimit:10;stroke-width:.5px" d="M8.267 0H0"/>
        <path data-name="Line 6" transform="translate(160.524 34.047)" style="stroke-linecap:round;stroke:#002b49;fill:none;stroke-miterlimit:10;stroke-width:.5px" d="M7.594 0H0"/>
        <path data-name="Path 82" d="M1046.467 260.443h-1.942v-2.085a6.529 6.529 0 0 1 3.849-5.952l.728-.33v5.724a2.634 2.634 0 0 1-2.628 2.64h-.007" transform="translate(-1011.732 -218.249)" style="fill:#fff"/>
        <path data-name="Path 83" d="M1046.467 260.443h-1.942v-2.085a6.529 6.529 0 0 1 3.849-5.952l.728-.33v5.724a2.634 2.634 0 0 1-2.628 2.64z" transform="translate(-1011.732 -218.249)" style="stroke:#002b49;fill:none;stroke-miterlimit:10;stroke-width:.5px"/>
        <path data-name="Path 84" d="M1027.053 260.648h-1.941v-2.085a6.525 6.525 0 0 1 3.848-5.952l.728-.33v5.733a2.634 2.634 0 0 1-2.634 2.634z" transform="translate(-1011.732 -218.249)" style="fill:#fff"/>
        <path data-name="Path 85" d="M1027.053 260.648h-1.941v-2.085a6.525 6.525 0 0 1 3.848-5.952l.728-.33v5.733a2.634 2.634 0 0 1-2.634 2.634z" transform="translate(-1011.732 -218.249)" style="stroke:#002b49;fill:none;stroke-miterlimit:10;stroke-width:.5px"/>
        <path data-name="Path 86" d="M1109.632 269.765h27.788a21.47 21.47 0 0 1 6.734-9.786v-15.037" transform="translate(-1011.732 -218.249)" style="stroke-linecap:round;stroke:#002b49;fill:none;stroke-miterlimit:10;stroke-width:.5px"/>
        <path data-name="Path 87" d="M1107.6 243.858v-21.341a2.47 2.47 0 0 0-2.47-2.47h-35.53a6.76 6.76 0 0 0-5.7 3.128" transform="translate(-1011.732 -218.249)" style="stroke-linecap:round;stroke:#002b49;fill:none;stroke-miterlimit:10;stroke-width:.5px"/>
        <path data-name="Path 88" d="M1071.71 258.014a19.544 19.544 0 0 1 12.141 11.748h23.749v-12.293" transform="translate(-1011.732 -218.249)" style="stroke-linecap:round;stroke:#002b49;fill:none;stroke-miterlimit:10;stroke-width:.5px"/>
        <path data-name="Path 89" d="M1133.74 247a.61.61 0 0 1 .516-.816h5.726a.6.6 0 0 1 .516.816" transform="translate(-1011.732 -218.249)" style="stroke-linecap:round;stroke:#002b49;fill:none;stroke-miterlimit:10;stroke-width:.5px"/>
        <path data-name="Path 90" d="M1044.525 275.281V258.01a6.035 6.035 0 0 1 3.531-5.491l22.314-8.724 14.129-22.167a6.761 6.761 0 0 1 5.7-3.129" transform="translate(-1011.732 -218.249)" style="stroke-linecap:round;stroke:#002b49;fill:none;stroke-miterlimit:10;stroke-width:.5px"/>
        <path data-name="Line 7" transform="translate(38.983 25.609)" style="stroke-linecap:round;stroke:#002b49;fill:none;stroke-miterlimit:10;stroke-width:.5px" d="M57.208 0H0"/>
        <path data-name="Path 91" d="M1080.437 240.418v.988a1.632 1.632 0 0 1-1.631 1.632h-5.5a4.628 4.628 0 0 0-2.014.308 2.408 2.408 0 0 0-.637.444h-.142l2.25-3.757a2.7 2.7 0 0 1 2.274-1.247h3.768a1.632 1.632 0 0 1 1.634 1.629z" transform="translate(-1011.732 -218.249)" style="fill:#fff"/>
        <path data-name="Path 92" d="M1080.437 240.418v.988a1.632 1.632 0 0 1-1.631 1.632h-5.5a4.628 4.628 0 0 0-2.014.308 2.408 2.408 0 0 0-.637.444h-.142l2.25-3.757a2.7 2.7 0 0 1 2.274-1.247h3.768a1.632 1.632 0 0 1 1.634 1.629z" transform="translate(-1011.732 -218.249)" style="stroke-linecap:round;stroke:#002b49;fill:none;stroke-miterlimit:10;stroke-width:.5px"/>
        <path data-name="Path 93" d="M1183.64 285.9h-170.958a.95.95 0 1 1 0-1.9h170.958a.95.95 0 0 1 0 1.9" transform="translate(-1011.732 -218.249)" style="fill:#ade0fe"/>
    </g>
</svg>
