<svg xmlns="http://www.w3.org/2000/svg" width="74.376" height="51.052" viewBox="0 0 74.376 51.052">
  <g id="Group_31" data-name="Group 31" transform="translate(-675.399 -553.097)">
    <path id="Path_94" data-name="Path 94" d="M744.058,256.789H681.115a5.467,5.467,0,0,1-5.466-5.467V247.1a5.467,5.467,0,0,1,5.466-5.467h62.943a5.467,5.467,0,0,1,5.467,5.467v4.223a5.467,5.467,0,0,1-5.467,5.467" transform="translate(0 318.247)" fill="#1272e2"/>
    <path id="Rectangle_18" data-name="Rectangle 18" d="M5.467,0H68.41a5.466,5.466,0,0,1,5.466,5.466V9.69a5.467,5.467,0,0,1-5.467,5.467H5.467A5.467,5.467,0,0,1,0,9.69V5.467A5.467,5.467,0,0,1,5.467,0Z" transform="translate(675.649 559.879)" fill="none" stroke="#002b49" stroke-miterlimit="10" stroke-width="0.5"/>
    <path id="Path_95" data-name="Path 95" d="M685.567,256.789h-4.7l5.591-15.157h4.7Z" transform="translate(0 318.247)" fill="#fd0"/>
    <path id="Path_96" data-name="Path 96" d="M685.567,256.789h-4.7l5.591-15.157h4.7Z" transform="translate(0 318.247)" fill="none" stroke="#000" stroke-miterlimit="10" stroke-width="0.5"/>
    <path id="Path_97" data-name="Path 97" d="M698.855,256.789h-4.7l5.591-15.157h4.7Z" transform="translate(0 318.247)" fill="#fd0"/>
    <path id="Path_98" data-name="Path 98" d="M698.855,256.789h-4.7l5.591-15.157h4.7Z" transform="translate(0 318.247)" fill="none" stroke="#000" stroke-miterlimit="10" stroke-width="0.5"/>
    <path id="Path_99" data-name="Path 99" d="M712.143,256.789h-4.7l5.591-15.157h4.7Z" transform="translate(0 318.247)" fill="#fd0"/>
    <path id="Path_100" data-name="Path 100" d="M712.143,256.789h-4.7l5.591-15.157h4.7Z" transform="translate(0 318.247)" fill="none" stroke="#000" stroke-miterlimit="10" stroke-width="0.5"/>
    <path id="Path_101" data-name="Path 101" d="M725.432,256.789h-4.7l5.591-15.157h4.7Z" transform="translate(0 318.247)" fill="#fd0"/>
    <path id="Path_102" data-name="Path 102" d="M725.432,256.789h-4.7l5.591-15.157h4.7Z" transform="translate(0 318.247)" fill="none" stroke="#000" stroke-miterlimit="10" stroke-width="0.5"/>
    <path id="Path_103" data-name="Path 103" d="M738.72,256.789h-4.7l5.591-15.157h4.7Z" transform="translate(0 318.247)" fill="#fd0"/>
    <path id="Path_104" data-name="Path 104" d="M738.72,256.789h-4.7l5.591-15.157h4.7Z" transform="translate(0 318.247)" fill="none" stroke="#000" stroke-miterlimit="10" stroke-width="0.5"/>
    <path id="Path_105" data-name="Path 105" d="M698.44,238.524a3.109,3.109,0,1,1-3.109-3.109,3.109,3.109,0,0,1,3.109,3.109" transform="translate(0 318.247)" fill="#1272e2"/>
    <circle id="Ellipse_11" data-name="Ellipse 11" cx="3.109" cy="3.109" r="3.109" transform="matrix(0.995, -0.099, 0.099, 0.995, 691.931, 553.984)" fill="none" stroke="#002b49" stroke-miterlimit="10" stroke-width="0.5"/>
    <path id="Path_106" data-name="Path 106" d="M737.126,238.524a3.109,3.109,0,1,1-3.109-3.109,3.109,3.109,0,0,1,3.109,3.109" transform="translate(0 318.247)" fill="#1272e2"/>
    <circle id="Ellipse_12" data-name="Ellipse 12" cx="3.109" cy="3.109" r="3.109" transform="matrix(0.995, -0.099, 0.099, 0.995, 730.617, 553.984)" fill="none" stroke="#002b49" stroke-miterlimit="10" stroke-width="0.5"/>
    <path id="Path_107" data-name="Path 107" d="M690.334,285.383h-4.276l6.988-28.593h4.276Z" transform="translate(0 318.247)" fill="#002b49"/>
    <path id="Path_108" data-name="Path 108" d="M734.84,285.383h4.276l-6.988-28.593h-4.276Z" transform="translate(0 318.247)" fill="#002b49"/>
    <rect id="Rectangle_19" data-name="Rectangle 19" width="41.262" height="2.692" transform="translate(692.222 586.641)" fill="#002b49"/>
    <path id="Path_109" data-name="Path 109" d="M747.69,285.9H677.484a.954.954,0,0,1,0-1.907H747.69a.954.954,0,1,1,0,1.907" transform="translate(0 318.247)" fill="#ade0fe"/>
  </g>
</svg>
