<svg xmlns="http://www.w3.org/2000/svg" width="259" height="45" viewBox="0 0 259 45">
    <defs>
        <clipPath id="cyt53qn0ba">
            <path data-name="Rectangle 23911" transform="translate(2332.215 958.78)" style="fill:#fff" d="M0 0h259v45H0z"/>
        </clipPath>
        <clipPath id="gewkiqy5gb">
            <path data-name="Rectangle 23912" style="fill:none" d="M0 0h239.492v32.779H0z"/>
        </clipPath>
    </defs>
    <g data-name="Mask Group 5989" transform="translate(-2332.215 -958.78)" style="clip-path:url(#cyt53qn0ba)">
        <g data-name="Group 23169">
            <g data-name="Group 23168" transform="translate(2342.256 964.485)" style="clip-path:url(#gewkiqy5gb)">
                <path data-name="Path 14077" d="M31.317 16.841h-9a1.58 1.58 0 0 0-1.58 1.58v.76a1.58 1.58 0 0 0 1.58 1.58h1.722A1.586 1.586 0 0 1 25.56 22.8a9.309 9.309 0 0 1-1 2.242 6.839 6.839 0 0 1-2.779 2.551 8.654 8.654 0 0 1-3.961.819 9 9 0 0 1-5.008-1.39 8.145 8.145 0 0 1-3-3.765 14.879 14.879 0 0 1-1-5.693 14.991 14.991 0 0 1 1.008-5.721 8.222 8.222 0 0 1 3-3.8 8.5 8.5 0 0 1 5-1.307 7.486 7.486 0 0 1 4.915 1.586 8.476 8.476 0 0 1 2.35 3.12 1.581 1.581 0 0 0 1.685.922l2.048-.325a1.591 1.591 0 0 0 1.216-2.149 12.079 12.079 0 0 0-3.787-5.316Q23.021 2.012 17.5 2.012a13.9 13.9 0 0 0-7.155 1.857 13.031 13.031 0 0 0-5 5.329 17.785 17.785 0 0 0-1.825 8.369 18.886 18.886 0 0 0 1.08 6.626 13.955 13.955 0 0 0 3 4.885 12.78 12.78 0 0 0 4.461 3.022 14.389 14.389 0 0 0 5.439 1.021 14.208 14.208 0 0 0 7.446-1.867A12.456 12.456 0 0 0 29.73 26.1a16.368 16.368 0 0 0 1.67-7.518c0-.083-.007-.339-.021-.767s-.035-.753-.062-.975" transform="translate(-.601 -.342)" style="fill:#fcec95"/>
                <path data-name="Path 14078" d="m47.811 3.867-8.419 26.705a1.58 1.58 0 0 0 1.508 2.056h1.83a1.581 1.581 0 0 0 1.507-1.106l1.341-4.26a1.58 1.58 0 0 1 1.507-1.105h9.451a1.579 1.579 0 0 1 1.5 1.1l1.364 4.271a1.581 1.581 0 0 0 1.506 1.1h1.833a1.581 1.581 0 0 0 1.507-2.056L55.828 3.867a1.58 1.58 0 0 0-1.507-1.1h-5a1.58 1.58 0 0 0-1.507 1.1m.231 15.569 2.231-7.082a1.58 1.58 0 0 1 3.012-.006l2.259 7.083a1.58 1.58 0 0 1-1.506 2.06H49.55a1.58 1.58 0 0 1-1.507-2.055" transform="translate(-6.7 -.47)" style="fill:#fcec95"/>
                <path data-name="Path 14079" d="m88.059 21.009-8.475-17.36a1.579 1.579 0 0 0-1.419-.887H76.23a1.58 1.58 0 0 0-1.58 1.58v26.705a1.58 1.58 0 0 0 1.58 1.58h1.527a1.579 1.579 0 0 0 1.58-1.58V20.456a1.58 1.58 0 0 1 3.006-.681l5.712 11.953a1.58 1.58 0 0 0 2.85 0l5.732-11.97a1.58 1.58 0 0 1 3 .683v10.606a1.58 1.58 0 0 0 1.58 1.58h1.507a1.579 1.579 0 0 0 1.58-1.58V4.342a1.58 1.58 0 0 0-1.58-1.58h-1.934a1.579 1.579 0 0 0-1.419.887L90.9 21.009a1.58 1.58 0 0 1-2.84 0" transform="translate(-12.722 -.47)" style="fill:#fcec95"/>
                <path data-name="Path 14080" d="M118.98 32.627h16.128a1.58 1.58 0 0 0 1.58-1.58v-1.528a1.579 1.579 0 0 0-1.58-1.58h-11.13a1.58 1.58 0 0 1-1.58-1.58v-5.281a1.58 1.58 0 0 1 1.58-1.58h8.641a1.58 1.58 0 0 0 1.58-1.58v-1.526a1.58 1.58 0 0 0-1.58-1.58h-8.641a1.58 1.58 0 0 1-1.58-1.58V9.03a1.58 1.58 0 0 1 1.58-1.58h11.13a1.579 1.579 0 0 0 1.58-1.58V4.342a1.58 1.58 0 0 0-1.58-1.58H118.98a1.58 1.58 0 0 0-1.58 1.58v26.705a1.58 1.58 0 0 0 1.58 1.58" transform="translate(-20.007 -.47)" style="fill:#fcec95"/>
                <path data-name="Path 14081" d="M202.484 2.762h-1.838a1.58 1.58 0 0 0-1.58 1.58v26.7a1.58 1.58 0 0 0 1.58 1.58h15.029a1.58 1.58 0 0 0 1.58-1.58v-1.523a1.579 1.579 0 0 0-1.58-1.58h-10.03a1.58 1.58 0 0 1-1.58-1.58V4.342a1.58 1.58 0 0 0-1.58-1.58" transform="translate(-33.924 -.47)" style="fill:#fcec95"/>
                <path data-name="Path 14082" d="M227.32 32.627h1.838a1.58 1.58 0 0 0 1.58-1.58V4.342a1.58 1.58 0 0 0-1.58-1.58h-1.838a1.58 1.58 0 0 0-1.579 1.58v26.705a1.58 1.58 0 0 0 1.579 1.58" transform="translate(-38.47 -.47)" style="fill:#fcec95"/>
                <path data-name="Path 14083" d="M240.845 32.627h1.838a1.58 1.58 0 0 0 1.58-1.58v-9.284a1.58 1.58 0 0 1 1.58-1.58h7.334a1.58 1.58 0 0 0 1.58-1.58v-1.818a1.58 1.58 0 0 0-1.58-1.58h-7.334a1.58 1.58 0 0 1-1.58-1.58V9.341a1.58 1.58 0 0 1 1.58-1.58h9.823a1.579 1.579 0 0 0 1.58-1.58V4.342a1.58 1.58 0 0 0-1.58-1.58h-14.821a1.58 1.58 0 0 0-1.58 1.58v26.705a1.58 1.58 0 0 0 1.58 1.58" transform="translate(-40.775 -.47)" style="fill:#fcec95"/>
                <path data-name="Path 14084" d="M284.727 5.87V4.342a1.58 1.58 0 0 0-1.579-1.58h-16.129a1.58 1.58 0 0 0-1.58 1.58v26.705a1.58 1.58 0 0 0 1.58 1.58h16.128a1.58 1.58 0 0 0 1.579-1.58v-1.528a1.58 1.58 0 0 0-1.579-1.58h-11.13a1.58 1.58 0 0 1-1.58-1.58v-5.281a1.58 1.58 0 0 1 1.58-1.58h8.641a1.58 1.58 0 0 0 1.58-1.58v-1.526a1.58 1.58 0 0 0-1.58-1.58h-8.641a1.58 1.58 0 0 1-1.58-1.58V9.03a1.58 1.58 0 0 1 1.58-1.58h11.13a1.58 1.58 0 0 0 1.579-1.58" transform="translate(-45.235 -.47)" style="fill:#fcec95"/>
                <path data-name="Path 14085" d="M14.6 32.354a15.081 15.081 0 0 1-5.678-1.072 13.462 13.462 0 0 1-4.673-3.162 14.657 14.657 0 0 1-3.132-5.1A19.591 19.591 0 0 1 0 16.177a18.482 18.482 0 0 1 1.9-8.658 13.707 13.707 0 0 1 5.231-5.578A14.584 14.584 0 0 1 14.6 0c3.8 0 6.876.908 9.129 2.7a13.389 13.389 0 0 1 4.583 7.523.622.622 0 1 1-1.208.3 12.183 12.183 0 0 0-4.149-6.848c-2.028-1.61-4.838-2.427-8.355-2.427a13.357 13.357 0 0 0-6.841 1.768A12.476 12.476 0 0 0 3 8.1a17.261 17.261 0 0 0-1.754 8.079 18.379 18.379 0 0 0 1.039 6.409 13.4 13.4 0 0 0 2.863 4.669 12.2 12.2 0 0 0 4.242 2.871 13.812 13.812 0 0 0 5.211.981 13.655 13.655 0 0 0 7.125-1.779 11.894 11.894 0 0 0 4.545-4.9 15.826 15.826 0 0 0 1.6-7.236c0-.08-.007-.33-.02-.748 0-.134-.01-.258-.016-.372h-9.38v2.675h5.365l-.1.711a11.579 11.579 0 0 1-1.541 4.525 7.486 7.486 0 0 1-3.03 2.777 9.7 9.7 0 0 1-4.242.884 9.65 9.65 0 0 1-5.351-1.5 8.789 8.789 0 0 1-3.224-4.044 15.552 15.552 0 0 1-1.043-5.929 15.682 15.682 0 0 1 1.052-5.961 8.869 8.869 0 0 1 3.224-4.07 9.228 9.228 0 0 1 5.355-1.413 8.112 8.112 0 0 1 5.3 1.728 9.468 9.468 0 0 1 2.98 4.532.622.622 0 0 1-1.185.379 8.262 8.262 0 0 0-2.582-3.95 6.915 6.915 0 0 0-4.52-1.444 7.929 7.929 0 0 0-4.649 1.2 7.645 7.645 0 0 0-2.771 3.517 14.444 14.444 0 0 0-.959 5.488 14.348 14.348 0 0 0 .948 5.455 7.582 7.582 0 0 0 2.769 3.486 8.442 8.442 0 0 0 4.669 1.28 8.2 8.2 0 0 0 3.678-.755 6.248 6.248 0 0 0 2.529-2.325 9.728 9.728 0 0 0 1.241-3.328h-5.154v-5.163h11.748l.068.545c.029.234.052.578.067 1.031s.021.7.021.788a17.066 17.066 0 0 1-1.737 7.8 13.143 13.143 0 0 1-5.015 5.407 14.89 14.89 0 0 1-7.766 1.954" style="fill:#002b47"/>
                <path data-name="Path 14086" d="M40.866 31.859a.639.639 0 0 1-.187-.028.624.624 0 0 1-.407-.781l2.175-6.905h12.676l2.063 6.471h3.84L52 1.994h-6.406l-9.278 29.43a.622.622 0 0 1-1.187-.374L44.683.75h8.233l9.808 31.109h-6.446l-2.064-6.471H43.361l-1.9 6.035a.622.622 0 0 1-.593.436m13.164-11.137H43.526l5.221-16.573zm-8.809-1.244h7.106l-3.575-11.21z" transform="translate(-5.982 -.127)" style="fill:#002b47"/>
                <path data-name="Path 14087" d="M101.4 31.859a.622.622 0 0 1-.622-.622V1.994h-3.486l-10.717 21.95-10.717-21.95h-3.49v28.621h3.443V9.349l10.16 21.266h1.208L97.36 9.354v21.883a.622.622 0 1 1-1.244 0v-16.4l-8.153 17.022h-2.776L77.056 14.84v17.02h-5.932V.75h5.512l9.939 20.359L96.514.75h5.512v30.487a.622.622 0 0 1-.622.622" transform="translate(-12.121 -.127)" style="fill:#002b47"/>
                <path data-name="Path 14088" d="M134.406 31.859h-20.532V.75h19.91a.622.622 0 1 1 0 1.244h-18.666v28.621h18.043v-3.443h-14.29v-9.685h11.8v-3.443h-11.8V5.437h14.912a.622.622 0 1 1 0 1.244h-13.666V12.8h11.8v5.932h-11.8v7.2h14.29z" transform="translate(-19.406 -.127)" style="fill:#002b47"/>
                <path data-name="Path 14089" d="M214.973 31.859H195.54V1.372a.622.622 0 1 1 1.244 0v29.243h16.944v-3.443h-13.19v-25.8a.622.622 0 1 1 1.244 0v24.556h13.19z" transform="translate(-33.323 -.127)" style="fill:#002b47"/>
                <path data-name="Path 14090" d="M227.835 31.859a.622.622 0 0 1-.622-.622V1.994h-3.753v29.243a.622.622 0 1 1-1.244 0V.75h6.242v30.487a.622.622 0 0 1-.622.622" transform="translate(-37.869 -.127)" style="fill:#002b47"/>
                <path data-name="Path 14091" d="M241.982 31.859h-6.242V.75h19.225v6.243h-12.983v6.2h9.872a.622.622 0 1 1 0 1.244h-11.117V5.748h12.983V1.994h-16.736v28.621h3.753V18.171h11.116a.622.622 0 1 1 0 1.244h-9.872z" transform="translate(-40.174 -.127)" style="fill:#002b47"/>
                <path data-name="Path 14092" d="M282.446 31.859h-20.532V.75h20.532v5.932h-14.29V12.8h11.179a.622.622 0 1 1 0 1.244h-12.423V5.437H281.2V1.994h-18.042v28.621H281.2v-3.443h-14.29v-9.685h12.423a.622.622 0 1 1 0 1.244h-11.176v7.2h14.29z" transform="translate(-44.635 -.127)" style="fill:#002b47"/>
                <path data-name="Path 14093" d="M162.573 9.641a9.777 9.777 0 0 0-9.369 0 7.864 7.864 0 0 0-2.992 3.335 11.172 11.172 0 0 0-1.044 4.959 11.173 11.173 0 0 0 1.044 4.96 7.862 7.862 0 0 0 2.988 3.335 9.777 9.777 0 0 0 9.369 0 7.85 7.85 0 0 0 3-3.334 11.185 11.185 0 0 0 1.044-4.96 11.184 11.184 0 0 0-1.044-4.959 7.852 7.852 0 0 0-3-3.335m.2 11.787a5 5 0 0 1-1.835 2.315 5.283 5.283 0 0 1-3.055.81 5.488 5.488 0 0 1-3.055-.848 4.965 4.965 0 0 1-1.828-2.3 9.083 9.083 0 0 1-.607-3.473 9.149 9.149 0 0 1 .613-3.493 5.014 5.014 0 0 1 1.828-2.315 5.255 5.255 0 0 1 3.05-.811 5.5 5.5 0 0 1 3.055.848 5.012 5.012 0 0 1 1.835 2.3 9 9 0 0 1 .614 3.473 9.147 9.147 0 0 1-.614 3.493" transform="translate(-25.421 -1.439)" style="fill:#fcec95"/>
                <path data-name="Path 14094" d="M174.214 27.124h1.122a.964.964 0 0 0 .964-.964V20.5a.964.964 0 0 1 .964-.964h4.474a.964.964 0 0 0 .964-.964v-1.113a.964.964 0 0 0-.964-.964h-4.474a.964.964 0 0 1-.964-.964v-2.613a.964.964 0 0 1 .964-.964h5.993a.964.964 0 0 0 .963-.964V9.868a.964.964 0 0 0-.963-.964h-9.042a.964.964 0 0 0-.964.964V26.16a.964.964 0 0 0 .964.964" transform="translate(-29.525 -1.517)" style="fill:#fcec95"/>
                <path data-name="Path 14095" d="M156.081 27.083a9.356 9.356 0 0 1-4.964-1.275 8.431 8.431 0 0 1-3.194-3.557 11.76 11.76 0 0 1-1.1-5.2 11.757 11.757 0 0 1 1.1-5.2 8.427 8.427 0 0 1 3.194-3.551 10.306 10.306 0 0 1 9.933 0 8.414 8.414 0 0 1 3.2 3.558 11.757 11.757 0 0 1 1.1 5.2 11.76 11.76 0 0 1-1.1 5.2 8.422 8.422 0 0 1-3.2 3.558 9.391 9.391 0 0 1-4.969 1.274m0-18.979a8.293 8.293 0 0 0-4.4 1.116 7.367 7.367 0 0 0-2.789 3.112 10.7 10.7 0 0 0-.99 4.723 10.7 10.7 0 0 0 .99 4.723 7.376 7.376 0 0 0 2.789 3.112 9.248 9.248 0 0 0 8.806 0 7.352 7.352 0 0 0 2.8-3.111 10.7 10.7 0 0 0 .99-4.723 10.7 10.7 0 0 0-.99-4.723 7.353 7.353 0 0 0-2.8-3.111 8.317 8.317 0 0 0-4.406-1.129m.057 16.107h-.061a6.041 6.041 0 0 1-3.352-.94 5.53 5.53 0 0 1-2.027-2.539 9.673 9.673 0 0 1-.648-3.678 9.733 9.733 0 0 1 .654-3.7 5.574 5.574 0 0 1 2.026-2.55 6.563 6.563 0 0 1 6.709.037.539.539 0 0 1-.6.894 5 5 0 0 0-2.762-.756h-.048a4.727 4.727 0 0 0-2.691.718 4.517 4.517 0 0 0-1.632 2.074 8.644 8.644 0 0 0-.572 3.288 8.579 8.579 0 0 0 .567 3.268 4.461 4.461 0 0 0 1.63 2.055 4.992 4.992 0 0 0 2.762.755h.054a4.742 4.742 0 0 0 2.694-.718 4.509 4.509 0 0 0 1.638-2.073 8.681 8.681 0 0 0 .572-3.287.54.54 0 0 1 1.079 0 9.748 9.748 0 0 1-.654 3.7 5.554 5.554 0 0 1-2.032 2.557 5.8 5.8 0 0 1-3.3.9" transform="translate(-25.021 -1.197)" style="fill:#002b47"/>
                <path data-name="Path 14096" d="M175.035 26.782h-4.129V7.483h11.509a.54.54 0 1 1 0 1.079h-10.43V25.7h1.97v-7.588h6.4v-1.958h-6.4v-5.621h8.459a.54.54 0 1 1 0 1.079h-7.38v3.464h6.4v4.116h-6.4z" transform="translate(-29.125 -1.275)" style="fill:#002b47"/>
                <path data-name="Path 14097" d="M179.671 1.485h-32.282a.622.622 0 0 1 0-1.244h32.282a.622.622 0 1 1 0 1.244" transform="translate(-25.012 -.041)" style="fill:#002b47"/>
                <path data-name="Path 14098" d="M179.671 38.03h-32.282a.622.622 0 0 1 0-1.244h32.282a.622.622 0 1 1 0 1.244" transform="translate(-25.012 -6.269)" style="fill:#002b47"/>
            </g>
        </g>
    </g>
</svg>
