<svg xmlns="http://www.w3.org/2000/svg" width="36.336" height="69.424" viewBox="0 0 36.336 69.424">
    <defs>
        <clipPath id="qumw0q7hua">
            <path data-name="Rectangle 23990" style="fill:none" d="M0 0h36.336v69.424H0z"/>
        </clipPath>
    </defs>
    <g data-name="Group 23493">
        <g data-name="Group 23492" style="clip-path:url(#qumw0q7hua)">
            <path data-name="Path 14347" d="m26.685 68.516 7.9-2.721a2.593 2.593 0 0 0 1.608-3.3l-.219-.636a2.593 2.593 0 0 0-3.3-1.608l-10.35 3.569 1.064 3.088a2.594 2.594 0 0 0 3.3 1.608" style="fill:#002b49"/>
            <path data-name="Path 14348" d="m25.756 43.749-6.9 2.378a2.23 2.23 0 0 0-1.383 2.835l2.917 8.47 1.446 4.2.726 2.109 2.11-.726 1.9-.654 5.005-1.724a2.23 2.23 0 0 0 1.378-2.837l-4.363-12.668a2.231 2.231 0 0 0-2.836-1.383" style="fill:#065982"/>
            <path data-name="Path 14349" d="m25.756 43.749-6.9 2.378a2.23 2.23 0 0 0-1.383 2.835l2.917 8.47 1.446 4.2.726 2.109 2.11-.726 1.9-.654 5.005-1.724a2.23 2.23 0 0 0 1.378-2.837l-4.363-12.668a2.231 2.231 0 0 0-2.836-1.383z" style="stroke-miterlimit:10;stroke:#002b49;stroke-width:.5px;fill:none"/>
            <path data-name="Path 14350" d="M21.52 53.548h-3.325a9.236 9.236 0 0 1-9.236-9.236v-7.365a9.236 9.236 0 0 1 9.236-9.235h3.325a9.236 9.236 0 0 1 9.236 9.235v7.365a9.236 9.236 0 0 1-9.236 9.236" style="fill:#0095f0"/>
            <path data-name="Rectangle 23988" d="M9.236 0h3.325A9.236 9.236 0 0 1 21.8 9.236V16.6a9.235 9.235 0 0 1-9.235 9.235H9.236A9.236 9.236 0 0 1 0 16.6V9.236A9.236 9.236 0 0 1 9.236 0z" transform="translate(8.959 27.712)" style="stroke-miterlimit:10;stroke:#002b49;stroke-width:.5px;fill:none"/>
            <path data-name="Path 14351" d="m2.055 64.508 7.038 4.506a2.6 2.6 0 0 0 3.583-.786l.363-.567a2.6 2.6 0 0 0-.786-3.583l-9.223-5.9-1.761 2.747a2.594 2.594 0 0 0 .786 3.583" style="fill:#002b49"/>
            <path data-name="Path 14352" d="m11.666 45.146-4.83 7.544-2.393 3.739-1.2 1.879 1.879 1.2 1.688 1.085 4.458 2.854a2.229 2.229 0 0 0 3.081-.676l7.224-11.283" style="fill:#0095f0"/>
            <path data-name="Path 14353" d="m11.666 45.146-4.83 7.544-2.393 3.739-1.2 1.879 1.879 1.2 1.688 1.085 4.458 2.854a2.229 2.229 0 0 0 3.081-.676l7.224-11.283" style="stroke-miterlimit:10;stroke:#002b49;stroke-width:.5px;fill:none"/>
            <path data-name="Path 14354" d="M1.593 38.194a4.619 4.619 0 0 0 6.513 0l9.967-9.968-6.512-6.512-9.968 9.967a4.619 4.619 0 0 0 0 6.513" style="fill:#fff"/>
            <path data-name="Path 14355" d="M1.593 38.194a4.619 4.619 0 0 0 6.513 0l9.967-9.968-6.512-6.512-9.968 9.967a4.619 4.619 0 0 0 0 6.513z" style="stroke-miterlimit:10;stroke:#002b49;stroke-width:.5px;fill:none"/>
            <path data-name="Path 14356" d="M30.551 44.015H8.943V24.432A3.836 3.836 0 0 1 12.78 20.6h13.934a3.836 3.836 0 0 1 3.837 3.836z" style="fill:#fd0"/>
            <path data-name="Path 14357" d="M30.551 44.015H8.943V24.432A3.836 3.836 0 0 1 12.78 20.6h13.934a3.836 3.836 0 0 1 3.837 3.836z" style="stroke-miterlimit:10;stroke:#002b49;stroke-width:.5px;fill:none"/>
            <path data-name="Path 14358" d="M25.4 20.6v7.878L16.023 20.6z" style="fill:#fff"/>
            <path data-name="Path 14359" d="M25.4 20.6v7.878L16.023 20.6z" style="stroke-miterlimit:10;stroke:#002b49;stroke-width:.5px;fill:none"/>
            <path data-name="Path 14360" d="M17.347 20.6h6.718a5.417 5.417 0 0 0 5.417-5.417V5.7A5.417 5.417 0 0 0 24.065.284h-6.718A5.417 5.417 0 0 0 11.93 5.7v9.478a5.417 5.417 0 0 0 5.417 5.422" style="fill:#fff"/>
            <rect data-name="Rectangle 23989" width="17.552" height="20.312" rx="5.417" transform="translate(11.93 .284)" style="stroke-miterlimit:10;stroke:#002b49;stroke-width:.5px;fill:none"/>
            <path data-name="Path 14361" d="M16.353 8.385h8.982a4.754 4.754 0 0 0 4.754-4.755V0H16.353a4.193 4.193 0 0 0 0 8.385" style="fill:#002b49"/>
            <path data-name="Path 14362" d="M15.518 12.942a3.6 3.6 0 0 0 3.6-3.6V3.888a3.6 3.6 0 0 0-7.208 0v5.45a3.6 3.6 0 0 0 3.6 3.6" style="fill:#002b49"/>
            <path data-name="Path 14363" d="M12.983 15.841a2.534 2.534 0 0 1-2.534-2.534v-2.344a2.534 2.534 0 1 1 5.068 0v1.925" style="fill:#fff"/>
            <path data-name="Path 14364" d="M12.983 15.841a2.534 2.534 0 0 1-2.534-2.534v-2.344a2.534 2.534 0 1 1 5.068 0v1.925" style="stroke:#002b49;stroke-width:.5px;fill:none"/>
            <path data-name="Path 14365" d="M23.631 16.132h3.5a1.188 1.188 0 0 0 1.188-1.188v-.027a1.188 1.188 0 0 0-1.188-1.188h-3.5a1.188 1.188 0 0 0-1.188 1.188v.027a1.188 1.188 0 0 0 1.188 1.188" style="fill:#002b49"/>
            <path data-name="Path 14366" d="M23.889 10.471a.679.679 0 1 0-.678.678.678.678 0 0 0 .678-.678" style="fill:#002b49"/>
            <path data-name="Path 14367" d="M28.657 10.471a.679.679 0 1 0-.678.678.678.678 0 0 0 .678-.678" style="fill:#002b49"/>
            <path data-name="Line 808" transform="translate(24.515 16.744)" style="fill:#fff" d="M0 0h2.109"/>
            <path data-name="Line 809" transform="translate(24.515 16.744)" style="stroke-linecap:round;stroke-miterlimit:10;stroke:#002b49;stroke-width:.5px;fill:none" d="M0 0h2.109"/>
            <path data-name="Path 14368" d="M30.243 43.244a4.619 4.619 0 0 1-6.513 0l-9.967-9.968 6.512-6.512 9.968 9.967a4.619 4.619 0 0 1 0 6.513" style="fill:#fff"/>
            <path data-name="Path 14369" d="M30.243 43.244a4.619 4.619 0 0 1-6.513 0l-9.967-9.968 6.512-6.512 9.968 9.967a4.619 4.619 0 0 1 0 6.513z" style="stroke-miterlimit:10;stroke:#002b49;stroke-width:.5px;fill:none"/>
            <path data-name="Path 14370" d="m16.7 23.134 3.588 3.588-6.566 6.568-3.588-3.59" style="fill:#fd0"/>
            <path data-name="Path 14371" d="m16.7 23.134 3.588 3.588-6.566 6.568-3.588-3.59" style="stroke-miterlimit:10;stroke:#002b49;stroke-width:.5px;fill:none"/>
        </g>
    </g>
</svg>
