<svg xmlns="http://www.w3.org/2000/svg" width="45" height="70" viewBox="0 0 45 70">
    <defs>
        <clipPath id="uqgdf9x5pa">
            <path data-name="Rectangle 23993" style="fill:none" d="M0 0h44.742v69.345H0z"/>
        </clipPath>
    </defs>
    <g data-name="Group 23496">
        <g data-name="Group 23495">
            <g data-name="Group 23494" style="clip-path:url(#uqgdf9x5pa)">
                <path data-name="Path 14372" d="m7.327 60.753 5.512 6.281a2.593 2.593 0 0 0 3.66.239L17 66.83a2.6 2.6 0 0 0 .239-3.661l-7.223-8.231-2.45 2.155a2.593 2.593 0 0 0-.239 3.66" style="fill:#002b49"/>
                <path data-name="Path 14373" d="m29.9 50.511-4.815-5.488a2.232 2.232 0 0 0-3.149-.2L15.2 50.726l-3.337 2.928-1.677 1.471 1.471 1.675 1.324 1.509 3.491 3.979a2.232 2.232 0 0 0 3.149.2l10.07-8.836a2.23 2.23 0 0 0 .2-3.148" style="fill:#065982"/>
                <path data-name="Path 14374" d="m29.9 50.511-4.815-5.488a2.232 2.232 0 0 0-3.149-.2L15.2 50.726l-3.337 2.928-1.677 1.471 1.471 1.675 1.324 1.509 3.491 3.979a2.232 2.232 0 0 0 3.149.2l10.07-8.836a2.23 2.23 0 0 0 .209-3.141z" style="stroke-miterlimit:10;stroke:#002b49;stroke-width:.5px;fill:none"/>
                <path data-name="Path 14375" d="M26.975 53.548H23.65a9.236 9.236 0 0 1-9.236-9.236v-7.365a9.236 9.236 0 0 1 9.236-9.235h3.325a9.236 9.236 0 0 1 9.236 9.235v7.365a9.236 9.236 0 0 1-9.236 9.236" style="fill:#0095f0"/>
                <path data-name="Rectangle 23991" d="M9.236 0h3.325A9.236 9.236 0 0 1 21.8 9.236V16.6a9.235 9.235 0 0 1-9.235 9.235H9.236A9.236 9.236 0 0 1 0 16.6V9.236A9.236 9.236 0 0 1 9.236 0z" transform="translate(14.414 27.712)" style="stroke-miterlimit:10;stroke:#002b49;stroke-width:.5px;fill:none"/>
                <path data-name="Path 14376" d="m30.382 69.135 7.685-3.284a2.6 2.6 0 0 0 1.366-3.4l-.265-.619a2.594 2.594 0 0 0-3.4-1.366l-10.07 4.3 1.284 3a2.594 2.594 0 0 0 3.4 1.366" style="fill:#002b49"/>
                <path data-name="Path 14377" d="m19.781 50.3 3.52 8.237 1.744 4.082.877 2.052 2.052-.877L29.82 63l4.867-2.08a2.231 2.231 0 0 0 1.175-2.928L30.6 45.675" style="fill:#0095f0"/>
                <path data-name="Path 14378" d="m19.781 50.3 3.52 8.237 1.744 4.082.877 2.052 2.052-.877L29.82 63l4.867-2.08a2.231 2.231 0 0 0 1.175-2.928L30.6 45.675" style="stroke-miterlimit:10;stroke:#002b49;stroke-width:.5px;fill:none"/>
                <path data-name="Path 14379" d="M43.149 38.858a4.619 4.619 0 0 0 0-6.513l-9.968-9.968-6.512 6.513 9.967 9.968a4.619 4.619 0 0 0 6.513 0" style="fill:#fff"/>
                <path data-name="Path 14380" d="M43.149 38.858a4.619 4.619 0 0 0 0-6.513l-9.968-9.968-6.512 6.513 9.967 9.968a4.619 4.619 0 0 0 6.513 0z" style="stroke-miterlimit:10;stroke:#002b49;stroke-width:.5px;fill:none"/>
                <path data-name="Path 14381" d="M36.205 44.015H14.6V24.432a3.836 3.836 0 0 1 3.834-3.832h13.934a3.836 3.836 0 0 1 3.837 3.836z" style="fill:#fd0"/>
                <path data-name="Path 14382" d="M36.205 44.015H14.6V24.432a3.836 3.836 0 0 1 3.834-3.832h13.934a3.836 3.836 0 0 1 3.837 3.836z" style="stroke-miterlimit:10;stroke:#002b49;stroke-width:.5px;fill:none"/>
                <path data-name="Path 14383" d="M31.057 20.6v7.878l-9.38-7.878z" style="fill:#fff"/>
                <path data-name="Path 14384" d="M31.057 20.6v7.878l-9.38-7.878z" style="stroke-miterlimit:10;stroke:#002b49;stroke-width:.5px;fill:none"/>
                <path data-name="Path 14385" d="M23 20.6h6.718a5.417 5.417 0 0 0 5.417-5.417V5.7A5.417 5.417 0 0 0 29.719.284H23A5.417 5.417 0 0 0 17.584 5.7v9.478A5.417 5.417 0 0 0 23 20.6" style="fill:#fff"/>
                <rect data-name="Rectangle 23992" width="17.552" height="20.312" rx="5.417" transform="translate(17.584 .284)" style="stroke-miterlimit:10;stroke:#002b49;stroke-width:.5px;fill:none"/>
                <path data-name="Path 14386" d="M22.007 8.385h8.982a4.754 4.754 0 0 0 4.754-4.755V0H22.007a4.193 4.193 0 0 0 0 8.385" style="fill:#002b49"/>
                <path data-name="Path 14387" d="M21.171 12.942a3.6 3.6 0 0 0 3.6-3.6V3.888a3.6 3.6 0 0 0-7.208 0v5.45a3.6 3.6 0 0 0 3.6 3.6" style="fill:#002b49"/>
                <path data-name="Path 14388" d="M18.638 15.841a2.533 2.533 0 0 1-2.538-2.534v-2.344a2.533 2.533 0 1 1 5.067 0v1.925" style="fill:#fff"/>
                <path data-name="Path 14389" d="M18.638 15.841a2.533 2.533 0 0 1-2.538-2.534v-2.344a2.533 2.533 0 1 1 5.067 0v1.925" style="stroke:#002b49;stroke-width:.5px;fill:none"/>
                <path data-name="Path 14390" d="M29.285 16.132h3.5a1.188 1.188 0 0 0 1.188-1.188v-.027a1.188 1.188 0 0 0-1.188-1.188h-3.5a1.188 1.188 0 0 0-1.185 1.188v.027a1.188 1.188 0 0 0 1.188 1.188" style="fill:#002b49"/>
                <path data-name="Path 14391" d="M29.543 10.471a.678.678 0 1 0-.678.678.678.678 0 0 0 .678-.678" style="fill:#002b49"/>
                <path data-name="Path 14392" d="M34.311 10.471a.679.679 0 1 0-.678.678.678.678 0 0 0 .678-.678" style="fill:#002b49"/>
                <path data-name="Line 810" transform="translate(30.169 16.744)" style="fill:#fff" d="M0 0h2.109"/>
                <path data-name="Line 811" transform="translate(30.169 16.744)" style="stroke-linecap:round;stroke-miterlimit:10;stroke:#002b49;stroke-width:.5px;fill:none" d="M0 0h2.109"/>
                <path data-name="Path 14393" d="M1.314 41.232a4.618 4.618 0 0 1 .586-6.486l10.823-9.031 5.9 7.071L7.8 41.818a4.619 4.619 0 0 1-6.486-.586" style="fill:#fff"/>
                <path data-name="Path 14394" d="M1.314 41.232a4.618 4.618 0 0 1 .586-6.486l10.823-9.031 5.9 7.071L7.8 41.818a4.619 4.619 0 0 1-6.486-.586z" style="stroke-miterlimit:10;stroke:#002b49;stroke-width:.5px;fill:none"/>
                <path data-name="Path 14395" d="m22.56 29.554-3.9 3.251-5.951-7.132 3.9-3.251" style="fill:#fd0"/>
                <path data-name="Path 14396" d="m22.56 29.554-3.9 3.251-5.951-7.132 3.9-3.251" style="stroke-miterlimit:10;stroke:#002b49;stroke-width:.5px;fill:none"/>
            </g>
        </g>
    </g>
</svg>
