<svg xmlns="http://www.w3.org/2000/svg" width="78.135" height="63.127" viewBox="0 0 78.135 63.127">
    <g data-name="Group 30" transform="translate(-386.217 -514.619)">
        <path data-name="Path 10" d="M462.413 237.248c.129.375.443.968.774.968.5 0 .915-.732.915-1.635s-.41-1.636-.915-1.636c-.3 0-.6.522-.734.838l-3.394-.1a15.576 15.576 0 0 0-1.615-6.152l4.471-2.757c.328.286.954.678 1.269.5.482-.278.469-1.2-.027-2.061s-1.29-1.332-1.772-1.054c-.284.164-.284.826-.238 1.2l-4.654 2.51a15.743 15.743 0 0 0-4.522-4.48l1.587-2.943c.389.076 1.059.1 1.225-.186.253-.438-.176-1.159-.959-1.611s-1.62-.463-1.873-.024c-.15.258.151.78.358 1.053l-1.778 2.883a15.573 15.573 0 0 0-6.139-1.664l-.153-5.256c.413-.141 1.065-.487 1.065-.851 0-.556-.8-1.007-1.8-1.007s-1.8.451-1.8 1.007c0 .329.573.66.921.807l-.154 5.3a15.561 15.561 0 0 0-6.139 1.665l-1.757-2.849c.26-.3.617-.868.451-1.154-.252-.438-1.091-.427-1.874.025s-1.211 1.172-.958 1.61c.15.259.751.259 1.092.217l1.607 2.979a15.743 15.743 0 0 0-4.523 4.479l-4.615-2.488c.084-.428.11-1.166-.2-1.348-.481-.278-1.275.194-1.771 1.054s-.509 1.783-.027 2.061c.284.165.858-.166 1.159-.393l4.509 2.78a15.551 15.551 0 0 0-1.615 6.151l-3.354.1c-.129-.376-.444-.968-.774-.968-.506 0-.916.732-.916 1.635s.41 1.635.916 1.635c.3 0 .6-.521.733-.837l3.4.1a15.551 15.551 0 0 0 1.615 6.151l-4.471 2.758c-.329-.286-.954-.678-1.269-.5-.482.278-.47 1.2.027 2.061s1.29 1.332 1.771 1.054c.285-.165.285-.827.239-1.2l4.653-2.511a15.734 15.734 0 0 0 4.523 4.48l-1.587 2.944c-.389-.076-1.06-.1-1.225.186-.253.438.176 1.159.958 1.61s1.621.463 1.874.025c.149-.259-.151-.78-.358-1.054l1.778-2.883a15.552 15.552 0 0 0 6.139 1.665l.153 5.255c-.413.142-1.065.488-1.065.851 0 .556.805 1.008 1.8 1.008s1.8-.452 1.8-1.008c0-.328-.574-.659-.921-.806l.153-5.3a15.578 15.578 0 0 0 6.14-1.665l1.757 2.849c-.261.3-.617.867-.452 1.154.253.438 1.092.427 1.874-.025s1.211-1.173.959-1.611c-.15-.258-.752-.258-1.092-.216l-1.607-2.979a15.746 15.746 0 0 0 4.523-4.48l4.615 2.489c-.084.428-.111 1.165.2 1.347.482.278 1.275-.194 1.772-1.054s.509-1.783.027-2.061c-.285-.164-.858.167-1.159.394l-4.509-2.78a15.551 15.551 0 0 0 1.615-6.151z" transform="translate(0 318.247)" style="fill:#1272e2"/>
        <path data-name="Path 11" d="M462.413 237.248c.129.375.443.968.774.968.5 0 .915-.732.915-1.635s-.41-1.636-.915-1.636c-.3 0-.6.522-.734.838l-3.394-.1a15.576 15.576 0 0 0-1.615-6.152l4.471-2.757c.328.286.954.678 1.269.5.482-.278.469-1.2-.027-2.061s-1.29-1.332-1.772-1.054c-.284.164-.284.826-.238 1.2l-4.654 2.51a15.743 15.743 0 0 0-4.522-4.48l1.587-2.943c.389.076 1.059.1 1.225-.186.253-.438-.176-1.159-.959-1.611s-1.62-.463-1.873-.024c-.15.258.151.78.358 1.053l-1.778 2.883a15.573 15.573 0 0 0-6.139-1.664l-.153-5.256c.413-.141 1.065-.487 1.065-.851 0-.556-.8-1.007-1.8-1.007s-1.8.451-1.8 1.007c0 .329.573.66.921.807l-.154 5.3a15.561 15.561 0 0 0-6.139 1.665l-1.757-2.849c.26-.3.617-.868.451-1.154-.252-.438-1.091-.427-1.874.025s-1.211 1.172-.958 1.61c.15.259.751.259 1.092.217l1.607 2.979a15.743 15.743 0 0 0-4.523 4.479l-4.615-2.488c.084-.428.11-1.166-.2-1.348-.481-.278-1.275.194-1.771 1.054s-.509 1.783-.027 2.061c.284.165.858-.166 1.159-.393l4.509 2.78a15.551 15.551 0 0 0-1.615 6.151l-3.354.1c-.129-.376-.444-.968-.774-.968-.506 0-.916.732-.916 1.635s.41 1.635.916 1.635c.3 0 .6-.521.733-.837l3.4.1a15.551 15.551 0 0 0 1.615 6.151l-4.471 2.758c-.329-.286-.954-.678-1.269-.5-.482.278-.47 1.2.027 2.061s1.29 1.332 1.771 1.054c.285-.165.285-.827.239-1.2l4.653-2.511a15.734 15.734 0 0 0 4.523 4.48l-1.587 2.944c-.389-.076-1.06-.1-1.225.186-.253.438.176 1.159.958 1.61s1.621.463 1.874.025c.149-.259-.151-.78-.358-1.054l1.778-2.883a15.552 15.552 0 0 0 6.139 1.665l.153 5.255c-.413.142-1.065.488-1.065.851 0 .556.805 1.008 1.8 1.008s1.8-.452 1.8-1.008c0-.328-.574-.659-.921-.806l.153-5.3a15.578 15.578 0 0 0 6.14-1.665l1.757 2.849c-.261.3-.617.867-.452 1.154.253.438 1.092.427 1.874-.025s1.211-1.173.959-1.611c-.15-.258-.752-.258-1.092-.216l-1.607-2.979a15.746 15.746 0 0 0 4.523-4.48l4.615 2.489c-.084.428-.111 1.165.2 1.347.482.278 1.275-.194 1.772-1.054s.509-1.783.027-2.061c-.285-.164-.858.167-1.159.394l-4.509-2.78a15.551 15.551 0 0 0 1.615-6.151z" transform="translate(0 318.247)" style="fill:none;stroke:#002b49;stroke-miterlimit:10;stroke-width:.5px"/>
        <path data-name="Path 12" d="M444.653 224.554a1.615 1.615 0 1 1-1.613-1.536 1.576 1.576 0 0 1 1.613 1.536" transform="translate(0 318.247)" style="fill:#fff"/>
        <ellipse data-name="Ellipse 1" cx="1.613" cy="1.536" rx="1.613" ry="1.536" transform="translate(441.427 541.265)" style="fill:none;stroke:#002b49;stroke-miterlimit:10;stroke-width:.5px"/>
        <path data-name="Path 13" d="M434.909 236.976a1.615 1.615 0 1 1-1.613-1.536 1.576 1.576 0 0 1 1.613 1.536" transform="translate(0 318.247)" style="fill:#fff"/>
        <ellipse data-name="Ellipse 2" cx="1.613" cy="1.536" rx="1.613" ry="1.536" transform="translate(431.683 553.687)" style="fill:none;stroke:#002b49;stroke-miterlimit:10;stroke-width:.5px"/>
        <path data-name="Path 14" d="M442.128 232.982a1.615 1.615 0 1 1-1.613-1.536 1.576 1.576 0 0 1 1.613 1.536" transform="translate(0 318.247)" style="fill:#fff"/>
        <ellipse data-name="Ellipse 3" cx="1.613" cy="1.536" rx="1.613" ry="1.536" transform="translate(438.902 549.693)" style="fill:none;stroke:#002b49;stroke-miterlimit:10;stroke-width:.5px"/>
        <path data-name="Path 15" d="M438.365 246.346a1.615 1.615 0 1 1-1.613-1.536 1.576 1.576 0 0 1 1.613 1.536" transform="translate(0 318.247)" style="fill:#fff"/>
        <ellipse data-name="Ellipse 4" cx="1.613" cy="1.536" rx="1.613" ry="1.536" transform="translate(435.139 563.057)" style="fill:none;stroke:#002b49;stroke-miterlimit:10;stroke-width:.5px"/>
        <path data-name="Path 16" d="M455.952 239.894a1.615 1.615 0 1 1-1.613-1.536 1.576 1.576 0 0 1 1.613 1.536" transform="translate(0 318.247)" style="fill:#fff"/>
        <ellipse data-name="Ellipse 5" cx="1.613" cy="1.536" rx="1.613" ry="1.536" transform="translate(452.726 556.605)" style="fill:none;stroke:#002b49;stroke-miterlimit:10;stroke-width:.5px"/>
        <path data-name="Path 17" d="M444.411 241.993a1.615 1.615 0 1 1-1.613-1.536 1.576 1.576 0 0 1 1.613 1.536" transform="translate(0 318.247)" style="fill:#fff"/>
        <ellipse data-name="Ellipse 6" cx="1.613" cy="1.536" rx="1.613" ry="1.536" transform="translate(441.185 558.704)" style="fill:none;stroke:#002b49;stroke-miterlimit:10;stroke-width:.5px"/>
        <path data-name="Path 18" d="M449.633 235.849a1.615 1.615 0 1 1-1.613-1.536 1.576 1.576 0 0 1 1.613 1.536" transform="translate(0 318.247)" style="fill:#fff"/>
        <ellipse data-name="Ellipse 7" cx="1.613" cy="1.536" rx="1.613" ry="1.536" transform="translate(446.407 552.56)" style="fill:none;stroke:#002b49;stroke-miterlimit:10;stroke-width:.5px"/>
        <path data-name="Path 19" d="M453.53 228.693a1.615 1.615 0 1 1-1.613-1.536 1.576 1.576 0 0 1 1.613 1.536" transform="translate(0 318.247)" style="fill:#fff"/>
        <ellipse data-name="Ellipse 8" cx="1.613" cy="1.536" rx="1.613" ry="1.536" transform="translate(450.304 545.404)" style="fill:none;stroke:#002b49;stroke-miterlimit:10;stroke-width:.5px"/>
        <path data-name="Path 20" d="M449.808 247.114a1.615 1.615 0 1 1-1.613-1.536 1.576 1.576 0 0 1 1.613 1.536" transform="translate(0 318.247)" style="fill:#fff"/>
        <ellipse data-name="Ellipse 9" cx="1.613" cy="1.536" rx="1.613" ry="1.536" transform="translate(446.582 563.825)" style="fill:none;stroke:#002b49;stroke-miterlimit:10;stroke-width:.5px"/>
        <path data-name="Path 21" d="M436.6 227.3a1.615 1.615 0 1 1-1.613-1.536 1.577 1.577 0 0 1 1.613 1.536" transform="translate(0 318.247)" style="fill:#fff"/>
        <ellipse data-name="Ellipse 10" cx="1.613" cy="1.536" rx="1.613" ry="1.536" transform="translate(433.372 544.01)" style="fill:none;stroke:#002b49;stroke-miterlimit:10;stroke-width:.5px"/>
        <path data-name="Path 22" d="M412.406 211.974c.084.245.29.633.506.633.331 0 .6-.479.6-1.069s-.268-1.07-.6-1.07c-.195 0-.392.341-.48.547l-2.22-.064a10.179 10.179 0 0 0-1.057-4.024l2.925-1.8c.215.187.624.444.83.325.316-.182.308-.786-.017-1.349s-.844-.871-1.159-.689c-.186.107-.187.54-.156.785l-3.045 1.643a10.29 10.29 0 0 0-2.959-2.931l1.039-1.926c.254.05.693.066.8-.122.166-.286-.115-.758-.627-1.053s-1.06-.3-1.226-.016c-.1.169.1.51.235.689l-1.163 1.886a10.178 10.178 0 0 0-4.016-1.088l-.1-3.439c.27-.093.7-.319.7-.557 0-.364-.527-.659-1.177-.659s-1.176.3-1.176.659c0 .215.375.432.6.528l-.1 3.468a10.168 10.168 0 0 0-4.016 1.088L394.2 200.5c.17-.2.4-.568.295-.755-.165-.287-.714-.279-1.226.016s-.792.767-.626 1.054c.1.169.491.169.714.141l1.051 1.949a10.3 10.3 0 0 0-2.959 2.931l-3.019-1.628c.055-.28.072-.763-.134-.882-.315-.182-.834.127-1.159.69s-.333 1.166-.017 1.348c.186.108.561-.109.758-.258l2.949 1.819a10.194 10.194 0 0 0-1.056 4.025l-2.194.063c-.085-.245-.29-.633-.507-.633-.33 0-.6.479-.6 1.07s.269 1.07.6 1.07c.2 0 .393-.341.48-.548l2.221.064a10.178 10.178 0 0 0 1.057 4.024l-2.925 1.8c-.215-.187-.625-.443-.831-.324-.315.182-.307.785.018 1.348s.844.871 1.159.69c.186-.108.186-.541.156-.786l3.044-1.642a10.3 10.3 0 0 0 2.959 2.931l-1.038 1.925c-.255-.05-.693-.066-.8.122-.165.287.116.758.627 1.054s1.061.3 1.226.016c.1-.17-.1-.511-.234-.69l1.163-1.886a10.191 10.191 0 0 0 4.016 1.089l.1 3.438c-.27.093-.7.319-.7.557 0 .364.527.659 1.176.659s1.177-.295 1.177-.659c0-.215-.375-.431-.6-.528l.1-3.467a10.2 10.2 0 0 0 4.016-1.089l1.15 1.864c-.171.195-.4.567-.3.754.166.287.715.28 1.226-.016s.793-.767.627-1.053c-.1-.17-.491-.17-.714-.142l-1.051-1.949a10.3 10.3 0 0 0 2.958-2.93l3.02 1.628c-.055.28-.072.762.134.881.315.182.834-.127 1.159-.689s.332-1.167.017-1.349c-.186-.107-.561.109-.758.258l-2.95-1.819a10.179 10.179 0 0 0 1.057-4.024z" transform="translate(0 318.247)" style="fill:#1272e2"/>
        <path data-name="Path 23" d="M412.406 211.974c.084.245.29.633.506.633.331 0 .6-.479.6-1.069s-.268-1.07-.6-1.07c-.195 0-.392.341-.48.547l-2.22-.064a10.179 10.179 0 0 0-1.057-4.024l2.925-1.8c.215.187.624.444.83.325.316-.182.308-.786-.017-1.349s-.844-.871-1.159-.689c-.186.107-.187.54-.156.785l-3.045 1.643a10.29 10.29 0 0 0-2.959-2.931l1.039-1.926c.254.05.693.066.8-.122.166-.286-.115-.758-.627-1.053s-1.06-.3-1.226-.016c-.1.169.1.51.235.689l-1.163 1.886a10.178 10.178 0 0 0-4.016-1.088l-.1-3.439c.27-.093.7-.319.7-.557 0-.364-.527-.659-1.177-.659s-1.176.3-1.176.659c0 .215.375.432.6.528l-.1 3.468a10.168 10.168 0 0 0-4.016 1.088L394.2 200.5c.17-.2.4-.568.295-.755-.165-.287-.714-.279-1.226.016s-.792.767-.626 1.054c.1.169.491.169.714.141l1.051 1.949a10.3 10.3 0 0 0-2.959 2.931l-3.019-1.628c.055-.28.072-.763-.134-.882-.315-.182-.834.127-1.159.69s-.333 1.166-.017 1.348c.186.108.561-.109.758-.258l2.949 1.819a10.194 10.194 0 0 0-1.056 4.025l-2.194.063c-.085-.245-.29-.633-.507-.633-.33 0-.6.479-.6 1.07s.269 1.07.6 1.07c.2 0 .393-.341.48-.548l2.221.064a10.178 10.178 0 0 0 1.057 4.024l-2.925 1.8c-.215-.187-.625-.443-.831-.324-.315.182-.307.785.018 1.348s.844.871 1.159.69c.186-.108.186-.541.156-.786l3.044-1.642a10.3 10.3 0 0 0 2.959 2.931l-1.038 1.925c-.255-.05-.693-.066-.8.122-.165.287.116.758.627 1.054s1.061.3 1.226.016c.1-.17-.1-.511-.234-.69l1.163-1.886a10.191 10.191 0 0 0 4.016 1.089l.1 3.438c-.27.093-.7.319-.7.557 0 .364.527.659 1.176.659s1.177-.295 1.177-.659c0-.215-.375-.431-.6-.528l.1-3.467a10.2 10.2 0 0 0 4.016-1.089l1.15 1.864c-.171.195-.4.567-.3.754.166.287.715.28 1.226-.016s.793-.767.627-1.053c-.1-.17-.491-.17-.714-.142l-1.051-1.949a10.3 10.3 0 0 0 2.958-2.93l3.02 1.628c-.055.28-.072.762.134.881.315.182.834-.127 1.159-.689s.332-1.167.017-1.349c-.186-.107-.561.109-.758.258l-2.95-1.819a10.179 10.179 0 0 0 1.057-4.024z" transform="translate(0 318.247)" style="fill:none;stroke:#002b49;stroke-miterlimit:10;stroke-width:.5px"/>
        <path data-name="Path 24" d="M400.787 203.67a1.056 1.056 0 1 1-1.055-1.005 1.031 1.031 0 0 1 1.055 1.005" transform="translate(0 318.247)" style="fill:#fff"/>
        <path data-name="Path 25" d="M400.787 203.67a1.056 1.056 0 1 1-1.055-1.005 1.031 1.031 0 0 1 1.055 1.005z" transform="translate(0 318.247)" style="fill:none;stroke:#002b49;stroke-miterlimit:10;stroke-width:.5px"/>
        <path data-name="Path 26" d="M394.412 211.8a1.056 1.056 0 1 1-1.055-1 1.031 1.031 0 0 1 1.055 1" transform="translate(0 318.247)" style="fill:#fff"/>
        <path data-name="Path 27" d="M394.412 211.8a1.056 1.056 0 1 1-1.055-1 1.031 1.031 0 0 1 1.055 1z" transform="translate(0 318.247)" style="fill:none;stroke:#002b49;stroke-miterlimit:10;stroke-width:.5px"/>
        <path data-name="Path 28" d="M399.135 209.184a1.056 1.056 0 1 1-1.055-1.005 1.031 1.031 0 0 1 1.055 1.005" transform="translate(0 318.247)" style="fill:#fff"/>
        <path data-name="Path 29" d="M399.135 209.184a1.056 1.056 0 1 1-1.055-1.005 1.031 1.031 0 0 1 1.055 1.005z" transform="translate(0 318.247)" style="fill:none;stroke:#002b49;stroke-miterlimit:10;stroke-width:.5px"/>
        <path data-name="Path 30" d="M396.673 217.926a1.056 1.056 0 1 1-1.055-1 1.031 1.031 0 0 1 1.055 1" transform="translate(0 318.247)" style="fill:#fff"/>
        <path data-name="Path 31" d="M396.673 217.926a1.056 1.056 0 1 1-1.055-1 1.031 1.031 0 0 1 1.055 1z" transform="translate(0 318.247)" style="fill:none;stroke:#002b49;stroke-miterlimit:10;stroke-width:.5px"/>
        <path data-name="Path 32" d="M408.179 213.706a1.056 1.056 0 1 1-1.055-1 1.031 1.031 0 0 1 1.055 1" transform="translate(0 318.247)" style="fill:#fff"/>
        <path data-name="Path 33" d="M408.179 213.706a1.056 1.056 0 1 1-1.055-1 1.031 1.031 0 0 1 1.055 1z" transform="translate(0 318.247)" style="fill:none;stroke:#002b49;stroke-miterlimit:10;stroke-width:.5px"/>
        <path data-name="Path 34" d="M400.629 215.079a1.057 1.057 0 1 1-1.056-1 1.032 1.032 0 0 1 1.056 1" transform="translate(0 318.247)" style="fill:#fff"/>
        <path data-name="Path 35" d="M400.629 215.079a1.057 1.057 0 1 1-1.056-1 1.032 1.032 0 0 1 1.056 1z" transform="translate(0 318.247)" style="fill:none;stroke:#002b49;stroke-miterlimit:10;stroke-width:.5px"/>
        <path data-name="Path 36" d="M404.045 211.059a1.056 1.056 0 1 1-1.055-1.005 1.031 1.031 0 0 1 1.055 1.005" transform="translate(0 318.247)" style="fill:#fff"/>
        <path data-name="Path 37" d="M404.045 211.059a1.056 1.056 0 1 1-1.055-1.005 1.031 1.031 0 0 1 1.055 1.005z" transform="translate(0 318.247)" style="fill:none;stroke:#002b49;stroke-miterlimit:10;stroke-width:.5px"/>
        <path data-name="Path 38" d="M406.6 206.378a1.057 1.057 0 1 1-1.056-1.005 1.032 1.032 0 0 1 1.056 1.005" transform="translate(0 318.247)" style="fill:#fff"/>
        <path data-name="Path 39" d="M406.6 206.378a1.057 1.057 0 1 1-1.056-1.005 1.032 1.032 0 0 1 1.056 1.005z" transform="translate(0 318.247)" style="fill:none;stroke:#002b49;stroke-miterlimit:10;stroke-width:.5px"/>
        <path data-name="Path 40" d="M404.16 218.429a1.056 1.056 0 1 1-1.055-1.005 1.031 1.031 0 0 1 1.055 1.005" transform="translate(0 318.247)" style="fill:#fff"/>
        <path data-name="Path 41" d="M404.16 218.429a1.056 1.056 0 1 1-1.055-1.005 1.031 1.031 0 0 1 1.055 1.005z" transform="translate(0 318.247)" style="fill:none;stroke:#002b49;stroke-miterlimit:10;stroke-width:.5px"/>
        <path data-name="Path 42" d="M395.518 205.466a1.056 1.056 0 1 1-1.055-1.005 1.031 1.031 0 0 1 1.055 1.005" transform="translate(0 318.247)" style="fill:#fff"/>
        <path data-name="Path 43" d="M395.518 205.466a1.056 1.056 0 1 1-1.055-1.005 1.031 1.031 0 0 1 1.055 1.005z" transform="translate(0 318.247)" style="fill:none;stroke:#002b49;stroke-miterlimit:10;stroke-width:.5px"/>
    </g>
</svg>
