<svg xmlns="http://www.w3.org/2000/svg" width="178" height="217" viewBox="0 0 178 217">
    <defs>
        <linearGradient id="nnuacq39ka" x1=".061" y1="1.125" x2=".969" gradientUnits="objectBoundingBox">
            <stop offset="0" stop-color="#006bd7"/>
            <stop offset="1" stop-color="#0582ff"/>
        </linearGradient>
        <clipPath id="qsnsjagedb">
            <path data-name="Rectangle 26888" d="M0 0h178v201a16 16 0 0 1-16 16H0V0z" transform="translate(160 1271)" style="fill:url(#nnuacq39ka)"/>
        </clipPath>
    </defs>
    <g data-name="Mask Group 24027" transform="translate(-160 -1271)" style="clip-path:url(#qsnsjagedb)">
        <g data-name="Group 24536">
            <path data-name="Rectangle 13" d="m20.881 0 153.511 1.275c11.628.1 21.133 9.388 21.23 20.753l1.278 150.035a20.4 20.4 0 0 1-20.88 20.4l-153.515-1.27c-11.628-.1-21.133-9.388-21.23-20.753L0 20.4A20.4 20.4 0 0 1 20.881 0z" transform="rotate(-18.127 4513.63 1.485)" style="fill:#bfe1ec;opacity:.09"/>
            <g data-name="Rectangle 886" style="fill:none;opacity:.08">
                <path d="m24.838 0 182.6 1.516c13.832.115 25.138 11.167 25.253 24.686l1.509 178.464c.115 13.519-11.005 24.385-24.837 24.27l-182.6-1.516c-13.825-.12-25.131-11.167-25.246-24.686L0 24.271C-.114 10.752 11.006-.114 24.838 0z" style="stroke:none" transform="rotate(-18.127 4465.803 69.07)"/>
                <path d="M24.62 1c-3.274 0-6.437.632-9.402 1.88a23.42 23.42 0 0 0-7.59 5.118C3.301 12.36.947 18.136 1 24.262l1.516 178.464a23.094 23.094 0 0 0 1.964 9.15 23.95 23.95 0 0 0 5.217 7.512 24.584 24.584 0 0 0 7.694 5.105 24.636 24.636 0 0 0 9.386 1.927l182.597 1.516h.21c3.274 0 6.437-.632 9.402-1.879a23.42 23.42 0 0 0 7.59-5.118c4.326-4.362 6.68-10.138 6.627-16.265l-1.516-178.463a23.095 23.095 0 0 0-1.964-9.15 23.951 23.951 0 0 0-5.217-7.513 24.584 24.584 0 0 0-7.694-5.105 24.636 24.636 0 0 0-9.386-1.926L24.83 1 24.62 1m0-1h.218l182.598 1.517c13.831.115 25.137 11.167 25.252 24.685l1.516 178.464c.115 13.519-11.005 24.384-24.837 24.27L26.77 227.42c-13.831-.115-25.137-11.167-25.252-24.686L0 24.271C-.113 10.823 10.89 0 24.62 0z" style="fill:#bfe1ec;stroke:none" transform="rotate(-18.127 4465.803 69.07)"/>
            </g>
        </g>
    </g>
</svg>
