<svg xmlns="http://www.w3.org/2000/svg" width="486" height="247" viewBox="0 0 486 247">
    <defs>
        <clipPath id="vmyk5muqsa">
            <rect data-name="Rectangle 23782" width="486" height="247" rx="16" transform="translate(83 3373)" style="fill:#fff;stroke:#707070"/>
        </clipPath>
    </defs>
    <g data-name="Mask Group 5987" transform="translate(-83 -3373)" style="clip-path:url(#vmyk5muqsa)">
        <g data-name="Group 22998">
            <g data-name="Rectangle 798" style="opacity:.5;fill:none">
                <path d="M51.894 10.4 258.915.7c21.938-1.026 38.885 13.653 37.862 32.788l-9.7 180.569c-1.028 19.135-19.646 35.48-41.584 36.508l-207.021 9.7C16.535 261.292-.416 246.613.612 227.478l9.7-180.569C11.338 27.773 29.956 11.428 51.894 10.4z" style="stroke:none" transform="rotate(-161.873 673.324 1750.57)"/>
                <path d="M261.077 2.65c-.683 0-1.38.017-2.068.05L51.988 12.397c-20.907.98-38.708 16.509-39.68 34.618l-9.7 180.569c-.206 3.856.36 7.588 1.685 11.093 1.28 3.389 3.237 6.486 5.815 9.206 3.078 3.248 6.881 5.809 11.304 7.611 4.591 1.871 9.604 2.82 14.899 2.82.684 0 1.38-.017 2.069-.049l207.02-9.699c20.908-.98 38.708-16.509 39.681-34.617l9.699-180.57c.207-3.855-.36-7.588-1.685-11.092-1.28-3.39-3.237-6.487-5.814-9.206-3.079-3.248-6.882-5.81-11.305-7.612-4.59-1.87-9.603-2.82-14.899-2.82m0-2c20.88 0 36.694 14.336 35.7 32.838l-9.699 180.569c-1.028 19.135-19.645 35.48-41.584 36.508l-207.02 9.699C16.534 261.292-.417 246.613.611 227.478l9.698-180.57c1.028-19.135 19.646-35.48 41.584-36.508L258.915.702a46.25 46.25 0 0 1 2.162-.051z" style="fill:#d8effc;stroke:none" transform="rotate(-161.873 673.324 1750.57)"/>
            </g>
            <g data-name="Rectangle 799" style="opacity:.4;fill:none">
                <path d="M54.451 12.974 313.509.838C335.448-.19 352.4 14.489 351.371 33.624l-12.136 225.958c-1.028 19.135-19.645 35.48-41.584 36.508L38.592 308.227C16.654 309.254-.3 294.576.73 275.44L12.867 49.482C13.895 30.347 32.512 14 54.451 12.974z" style="stroke:none" transform="rotate(-161.873 669.558 1774.561)"/>
                <path d="M315.672 2.787c-.684 0-1.38.016-2.069.048L54.544 14.972c-20.907.98-38.707 16.509-39.68 34.618L2.727 275.548c-.207 3.856.36 7.588 1.685 11.092 1.28 3.39 3.237 6.487 5.814 9.207 3.079 3.247 6.882 5.808 11.305 7.611 4.59 1.87 9.603 2.82 14.899 2.82.684 0 1.38-.017 2.068-.05l259.06-12.136c20.906-.98 38.707-16.509 39.68-34.618l12.136-225.957c.207-3.856-.36-7.588-1.684-11.093-1.281-3.39-3.238-6.487-5.815-9.206-3.078-3.248-6.882-5.81-11.305-7.612-4.59-1.87-9.603-2.82-14.898-2.82m0-2c20.88 0 36.693 14.336 35.7 32.838l-12.137 225.958c-1.028 19.135-19.646 35.48-41.584 36.508L38.592 308.227C16.654 309.254-.298 294.576.73 275.44L12.867 49.482c1.028-19.135 19.645-35.48 41.584-36.508L313.509.838a46.25 46.25 0 0 1 2.163-.051z" style="fill:#d8effc;stroke:none" transform="rotate(-161.873 669.558 1774.561)"/>
            </g>
        </g>
    </g>
</svg>
