<svg data-name="Icon/Profile/Header/48px" xmlns="http://www.w3.org/2000/svg" width="48" height="48" viewBox="0 0 48 48">
    <rect data-name="Rectangle 21920" width="48" height="48" rx="12" style="fill:#3591ee;opacity:.1"/>
    <path data-name="Rectangle 208" transform="translate(12 12)" style="fill:none" d="M0 0h24v24H0z"/>
    <path data-name="Path 12279" d="M264.36 171.461a1.264 1.264 0 0 1-1.261 1.264h-12.642a1.264 1.264 0 0 1-1.261-1.264 7.582 7.582 0 0 1 15.164 0zm-7.582-5.9a5.9 5.9 0 0 0-5.882 5.476h11.765a5.9 5.9 0 0 0-5.882-5.476zm0-.3a4.633 4.633 0 1 1 4.634-4.633 4.633 4.633 0 0 1-4.634 4.639zm0-1.685a2.949 2.949 0 1 0-2.948-2.948 2.949 2.949 0 0 0 2.948 2.954z" transform="translate(-232.874 -140.861)" style="stroke:#000;stroke-width:.2px"/>
</svg>
