<svg data-name="In Progress" xmlns="http://www.w3.org/2000/svg" width="48" height="48" viewBox="0 0 48 48">
    <path data-name="Rectangle 23655" style="fill:none" d="M0 0h48v48H0z"/>
    <g data-name="Group 22417">
        <path data-name="Rectangle 23656" transform="translate(4 4)" style="opacity:.2;fill:none" d="M0 0h40v40H0z"/>
        <path data-name="Ellipse 5239" d="M15.1 1.641a13.459 13.459 0 0 0-9.517 22.976A13.459 13.459 0 1 0 24.617 5.583 13.371 13.371 0 0 0 15.1 1.641M15.1 0A15.1 15.1 0 1 1 0 15.1 15.1 15.1 0 0 1 15.1 0z" transform="translate(9.4 9.4)" style="fill:#0c2b45"/>
        <path data-name="Path 13272" d="M11353.494 3914.989a.832.832 0 0 1-.416-.112l-4.828-2.777v-9.1a.84.84 0 0 1 1.68 0v8.132l3.984 2.294a.839.839 0 0 1-.42 1.565z" transform="translate(-11325.145 -3886.951)" style="fill:#0c2b45"/>
    </g>
</svg>
