<svg xmlns="http://www.w3.org/2000/svg" width="80" height="80" viewBox="0 0 80 80">
    <path data-name="Rectangle 26832" style="fill:none" d="M0 0h80v80H0z"/>
    <path data-name="Rectangle 26833" transform="translate(6.666 6.667)" style="opacity:.2;fill:none" d="M0 0h66.667v66.667H0z"/>
    <circle data-name="Ellipse 5538" cx="13.333" cy="13.333" r="13.333" transform="translate(9.584 10.834)" style="fill:#fcec95"/>
    <g data-name="Group 29139">
        <path data-name="Path 17816" d="M1984 13837.669a21.669 21.669 0 1 1 15.32-6.348 21.516 21.516 0 0 1-15.32 6.348zm-7.549-22.078a1.248 1.248 0 0 0-.885 2.133l5.788 5.785a1.248 1.248 0 0 0 .885.367 1.263 1.263 0 0 0 .885-.367l12.325-12.326a1.253 1.253 0 0 0 0-1.77 1.25 1.25 0 0 0-1.766 0l-11.445 11.443-4.9-4.9a1.25 1.25 0 0 0-.886-.365z" transform="translate(-1944.001 -13778.5)" style="fill:#1272e2"/>
    </g>
    <circle data-name="Ellipse 5539" cx="2.5" cy="2.5" r="2.5" transform="translate(61.666 40)" style="fill:#fcec95"/>
    <circle data-name="Ellipse 5540" cx="2.5" cy="2.5" r="2.5" transform="translate(28.334 54.583)" style="fill:#fcec95"/>
    <circle data-name="Ellipse 5541" cx="2.5" cy="2.5" r="2.5" transform="translate(34.584 9.167)" style="fill:#1272e2"/>
    <circle data-name="Ellipse 5542" cx="1.667" cy="1.667" r="1.667" transform="translate(12.916 33.333)" style="fill:#1272e2"/>
    <circle data-name="Ellipse 5543" cx="1.667" cy="1.667" r="1.667" transform="translate(46.666 63.333)" style="fill:#1272e2"/>
    <path data-name="Path 17770" d="M8548.361 580.673c-.334 0-.543-.017-.564-.019a.938.938 0 0 1 .077-1.872h.078a8.159 8.159 0 0 0 2.562-.273 3.074 3.074 0 0 0 2.525-2.658c.587-4.759 3.789-5.838 3.924-5.882l.574 1.785h.011c-.091.032-2.214.815-2.649 4.33a4.645 4.645 0 0 1-1.467 2.94 5.925 5.925 0 0 1-2.451 1.3 9.948 9.948 0 0 1-2.62.349z" transform="translate(-8490.063 -551.387)" style="fill:#094771"/>
    <path data-name="Path 17771" d="M8550.717 602.577a.937.937 0 0 1-.934-.874c-.312-4.591-3.51-5.58-3.645-5.62h.006l.5-1.807a6.4 6.4 0 0 1 2.406 1.428 8.423 8.423 0 0 1 2.6 5.87.938.938 0 0 1-.873 1z" transform="translate(-8490.822 -535.181)" style="fill:#094771"/>
    <path data-name="Path 17772" d="M4.038 9.964q-.161 0-.323-.015C1.4 9.73.01 7.236-.141 6.952a.937.937 0 0 1 1.657-.878C1.8 6.6 2.774 7.98 3.9 8.083c.722.066 1.5-.414 2.312-1.428l.025-.03q.234-.268.437-.52a3.427 3.427 0 0 1-2.187-1.77A2.648 2.648 0 0 1 5.143.669a3.41 3.41 0 0 1 4.326.337 2.872 2.872 0 0 1 .623 2.584 14.74 14.74 0 0 0 1.434-.848A22.534 22.534 0 0 0 14.11.723a.937.937 0 0 1 1.281 1.369 24.038 24.038 0 0 1-2.8 2.2 12.354 12.354 0 0 1-3.546 1.724 15.455 15.455 0 0 1-1.387 1.827 4.764 4.764 0 0 1-3.62 2.121zM7.151 1.93a1.629 1.629 0 0 0-.924.269c-.152.108-.556.394-.1 1.241a1.537 1.537 0 0 0 1.15.878 2.363 2.363 0 0 0 .573.016c.539-1.063.513-1.752.224-2.071a1.262 1.262 0 0 0-.923-.333z" transform="translate(6.915 49.307)" style="fill:#094771"/>
</svg>
