<?xml version="1.0" encoding="UTF-8"?><svg id="Layer_1" xmlns="http://www.w3.org/2000/svg" viewBox="0 0 826.99 827"><defs><style>.cls-1{fill:#0095f0;}.cls-2{fill:#fd0;}.cls-3{fill:#fcdc59;}.cls-4{fill:#fcec95;}</style></defs><path class="cls-2" d="M826.99,413.5c0,228.37-185.13,413.5-413.49,413.5S0,641.87,0,413.5,185.12,0,413.5,0s413.49,185.12,413.49,413.5Z"/><path class="cls-3" d="M729.86,147.34C654.01,57.28,540.47,0,413.5,0,185.12,0,0,185.12,0,413.5c0,47.98,8.26,94.01,23.29,136.86,233.17-138.42,468.52-273.15,706.57-403.01Z"/><path class="cls-3" d="M461.31,824.16c94.86-10.93,179.97-53.87,244.15-117.87-64.57,31.03-128.97,62.42-193.45,93.61-16.86,8.16-33.81,16.15-50.7,24.25Z"/><path class="cls-4" d="M730.17,420.05c0,171.28-138.84,310.13-310.12,310.13S109.92,591.33,109.92,420.05,248.76,109.92,420.05,109.92s310.12,138.84,310.12,310.13Z"/><path class="cls-1" d="M515.64,295.86h-72.45c12.73,11.15,21.96,27.15,24.59,49.46h47.86v24.25h-47.42c-4.39,49.46-39.96,80.98-96.17,82.92,34.25,39.28,71.58,88.74,108.46,138.68h-42.16c-34.25-45.58-66.31-87.77-107.59-136.26v-30.06h24.15c47.43,0,72.9-21.82,75.97-55.28h-100.12v-24.25h98.8c-6.15-28.12-29.42-42.19-67.63-42.19h-31.18v-31.52h184.87v24.25Z"/></svg>