<svg xmlns="http://www.w3.org/2000/svg" width="241.747" height="163.812" viewBox="0 0 241.747 163.812">
    <g data-name="Group 33" transform="translate(-1466.562 -440.337)">
        <path data-name="Rectangle 21" transform="translate(1528.841 449.823)" style="fill:#1272e2" d="M0 0h117.524v152.635H0z"/>
        <path data-name="Rectangle 22" transform="translate(1528.841 449.823)" style="stroke-width:.5px;stroke-miterlimit:10;fill:none;stroke:#002b49" d="M0 0h117.524v152.635H0z"/>
        <path data-name="Rectangle 23" transform="translate(1558.609 546.272)" style="fill:#fff" d="M0 0h57.989v43.986H0z"/>
        <path data-name="Rectangle 24" transform="translate(1554.283 587.276)" style="fill:#002b49" d="M0 0h66.64v6.304H0z"/>
        <path data-name="Rectangle 25" transform="translate(1554.283 587.276)" style="stroke-width:.5px;fill:none;stroke:#002b49" d="M0 0h66.64v6.304H0z"/>
        <path data-name="Rectangle 26" transform="translate(1555.277 543.372)" style="fill:#002b49" d="M0 0h64.652v4.36H0z"/>
        <path data-name="Rectangle 27" transform="translate(1555.277 543.372)" style="stroke-width:.5px;fill:none;stroke:#002b49" d="M0 0h64.652v4.36H0z"/>
        <path data-name="Path 110" d="M1563.329 215.041h-12.938a1.412 1.412 0 0 1-1.413-1.412V193.8a1.413 1.413 0 0 1 1.413-1.413h12.938a1.413 1.413 0 0 1 1.412 1.413v19.832a1.412 1.412 0 0 1-1.412 1.412" transform="translate(0 318.247)" style="fill:#fff"/>
        <path data-name="Rectangle 28" d="M1.412 0H14.35a1.413 1.413 0 0 1 1.413 1.413v19.831a1.413 1.413 0 0 1-1.413 1.413H1.412A1.412 1.412 0 0 1 0 21.245V1.412A1.412 1.412 0 0 1 1.412 0z" transform="translate(1548.978 510.631)" style="stroke-width:.5px;stroke-miterlimit:10;fill:none;stroke:#002b49"/>
        <path data-name="Path 111" d="M1583.825 215.041h-12.939a1.412 1.412 0 0 1-1.412-1.412V193.8a1.413 1.413 0 0 1 1.412-1.413h12.939a1.413 1.413 0 0 1 1.412 1.413v19.832a1.412 1.412 0 0 1-1.412 1.412" transform="translate(0 318.247)" style="fill:#fff"/>
        <path data-name="Rectangle 29" d="M1.412 0H14.35a1.413 1.413 0 0 1 1.413 1.413v19.831a1.413 1.413 0 0 1-1.413 1.413H1.412A1.412 1.412 0 0 1 0 21.245V1.412A1.412 1.412 0 0 1 1.412 0z" transform="translate(1569.474 510.631)" style="stroke-width:.5px;stroke-miterlimit:10;fill:none;stroke:#002b49"/>
        <path data-name="Path 112" d="M1604.32 215.041h-12.938a1.412 1.412 0 0 1-1.413-1.412V193.8a1.413 1.413 0 0 1 1.413-1.413h12.938a1.413 1.413 0 0 1 1.412 1.413v19.832a1.412 1.412 0 0 1-1.412 1.412" transform="translate(0 318.247)" style="fill:#fff"/>
        <path data-name="Rectangle 30" d="M1.412 0H14.35a1.413 1.413 0 0 1 1.413 1.413v19.831a1.413 1.413 0 0 1-1.413 1.413H1.412A1.412 1.412 0 0 1 0 21.245V1.412A1.412 1.412 0 0 1 1.412 0z" transform="translate(1589.969 510.631)" style="stroke-width:.5px;stroke-miterlimit:10;fill:none;stroke:#002b49"/>
        <path data-name="Path 113" d="M1624.816 215.041h-12.938a1.413 1.413 0 0 1-1.413-1.412V193.8a1.414 1.414 0 0 1 1.413-1.413h12.938a1.413 1.413 0 0 1 1.412 1.413v19.832a1.412 1.412 0 0 1-1.412 1.412" transform="translate(0 318.247)" style="fill:#fff"/>
        <path data-name="Rectangle 31" d="M1.412 0H14.35a1.413 1.413 0 0 1 1.413 1.413v19.831a1.413 1.413 0 0 1-1.413 1.413H1.412A1.412 1.412 0 0 1 0 21.245V1.412A1.412 1.412 0 0 1 1.412 0z" transform="translate(1610.465 510.631)" style="stroke-width:.5px;stroke-miterlimit:10;fill:none;stroke:#002b49"/>
        <path data-name="Rectangle 32" transform="translate(1528.681 592.484)" style="fill:#002b49" d="M0 0h117.844v9.974H0z"/>
        <path data-name="Path 114" d="M1649.362 132.523h-123.518a2.7 2.7 0 0 1-2.7-2.7v-4.785a2.7 2.7 0 0 1 2.7-2.7h123.518a2.7 2.7 0 0 1 2.7 2.7v4.785a2.7 2.7 0 0 1-2.7 2.7" transform="translate(0 318.247)" style="fill:#fd0"/>
        <rect data-name="Rectangle 33" width="128.915" height="10.183" rx="2.699" transform="translate(1523.146 440.587)" style="stroke-width:.5px;stroke-miterlimit:10;fill:none;stroke:#002b49"/>
        <path data-name="Path 115" d="M1603.343 164.519a15.74 15.74 0 1 1-15.74-15.74 15.74 15.74 0 0 1 15.74 15.74" transform="translate(0 318.247)" style="fill:#fff"/>
        <path data-name="Path 116" d="M1603.343 164.519a15.74 15.74 0 1 1-15.74-15.74 15.74 15.74 0 0 1 15.74 15.74z" transform="translate(0 318.247)" style="stroke-width:.5px;stroke-miterlimit:10;fill:none;stroke:#002b49"/>
        <path data-name="Path 117" d="M1597.956 160.784h-6.618v-6.618a.624.624 0 0 0-.622-.622h-6.226a.624.624 0 0 0-.622.622v6.618h-6.618a.624.624 0 0 0-.622.622v6.225a.624.624 0 0 0 .622.622h6.618v6.619a.624.624 0 0 0 .622.622h6.226a.624.624 0 0 0 .622-.622v-6.619h6.618a.624.624 0 0 0 .622-.622v-6.225a.624.624 0 0 0-.622-.622" transform="translate(0 318.247)" style="fill:#fd0"/>
        <path data-name="Path 118" d="M1597.956 160.784h-6.618v-6.618a.624.624 0 0 0-.622-.622h-6.226a.624.624 0 0 0-.622.622v6.618h-6.618a.624.624 0 0 0-.622.622v6.225a.624.624 0 0 0 .622.622h6.618v6.619a.624.624 0 0 0 .622.622h6.226a.624.624 0 0 0 .622-.622v-6.619h6.618a.624.624 0 0 0 .622-.622v-6.225a.624.624 0 0 0-.622-.622z" transform="translate(0 318.247)" style="stroke-width:.8px;stroke-miterlimit:10;fill:none;stroke:#002b49"/>
        <path data-name="Rectangle 34" transform="translate(1473.162 489.849)" style="fill:#1272e2" d="M0 0h55.523v111.114H0z"/>
        <path data-name="Rectangle 35" transform="translate(1473.162 489.849)" style="stroke-width:.5px;stroke-miterlimit:10;fill:none;stroke:#002b49" d="M0 0h55.523v111.114H0z"/>
        <path data-name="Path 119" d="M1472.9 175.813h58.412a2.078 2.078 0 0 0 2.078-2.078v-3.683a2.078 2.078 0 0 0-2.078-2.078H1472.9a2.078 2.078 0 0 0-2.078 2.078v3.683a2.078 2.078 0 0 0 2.078 2.078" transform="translate(0 318.247)" style="fill:#fd0"/>
        <rect data-name="Rectangle 36" width="62.568" height="7.839" rx="2.078" transform="translate(1470.825 486.221)" style="stroke-width:.5px;stroke-miterlimit:10;fill:none;stroke:#002b49"/>
        <path data-name="Path 120" d="M1473.206 284.211h59.087a1.1 1.1 0 0 0 1.1-1.1v-5.639a1.1 1.1 0 0 0-1.1-1.1h-59.087a1.1 1.1 0 0 0-1.1 1.1v5.639a1.1 1.1 0 0 0 1.1 1.1" transform="translate(0 318.247)" style="fill:#002b49"/>
        <path data-name="Path 121" d="M1506.187 237.44h12.938a1.412 1.412 0 0 0 1.413-1.412V216.2a1.413 1.413 0 0 0-1.413-1.413h-12.938a1.413 1.413 0 0 0-1.412 1.413v19.832a1.412 1.412 0 0 0 1.412 1.412" transform="translate(0 318.247)" style="fill:#fff"/>
        <path data-name="Rectangle 37" d="M1.412 0H14.35a1.413 1.413 0 0 1 1.413 1.413v19.831a1.413 1.413 0 0 1-1.413 1.413H1.412A1.412 1.412 0 0 1 0 21.245V1.412A1.412 1.412 0 0 1 1.412 0z" transform="translate(1504.775 533.03)" style="stroke-width:.5px;stroke-miterlimit:10;fill:none;stroke:#002b49"/>
        <path data-name="Line 8" transform="translate(1512.656 535.165)" style="fill:#fff" d="M0 0v18.799"/>
        <path data-name="Line 9" transform="translate(1512.656 535.165)" style="stroke-width:.5px;stroke-miterlimit:10;fill:none;stroke:#002b49" d="M0 0v18.799"/>
        <path data-name="Path 122" d="M1482.721 237.44h12.938a1.413 1.413 0 0 0 1.413-1.412V216.2a1.414 1.414 0 0 0-1.413-1.413h-12.938a1.413 1.413 0 0 0-1.412 1.413v19.832a1.412 1.412 0 0 0 1.412 1.412" transform="translate(0 318.247)" style="fill:#fff"/>
        <path data-name="Rectangle 38" d="M1.412 0H14.35a1.413 1.413 0 0 1 1.413 1.413v19.831a1.413 1.413 0 0 1-1.413 1.413H1.412A1.412 1.412 0 0 1 0 21.245V1.412A1.412 1.412 0 0 1 1.412 0z" transform="translate(1481.309 533.03)" style="stroke-width:.5px;stroke-miterlimit:10;fill:none;stroke:#002b49"/>
        <path data-name="Line 10" transform="translate(1489.19 535.165)" style="fill:#fff" d="M0 0v18.799"/>
        <path data-name="Line 11" transform="translate(1489.19 535.165)" style="stroke-width:.5px;stroke-miterlimit:10;fill:none;stroke:#002b49" d="M0 0v18.799"/>
        <path data-name="Line 12" transform="translate(1556.86 512.766)" style="fill:#fff" d="M0 0v18.799"/>
        <path data-name="Line 13" transform="translate(1556.86 512.766)" style="stroke-width:.5px;stroke-miterlimit:10;fill:none;stroke:#002b49" d="M0 0v18.799"/>
        <path data-name="Line 14" transform="translate(1577.355 512.766)" style="fill:#fff" d="M0 0v18.799"/>
        <path data-name="Line 15" transform="translate(1577.355 512.766)" style="stroke-width:.5px;stroke-miterlimit:10;fill:none;stroke:#002b49" d="M0 0v18.799"/>
        <path data-name="Line 16" transform="translate(1587.783 547.793)" style="fill:#fff" d="M0 0v39.33"/>
        <path data-name="Line 17" transform="translate(1587.783 547.793)" style="stroke-width:.5px;stroke-miterlimit:10;fill:none;stroke:#002b49" d="M0 0v39.33"/>
        <path data-name="Line 18" transform="translate(1597.851 512.766)" style="fill:#fff" d="M0 0v18.799"/>
        <path data-name="Line 19" transform="translate(1597.851 512.766)" style="stroke-width:.5px;stroke-miterlimit:10;fill:none;stroke:#002b49" d="M0 0v18.799"/>
        <path data-name="Line 20" transform="translate(1618.347 512.766)" style="fill:#fff" d="M0 0v18.799"/>
        <path data-name="Line 21" transform="translate(1618.347 512.766)" style="stroke-width:.5px;stroke-miterlimit:10;fill:none;stroke:#002b49" d="M0 0v18.799"/>
        <path data-name="Rectangle 39" transform="translate(1646.187 489.849)" style="fill:#1272e2" d="M0 0h55.523v111.114H0z"/>
        <path data-name="Rectangle 40" transform="translate(1646.187 489.849)" style="stroke-width:.5px;stroke-miterlimit:10;fill:none;stroke:#002b49" d="M0 0h55.523v111.114H0z"/>
        <path data-name="Path 123" d="M1701.969 175.813h-58.412a2.078 2.078 0 0 1-2.078-2.078v-3.683a2.078 2.078 0 0 1 2.078-2.078h58.412a2.078 2.078 0 0 1 2.078 2.078v3.683a2.078 2.078 0 0 1-2.078 2.078" transform="translate(0 318.247)" style="fill:#fd0"/>
        <rect data-name="Rectangle 41" width="62.568" height="7.839" rx="2.078" transform="translate(1641.479 486.221)" style="stroke-width:.5px;stroke-miterlimit:10;fill:none;stroke:#002b49"/>
        <path data-name="Path 124" d="M1701.4 284.211h-58.548a1.37 1.37 0 0 1-1.37-1.37v-5.1a1.37 1.37 0 0 1 1.37-1.37h58.548a1.37 1.37 0 0 1 1.37 1.37v5.1a1.37 1.37 0 0 1-1.37 1.37" transform="translate(0 318.247)" style="fill:#002b49"/>
        <path data-name="Path 125" d="M1668.685 237.44h-12.938a1.413 1.413 0 0 1-1.413-1.412V216.2a1.414 1.414 0 0 1 1.413-1.413h12.938a1.413 1.413 0 0 1 1.412 1.413v19.832a1.412 1.412 0 0 1-1.412 1.412" transform="translate(0 318.247)" style="fill:#fff"/>
        <path data-name="Rectangle 42" d="M1.412 0H14.35a1.413 1.413 0 0 1 1.413 1.413v19.831a1.413 1.413 0 0 1-1.413 1.413H1.413A1.413 1.413 0 0 1 0 21.244V1.412A1.412 1.412 0 0 1 1.412 0z" transform="translate(1654.334 533.03)" style="stroke-width:.5px;stroke-miterlimit:10;fill:none;stroke:#002b49"/>
        <path data-name="Line 22" transform="translate(1662.216 535.165)" style="fill:#fff" d="M0 0v18.799"/>
        <path data-name="Line 23" transform="translate(1662.216 535.165)" style="stroke-width:.5px;stroke-miterlimit:10;fill:none;stroke:#002b49" d="M0 0v18.799"/>
        <path data-name="Path 126" d="M1692.151 237.44h-12.938a1.412 1.412 0 0 1-1.413-1.412V216.2a1.413 1.413 0 0 1 1.413-1.413h12.938a1.413 1.413 0 0 1 1.412 1.413v19.832a1.412 1.412 0 0 1-1.412 1.412" transform="translate(0 318.247)" style="fill:#fff"/>
        <path data-name="Rectangle 43" d="M1.412 0H14.35a1.413 1.413 0 0 1 1.413 1.413v19.831a1.413 1.413 0 0 1-1.413 1.413H1.413A1.413 1.413 0 0 1 0 21.244V1.412A1.412 1.412 0 0 1 1.412 0z" transform="translate(1677.8 533.03)" style="stroke-width:.5px;stroke-miterlimit:10;fill:none;stroke:#002b49"/>
        <path data-name="Line 24" transform="translate(1685.682 535.165)" style="fill:#fff" d="M0 0v18.799"/>
        <path data-name="Line 25" transform="translate(1685.682 535.165)" style="stroke-width:.5px;stroke-miterlimit:10;fill:none;stroke:#002b49" d="M0 0v18.799"/>
        <path data-name="Line 26" transform="translate(1584.053 566.531)" style="fill:#fff" d="M0 0v4.944"/>
        <path data-name="Line 27" transform="translate(1584.053 566.531)" style="stroke-linecap:round;stroke-width:.5px;stroke-miterlimit:10;fill:none;stroke:#002b49" d="M0 0v4.944"/>
        <path data-name="Line 28" transform="translate(1591.513 566.531)" style="fill:#fff" d="M0 0v4.944"/>
        <path data-name="Line 29" transform="translate(1591.513 566.531)" style="stroke-linecap:round;stroke-width:.5px;stroke-miterlimit:10;fill:none;stroke:#002b49" d="M0 0v4.944"/>
        <path data-name="Path 127" d="M1707.4 285.9h-239.931a.908.908 0 0 1 0-1.815H1707.4a.908.908 0 0 1 0 1.815" transform="translate(0 318.247)" style="fill:#ade0fe"/>
    </g>
</svg>
