<svg xmlns="http://www.w3.org/2000/svg" width="45" height="70" viewBox="0 0 45 70">
    <g data-name="Group 29" transform="translate(-142.961 -534.008)">
        <path data-name="Path 128" d="m168.932 282.377 7.267-2.786a2.593 2.593 0 0 0 1.493-3.35l-.152-.4a2.592 2.592 0 0 0-3.35-1.494l-9.689 3.714 1.08 2.818a2.594 2.594 0 0 0 3.351 1.494" transform="translate(0 318.247)" style="fill:#002b49"/>
        <path data-name="Path 129" d="m167.125 258.743-6.529 2.5a2.138 2.138 0 0 0-1.23 2.76l3.07 8.01 1.522 3.97.764 2 1.995-.765 1.8-.688 4.733-1.814a2.138 2.138 0 0 0 1.231-2.76l-4.592-11.98a2.137 2.137 0 0 0-2.76-1.23" transform="translate(0 318.247)" style="fill:#1272e2"/>
        <path data-name="Path 130" d="m167.125 258.743-6.529 2.5a2.138 2.138 0 0 0-1.23 2.76l3.07 8.01 1.522 3.97.764 2 1.995-.765 1.8-.688 4.733-1.814a2.138 2.138 0 0 0 1.231-2.76l-4.592-11.98a2.137 2.137 0 0 0-2.764-1.233z" transform="translate(0 318.247)" style="stroke-miterlimit:10;fill:none;stroke:#002b49;stroke-width:.5px"/>
        <path data-name="Path 131" d="M144.5 252.06a4.424 4.424 0 0 0 6.237 0l9.546-9.546-6.237-6.237-9.546 9.546a4.424 4.424 0 0 0 0 6.237" transform="translate(0 318.247)" style="fill:#fff"/>
        <path data-name="Path 132" d="M144.5 252.06a4.424 4.424 0 0 0 6.237 0l9.546-9.546-6.237-6.237-9.546 9.546a4.424 4.424 0 0 0 0 6.237z" transform="translate(0 318.247)" style="stroke-miterlimit:10;fill:none;stroke:#002b49;stroke-width:.5px"/>
        <path data-name="Path 133" d="M163.49 267.042h-2.4a9.235 9.235 0 0 1-9.235-9.236v-6.271a9.235 9.235 0 0 1 9.235-9.235h2.4a9.235 9.235 0 0 1 9.235 9.235v6.271a9.236 9.236 0 0 1-9.235 9.236" transform="translate(0 318.247)" style="fill:#1272e2"/>
        <path data-name="Rectangle 45" d="M9.236 0h2.4a9.236 9.236 0 0 1 9.236 9.236v6.271a9.235 9.235 0 0 1-9.235 9.235h-2.4A9.236 9.236 0 0 1 0 15.506v-6.27A9.236 9.236 0 0 1 9.236 0z" transform="translate(151.852 560.547)" style="stroke-miterlimit:10;fill:none;stroke:#002b49;stroke-width:.5px"/>
        <path data-name="Path 134" d="M172.545 257.913h-20.693v-18.591a3.837 3.837 0 0 1 3.837-3.837h13.019a3.837 3.837 0 0 1 3.837 3.837z" transform="translate(0 318.247)" style="fill:#fd0"/>
        <path data-name="Path 135" d="M172.545 257.913h-20.693v-18.591a3.837 3.837 0 0 1 3.837-3.837h13.019a3.837 3.837 0 0 1 3.837 3.837z" transform="translate(0 318.247)" style="stroke-miterlimit:10;fill:none;stroke:#002b49;stroke-width:.5px"/>
        <path data-name="Path 136" d="M167.616 235.494v7.545l-8.983-7.545z" transform="translate(0 318.247)" style="fill:#fff"/>
        <path data-name="Path 137" d="M167.616 235.494v7.545l-8.983-7.545z" transform="translate(0 318.247)" style="stroke-miterlimit:10;fill:none;stroke:#002b49;stroke-width:.5px"/>
        <path data-name="Path 138" d="M160.129 235.485h5.971a5.417 5.417 0 0 0 5.417-5.417v-8.618a5.418 5.418 0 0 0-5.417-5.417h-5.975a5.417 5.417 0 0 0-5.417 5.417v8.618a5.417 5.417 0 0 0 5.417 5.417" transform="translate(0 318.247)" style="fill:#fff"/>
        <rect data-name="Rectangle 46" width="16.809" height="19.452" rx="5.417" transform="translate(154.712 534.28)" style="stroke-miterlimit:10;fill:none;stroke:#002b49;stroke-width:.5px"/>
        <path data-name="Path 139" d="M158.948 223.791h8.6a4.554 4.554 0 0 0 4.554-4.553v-3.477h-13.154a4.015 4.015 0 0 0 0 8.03" transform="translate(0 318.247)" style="fill:#002b49"/>
        <path data-name="Path 140" d="M158.148 228.156a3.451 3.451 0 0 0 3.451-3.451v-5.219a3.451 3.451 0 1 0-6.9 0v5.219a3.451 3.451 0 0 0 3.451 3.451" transform="translate(0 318.247)" style="fill:#002b49"/>
        <path data-name="Path 141" d="M155.721 230.932a2.427 2.427 0 0 1-2.427-2.427v-2.245a2.427 2.427 0 1 1 4.854 0v1.84" transform="translate(0 318.247)" style="fill:#fff"/>
        <path data-name="Path 142" d="M155.721 230.932a2.427 2.427 0 0 1-2.427-2.427v-2.245a2.427 2.427 0 1 1 4.854 0v1.84" transform="translate(0 318.247)" style="fill:none;stroke:#002b49;stroke-width:.5px"/>
        <path data-name="Path 143" d="M165.931 231.211h3.326a1.15 1.15 0 1 0 0-2.3h-3.326a1.15 1.15 0 1 0 0 2.3" transform="translate(0 318.247)" style="fill:#002b49"/>
        <path data-name="Path 144" d="M166.165 225.789a.649.649 0 1 0-.65.65.65.65 0 0 0 .65-.65" transform="translate(0 318.247)" style="fill:#002b49"/>
        <path data-name="Path 145" d="M170.731 225.789a.649.649 0 1 0-.65.65.65.65 0 0 0 .65-.65" transform="translate(0 318.247)" style="fill:#002b49"/>
        <path data-name="Line 30" transform="translate(166.765 550.044)" style="fill:#fff" d="M0 0h2.02"/>
        <path data-name="Line 31" transform="translate(166.765 550.044)" style="stroke-linecap:round;stroke-miterlimit:10;fill:none;stroke:#002b49;stroke-width:.5px" d="M0 0h2.02"/>
        <path data-name="Path 146" d="M173.3 255.811a4.422 4.422 0 0 1-6.214.529l-10.322-8.7 5.685-6.743 10.322 8.7a4.423 4.423 0 0 1 .529 6.214" transform="translate(0 318.247)" style="fill:#fff"/>
        <path data-name="Path 147" d="M173.3 255.811a4.422 4.422 0 0 1-6.214.529l-10.322-8.7 5.685-6.743 10.322 8.7a4.423 4.423 0 0 1 .529 6.214z" transform="translate(0 318.247)" style="stroke-miterlimit:10;fill:none;stroke:#002b49;stroke-width:.5px"/>
        <path data-name="Path 148" d="m158.744 237.723 3.715 3.132-5.733 6.8-3.715-3.132" transform="translate(0 318.247)" style="fill:#fd0"/>
        <path data-name="Path 149" d="m158.744 237.723 3.715 3.132-5.733 6.8-3.715-3.132" transform="translate(0 318.247)" style="stroke-miterlimit:10;fill:none;stroke:#002b49;stroke-width:.5px"/>
        <path data-name="Path 150" d="m147.985 280.774 7.109 3.169a2.593 2.593 0 0 0 3.425-1.312l.173-.388a2.594 2.594 0 0 0-1.313-3.425l-9.478-4.226-1.229 2.757a2.594 2.594 0 0 0 1.313 3.425" transform="translate(0 318.247)" style="fill:#002b49"/>
        <path data-name="Path 151" d="m154.212 261.02-3.493 7.835-1.731 3.883-.87 1.951 1.951.87 1.757.783 4.629 2.064a2.136 2.136 0 0 0 2.822-1.081l5.224-11.718" transform="translate(0 318.247)" style="fill:#1272e2"/>
        <path data-name="Path 152" d="m154.212 261.02-3.493 7.835-1.731 3.883-.87 1.951 1.951.87 1.757.783 4.629 2.064a2.136 2.136 0 0 0 2.822-1.081l5.224-11.718" transform="translate(0 318.247)" style="stroke-miterlimit:10;fill:none;stroke:#002b49;stroke-width:.5px"/>
    </g>
</svg>
