<svg xmlns="http://www.w3.org/2000/svg" width="38.739" height="67.762" viewBox="0 0 38.739 67.762">
    <defs>
        <clipPath id="imzifqgcwa">
            <path data-name="Rectangle 55" style="fill:none" d="M0 0h38.739v67.762H0z"/>
        </clipPath>
    </defs>
    <g data-name="Group 37">
        <g data-name="Group 36" style="clip-path:url(#imzifqgcwa)">
            <path data-name="Path 193" d="m6 64.367 7.109 3.169a2.593 2.593 0 0 0 3.425-1.312l.173-.388a2.594 2.594 0 0 0-1.307-3.425l-9.482-4.226-1.229 2.757A2.594 2.594 0 0 0 6 64.367" style="fill:#002b49"/>
            <path data-name="Path 194" d="m21.437 46.378-6.387-2.847a2.136 2.136 0 0 0-2.82 1.081l-3.493 7.835-1.731 3.883-.87 1.952 1.951.87 1.756.783L14.472 62a2.136 2.136 0 0 0 2.821-1.082L22.517 49.2a2.136 2.136 0 0 0-1.08-2.821" style="fill:#1272e2"/>
            <path data-name="Path 195" d="m21.437 46.378-6.387-2.847a2.136 2.136 0 0 0-2.82 1.081l-3.493 7.835-1.731 3.883-.87 1.952 1.951.87 1.756.783L14.472 62a2.136 2.136 0 0 0 2.821-1.082L22.517 49.2a2.136 2.136 0 0 0-1.08-2.822z" style="stroke-miterlimit:10;stroke:#002b49;stroke-width:.5px;fill:none"/>
            <path data-name="Path 196" d="M37.2 36.3a4.424 4.424 0 0 0 0-6.237l-9.546-9.546-6.234 6.235 9.546 9.548a4.424 4.424 0 0 0 6.237 0" style="fill:#fff"/>
            <path data-name="Path 197" d="M37.2 36.3a4.424 4.424 0 0 0 0-6.237l-9.546-9.546-6.234 6.235 9.546 9.548a4.424 4.424 0 0 0 6.234 0z" style="stroke-miterlimit:10;stroke:#002b49;stroke-width:.5px;fill:none"/>
            <path data-name="Path 198" d="M20.862 51.28h-2.4a9.236 9.236 0 0 1-9.236-9.236v-6.271a9.236 9.236 0 0 1 9.236-9.235h2.4a9.236 9.236 0 0 1 9.238 9.235v6.271a9.236 9.236 0 0 1-9.236 9.236" style="fill:#1272e2"/>
            <path data-name="Rectangle 53" d="M9.236 0h2.4a9.236 9.236 0 0 1 9.236 9.236v6.271a9.235 9.235 0 0 1-9.235 9.235h-2.4A9.235 9.235 0 0 1 0 15.507V9.236A9.236 9.236 0 0 1 9.236 0z" transform="translate(9.224 26.538)" style="stroke-miterlimit:10;stroke:#002b49;stroke-width:.5px;fill:none"/>
            <path data-name="Path 199" d="M29.917 42.151H9.224V23.56a3.837 3.837 0 0 1 3.837-3.837H26.08a3.837 3.837 0 0 1 3.837 3.837z" style="fill:#fd0"/>
            <path data-name="Path 200" d="M29.917 42.151H9.224V23.56a3.837 3.837 0 0 1 3.837-3.837H26.08a3.837 3.837 0 0 1 3.837 3.837z" style="stroke-miterlimit:10;stroke:#002b49;stroke-width:.5px;fill:none"/>
            <path data-name="Path 201" d="M24.988 19.732v7.545L16 19.732z" style="fill:#fff"/>
            <path data-name="Path 202" d="M24.988 19.732v7.545L16 19.732z" style="stroke-miterlimit:10;stroke:#002b49;stroke-width:.5px;fill:none"/>
            <path data-name="Path 203" d="M17.5 19.724h5.975a5.417 5.417 0 0 0 5.417-5.417V5.689A5.418 5.418 0 0 0 23.476.272H17.5a5.417 5.417 0 0 0-5.417 5.417v8.618a5.417 5.417 0 0 0 5.417 5.417" style="fill:#fff"/>
            <rect data-name="Rectangle 54" width="16.809" height="19.452" rx="5.417" transform="translate(12.084 .272)" style="stroke-miterlimit:10;stroke:#002b49;stroke-width:.5px;fill:none"/>
            <path data-name="Path 204" d="M16.32 8.03h8.6a4.554 4.554 0 0 0 4.554-4.553V0H16.32a4.015 4.015 0 0 0 0 8.03" style="fill:#002b49"/>
            <path data-name="Path 205" d="M15.52 12.394a3.451 3.451 0 0 0 3.451-3.451V3.724a3.451 3.451 0 1 0-6.9 0v5.219a3.451 3.451 0 0 0 3.451 3.451" style="fill:#002b49"/>
            <path data-name="Path 206" d="M13.094 15.17a2.427 2.427 0 0 1-2.427-2.427V10.5a2.427 2.427 0 1 1 4.854 0v1.844" style="fill:#fff"/>
            <path data-name="Path 207" d="M13.094 15.17a2.427 2.427 0 0 1-2.427-2.427V10.5a2.427 2.427 0 1 1 4.854 0v1.844" style="stroke:#002b49;stroke-width:.5px;fill:none"/>
            <path data-name="Path 208" d="M23.3 15.449h3.326a1.151 1.151 0 1 0 0-2.3H23.3a1.151 1.151 0 1 0 0 2.3" style="fill:#002b49"/>
            <path data-name="Path 209" d="M23.538 10.027a.651.651 0 1 0-.651.65.65.65 0 0 0 .651-.65" style="fill:#002b49"/>
            <path data-name="Path 210" d="M28.1 10.027a.65.65 0 1 0-.65.65.65.65 0 0 0 .65-.65" style="fill:#002b49"/>
            <path data-name="Line 40" transform="translate(24.137 16.035)" style="fill:#fff" d="M0 0h2.02"/>
            <path data-name="Line 41" transform="translate(24.137 16.035)" style="stroke-linecap:round;stroke-miterlimit:10;stroke:#002b49;stroke-width:.5px;fill:none" d="M0 0h2.02"/>
            <path data-name="Path 211" d="M1.813 42.146a4.422 4.422 0 0 1-.53-6.214l8.7-10.322 6.744 5.69-8.7 10.322a4.422 4.422 0 0 1-6.213.529" style="fill:#fff"/>
            <path data-name="Path 212" d="M1.813 42.146a4.422 4.422 0 0 1-.53-6.214l8.7-10.322 6.744 5.69-8.7 10.322a4.422 4.422 0 0 1-6.214.524z" style="stroke-miterlimit:10;stroke:#002b49;stroke-width:.5px;fill:none"/>
            <path data-name="Path 213" d="m19.9 27.59-3.132 3.71-6.8-5.733 3.132-3.71" style="fill:#fd0"/>
            <path data-name="Path 214" d="m19.9 27.59-3.132 3.71-6.8-5.733 3.132-3.71" style="stroke-miterlimit:10;stroke:#002b49;stroke-width:.5px;fill:none"/>
            <path data-name="Path 215" d="m26.117 66.2 7.266-2.788a2.593 2.593 0 0 0 1.492-3.351l-.152-.4a2.594 2.594 0 0 0-3.351-1.493l-9.688 3.718 1.081 2.818a2.6 2.6 0 0 0 3.352 1.496" style="fill:#002b49"/>
            <path data-name="Path 216" d="m16.545 47.83 3.073 8.009 1.523 3.969.765 2 1.995-.765 1.8-.689 4.733-1.816a2.136 2.136 0 0 0 1.229-2.76l-4.6-11.978" style="fill:#1272e2"/>
            <path data-name="Path 217" d="m16.545 47.83 3.073 8.009 1.523 3.969.765 2 1.995-.765 1.8-.689 4.733-1.816a2.136 2.136 0 0 0 1.229-2.76l-4.6-11.978" style="stroke-miterlimit:10;stroke:#002b49;stroke-width:.5px;fill:none"/>
        </g>
    </g>
</svg>
