<svg xmlns="http://www.w3.org/2000/svg" width="124.919" height="27.299" viewBox="0 0 124.919 27.299">
    <g data-name="Group 23226">
        <g data-name="Group 23225">
            <g data-name="Group 23033">
                <path data-name="Path 13277" d="m46.268 11.568-4.92-4.92a4.577 4.577 0 0 0-6.473 0l-5.069 5.069-5.068-5.068a4.577 4.577 0 0 0-6.473 0l-4.92 4.92a4.577 4.577 0 0 0 0 6.473l8.3 8.306 4.92 4.92a4.577 4.577 0 0 0 6.473 0l13.23-13.227a4.577 4.577 0 0 0 0-6.473" transform="translate(-12.005 -5.308)" style="fill:#ef2352"/>
                <path data-name="Path 13278" d="m74.314 11.568-4.92-4.92a4.577 4.577 0 0 0-6.473 0l-5.069 5.069-5.068-5.068a4.577 4.577 0 0 0-6.473 0l-4.92 4.92a4.577 4.577 0 0 0 0 6.473l8.3 8.306 4.92 4.92a4.577 4.577 0 0 0 6.473 0l13.23-13.227a4.577 4.577 0 0 0 0-6.473" transform="translate(4.344 -5.308)" style="fill:#ef2352"/>
                <path data-name="Path 13279" d="m102.691 11.568-4.92-4.92a4.577 4.577 0 0 0-6.473 0l-5.068 5.069-5.069-5.068a4.577 4.577 0 0 0-6.473 0l-4.92 4.92a4.577 4.577 0 0 0 0 6.473l8.3 8.306 4.92 4.92a4.577 4.577 0 0 0 6.473 0l13.226-13.226a4.577 4.577 0 0 0 0-6.473" transform="translate(20.887 -5.308)" style="fill:#ef2352"/>
            </g>
        </g>
    </g>
</svg>
