<svg xmlns="http://www.w3.org/2000/svg" width="84.026" height="18.362" viewBox="0 0 84.026 18.362">
    <g data-name="Group 23217">
        <g data-name="Group 23033">
            <path data-name="Path 13277" d="M35.052 9.519 31.743 6.21a3.079 3.079 0 0 0-4.354 0l-3.41 3.409L20.57 6.21a3.079 3.079 0 0 0-4.354 0l-3.309 3.309a3.079 3.079 0 0 0 0 4.354l5.586 5.587 3.307 3.309a3.079 3.079 0 0 0 4.354 0l8.9-8.9a3.079 3.079 0 0 0 0-4.354" transform="translate(-12.005 -5.308)" style="fill:#ef2352"/>
            <path data-name="Path 13278" d="M63.1 9.519 59.789 6.21a3.079 3.079 0 0 0-4.354 0l-3.41 3.409-3.409-3.409a3.079 3.079 0 0 0-4.354 0l-3.309 3.309a3.079 3.079 0 0 0 0 4.354l5.586 5.587 3.309 3.309a3.079 3.079 0 0 0 4.354 0l8.9-8.9a3.079 3.079 0 0 0 0-4.354" transform="translate(-10.189 -5.308)" style="fill:#ef2352"/>
            <path data-name="Path 13279" d="M91.475 9.519 88.166 6.21a3.079 3.079 0 0 0-4.354 0L80.4 9.619 76.993 6.21a3.079 3.079 0 0 0-4.354 0L69.33 9.519a3.079 3.079 0 0 0 0 4.354l5.586 5.587 3.309 3.309a3.079 3.079 0 0 0 4.354 0l8.9-8.9a3.079 3.079 0 0 0 0-4.354" transform="translate(-8.351 -5.308)" style="fill:#d1d1d1"/>
        </g>
    </g>
</svg>
