<svg xmlns="http://www.w3.org/2000/svg" width="154" height="42" viewBox="0 0 154 42">
    <g data-name="Group 21001">
        <path d="M7.029 20.4a16.54 16.54 0 0 1 1.678.16 3.728 3.728 0 0 1 1.035.306v.934H7.029c-.408 0-.865-.021-1.368-.058a9.759 9.759 0 0 1-1.545-.25 8.933 8.933 0 0 1-1.545-.524 4.328 4.328 0 0 1-1.325-.9 4.381 4.381 0 0 1-.917-1.385 4.617 4.617 0 0 1-.321-1.952V0H2.6v16.609a3.644 3.644 0 0 0 .393 1.924 3.065 3.065 0 0 0 1.079 1.118 4.549 4.549 0 0 0 1.441.559 9.507 9.507 0 0 0 1.516.186z" transform="translate(117.559 6.564)" style="fill:#007ac3"/>
        <path data-name="Vector" d="M2.915 1.456A1.458 1.458 0 1 1 .423.436a1.445 1.445 0 0 1 2.069 0 1.422 1.422 0 0 1 .423 1.02zM2.74 5.128H.147v15.91H2.74z" transform="translate(128.756 7.352)" style="fill:#007ac3"/>
        <path data-name="Vector" d="M7.663 1.4a11 11 0 0 0-1.383.088 2.61 2.61 0 0 0-1.21.466 2.511 2.511 0 0 0-.83 1.137A5.111 5.111 0 0 0 4 5.188v1.368h4.75v.932a4.243 4.243 0 0 1-1.02.336 8.467 8.467 0 0 1-1.691.132H4V21.8H1.4V7.926H0v-1.37h1.4V5.1A4.636 4.636 0 0 1 2 2.39 4.42 4.42 0 0 1 3.628.844 6.338 6.338 0 0 1 5.727.16a14.37 14.37 0 0 1 2-.16h2.651v.932a4.327 4.327 0 0 1-1.02.336 8.478 8.478 0 0 1-1.691.13z" transform="translate(132.894 6.564)" style="fill:#007ac3"/>
        <path data-name="Vector" d="M6.382 0a7.544 7.544 0 0 1 2.33.373 6.051 6.051 0 0 1 2 1.063 5.044 5.044 0 0 1 1.355 1.706 4.543 4.543 0 0 1 .433 2.265 3.782 3.782 0 0 1-.6 1.924A4.847 4.847 0 0 1 10.533 8.7a7.018 7.018 0 0 1-1.879.874 12.353 12.353 0 0 1-2.127.453 11.889 11.889 0 0 1-2.114.073 9.423 9.423 0 0 1-1.819-.263v1.458a3.309 3.309 0 0 0 .582 1.995 3.45 3.45 0 0 0 1.34 1.066 5.449 5.449 0 0 0 1.678.438q.889.088 1.588.086H10.9v.932a4.36 4.36 0 0 1-1.02.334 8.467 8.467 0 0 1-1.691.132H7.025a16.8 16.8 0 0 1-2.129-.16 7.619 7.619 0 0 1-2.315-.686A5 5 0 0 1 .73 13.9 4.3 4.3 0 0 1 0 11.176V6.537a7.5 7.5 0 0 1 .434-2.593A6.015 6.015 0 0 1 1.69 1.865 5.73 5.73 0 0 1 3.686.5 6.916 6.916 0 0 1 6.382 0zm3.67 5.246a3.95 3.95 0 0 0-.218-1.678 3.266 3.266 0 0 0-.8-1.21 3.437 3.437 0 0 0-1.208-.746 4.2 4.2 0 0 0-1.443-.248A3.528 3.528 0 0 0 3.614 2.5a4.251 4.251 0 0 0-1.02 2.942v3a16.454 16.454 0 0 0 2.942.03 8.422 8.422 0 0 0 2.317-.5 3.872 3.872 0 0 0 1.558-1.04 2.729 2.729 0 0 0 .641-1.678z" transform="translate(141.49 12.266)" style="fill:#007ac3"/>
        <path data-name="Vector" d="M6.291 9.677 3.143 0 0 9.684z" transform="translate(27.359 11.875)" style="fill:#007ac3"/>
        <path data-name="Vector" d="m26.084 25.444-1.072 3.463h-4.138l7.065-22.422 4.918-.006L30.808 0 0 10.34 10.059 42l27.069-9.079-2.375-7.477z" style="fill:#007ac3"/>
        <path data-name="Vector" d="m52.242 24.793-11.69.016v-5.844h8.24l-.01-3.753-8.23.014V10.06h10.87V6.119h-14.98v10.7L40.2 28.748h12.042zm57.631-18.562v15.291l-9.09-15.291h-3.9v22.635h3.751v-15.52l9.225 15.52h3.766V6.231zM42.623 36.62h58.037v-2.317H41.893zm41.493-7.15c6.357 0 10.182-5.513 10.174-11.9S90.449 5.693 84.083 5.693s-10.163 5.513-10.156 11.9S77.762 29.48 84.116 29.47zm-.028-19.84c4.241 0 6.015 4 6.017 7.936s-1.76 7.957-6 7.961-6-4-6-7.95 1.761-7.947 5.983-7.947zM62.595 29.493a7.377 7.377 0 0 0 5.467-2.516v1.936h3.387V16.554h-8.73v3.749h5.147a5.226 5.226 0 0 1-5.285 5.259c-4.161 0-5.889-4-5.892-7.948s1.713-7.946 5.87-7.948a5.181 5.181 0 0 1 5.219 4.318l3.654-1.626c-1.59-4.325-4.627-6.638-8.868-6.636-6.237.014-9.973 5.515-9.969 11.894s3.327 11.887 10 11.877z"/>
    </g>
</svg>
