<svg xmlns="http://www.w3.org/2000/svg" width="542" height="434" viewBox="0 0 542 434">
    <defs>
        <clipPath id="9tb1scaa2a">
            <path data-name="Rectangle 27691" transform="translate(2071 -436)" style="fill:#fff" d="M0 0h542v434H0z"/>
        </clipPath>
        <clipPath id="phg8omlssb">
            <path data-name="Rectangle 27690" style="fill:none" d="M0 0h470.784v366.103H0z"/>
        </clipPath>
        <clipPath id="xmacxq7nac">
            <path data-name="Rectangle 27681" style="fill:none" d="M0 0h269.878v80.177H0z"/>
        </clipPath>
        <clipPath id="wnx40j2h5d">
            <path data-name="Rectangle 27683" style="fill:none" d="M0 0h50.927v50.927H0z"/>
        </clipPath>
        <clipPath id="4z911lf7ce">
            <path data-name="Rectangle 27684" style="fill:none" d="M0 0h124.926v17.711H0z"/>
        </clipPath>
    </defs>
    <g data-name="Group 30416">
        <g data-name="Mask Group 6090" transform="translate(-2071 436)" style="clip-path:url(#9tb1scaa2a)">
            <g data-name="Group 30359">
                <g data-name="Group 30358" style="clip-path:url(#phg8omlssb)" transform="translate(2107.121 -402.483)">
                    <g data-name="Group 30357">
                        <g data-name="Group 30356" style="clip-path:url(#phg8omlssb)">
                            <path data-name="Path 18933" d="M138.339 15.618A130.636 130.636 0 1 1 7.7 146.255 130.636 130.636 0 0 1 138.339 15.618" transform="translate(15.385 31.197)" style="fill:#ebf8ff"/>
                            <path data-name="Path 18934" d="M43.269 0H331.5a12.136 12.136 0 0 1 12.071 12.173v208.588a12.136 12.136 0 0 1-12.071 12.173H43.269A12.136 12.136 0 0 1 31.2 220.761V12.174A12.136 12.136 0 0 1 43.269 0zM331.5 231.135a10.335 10.335 0 0 0 10.272-10.374V12.174A10.335 10.335 0 0 0 331.5 1.8H43.269A10.335 10.335 0 0 0 33 12.174v208.587a10.335 10.335 0 0 0 10.272 10.374z" transform="translate(62.318 .002)" style="fill:#002b47"/>
                            <path data-name="Path 18935" d="M47.878 12.445a5.884 5.884 0 1 1-5.884-5.884 5.885 5.885 0 0 1 5.884 5.884" transform="translate(72.13 13.106)" style="fill:#1272e2"/>
                            <path data-name="Path 18936" d="M54.079 12.445A5.884 5.884 0 1 1 48.2 6.561a5.885 5.885 0 0 1 5.884 5.884" transform="translate(84.516 13.106)" style="fill:#1272e2"/>
                            <path data-name="Path 18937" d="M60.042 12.445a5.884 5.884 0 1 1-5.884-5.884 5.885 5.885 0 0 1 5.884 5.884" transform="translate(96.427 13.106)" style="fill:#1272e2"/>
                            <path data-name="Line 643" transform="translate(94.416 48.182)" style="fill:#fff" d="M0 0h310.571"/>
                            <path data-name="Line 644" d="M311.17 1.5H.6a.9.9 0 0 1 0-1.8h310.57a.9.9 0 0 1 0 1.8z" transform="translate(93.817 47.583)" style="fill:#002b47"/>
                            <g data-name="Group 30349" style="opacity:.5">
                                <g data-name="Group 30348">
                                    <g data-name="Group 30347" style="clip-path:url(#xmacxq7nac)" transform="translate(115.561 129.896)">
                                        <path data-name="Path 18938" d="M53.777 43.335v1.8a22.777 22.777 0 0 0-2.785.17l-.221-1.785a24.577 24.577 0 0 1 3.006-.185zm0 0h5.995v1.8h-5.995zm11.99 0h5.995v1.8h-5.995zm11.99 0h5.995v1.8h-5.995zm11.99 0h6v1.8h-6zm11.99 0h6v1.8h-6zm11.99 0h5.995v1.8h-5.995zm11.99 0h6v1.8h-6zm11.99 0h6v1.8h-6zm11.99 0h6v1.8h-6zm11.99 0h5.995v1.8h-5.995zm11.99 0h5.995v1.8h-5.995zm11.99 0h5.995v1.8h-5.995zm11.99 0h5.995v1.8h-5.995zm11.99 0h5.995v1.8h-5.995zm11.99 0h5.995v1.8h-5.995zm11.99 0h6v1.8h-6zm11.99 0h5.995v1.8h-5.995zm11.99 0h5.993v1.8h-5.995zm11.99 0h5.995v1.8H269.6zm11.99 0h5.995v1.8h-5.995zm12 0a23.029 23.029 0 0 1 6.154.907l-.508 1.725a21.231 21.231 0 0 0-5.673-.834zM44.747 45.17l.748 1.635a10.071 10.071 0 0 0-4.272 3.349l-1.5-1a11.841 11.841 0 0 1 5.024-3.984zm260.63 1.936a7.507 7.507 0 0 1 3.053 5.758v.048h-1.8v-.048a5.9 5.9 0 0 0-2.4-4.374zM38.553 55.443h1.8v5.995h-1.8zm268.078 3.464h1.8V64.9h-1.8zM38.553 67.433h1.8v6h-1.8zM306.631 70.9h1.8v5.995h-1.8zM38.553 79.423h1.8v6h-1.8zm268.078 3.464h1.8v6h-1.8zM38.553 91.413h1.8v5.995h-1.8zm268.078 3.464h1.8v5.995h-1.8zM38.553 103.4h1.8v6h-1.8zm268.078 3.464h1.8v5.995h-1.8zM40.5 115.145a7.218 7.218 0 0 0 3.331 4l-.967 1.516a8.956 8.956 0 0 1-4.1-5.056zm264.452 2.555 1.293 1.25a14.164 14.164 0 0 1-5.425 3.307l-.605-1.694a12.376 12.376 0 0 0 4.737-2.863zm-255.863 3.522a22.085 22.085 0 0 0 4.688.492h1.08v1.8h-1.08a23.887 23.887 0 0 1-5.07-.533zm245.513.45.108 1.8c-.5.03-1 .045-1.5.045h-4.544v-1.8h4.544c.462-.003.931-.017 1.39-.045zm-233.75.042h5.995v1.8h-5.995zm11.99 0h6v1.8h-6zm11.99 0h5.995v1.8h-5.995zm11.99 0h6v1.8h-6zm11.99 0h6v1.8h-6zm11.99 0h6v1.8h-6zm11.99 0h6v1.8h-6zm11.99 0h6v1.8h-6zm11.99 0h6v1.8h-6zm11.99 0h6v1.8h-6zm11.99 0h5.995v1.8h-5.995zm11.99 0h6v1.8h-6zm11.99 0h6v1.8h-6zm11.99 0h6v1.8h-6zm11.99 0h6v1.8h-6zm11.99 0h6v1.8h-6zm11.99 0h5.995v1.8h-5.995zm11.99 0h5.995v1.8h-5.995zm11.99 0h6v1.8h-6z" transform="translate(-38.552 -43.335)" style="fill:#002b47"/>
                                    </g>
                                </g>
                            </g>
                            <g data-name="Group 30352" style="opacity:.5">
                                <g data-name="Group 30351">
                                    <g data-name="Group 30350" style="clip-path:url(#wnx40j2h5d)" transform="translate(156.813 146.312)">
                                        <path data-name="Rectangle 27682" d="M7.754-.3v1.8a6.215 6.215 0 0 0-3.6 1.138L3.119 1.167A8 8 0 0 1 7.754-.3zm0 0h6v1.8h-6zm11.99 0h6v1.8h-6zm11.99 0h5.995v1.8h-5.995zm12.128.1a8.065 8.065 0 0 1 5.483 3.589l-1.511.975a6.264 6.264 0 0 0-4.257-2.789zM-.243 6.792 1.543 7a6.354 6.354 0 0 0-.044.75v5.137H-.3V7.754a8.161 8.161 0 0 1 .057-.962zm49.072 2.863h1.8v5.995h-1.8zM-.3 18.886h1.8v6H-.3zm49.129 2.759h1.8v5.995h-1.8zM-.3 30.876h1.8v5.995H-.3zm49.129 2.759h1.8v5.995h-1.8zM1.5 42.83a6.264 6.264 0 0 0 2.259 4.56l-1.145 1.384A8.065 8.065 0 0 1-.293 42.9zm46.767 2.331 1.637.745A8.071 8.071 0 0 1 45 50.254l-.542-1.715a6.27 6.27 0 0 0 3.813-3.378zM8.8 48.829h5.995v1.8H8.8zm11.99 0h6v1.8h-6zm11.99 0h5.995v1.8h-5.998z" transform="translate(.299 .299)" style="fill:#002b47"/>
                                        <path data-name="Path 18939" d="m63.237 70.206-7.77-7.77 7.713-7.713L64.452 56l-6.441 6.441 6.5 6.5z" transform="translate(-46.016 -37.002)" style="fill:#002b47"/>
                                        <path data-name="Path 18940" d="m64.407 70.206-1.272-1.272 6.5-6.5L63.192 56l1.272-1.272 7.713 7.713z" transform="translate(-30.701 -37.002)" style="fill:#002b47"/>
                                        <path data-name="Line 645" d="m1.358 14.845-1.63-.76L6.356-.127l1.63.76z" transform="translate(21.607 18.104)" style="fill:#002b47"/>
                                    </g>
                                </g>
                            </g>
                            <path data-name="Path 18941" d="M84.324 76.886v-8.861H59.562V57.977L77.52 19.924h12.34L71.9 57.977h12.424V43.739h10.917v14.238h5.059v10.048h-5.059v8.861z" transform="translate(118.974 39.798)" style="fill:#fff"/>
                            <path data-name="Path 18942" d="M96.739 78.384H84.024v-8.86H59.262V58.375l18.287-38.751h14.329L73.92 57.677h10.1V43.439h12.719v14.238h5.061v11.847h-5.061zm-10.917-1.8h9.118v-8.859H100v-8.249h-5.059V45.238h-9.118v14.238h-14.74l17.958-38.053H78.689L61.06 58.778v8.947h24.763z" transform="translate(118.375 39.199)" style="fill:#002b47"/>
                            <path data-name="Path 18943" d="M97.388 78.864a22.361 22.361 0 0 1-11.076-2.65 18.859 18.859 0 0 1-7.4-7.4 22.361 22.361 0 0 1-2.65-11.076V40.651a22.369 22.369 0 0 1 2.65-11.076 18.84 18.84 0 0 1 7.4-7.4 22.361 22.361 0 0 1 11.076-2.65 22.369 22.369 0 0 1 11.076 2.65 18.84 18.84 0 0 1 7.4 7.4 22.369 22.369 0 0 1 2.65 11.076V57.74a22.361 22.361 0 0 1-2.65 11.076 18.859 18.859 0 0 1-7.4 7.4 22.369 22.369 0 0 1-11.076 2.65m0-10.206a9.99 9.99 0 0 0 10.126-10.126V39.782a10.126 10.126 0 1 0-20.251 0v18.749a10 10 0 0 0 10.125 10.126" transform="translate(152.339 39.007)" style="fill:#fff"/>
                            <path data-name="Path 18944" d="M97.988 80.362A23.352 23.352 0 0 1 86.474 77.6a19.833 19.833 0 0 1-7.745-7.744 23.352 23.352 0 0 1-2.764-11.515v-17.09a23.352 23.352 0 0 1 2.764-11.514 19.819 19.819 0 0 1 7.745-7.745 25.366 25.366 0 0 1 23.028 0 19.819 19.819 0 0 1 7.745 7.745 23.352 23.352 0 0 1 2.764 11.514v17.088a23.352 23.352 0 0 1-2.764 11.514A19.834 19.834 0 0 1 109.5 77.6a23.353 23.353 0 0 1-11.512 2.762zm0-59.336a21.582 21.582 0 0 0-10.638 2.536 18.045 18.045 0 0 0-7.05 7.051 21.581 21.581 0 0 0-2.536 10.637v17.089A21.582 21.582 0 0 0 80.3 68.977a18.058 18.058 0 0 0 7.051 7.051 23.58 23.58 0 0 0 21.275 0 18.059 18.059 0 0 0 7.051-7.051 21.581 21.581 0 0 0 2.535-10.637V41.251a21.582 21.582 0 0 0-2.536-10.638 18.045 18.045 0 0 0-7.051-7.051 21.582 21.582 0 0 0-10.637-2.535zm0 49.129a10.889 10.889 0 0 1-11.025-11.024v-18.75a11.025 11.025 0 1 1 22.05 0v18.75a10.892 10.892 0 0 1-11.025 11.025zm0-39a9.1 9.1 0 0 0-8.008 4.539 9.029 9.029 0 0 0-1.219 4.688v18.749a9.227 9.227 0 1 0 18.453 0v-18.75a9.03 9.03 0 0 0-1.22-4.69 9.087 9.087 0 0 0-8.007-4.537z" transform="translate(151.74 38.408)" style="fill:#002b47"/>
                            <path data-name="Path 18945" d="M118.215 76.886v-8.861H93.453V57.977l17.958-38.053h12.341l-17.958 38.053h12.422V43.739h10.917v14.238h5.063v10.048h-5.063v8.861z" transform="translate(186.672 39.798)" style="fill:#fff"/>
                            <path data-name="Path 18946" d="M130.631 78.384h-12.716v-8.86H93.153V58.375l18.287-38.751h14.33l-17.958 38.053h10.1V43.439h12.715v14.238h5.063v11.847h-5.063zm-10.917-1.8h9.118v-8.859h5.063v-8.249h-5.063V45.238h-9.118v14.238h-14.74l17.958-38.053H112.58L94.951 58.778v8.947h24.762z" transform="translate(186.073 39.199)" style="fill:#002b47"/>
                            <g data-name="Group 30355" style="opacity:.5">
                                <g data-name="Group 30354">
                                    <g data-name="Group 30353" style="clip-path:url(#4z911lf7ce)" transform="translate(228.527 161.664)">
                                        <path data-name="Line 646" d="M123.728 1.5H.6a.9.9 0 0 1 0-1.8h123.128a.9.9 0 0 1 0 1.8z" transform="translate(.3 .3)" style="fill:#002b47"/>
                                        <path data-name="Line 647" d="M76.637 1.5H.6a.9.9 0 0 1 0-1.8h76.037a.9.9 0 0 1 0 1.8z" transform="translate(.3 16.213)" style="fill:#002b47"/>
                                    </g>
                                </g>
                            </g>
                            <path data-name="Rectangle 27685" transform="translate(372.856 273.855)" style="fill:#fff" d="M0 0h69.398v91.349H0z"/>
                            <path data-name="Rectangle 27686" d="M.6-.3H70a.9.9 0 0 1 .9.9v91.348a.9.9 0 0 1-.9.9H.6a.9.9 0 0 1-.9-.9V.6a.9.9 0 0 1 .9-.9zm68.5 1.8H1.5v89.55h67.6z" transform="translate(372.257 273.255)" style="fill:#002b47"/>
                            <path data-name="Rectangle 27687" transform="translate(442.254 273.855)" style="fill:#fff" d="M0 0h26.573v91.349H0z"/>
                            <path data-name="Rectangle 27688" d="M.6-.3h26.572a.9.9 0 0 1 .9.9v91.348a.9.9 0 0 1-.9.9H.6a.9.9 0 0 1-.9-.9V.6a.9.9 0 0 1 .9-.9zm25.673 1.8H1.5v89.55h24.773z" transform="translate(441.655 273.255)" style="fill:#002b47"/>
                            <path data-name="Path 18947" d="M153.546 63.741s12.134-5.482 15.476.015c1.825 3.012.563 8.6-3.576 10.95s-27.526 12.236-49.6 17.754a53.668 53.668 0 0 0-2.464-6.3 116.324 116.324 0 0 0 19.749-11.02 125.761 125.761 0 0 1 20.416-11.4" transform="translate(226.483 122.464)" style="fill:#d99490"/>
                            <path data-name="Path 18948" d="M138.436 74.491a70.069 70.069 0 0 1-3.7-1.007q-1.821-.531-3.462-1.109c2.074-14.61 3.951-23.788 3.951-23.788l1.064 2.677z" transform="translate(262.222 97.053)" style="fill:#cbe3ef"/>
                            <path data-name="Path 18949" d="M159.609 116.405a21.663 21.663 0 0 1 1.256 6.361c0 .947-1.226 1.939-1.714 2.206-1.76 1.019-5.222 1.73-9.424 2.248 1.733-.207 4.718-2.953 4.718-5.428 0-1.736-2.248-13.45-1.625-21.009s1.849-19.559-.489-29.175-4.556-22.265-4.556-22.265l13.18 7.961s1.7 2.38 3.567 5.267a617.916 617.916 0 0 0-.86 9.763c-.177 1.981-8.255 30.284-4.053 44.072" transform="translate(295.181 98.561)" style="fill:#cbe3ef"/>
                            <path data-name="Path 18950" d="m132.08 54.769-10.4 41.539s1.076 10.5 11.681 5.348 17.634-38.248 17.634-38.248z" transform="translate(243.054 109.401)" style="fill:#fff"/>
                            <path data-name="Path 18951" d="M132.68 54.469a.9.9 0 0 1 .374.081l18.914 8.639a.9.9 0 0 1 .506 1c-.291 1.369-7.245 33.586-18.121 38.87a13.125 13.125 0 0 1-5.617 1.514 6.708 6.708 0 0 1-6.185-3.865A11.267 11.267 0 0 1 121.384 97a.9.9 0 0 1 .022-.31l10.4-41.539a.9.9 0 0 1 .872-.681zm17.879 10.054-17.269-7.887-10.1 40.327c.133.936 1.045 5.817 5.544 5.817a11.387 11.387 0 0 0 4.831-1.333c4.115-2 8.379-9.1 12.332-20.525a165.216 165.216 0 0 0 4.661-16.399z" transform="translate(242.455 108.802)" style="fill:#002b47"/>
                            <path data-name="Path 18952" d="M212.169 67.72c-3.585-7.365-5.324-10.275-6.765-11.759a32.684 32.684 0 0 0-8.138-6.055 13.079 13.079 0 0 0-1.169-.638 1.249 1.249 0 0 0-.177-.075c-.165-.066-.264-.1-.309-.123h-.011c-2.287-.923-4.023-1.451-4.023-1.451v.006h-.015a.7.7 0 0 0-.075-.03 105.957 105.957 0 0 0-13.666-2.56h-.021c-4.086-.534-7.838-.857-10.3-.932q-4.235-.112-7.853.1c-.252.075-.549.18-.875.282a102.346 102.346 0 0 0-10.084 3.981 4.153 4.153 0 0 0-.477.237c-.4.222-.827.444-1.241.68-.15.09-.3.177-.414.237a59.38 59.38 0 0 0-4.206 2.617c-.3.21-.576.4-.872.608a26.019 26.019 0 0 0-7.236 7.53c-.087.147-.174.3-.261.444a4.847 4.847 0 0 1-.252.444c-3.33 5.977-7.071 15.044-10.182 28.554 0 0 5.342 4.068 15.224 7.455q1.641.576 3.462 1.109c0 .357.015.7.015 1.037.207 13.639 1.394 23.491-1.939 42.385-.74 4.188-2.188 7.218-.621 9.3 1.715 2.278 15.284 3.714 24.322 3.714a243.88 243.88 0 0 0 26.156-1.2h.015c4.2-.516 7.662-1.226 9.424-2.248.486-.267 1.715-1.256 1.715-2.2a21.684 21.684 0 0 0-1.259-6.361c-4.2-13.789.243-20.566.77-29.618.12-1.894 3.108-12.473 3.285-14.454.084-1.079.18-2.182.276-3.282a36.535 36.535 0 0 0 6.016-1.574c5.593-2.008 7.551-5.255 7.551-5.255s-1.49-12.05-5.794-20.908" transform="translate(246.793 88.015)" style="fill:#1272e2"/>
                            <path data-name="Path 18953" d="M165.283 43.763c.936 0 1.916.013 2.915.04 2.6.079 6.458.427 10.334.932l.074.007a111.865 111.865 0 0 1 12.742 2.309v-.037l1.161.347c.071.021 1.719.525 3.935 1.412h.051l.179.09.068.026.183.071.016.006a1.822 1.822 0 0 1 .235.1c.242.115.631.314 1.163.633a33.772 33.772 0 0 1 8.386 6.238c1.589 1.635 3.467 4.885 6.924 11.987 4.32 8.89 5.816 20.693 5.878 21.191l.038.308-.161.266c-.087.144-2.189 3.544-8.017 5.637a36.765 36.765 0 0 1-5.483 1.488c-.074.856-.149 1.729-.216 2.591-.093 1.045-.838 4.017-1.627 7.164-.75 2.994-1.6 6.387-1.657 7.277a55.359 55.359 0 0 1-1.225 7.984c-1.2 5.862-2.443 11.924.417 21.316a22.9 22.9 0 0 1 1.3 6.623c0 1.455-1.6 2.666-2.171 2.986-1.715.991-4.907 1.763-9.758 2.358l-.07.007a246.249 246.249 0 0 1-26.211 1.2 118.662 118.662 0 0 1-15.028-1.011c-8.586-1.167-9.659-2.593-10.012-3.062-1.414-1.881-.848-4.259-.192-7.013.225-.946.458-1.924.646-2.988 2.7-15.29 2.411-24.818 2.108-34.906-.07-2.344-.143-4.767-.182-7.309v-.376a67.968 67.968 0 0 1-2.871-.935c-9.9-3.393-15.249-7.418-15.472-7.588l-.462-.352.13-.566c2.7-11.709 6.153-21.4 10.273-28.79l.012-.02.071-.117a2.594 2.594 0 0 0 .139-.246l.042-.08.261-.444a26.805 26.805 0 0 1 7.486-7.8l.286-.2c.2-.136.389-.27.591-.413l.014-.01a60.183 60.183 0 0 1 4.269-2.656l.022-.012a8.56 8.56 0 0 0 .37-.212l.016-.009c.268-.153.538-.3.8-.44.148-.08.295-.159.438-.238a4.9 4.9 0 0 1 .546-.273 98.02 98.02 0 0 1 10.169-4.015l.027-.009c.145-.045.285-.091.416-.135.169-.056.326-.108.47-.15l.1-.029.1-.006a79.645 79.645 0 0 1 5.014-.147zm13.151 2.77h-.019l-.058-.008c-3.84-.5-7.657-.847-10.21-.925-.979-.026-1.944-.039-2.864-.039-1.694 0-3.308.045-4.8.133l-.324.105c-.136.045-.28.093-.431.14a96.107 96.107 0 0 0-9.97 3.934l-.029.013a3.5 3.5 0 0 0-.374.183l-.035.02c-.153.085-.31.169-.469.255a34.68 34.68 0 0 0-.753.414c-.176.106-.323.19-.437.25a58.929 58.929 0 0 0-4.125 2.567c-.2.144-.4.279-.6.416l-.274.19a25.007 25.007 0 0 0-6.98 7.256l-.236.4a4.352 4.352 0 0 1-.214.383l-.054.09c-3.966 7.122-7.313 16.447-9.949 27.721a61.425 61.425 0 0 0 14.5 6.987c1.113.39 2.263.759 3.422 1.1l.648.189v.675c0 .174 0 .343.007.51s.008.351.008.527c.038 2.515.111 4.931.181 7.268.306 10.183.6 19.8-2.134 35.273a55.654 55.654 0 0 1-.667 3.092c-.6 2.5-1.026 4.311-.12 5.516.1.132 1.194 1.324 8.817 2.36a118.507 118.507 0 0 0 14.786.994 244.021 244.021 0 0 0 26.047-1.192l.069-.007c4.518-.557 7.556-1.273 9.028-2.127l.018-.01c.47-.258 1.248-1.027 1.248-1.415a20.3 20.3 0 0 0-1.22-6.1c-2.994-9.83-1.705-16.119-.459-22.2a53.185 53.185 0 0 0 1.192-7.732 75.987 75.987 0 0 1 1.708-7.605c.7-2.8 1.5-5.982 1.579-6.876.085-1.091.182-2.2.276-3.28l.06-.689.681-.119a35.883 35.883 0 0 0 5.866-1.534A14.877 14.877 0 0 0 217.7 89c-.279-2.005-1.875-12.487-5.665-20.287-3.321-6.823-5.172-10.055-6.6-11.526a33.338 33.338 0 0 0-6.594-5.18v.093l-1.365-.823a11.973 11.973 0 0 0-1.085-.593l-.047-.023-.023-.008-.051-.019-.163-.063-.067-.026-.1-.038c-1.925-.777-3.469-1.274-3.855-1.4l-.141-.028-.07-.035a104.54 104.54 0 0 0-13.44-2.511z" transform="translate(246.122 87.416)" style="fill:#002b47"/>
                            <path data-name="Path 18954" d="M207.408 88.439a1.666 1.666 0 0 0-.039-.24c-.7-4.637-1.676-9-1.969-10.183-.042-.2-.063-.315-.063-.315-2.272-11.241-4.91-23.069-4.91-23.069l-20.506 10.48s3.7 15.437 7.611 25.758c0 0-13.759 8.867-23.324 16.169a117.347 117.347 0 0 1-18.549 11.48 7.08 7.08 0 0 1-4.173.59c-1.361-.285-1.909-.842-2.917-1.019a22.683 22.683 0 0 1-5.015-1.16c-1.325-.65-1.843-.722-1.8.609s2.665 2.485 3.375 2.854a6.78 6.78 0 0 1 1.7 1.7c.1.15-4.361 2.482-5.563 2.008a3.508 3.508 0 0 0-.153 1.673c.2.6 1.121.812 1.193 1.112s-.213.917-.012 1.4 1.016.48 1.346 1.256-.033.788.21 1.6 1.277.956 1.472 1.373.093.905.528 1.2 4.445-1 5.911-1.628 5.354-6.226 9.667-8.162c11.19-3.477 28.368-9.514 40.613-14.8a102.757 102.757 0 0 0 12.712-6.571c.117-.078 1.8-1.079 1.918-1.154.743-.384 1.154-1.463 1.334-2.965v-.012a43 43 0 0 0-.6-9.973" transform="translate(261.775 109.129)" style="fill:#fff"/>
                            <path data-name="Path 18955" d="M201.026 54.333a.9.9 0 0 1 .878.7c.026.118 2.666 11.966 4.914 23.086v.015c0 .005.02.105.056.278.3 1.2 1.28 5.579 1.976 10.212a2.579 2.579 0 0 1 .047.3 42.494 42.494 0 0 1 .6 10.157v.049c-.231 1.928-.813 3.119-1.779 3.638-.095.058-.327.2-.786.472-.4.24-1.007.6-1.087.653l-.025.016a103.459 103.459 0 0 1-12.826 6.629c-12.379 5.348-29.734 11.427-40.648 14.821-2.535 1.157-5 3.74-6.81 5.63a11.373 11.373 0 0 1-2.822 2.516 26.705 26.705 0 0 1-6.041 1.742 1.269 1.269 0 0 1-.722-.191 1.876 1.876 0 0 1-.778-1.308 3.296 3.296 0 0 0-.038-.172c-.056-.036-.137-.083-.2-.12a2.589 2.589 0 0 1-1.347-1.464 2.617 2.617 0 0 1-.107-1.123.557.557 0 0 0-.067-.379c-.061-.144-.168-.215-.437-.368a1.881 1.881 0 0 1-.913-.9 2.443 2.443 0 0 1-.084-1.362 2.345 2.345 0 0 1-1.118-1.2 4.056 4.056 0 0 1 .15-2.242.9.9 0 0 1 1.171-.561.555.555 0 0 0 .091.006 12.254 12.254 0 0 0 3.823-1.387 3.552 3.552 0 0 0-.781-.688c-.065-.034-.151-.076-.251-.126-1.239-.614-3.544-1.757-3.606-3.492a2.134 2.134 0 0 1 .441-1.6 1.315 1.315 0 0 1 .974-.4 4.057 4.057 0 0 1 1.678.545 18.38 18.38 0 0 0 4.121.975c.257.04.479.076.653.106a5.852 5.852 0 0 1 1.487.511 6.367 6.367 0 0 0 1.458.514 4.463 4.463 0 0 0 .921.093 6.911 6.911 0 0 0 2.689-.619 116.814 116.814 0 0 0 18.381-11.379c8.346-6.371 20-14.012 22.775-15.816-3.791-10.244-7.353-25.035-7.39-25.186a.9.9 0 0 1 .465-1.01l20.506-10.479a.9.9 0 0 1 .408-.092zm4.027 24.139c-1.839-9.1-3.941-18.683-4.653-21.909l-18.837 9.627a257.3 257.3 0 0 0 7.409 24.962.9.9 0 0 1-.354 1.074c-.137.088-13.839 8.931-23.265 16.127a118.714 118.714 0 0 1-18.7 11.573l-.033.015a8.726 8.726 0 0 1-3.43.779 6.262 6.262 0 0 1-1.291-.132 8.173 8.173 0 0 1-1.834-.637 4.242 4.242 0 0 0-1.052-.376c-.166-.029-.378-.062-.622-.1a18.725 18.725 0 0 1-4.633-1.137c-.213-.1-.378-.18-.5-.233.007.2.276.787 2.608 1.944.111.055.207.1.283.142a7.59 7.59 0 0 1 2.035 2.006.918.918 0 0 1 .034.94c-.086.157-.287.524-2.473 1.5a11.51 11.51 0 0 1-3.173 1 1.354 1.354 0 0 0-.009.425 1.969 1.969 0 0 0 .387.276 1.551 1.551 0 0 1 .832.926 2.1 2.1 0 0 1-.018.829 2.824 2.824 0 0 0-.044.371c.044.027.1.06.147.086a2.539 2.539 0 0 1 1.2 1.225 2.271 2.271 0 0 1 .2 1.263.878.878 0 0 0 .041.431c.042.142.286.283.522.419a1.967 1.967 0 0 1 .9.831 2.757 2.757 0 0 1 .2.657l.007.035a30.7 30.7 0 0 0 5.063-1.57 14.74 14.74 0 0 0 2.23-2.106c1.92-2.009 4.549-4.76 7.422-6.05a.9.9 0 0 1 .1-.038c10.867-3.377 28.183-9.44 40.523-14.771a101.632 101.632 0 0 0 12.591-6.507c.1-.063.394-.24 1.135-.683a54.18 54.18 0 0 0 .849-.508c.144-.075.631-.456.85-2.24v-.04a41.351 41.351 0 0 0-.593-9.737v-.037a.844.844 0 0 0-.017-.117.799.799 0 0 1-.017-.085c-.69-4.6-1.665-8.941-1.953-10.1l-.007-.033a24.872 24.872 0 0 0-.06-.317z" transform="translate(261.176 108.53)" style="fill:#002b47"/>
                            <path data-name="Path 18956" d="M179.787 63.858c-4.209 11.154-18.731 4.841-18.731 4.841l-21.678-4.841s-14.946-6.945-9.682-20.626c2.071-5.387 9.259-7.155 9.259-7.155s3.159-6.316 12-6.316 12.206 5.051 12.206 5.051a9.919 9.919 0 0 1 11.786 3.579c3.579 4.631 1.475 11.576 1.475 11.576s7.02 4.208 3.366 13.89" transform="translate(256.823 59.448)" style="fill:#002b47"/>
                            <path data-name="Path 18957" d="M145.3 63.712s-6.343 2.269-11-2.152-2.794-12.269-2.794-12.269l2.575-15.872s4.928 7.353 12.859 6.22 7.224 5.369 7.224 5.369 8.018-5.833 10.129 1.945c1.493 5.494-4.661 8.378-4.661 8.378l2.326 11.792s-.213 6.121-8.042 7.668c-8.057 1.595-8.615-4.835-8.615-4.835z" transform="translate(261.946 66.754)" style="fill:#fff"/>
                            <path data-name="Path 18958" d="M152.117 76.543a6.73 6.73 0 0 1-6.023-2.952 7.051 7.051 0 0 1-1.085-2.959V65.481a14.238 14.238 0 0 1-2.939.312 11.058 11.058 0 0 1-7.781-2.981c-4.866-4.622-3.209-12.432-3.057-13.095l2.57-15.842a.9.9 0 0 1 1.635-.357c.039.058 4.08 5.94 10.457 5.94a10.846 10.846 0 0 0 1.528-.11 13.338 13.338 0 0 1 1.873-.142 6.32 6.32 0 0 1 4.941 1.883 5.817 5.817 0 0 1 1.356 2.957 10.683 10.683 0 0 1 4.832-1.439c1.856 0 4.289.817 5.345 4.709a7.164 7.164 0 0 1-1.99 7.108 12.023 12.023 0 0 1-2.529 1.981l2.2 11.143a.9.9 0 0 1 .016.205 8.406 8.406 0 0 1-1.212 3.684c-1.035 1.729-3.186 3.971-7.554 4.834a13.368 13.368 0 0 1-2.583.272zm-5.317-6.038a5.351 5.351 0 0 0 .832 2.158 5.033 5.033 0 0 0 4.481 2.082 11.574 11.574 0 0 0 2.228-.237c6.55-1.294 7.245-6.023 7.312-6.729l-2.3-11.675a.9.9 0 0 1 .5-.988c.222-.1 5.449-2.64 4.175-7.328-.617-2.276-1.8-3.382-3.61-3.382-2.444 0-5.1 1.908-5.122 1.928a.9.9 0 0 1-1.423-.825A4 4 0 0 0 149.29 41a11.545 11.545 0 0 0-1.619.124 12.648 12.648 0 0 1-1.782.128c-5.108 0-8.8-3.12-10.637-5.117L133 50.034q-.005.032-.013.064c-.017.073-1.682 7.4 2.538 11.409a9.171 9.171 0 0 0 6.543 2.487 11.816 11.816 0 0 0 3.538-.53.9.9 0 0 1 1.2.847z" transform="translate(261.342 66.155)" style="fill:#002b47"/>
                            <path data-name="Path 18959" d="M135.842 53.449v-6.516l8.69-5.327z" transform="translate(271.344 83.108)" style="fill:#002b47"/>
                            <path data-name="Path 18960" d="M132.631 38.213c-.294.986-.027 1.936.6 2.122s1.364-.465 1.661-1.451.027-1.936-.6-2.122-1.367.465-1.661 1.451" transform="translate(264.691 73.369)" style="fill:#002b47"/>
                            <path data-name="Path 18961" d="M135.278 38.78c-.294.986-.027 1.936.6 2.122s1.364-.465 1.661-1.451.027-1.936-.6-2.122-1.367.465-1.661 1.451" transform="translate(269.978 74.502)" style="fill:#002b47"/>
                            <path data-name="Path 18962" d="M136.614 37.134a42.143 42.143 0 0 0-3.144 6.849 17.258 17.258 0 0 0 3.144.564" transform="translate(266.606 74.175)" style="fill:#fff"/>
                            <path data-name="Path 18963" d="M137.106 46.05a17.784 17.784 0 0 1-3.261-.6.9.9 0 0 1-.648-1.09 42.15 42.15 0 0 1 3.232-7.071.9.9 0 0 1 1.568.88 51.768 51.768 0 0 0-2.782 5.761 10.906 10.906 0 0 0 1.891.319.9.9 0 1 1 .218 1.785 1.786 1.786 0 0 1-.218.016z" transform="translate(266.007 73.576)" style="fill:#002b47"/>
                            <path data-name="Path 18964" d="M137.975 41.159a1.99 1.99 0 1 1-3.981 0" transform="translate(267.653 82.215)" style="fill:#fff"/>
                            <path data-name="Path 18965" d="M136.584 44.648a2.893 2.893 0 0 1-2.89-2.89.9.9 0 0 1 1.8 0 1.091 1.091 0 1 0 2.182 0 .9.9 0 0 1 1.8 0 2.893 2.893 0 0 1-2.892 2.89z" transform="translate(267.054 81.616)" style="fill:#002b47"/>
                            <path data-name="Line 648" transform="translate(419.617 113.852)" style="fill:#fff" d="M0 3.102 3.102 0"/>
                            <path data-name="Line 649" d="M.6 4.6a.9.9 0 0 1-.637-1.534l3.1-3.1a.9.9 0 1 1 1.275 1.269l-3.1 3.1A.9.9 0 0 1 .6 4.6z" transform="translate(419.018 113.252)" style="fill:#002b47"/>
                            <path data-name="Line 650" transform="translate(437.233 157.916)" style="fill:#fff" d="m0 0 4.463 16.324"/>
                            <path data-name="Line 651" d="M4.174 16.72-.289.4l1.734-.479 4.464 16.324z" transform="translate(436.655 157.758)" style="fill:#002b47"/>
                            <path data-name="Line 652" transform="translate(388.683 166.206)" style="fill:#fff" d="M.348 20.191 0 0"/>
                            <path data-name="Line 653" d="M.048 20.217-.3.026l1.8-.031.348 20.191z" transform="translate(388.084 166.196)" style="fill:#002b47"/>
                            <path data-name="Path 18966" d="m141.754 140.886 5.021-20.59-25.614-8.036-8.285 17.326c-11.049 5.024-24.109 8.783-24.109 11.3 0 1 30.889.252 52.987 0" transform="translate(177.312 224.239)" style="fill:#002b47"/>
                            <path data-name="Path 18967" d="m143.6 87.714 30.134 16.321-37.917 71.565-38.417-3.009z" transform="translate(194.547 175.209)" style="fill:#fedd31"/>
                            <path data-name="Path 18968" d="m144.209 87.308 31.706 17.173-38.615 72.877-40.393-3.167zm29.283 17.906-28.561-15.47-45.114 82.871 36.451 2.858z" transform="translate(193.579 174.397)" style="fill:#002b47"/>
                            <path data-name="Path 18969" d="m165.122 136.536-3.264-22.349-30.886 1 1 10.548c-11.049 5.021-24.109 8.783-24.109 11.3 0 1.007 35.158-.249 57.255-.5" transform="translate(215.464 228.089)" style="fill:#002b47"/>
                            <path data-name="Path 18970" d="M163.82 189.743h-40.43l-11.414-66.6a30.133 30.133 0 0 1 24.99-34.855l39.663-6.277 47.963-2.26a23.33 23.33 0 0 1-18.606 34.649l-53.215 4.026z" transform="translate(222.795 159.313)" style="fill:#fedd31"/>
                            <path data-name="Path 18971" d="M165.471 191.259h-42.238l-11.543-67.343a31.032 31.032 0 0 1 25.736-35.9l39.761-6.287 48.519-2.286.271.486a24.229 24.229 0 0 1-19.323 35.981l-52.245 3.952zm-40.721-1.8h38.623l-11.037-71.241 54.184-4.1A22.431 22.431 0 0 0 224.672 81.3l-47.351 2.231-39.613 6.269a29.233 29.233 0 0 0-24.244 33.815z" transform="translate(222.193 158.697)" style="fill:#002b47"/>
                            <path data-name="Path 18972" d="M166.134 84.2h-31.192v-3.047h31.192a1.526 1.526 0 0 1 0 3.051" transform="translate(269.547 162.103)" style="fill:#002b47"/>
                            <path data-name="Path 18973" d="M203.862 122.93h-78.1a2.083 2.083 0 0 1-2.008-1.526l-15.986-57.546a2 2 0 0 1 1.924-2.533h75.525a3.913 3.913 0 0 1 3.774 2.869l15.929 57.339a1.1 1.1 0 0 1-1.058 1.4" transform="translate(215.119 122.497)" style="fill:#002b47"/>
                            <path data-name="Path 18974" d="M202.918 122.93h-78.1a2.079 2.079 0 0 1-2.005-1.526l-15.989-57.546a2 2 0 0 1 1.924-2.533h75.528a3.918 3.918 0 0 1 3.774 2.869l15.929 57.339a1.1 1.1 0 0 1-1.061 1.4" transform="translate(213.234 122.497)" style="fill:#fff"/>
                            <path data-name="Path 18975" d="M203.518 124.428h-78.1a2.987 2.987 0 0 1-2.872-2.186L106.558 64.7a2.9 2.9 0 0 1 2.791-3.673h75.528a4.831 4.831 0 0 1 4.64 3.527l15.929 57.339a2 2 0 0 1-1.928 2.537zm-94.169-61.6a1.1 1.1 0 0 0-1.058 1.393l15.986 57.546a1.184 1.184 0 0 0 1.139.867h78.1a.2.2 0 0 0 .195-.257l-15.927-57.343a3.027 3.027 0 0 0-2.907-2.21z" transform="translate(212.634 121.897)" style="fill:#002b47"/>
                            <path data-name="Path 18976" d="m42.985 85.8 10.941-11.213s.378-5 .974-6.058 2.137-4.961 2.9-5.386a3.954 3.954 0 0 1 2.3 0 10.518 10.518 0 0 1 2.2-.513 6.473 6.473 0 0 1 1.957.623s1.634-.111 2.317-.111a1.466 1.466 0 0 1 .9.189 48.389 48.389 0 0 1 3.915-4.056c1.28-1.022 3.234-2.9 3.813-2.9.546.006.785.965.39 1.987a11.388 11.388 0 0 1-2.128 2.671l-4.985 7.557a10.64 10.64 0 0 0 1.3-.626c.456-.285 3.5-3.123 3.681-3.237s1.547-1.022 2.341-.114-5.219 8.114-6.184 9.079-6.5 3.765-6.5 3.765-5.836 10.5-6.406 11.181S42.985 85.8 42.985 85.8" transform="translate(85.863 112.619)" style="fill:#fff"/>
                            <path data-name="Path 18977" d="M56.894 90.229c-2.413 0-12.41-2.654-13.542-2.957a.9.9 0 0 1-.411-1.5l10.713-10.981c.122-1.5.467-5.052 1.062-6.106.165-.291.441-.893.733-1.53 1.218-2.653 1.836-3.823 2.514-4.2a2.808 2.808 0 0 1 1.375-.3 6.439 6.439 0 0 1 1.328.156 9.323 9.323 0 0 1 2.234-.481 6.2 6.2 0 0 1 2.13.61c.484-.031 1.591-.1 2.145-.1a3.676 3.676 0 0 1 .617.048 41.348 41.348 0 0 1 3.635-3.718c.351-.28.753-.627 1.18-.994 1.77-1.524 2.5-2.1 3.191-2.1h.018a1.377 1.377 0 0 1 1.127.63 2.879 2.879 0 0 1 .087 2.581 10.991 10.991 0 0 1-2.271 2.925l-2.049 3.107a7.717 7.717 0 0 1 .884-.759l.011-.007a3.614 3.614 0 0 1 1.9-.639 2.036 2.036 0 0 1 1.577.707c.644.736.453 1.854-2.389 5.649-1.5 2-3.272 4.094-3.836 4.658-.946.946-5.144 3.125-6.479 3.806-1.517 2.727-5.807 10.409-6.368 11.081a1.371 1.371 0 0 1-1.116.414zm-11.588-4.3c3.568.925 9.739 2.442 11.485 2.5.845-1.332 4.117-7.145 6.151-10.8a.9.9 0 0 1 .38-.365 47.889 47.889 0 0 0 6.266-3.6c.385-.385 1.866-2.1 3.324-4.01a20.244 20.244 0 0 0 2.582-3.934 1.9 1.9 0 0 0-.917.356c-.138.114-.662.588-1.126 1.009a33.5 33.5 0 0 1-2.589 2.25 11.126 11.126 0 0 1-1.446.7.9.9 0 0 1-1.086-1.335l4.985-7.557a.9.9 0 0 1 .13-.156 10.077 10.077 0 0 0 1.911-2.347 1.986 1.986 0 0 0 .125-.5c-.5.363-1.214.981-1.7 1.4a44.96 44.96 0 0 1-1.23 1.035 47.956 47.956 0 0 0-3.8 3.943.9.9 0 0 1-1.166.166 1.417 1.417 0 0 0-.412-.046c-.645 0-2.24.108-2.256.109a.9.9 0 0 1-.455-.089 5.473 5.473 0 0 0-1.563-.532 9.433 9.433 0 0 0-1.913.465.9.9 0 0 1-.529.014 4.938 4.938 0 0 0-1.122-.157 1.291 1.291 0 0 0-.473.064 20.771 20.771 0 0 0-1.781 3.392c-.322.7-.6 1.307-.8 1.665a26.488 26.488 0 0 0-.86 5.683.9.9 0 0 1-.253.56z" transform="translate(85.263 112.02)" style="fill:#002b47"/>
                            <path data-name="Path 18978" d="M110.3 63.367c-.354-.036-2.611 1.775-3.7 2.668l1.256-2.4a23.479 23.479 0 0 0 2.254-2.482c.6-.878.282-1.76-.189-1.8-.33-.033-2.314 1.538-3.465 2.476l.255-.483a23.481 23.481 0 0 0 2.254-2.482c.6-.878.282-1.76-.189-1.8s-4.286 3.156-4.286 3.156l-1.86 2.48 1.4-2.722a11.744 11.744 0 0 0 1.229-1.885c.495-.986.138-1.286-.135-1.613s-2.842 1.586-3.5 2.35a39.644 39.644 0 0 0-2.9 4.3l-2.146 4.442c-.138-1.286-.354-3.489-.5-4.895-.219-2.02-2.05-2.5-2.113-1.517s-2.632 9.709-.3 15.086l-22.508 25.283-10.573-8.037-9.166 21.808 15.4 7.985a7.663 7.663 0 0 0 9.814-2.428q2.855-4.307 5.71-8.621 5.845-8.822 11.684-17.64 2.77-4.177 5.533-8.354c1.6-2.422 3.465-4.814 4.883-7.341a15.471 15.471 0 0 0 1.757-5.782 13.5 13.5 0 0 1 1.688-4.739c.668-1.241 1.81-2.041 2.6-3.207.6-.878.282-1.757-.189-1.8" transform="translate(102.707 112.742)" style="fill:#fff"/>
                            <path data-name="Path 18979" d="M105.62 56.141a1.012 1.012 0 0 1 .8.364l.047.056a1.86 1.86 0 0 1 .525 1.558c1.792-1.365 2.141-1.365 2.375-1.365.03 0 .072 0 .1.005a1.432 1.432 0 0 1 1.139.855 2.167 2.167 0 0 1 .109 1.452 1.45 1.45 0 0 1 1.036.841 2.415 2.415 0 0 1-.3 2.349 9.106 9.106 0 0 1-.64.811h.074c.03 0 .071 0 .1.005a1.44 1.44 0 0 1 1.142.862 2.417 2.417 0 0 1-.3 2.342 12.18 12.18 0 0 1-1.264 1.5 8.037 8.037 0 0 0-1.29 1.626 12.849 12.849 0 0 0-1.586 4.419 16.343 16.343 0 0 1-1.865 6.116c-.956 1.7-2.11 3.35-3.227 4.941-.565.806-1.15 1.639-1.69 2.456l-.072.108q-2.729 4.123-5.462 8.246l-4.654 7.027-7.03 10.613-5.71 8.621-.011.017A8.56 8.56 0 0 1 67 124.682L51.6 116.7a.9.9 0 0 1-.415-1.147l9.166-21.807a.9.9 0 0 1 1.373-.367l9.91 7.533L93.22 76.667c-1.727-4.7-.348-11.169.254-13.991.09-.423.183-.86.193-.974a1.379 1.379 0 0 1 1.424-1.33 2.869 2.869 0 0 1 2.481 2.812c.054.506.116 1.113.18 1.743l.758-1.57a39.467 39.467 0 0 1 3.034-4.515c.464-.542 3-2.701 4.076-2.701zm-2.391 8.059a.9.9 0 0 1-.8-1.311l1.4-2.722a.9.9 0 0 1 .1-.158 10.923 10.923 0 0 0 1.117-1.71 13.2 13.2 0 0 0-2.142 1.717 42.4 42.4 0 0 0-2.745 4.049q-.012.031-.027.061l-2.142 4.44a.9.9 0 0 1-1.7-.3c-.069-.648-.159-1.528-.249-2.422s-.18-1.775-.254-2.473a1.729 1.729 0 0 0-.407-1.007c-.035.177-.082.4-.143.683-.539 2.525-1.969 9.233-.146 13.442a.9.9 0 0 1-.154.955l-22.509 25.282a.9.9 0 0 1-1.216.118l-9.649-7.334-8.4 19.972 14.662 7.6a6.762 6.762 0 0 0 8.656-2.135q2.852-4.3 5.7-8.612l7.03-10.613 4.663-7.022q2.734-4.123 5.461-8.245l.072-.108c.554-.837 1.145-1.68 1.718-2.5 1.091-1.555 2.219-3.164 3.131-4.789a14.569 14.569 0 0 0 1.648-5.447 14.51 14.51 0 0 1 1.789-5.059 9.528 9.528 0 0 1 1.564-2.005 11.6 11.6 0 0 0 1.013-1.176 54.497 54.497 0 0 0-2.5 1.958.9.9 0 0 1-1.367-1.112l1.256-2.4a.9.9 0 0 1 .172-.23 23.848 23.848 0 0 0 2.058-2.232c-.5.36-1.231.922-2.265 1.765a.9.9 0 0 1-1.365-1.12l.255-.483a.9.9 0 0 1 .171-.227 23.776 23.776 0 0 0 2.061-2.236 64.23 64.23 0 0 0-3 2.374l-1.8 2.4a.9.9 0 0 1-.717.372z" transform="translate(102.108 112.142)" style="fill:#002b47"/>
                            <path data-name="Path 18980" d="M66.4 47.241c6.837 5.518 3.528 14.565 3.528 14.565L58.67 79.683 48.08 94.689S28.6 74.561 34.615 63.131a10.685 10.685 0 0 1 5.719-5.458c2.734-1 5.983-3.324 7.083-6.019 2.494-6.121 13.141-9.118 18.98-4.412" transform="translate(66.841 89.753)" style="fill:#002b47"/>
                            <path data-name="Path 18981" d="M68.182 61.562c-3.915-3.7-5.671-7.251-9.541-13.45 0 0-4.625-1.5-6.313 5.324s-9.043 5.74-9.043 5.74a5.972 5.972 0 0 0-6.055 3.447c-3.069 6.783 4.553 10.455 4.553 10.455L37.14 82.35l-.4 5.884 17.8 3.483-.34-11.684s7.407 1.565 11.948-4.538c3.969-5.339.279-12.646.279-12.646l1.667-.749a.328.328 0 0 0 .09-.537" transform="translate(72.911 95.827)" style="fill:#fff"/>
                            <path data-name="Path 18982" d="M58.165 47.674a4.7 4.7 0 0 1 1.352.183.9.9 0 0 1 .486.379c.757 1.212 1.418 2.3 2.058 3.35 2.574 4.229 4.274 7.022 7.338 9.923a1.227 1.227 0 0 1-.339 2.009l-.852.383c.885 2.185 2.725 8.067-.741 12.729a12.847 12.847 0 0 1-10.517 5.081c-.465 0-.879-.022-1.223-.051l.311 10.63a.9.9 0 0 1-1.072.909l-17.8-3.483a.9.9 0 0 1-.724-.944l.4-5.884a.9.9 0 0 1 .093-.341l4.26-8.506a12.8 12.8 0 0 1-2.922-2.459 7.731 7.731 0 0 1-1.264-8.729 6.73 6.73 0 0 1 6.333-4 5.387 5.387 0 0 1 .66.035 7.632 7.632 0 0 0 .979.055c2.168 0 5.969-.665 7.073-5.12 1.324-5.351 4.397-6.149 6.111-6.149zm.513 1.836a3.51 3.51 0 0 0-.513-.037c-1.451 0-3.386.829-4.364 4.779-1.451 5.854-6.651 6.486-8.819 6.486a9.264 9.264 0 0 1-1.215-.07 3.977 3.977 0 0 0-.424-.019 4.911 4.911 0 0 0-4.694 2.946 5.965 5.965 0 0 0 .988 6.813 11 11 0 0 0 3.137 2.461.9.9 0 0 1 .414 1.213l-4.562 9.11-.337 4.908 15.919 3.115-.308-10.556a.9.9 0 0 1 1.085-.906 11.7 11.7 0 0 0 11.041-4.2c3.6-4.836.232-11.636.2-11.7a.9.9 0 0 1 .434-1.225l.9-.4c-2.871-2.869-4.641-5.776-7.03-9.7-.585-.96-1.183-1.942-1.852-3.018z" transform="translate(72.311 95.228)" style="fill:#002b47"/>
                            <path data-name="Path 18983" d="m40.41 57.237 6.082 3.669.324 7.716z" transform="translate(80.719 114.33)" style="fill:#002b47"/>
                            <path data-name="Path 18984" d="M43.827 53.063c.4.9 1.181 1.421 1.748 1.169s.7-1.184.3-2.08-1.181-1.421-1.748-1.169-.7 1.181-.3 2.08" transform="translate(87.086 101.712)" style="fill:#002b47"/>
                            <path data-name="Path 18985" d="M47.788 54.425a1.951 1.951 0 0 1-3.9 0" transform="translate(87.66 108.714)" style="fill-rule:evenodd;fill:#fff"/>
                            <path data-name="Path 18986" d="M46.436 57.875a2.854 2.854 0 0 1-2.851-2.851.9.9 0 1 1 1.8 0 1.052 1.052 0 1 0 2.1 0 .9.9 0 1 1 1.8 0 2.854 2.854 0 0 1-2.849 2.851z" transform="translate(87.061 108.115)" style="fill:#002b47"/>
                            <path data-name="Path 18987" d="m85.562 89.517-1.544 69.491a17.838 17.838 0 0 1-16.9 17.418l-56.128 2.956 1.277-26.771 37.6-3.822-9.555-65.645z" transform="translate(21.959 166.08)" style="fill:#fedd31"/>
                            <path data-name="Path 18988" d="m39.879 82.791 47.23 6.651-1.561 70.29a18.738 18.738 0 0 1-17.749 18.3l-57.121 3.008 1.361-28.54 37.437-3.805zM85.275 91 42 84.907l9.521 65.387-37.764 3.838-1.193 25 55.135-2.9a16.939 16.939 0 0 0 16.045-16.54z" transform="translate(21.328 165.375)" style="fill:#002b47"/>
                            <path data-name="Path 18989" d="m27.765 110.895 12.856-.078-.594 14.46-15.941-.558z" transform="translate(48.114 221.357)" style="fill:#fff"/>
                            <path data-name="Path 18990" d="M41.22 110.517a.9.9 0 0 1 .9.936l-.594 14.46a.9.9 0 0 1-.93.862l-15.941-.558a.9.9 0 0 1-.838-1.13l3.683-13.824a.9.9 0 0 1 .864-.668l12.856-.078zm-1.455 14.429.518-12.625-11.227.068-3.211 12.07z" transform="translate(47.514 220.758)" style="fill:#002b47"/>
                            <path data-name="Path 18991" d="m58.531 82.258 50.3 87.5a18.118 18.118 0 0 1-15.85 27.142l-63.7-.489 1.412-29.211 34.834.042L27.567 114" transform="translate(55.065 164.31)" style="fill:#fedd31"/>
                            <path data-name="Path 18992" d="M93.728 198.4h-.154l-64.639-.5 1.5-31 33.944.041-36.945-51.824a.9.9 0 0 1 1.464-1.044l38.975 54.674-35.724-.047-1.328 27.418 62.766.481a17.219 17.219 0 0 0 15.061-25.8l-50.3-87.5a.9.9 0 0 1 1.559-.9l50.3 87.5a19.017 19.017 0 0 1-16.48 28.5z" transform="translate(54.466 163.711)" style="fill:#002b47"/>
                            <path data-name="Path 18993" d="M124.742 87.984s-18.959-21-24.163-23.234-31.977-5.387-42.2-4.089c-.1.012-.195.036-.3.045a20.828 20.828 0 0 0-14.235 8.717 21.434 21.434 0 0 0-1.7 2.938l-.806.318-20.564 55.978.608.087-.474.435s27.587 19.421 57.982 9.358l17.51-35.374 15.329 6.172c1.981-7.584 13.015-21.351 13.015-21.351" transform="translate(41.496 120.567)" style="fill:#1272e2"/>
                            <path data-name="Path 18994" d="M65.32 60.059c11.682 0 31.794 2.462 36.475 4.464 5.324 2.282 23.7 22.594 24.477 23.458l.513.568-.478.6c-.109.136-10.937 13.705-12.847 21.016l-.258.988-15.5-6.242-17.31 34.961-.357.118a58.652 58.652 0 0 1-18.474 2.939 74.232 74.232 0 0 1-28.644-6.2 69.375 69.375 0 0 1-11.663-6.217l-.718-.506-.126-.018.021-.056-.089-.063.169-.155L41.5 72.589l.859-.338a21.537 21.537 0 0 1 16.462-11.836h.044c.029 0 .056-.008.083-.013.062-.011.124-.022.191-.029a50.969 50.969 0 0 1 6.181-.314zm59.109 28.564c-5.61-6.177-19.347-20.735-23.34-22.447-4.17-1.784-23.372-4.318-35.767-4.319a49.242 49.242 0 0 0-5.965.3c-.039 0-.066.01-.092.015-.059.01-.132.023-.218.032a20.017 20.017 0 0 0-13.6 8.341 20.487 20.487 0 0 0-1.624 2.814l-.153.315-.757.3-20.048 54.549 1.388.2-1.024.94a74.36 74.36 0 0 0 10.442 5.437 72.407 72.407 0 0 0 27.89 6.034 56.9 56.9 0 0 0 17.554-2.734l17.71-35.781 15.186 6.114c2.289-6.921 10.343-17.462 12.417-20.11z" transform="translate(40.633 119.968)" style="fill:#002b47"/>
                            <path data-name="Path 18995" d="m41.416 76.838 25.961 14.595a4.527 4.527 0 0 0 6.271-1.933l9.862-19.925" transform="translate(82.728 138.976)" style="fill:#1272e2"/>
                            <path data-name="Path 18996" d="M69.876 93.181a5.388 5.388 0 0 1-2.645-.7l-25.962-14.6.881-1.568 25.962 14.602a3.628 3.628 0 0 0 5.025-1.552L83 69.442l1.612.8-9.864 19.919a5.378 5.378 0 0 1-3.261 2.774 5.455 5.455 0 0 1-1.611.246z" transform="translate(82.435 138.71)" style="fill:#002b47"/>
                            <path data-name="Path 18997" d="m9.58 106.4 12.856-.078-.594 14.46-15.942-.56z" transform="translate(11.79 212.374)" style="fill:#fff"/>
                            <path data-name="Path 18998" d="M23.036 106.02a.9.9 0 0 1 .9.936l-.594 14.46a.9.9 0 0 1-.93.862L6.47 121.72a.9.9 0 0 1-.838-1.13l3.678-13.824a.9.9 0 0 1 .864-.668l12.856-.078zm-1.456 14.429.518-12.625-11.227.068-3.211 12.07z" transform="translate(11.19 211.774)" style="fill:#002b47"/>
                            <path data-name="Path 18999" d="M20.8 116.08c-.264 2.725 2.119 5.183 1.682 5.86s-8.4 14.052-8.4 14.052 6.016 2.623 5.045 6.409H3.883S-.095 138.807 0 133.663A44.263 44.263 0 0 1 3.757 122.5c2.716-5.24 8.894-17.074 8.894-17.074a8.63 8.63 0 0 1 5.081.1 30.882 30.882 0 0 1 7.374 3.3s-3.651.525-4.3 7.26" transform="translate(-.001 209.97)" style="fill:#002b47"/>
                            <path data-name="Path 19000" d="M38.96 120.48c-.264 2.725 2.119 5.183 1.682 5.86s-8.4 14.052-8.4 14.052 6.016 2.623 5.045 6.409H22.042s-3.978-3.594-3.882-8.738a44.327 44.327 0 0 1 3.753-11.163c2.719-5.24 8.9-17.074 8.9-17.074a8.63 8.63 0 0 1 5.081.1 30.88 30.88 0 0 1 7.374 3.3s-3.651.525-4.3 7.26" transform="translate(36.271 218.759)" style="fill:#002b47"/>
                        </g>
                    </g>
                </g>
            </g>
        </g>
    </g>
</svg>
