<svg xmlns="http://www.w3.org/2000/svg" width="64" height="64" viewBox="0 0 64 64">
    <g data-name="Group 30115">
        <path data-name="Rectangle 27273" style="fill:none" d="M0 0h64v64H0z"/>
        <g data-name="Group 30077">
            <g data-name="Group 29493">
                <path data-name="Path 18192" d="M22.364 17.755H6.267c-1.694 0-3.069.213-3.069-.617V1.5C3.2.673 4.572 0 6.267 0h16.1c1.7 0 3.069 1.486 3.069 2.316v14.823c0 .83-1.373.617-3.069.617" transform="translate(3.562 13.998)" style="fill:#fcec95"/>
                <path data-name="Path 18189" d="M768.562 1400.032c-2.654 0-5.075-.009-6.528-.036a6.042 6.042 0 0 1-4.684-1.964 7.624 7.624 0 0 1-1.544-5.24v-25.742a5.766 5.766 0 0 1 1.609-4.277 6.867 6.867 0 0 1 4.656-1.738c.273 0 7.482.082 12.737 0a5.711 5.711 0 0 1 4.522 1.691 6.32 6.32 0 0 1 1.451 4.356v11.418a.963.963 0 1 1-1.926 0v-11.53a4.35 4.35 0 0 0-.944-2.91 3.925 3.925 0 0 0-3.077-1.057c-5.356.084-12.721 0-12.8 0h-.022a5.019 5.019 0 0 0-3.274 1.194 3.865 3.865 0 0 0-1.013 2.853v25.787a1.019 1.019 0 0 1-.005.1 5.7 5.7 0 0 0 1.075 3.8 4.23 4.23 0 0 0 3.268 1.29c3.68.068 13.634.022 17.743 0h.005a.985.985 0 0 1 .005 1.969c-2.493.014-7.151.036-11.254.036z" transform="translate(-750.787 -1348.033)" style="fill:#094771"/>
                <path data-name="Path 18190" d="M770.652 1368.046h-10.821a1.012 1.012 0 0 1 0-2h10.821a1.012 1.012 0 0 1 0 2z" transform="translate(-747.914 -1346.698)" style="fill:#094771"/>
                <path data-name="Path 18191" d="M770.652 1368.046h-10.821a1.012 1.012 0 0 1 0-2h10.821a1.012 1.012 0 0 1 0 2z" transform="translate(-747.914 -1342.763)" style="fill:#094771"/>
                <g data-name="Group 29492">
                    <path data-name="Path 18193" d="M772.318 1368.046h-12.694c-.356 0-.645-.447-.645-1s.289-1 .645-1h12.694c.356 0 .644.447.644 1s-.288 1-.644 1z" transform="translate(-747.914 -1326.696)" style="fill:#094771"/>
                    <path data-name="Path 18194" d="M770.881 1391.35a1 1 0 0 1-.681-1.73l5.085-4.74-5.1-4.912a1 1 0 0 1 1.386-1.439l5.856 5.644a1 1 0 0 1-.012 1.45l-5.856 5.459a1 1 0 0 1-.678.268z" transform="translate(-751.983 -1344.226)" style="fill:#094771"/>
                </g>
            </g>
            <g data-name="Group 29494">
                <path data-name="Path 18192" d="M6.267.025h16.1c1.694 0 3.069-.213 3.069.617v15.635c0 .83-1.374 1.5-3.069 1.5h-16.1c-1.7 0-3.069-1.486-3.069-2.316V.641c0-.83 1.373-.617 3.069-.617" transform="translate(32.128 33.221)" style="fill:#147bf3"/>
                <path data-name="Path 18189" d="M761.62 1400.033a5.656 5.656 0 0 1-4.375-1.692 6.32 6.32 0 0 1-1.451-4.356v-11.421a.963.963 0 1 1 1.926 0v11.533a4.35 4.35 0 0 0 .944 2.91 3.927 3.927 0 0 0 3.077 1.057c5.356-.084 12.721 0 12.8 0h.022a5.009 5.009 0 0 0 3.274-1.194 3.864 3.864 0 0 0 1.013-2.853v-25.787a.991.991 0 0 1 .005-.1 5.7 5.7 0 0 0-1.075-3.8 4.231 4.231 0 0 0-3.268-1.29c-3.68-.068-13.634-.022-17.743 0h-.005a.985.985 0 0 1-.005-1.969c4.115-.022 14.088-.068 17.788 0a6.041 6.041 0 0 1 4.684 1.964 7.624 7.624 0 0 1 1.544 5.24v25.744a5.766 5.766 0 0 1-1.609 4.277 6.881 6.881 0 0 1-4.656 1.738c-.273 0-7.482-.082-12.736 0z" transform="translate(-721.467 -1348.033)" style="fill:#094771"/>
                <path data-name="Path 18190" d="M770.469 1368.046h-10.652a1.014 1.014 0 0 1 0-2h10.651a1.014 1.014 0 0 1 0 2z" transform="translate(-718.249 -1322.398)" style="fill:#fff"/>
                <path data-name="Path 18191" d="M770.469 1368.046h-10.652a1.014 1.014 0 0 1 0-2h10.651a1.014 1.014 0 0 1 0 2z" transform="translate(-718.249 -1326.332)" style="fill:#fff"/>
                <g data-name="Group 29492">
                    <path data-name="Path 18193" d="M773.166 1368.046h-13.5c-.379 0-.686-.447-.686-1s.307-1 .686-1h13.5c.379 0 .686.447.686 1s-.307 1-.686 1z" transform="translate(-719.586 -1342.574)" style="fill:#094771"/>
                    <path data-name="Path 18194" d="M776.736 1391.35a1 1 0 0 1-.693-.28l-5.855-5.644a1 1 0 0 1 .012-1.45l5.856-5.459a1 1 0 0 1 1.362 1.461l-5.085 4.74 5.1 4.912a1 1 0 0 1-.693 1.718z" transform="translate(-731.193 -1360.55)" style="fill:#094771"/>
                </g>
            </g>
        </g>
    </g>
</svg>
