<svg xmlns="http://www.w3.org/2000/svg" width="64" height="64" viewBox="0 0 64 64">
    <g data-name="Group 22399">
        <path data-name="Rectangle 23598" style="fill:none" d="M0 0h64v64H0z"/>
        <g data-name="Group 22371">
            <path data-name="Rectangle 23599" style="opacity:.2;fill:none" d="M0 0h53.333v53.333H0z" transform="translate(5.334 5.333)"/>
            <g data-name="Group 22370">
                <path data-name="Subtraction 56" d="M12 24a12 12 0 1 1 12-12 12.014 12.014 0 0 1-12 12zm0-21.583a1 1 0 0 0-1 1V13.5h9.917a1 1 0 0 0 0-2H13V3.416a1 1 0 0 0-1-.999z" transform="translate(33.334 32.666)" style="fill:#1272e2"/>
                <path data-name="Path 13205" d="M22.089 49.316a.97.97 0 0 1-.156-.043.988.988 0 0 1-.163-.076L.511 37.413A.989.989 0 0 1 0 36.552V12.887a.826.826 0 0 1 .008-.142v-.007a.13.13 0 0 0 0-.02v-.029a.242.242 0 0 1 0-.026v-.034a.99.99 0 0 1 .468-.61l.017-.009.042-.01L21.784.129a1 1 0 0 1 .49-.129 1.02 1.02 0 0 1 .526.144l8.039 4.821a1.091 1.091 0 0 0-.138-.041 1 1 0 0 1 .442.225l12.377 7.425a.966.966 0 0 1 .334.332l.006.008v.008a.055.055 0 0 1 .006.012l.006.009a.961.961 0 0 1 .115.359v.038a.036.036 0 0 1 0 .012v.009a.029.029 0 0 1 0 .009.032.032 0 0 0 0 .011v9.924a1 1 0 0 1-2 0V15.1l-18.71 10.327v21.222l3.844-2.149a1.01 1.01 0 0 1 1.365.369.974.974 0 0 1-.375 1.345L22.774 49.2l-.013.007-.013.008a1.021 1.021 0 0 1-.47.116 1 1 0 0 1-.189-.015zM2 35.976l19.27 10.683V25.42l-6.47-3.642v5.61a.984.984 0 0 1-.5.855 1.019 1.019 0 0 1-1 0l-4.145-2.36a.98.98 0 0 1-.5-.854v-6.711L2 14.573zm8.659-17.636v6.12l2.141 1.218v-5.457a.981.981 0 0 1 .5-.851L33.927 7.484a1.026 1.026 0 0 1 .184-.083 1 1 0 0 0-.184.083l-1.4.806-2.08-1.248zm11.622 5.374 18.732-10.333-6.543-3.924-19.67 11.33 1.126-.649zM9.155 16.918zm-6.129-4.043 6.651 3.745L28.5 5.874l-6.242-3.743zm32-3.741zm.016-.012h.006zm.016-.012.011-.008zm.016-.013.014-.012zm.016-.013a.977.977 0 0 0 .317-.5.959.959 0 0 0 .007-.468.976.976 0 0 1-.328.968zm.323-.973v-.015zm-.013-.025v-.01zm-.007-.025zm-.1-.224zM34.125 7.4l.016-.005zm-3.085-.7zm.016-.011h.007zm.017-.012.01-.007zm.016-.012.014-.011zm.016-.013a.977.977 0 0 0 .338-.514.963.963 0 0 0 .018-.423.978.978 0 0 1-.356.938zm.356-.939v-.019zm-.005-.026v-.012zm-.006-.026zm-.11-.272-.011-.018zm-1.369-.359zm.239-.1h.005zm.023-.006h.016zm.463 0a1.008 1.008 0 0 0-.442 0 1.024 1.024 0 0 1 .442 0z" transform="translate(6.035 6.666)" style="fill:#094771"/>
            </g>
        </g>
    </g>
</svg>
