<svg xmlns="http://www.w3.org/2000/svg" width="32" height="32" viewBox="0 0 32 32">
    <defs>
        <clipPath id="19haie7pea">
            <path data-name="Rectangle 23598" transform="translate(310 543)" style="fill:#d6d6d6" d="M0 0h32v32H0z"/>
        </clipPath>
    </defs>
    <g data-name="Mask Group 5961" transform="rotate(180 171 287.5)" style="clip-path:url(#19haie7pea)">
        <g data-name="Group 22374">
            <path d="M17.2 4.25a2.663 2.663 0 0 1 2.6 2.714v5.042h4.736a3.413 3.413 0 0 1 2.718 1.365 3.808 3.808 0 0 1 .64 3.287l-2.276 8.459a2.6 2.6 0 0 1-2.48 1.962h-11.4a.75.75 0 0 1-.433-.138L8.567 25a.75.75 0 0 1-.317-.612v-9.693a.747.747 0 0 1 .156-.458l6.752-8.952A2.549 2.549 0 0 1 17.2 4.25zm5.94 21.329a1.1 1.1 0 0 0 1.032-.851l2.276-8.459a2.3 2.3 0 0 0-.382-1.985 1.925 1.925 0 0 0-1.528-.778h-5.483a.75.75 0 0 1-.75-.75V6.964A1.163 1.163 0 0 0 17.2 5.75a1.062 1.062 0 0 0-.847.438L9.75 14.946V24l2.231 1.577z" transform="translate(311.998 543)" style="fill:#1272e2"/>
            <path d="M0-.75h7.427a.75.75 0 0 1 .75.75v13.616a.75.75 0 0 1-.75.75H0a.75.75 0 0 1-.75-.75V0A.75.75 0 0 1 0-.75zM6.677.75H.75v12.116h5.927z" transform="translate(313 555.522)" style="fill:#1272e2"/>
        </g>
    </g>
</svg>
