<svg id="Layer_1" data-name="Layer 1" xmlns="http://www.w3.org/2000/svg" xmlns:xlink="http://www.w3.org/1999/xlink" viewBox="0 0 168 172"><defs><style>.cls-1{fill:none;}.cls-2{clip-path:url(#clip-path);}.cls-3{clip-path:url(#clip-path-2);}.cls-4{fill:#1272e2;}.cls-5,.cls-7{fill:#002b47;}.cls-19,.cls-6{fill:#fff;}.cls-12,.cls-19,.cls-7,.cls-9{fill-rule:evenodd;}.cls-8,.cls-9{fill:#fedd31;}.cls-10{opacity:0.46;}.cls-11{clip-path:url(#clip-path-4);}.cls-12{fill:#ade0fe;}.cls-13{clip-path:url(#clip-path-5);}.cls-14{clip-path:url(#clip-path-6);}.cls-15{clip-path:url(#clip-path-7);}.cls-16{clip-path:url(#clip-path-8);}.cls-17{clip-path:url(#clip-path-9);}.cls-18{clip-path:url(#clip-path-10);}</style><clipPath id="clip-path"><rect class="cls-1" x="-4" y="1" width="194" height="173"/></clipPath><clipPath id="clip-path-2"><rect class="cls-1" x="18.99" y="12.94" width="132.04" height="160.87"/></clipPath><clipPath id="clip-path-4"><rect class="cls-1" x="101.45" y="110.47" width="5.32" height="5.21"/></clipPath><clipPath id="clip-path-5"><rect class="cls-1" x="124.12" y="125.51" width="5.32" height="5.21"/></clipPath><clipPath id="clip-path-6"><rect class="cls-1" x="107.78" y="151.57" width="5.32" height="5.21"/></clipPath><clipPath id="clip-path-7"><rect class="cls-1" x="127.13" y="161.19" width="5.32" height="5.21"/></clipPath><clipPath id="clip-path-8"><rect class="cls-1" x="82.48" y="142.88" width="5.32" height="5.21"/></clipPath><clipPath id="clip-path-9"><rect class="cls-1" x="84.91" y="80.97" width="5.32" height="5.21"/></clipPath><clipPath id="clip-path-10"><rect class="cls-1" x="71.48" y="50.53" width="5.32" height="5.21"/></clipPath></defs><g class="cls-2"><g class="cls-3"><g class="cls-3"><path class="cls-4" d="M89.58,73.28l30.87,13.77s-5.83,26.46-14.81,21.15C96.5,102.8,86.8,97.53,79.36,93.59a22,22,0,0,1-11.9-20.51l2-39.39,18.57,4.43Z"/><path class="cls-5" d="M68.91,32.9l19.78,4.71L90.2,72.87l31,13.82-.11.5a84.51,84.51,0,0,1-3.39,11c-3,7.52-6.22,11.33-9.66,11.33a5.34,5.34,0,0,1-2.7-.79c-9.45-5.58-19.49-11-26.25-14.6a23.2,23.2,0,0,1-9.24-8.82,22.07,22.07,0,0,1-3-12.29Zm18.55,5.73L70.09,34.49l-2,38.62a20.78,20.78,0,0,0,2.83,11.58A21.94,21.94,0,0,0,79.66,93c6.77,3.58,16.83,9,26.3,14.62a4.06,4.06,0,0,0,2.05.62c2.84,0,5.77-3.64,8.49-10.53a82.9,82.9,0,0,0,3.22-10.33L89,73.7Z"/><path class="cls-5" d="M106.14,45.25c-3.51,7.87,3.27,18.44,3.27,18.44l15.81,12,6.78,33.2s19-7.62,19-19.43C151,74,138,74,138,74a16.35,16.35,0,0,0,4.51-19.18c-6.65-16.72-20.83-12.05-20.83-12.05s-10.28-9.37-15.57,2.46"/><path class="cls-6" d="M116.71,78.1s-5.95.44-8.89-4.34.5-10.91.5-10.91l5.93-12.69s5.75,5.94,10.27,6.59c7.23,1,5.22,8.17,5.22,8.17s7.16-3.47,7.14,3.53c0,4.94-5.95,5.93-5.95,5.93l-.69,12.67s-.62,2.6-7.67,2.09c-7.26-.52-7.89-4-7.89-4Z"/><path class="cls-5" d="M124.3,89.84c-.56,0-1.16,0-1.78-.07-7.66-.55-8.43-4.41-8.46-4.57l0-.15,1.84-6.32c-1.83-.08-6.16-.69-8.59-4.63a10.15,10.15,0,0,1-.93-7.72,16.3,16.3,0,0,1,1.4-3.81l6.31-13.5.64.66c.06.06,5.65,5.79,9.91,6.4a6.71,6.71,0,0,1,5,2.83,7.55,7.55,0,0,1,1,5,9.07,9.07,0,0,1,2.73-.49,4,4,0,0,1,2.94,1.09,5.33,5.33,0,0,1,1.27,3.93,6,6,0,0,1-3.3,5.37,10.75,10.75,0,0,1-2.68,1.08l-.66,12.25v.06C130.79,87.47,130.06,89.84,124.3,89.84Zm-9-4.75a3.36,3.36,0,0,0,1.07,1.43c.91.77,2.72,1.74,6.2,2,.59,0,1.16.07,1.69.07,4.31,0,5.19-1.4,5.31-1.66l.7-13.08.5-.08a9.35,9.35,0,0,0,2.79-1.06,4.79,4.79,0,0,0,2.64-4.25,4.21,4.21,0,0,0-.9-3,2.76,2.76,0,0,0-2.05-.71,8.69,8.69,0,0,0-3.28.8l-1.26.6.38-1.34s.8-3-.6-5.12a5.56,5.56,0,0,0-4.1-2.26c-3.82-.55-8.33-4.55-10-6.13l-5.58,11.92a15.07,15.07,0,0,0-1.29,3.53,8.81,8.81,0,0,0,.78,6.74c2.31,3.75,6.68,4,8,4h.35l.9-.06-.25.87Z"/><path class="cls-5" d="M115.52,82.6l1.28-5.07,8.87-2.42Z"/><path class="cls-7" d="M134.35,67.67a.51.51,0,0,0-.69-.18h0L130,69.58a.49.49,0,0,0-.2.66h0a.51.51,0,0,0,.69.18l3.7-2.09a.48.48,0,0,0,.19-.66h0"/><path class="cls-5" d="M114,56.24c-.54-.23-1.27.26-1.64,1.1s-.23,1.7.31,1.92,1.28-.26,1.64-1.1.23-1.7-.31-1.92"/><path class="cls-5" d="M119.48,61.16c-.54-.23-1.28.26-1.64,1.1s-.23,1.7.3,1.92,1.28-.26,1.65-1.1.23-1.7-.31-1.93"/><path class="cls-4" d="M69.25,113.37l14.56,19.18s21.84-43,29.87-47c3.51-1.72,6.65-1.51,10.29-.74,4.28.91,6.27,2.54,9.29,5.66,8.78,9.1,11.8,54.1,11.8,54.1l1.84,28.23H95.39l6.36-23.15-4.93,4.88a17.78,17.78,0,0,1-25.14-.2,18.07,18.07,0,0,1-2.73-3.6L50.67,118.29Z"/><path class="cls-5" d="M119.32,83.63a23.32,23.32,0,0,1,4.78.59,15.14,15.14,0,0,1,5.33,2.09,24.65,24.65,0,0,1,4.28,3.75c2.08,2.15,4,6.38,5.7,12.56a157.17,157.17,0,0,1,3.66,18.25c1.83,12.27,2.6,23.57,2.61,23.68l1.9,28.92h-53l6-21.67L97.26,155a18.27,18.27,0,0,1-12.9,5.29,18.59,18.59,0,0,1-9.07-2.36,17.91,17.91,0,0,1-6.89-6.87L49.72,117.88l19.78-5.23,14.2,18.71c1.45-2.82,6.15-11.86,11.49-21.14,3.76-6.55,7.1-11.93,9.91-16,3.63-5.24,6.34-8.25,8.3-9.2A13,13,0,0,1,119.32,83.63Zm26.91,88.57-1.81-27.56c0-.11-.77-11.38-2.6-23.6-2.4-16.07-5.52-26.48-9-30.11-3-3.05-4.8-4.6-9-5.47a21.6,21.6,0,0,0-4.52-.57A11.93,11.93,0,0,0,114,86.14c-2.2,1.09-7.06,6.25-17.67,24.7-6.38,11.12-11.85,21.89-11.91,22l-.46.9L69,114.09l-17.37,4.6L69.5,150.45a16.72,16.72,0,0,0,6.4,6.39A17.4,17.4,0,0,0,84.36,159a17,17,0,0,0,12-4.92l6.61-6.53L96.22,172.2Z"/><path class="cls-6" d="M59.94,71.48a2.53,2.53,0,0,0-2.67-1l-24.37,6A1.46,1.46,0,0,0,32,78.71l24.6,36.56a2.53,2.53,0,0,0,2.71,1L84.72,110a1.47,1.47,0,0,0,1.09-1.76,1.38,1.38,0,0,0-.23-.51Z"/><path class="cls-5" d="M57.88,69.79a3.17,3.17,0,0,1,2.58,1.33l25.63,36.2a2.08,2.08,0,0,1,.26,1.93,2.14,2.14,0,0,1-1.48,1.32l-25.39,6.34a3.17,3.17,0,0,1-3.39-1.28L31.49,79.06a2,2,0,0,1-.22-1.91,2.11,2.11,0,0,1,1.48-1.3l24.37-6A3.22,3.22,0,0,1,57.88,69.79Zm.83,46a1.76,1.76,0,0,0,.46-.06l25.39-6.35a.82.82,0,0,0,.6-.53.8.8,0,0,0-.1-.76L59.42,71.85a1.88,1.88,0,0,0-1.54-.79,2.31,2.31,0,0,0-.46,0l-24.37,6a.85.85,0,0,0-.6.52.8.8,0,0,0,.09.76l24.6,36.56A1.89,1.89,0,0,0,58.71,115.75Z"/><path class="cls-8" d="M58.89,75.28a2,2,0,0,0-2.11-.76L37.6,79.35a1.17,1.17,0,0,0-.86,1.4,1.43,1.43,0,0,0,.17.38l19.6,28.7a2,2,0,0,0,2.15.8l20-5.14a1.15,1.15,0,0,0,.85-1.39,1,1,0,0,0-.18-.41Z"/><path class="cls-5" d="M57.28,73.82a2.65,2.65,0,0,1,2.13,1.09l20.41,28.4a1.76,1.76,0,0,1,.24,1.64,1.82,1.82,0,0,1-1.26,1.14l-20,5.14a2.66,2.66,0,0,1-2.83-1L36.4,81.48a1.76,1.76,0,0,1-.2-1.63,1.8,1.8,0,0,1,1.25-1.12L56.63,73.9A2.82,2.82,0,0,1,57.28,73.82Zm.88,36.23a1.86,1.86,0,0,0,.34,0l20-5.14a.56.56,0,0,0,.38-.34.52.52,0,0,0-.07-.48L58.38,75.64a1.34,1.34,0,0,0-1.1-.55,1,1,0,0,0-.34,0L37.75,80a.53.53,0,0,0-.37.34.49.49,0,0,0,0,.47L57,109.47A1.4,1.4,0,0,0,58.16,110.05Z"/><path class="cls-6" d="M49.7,111.8l3,6,8.28-2-5.27-5.17.56-7.63a1,1,0,0,0-1-1.06,1,1,0,0,0-.77.3l-3.91,4a4.87,4.87,0,0,0-.91,5.58"/><path class="cls-5" d="M52.34,118.52l-3.21-6.44a5.49,5.49,0,0,1,1-6.3l3.91-4a1.65,1.65,0,0,1,1.16-.49,1.68,1.68,0,0,1,1.23.53,1.61,1.61,0,0,1,.42,1.2l-.54,7.35,5.88,5.76Zm2.9-15.92a.36.36,0,0,0-.27.12l-3.91,3.94a4.26,4.26,0,0,0-.8,4.86L53,117.06l6.68-1.58L55,110.91l.58-7.93a.3.3,0,0,0-.09-.25.4.4,0,0,0-.3-.13Z"/><path class="cls-7" d="M101.75,149.69l19-34.63L98.43,163.94Z"/><path class="cls-9" d="M128.46,95l-.14-.15a16.27,16.27,0,0,0-20.6-2.75c.42-.56.66-1.22,1-1.8a17.15,17.15,0,0,1,1.89-2.36,12.51,12.51,0,0,1,4.84-3.17c4.11-1.4,9.69-.41,13.49,1.51s6.23,6.83,7.64,10.59c4.78,12.7,6.82,26.47,8,39.9l.2,2.36c2,24.88,2.56,33.94,2.56,33.94H136.85c.37-6.3.46-12.64.46-19,0-15.71-.66-31.52-4-46.92-.25-1.16-.52-2.31-.8-3.46-.77-3.19-1.79-6.26-4-8.74"/><path class="cls-5" d="M119.86,83.47a21.72,21.72,0,0,1,9.4,2.23c3.15,1.59,5.82,5.27,8,10.93,5.21,13.86,7,28.69,8,40.06.07.79.13,1.59.2,2.37C147.4,163.66,148,172.92,148,173l0,.67H136.19l0-.67c.31-5.46.45-11.29.45-18.91,0-12.29-2.32-37.26-2.4-38.16-.07-.4-1-5.75-1.61-8.62-.25-1.16-.52-2.3-.8-3.45-.72-3-1.69-6-3.88-8.47a1.85,1.85,0,0,0-.14-.14,15.56,15.56,0,0,0-11.53-5,14.67,14.67,0,0,0-8.24,2.36l-3.24,2.22,2.38-3.12a6.84,6.84,0,0,0,.53-.9,9.25,9.25,0,0,1,.49-.87,17.69,17.69,0,0,1,2-2.45,12.79,12.79,0,0,1,5.09-3.32A13.93,13.93,0,0,1,119.86,83.47Zm26.85,88.95c-.17-2.52-.86-12.34-2.51-33.26-.06-.78-.13-1.57-.2-2.35-1-11.3-2.81-26-8-39.74-2-5.35-4.48-8.8-7.34-10.24a20.51,20.51,0,0,0-8.83-2.1,13,13,0,0,0-4.16.62,11.48,11.48,0,0,0-4.59,3,15.32,15.32,0,0,0-1.66,2,17.18,17.18,0,0,1,19.33,4l.15.17c2.38,2.64,3.41,5.89,4.17,9,.28,1.17.55,2.34.8,3.47.65,3,1.61,8.66,1.62,8.71v0c0,.25,2.41,25.79,2.41,38.3,0,7.33-.13,13-.42,18.32Z"/><path class="cls-7" d="M99,104.37l-3.88-2.28L109.63,89Z"/><g class="cls-10"><g class="cls-11"><path class="cls-12" d="M101.45,113.07a2.66,2.66,0,1,0,2.72-2.6h-.06a2.63,2.63,0,0,0-2.66,2.6"/></g></g><g class="cls-10"><g class="cls-13"><path class="cls-12" d="M124.12,128.12a2.66,2.66,0,1,0,2.72-2.61h-.06a2.64,2.64,0,0,0-2.66,2.61"/></g></g><g class="cls-10"><g class="cls-14"><path class="cls-12" d="M107.78,154.18a2.66,2.66,0,1,0,2.72-2.61h-.06a2.64,2.64,0,0,0-2.66,2.61"/></g></g><g class="cls-10"><g class="cls-15"><path class="cls-12" d="M127.13,163.79a2.66,2.66,0,1,0,2.72-2.6h-.06a2.63,2.63,0,0,0-2.66,2.6"/></g></g><g class="cls-10"><g class="cls-16"><path class="cls-12" d="M82.48,145.48a2.66,2.66,0,1,0,2.72-2.6h-.06a2.63,2.63,0,0,0-2.66,2.6"/></g></g><g class="cls-10"><g class="cls-17"><path class="cls-12" d="M84.91,83.58A2.67,2.67,0,1,0,87.63,81h-.06a2.64,2.64,0,0,0-2.66,2.61"/></g></g><g class="cls-10"><g class="cls-18"><path class="cls-12" d="M71.48,53.13a2.66,2.66,0,1,0,2.72-2.6h-.06a2.62,2.62,0,0,0-2.66,2.61"/></g></g><path class="cls-6" d="M112.35,69.57a2.78,2.78,0,0,0,5.56,0"/><path class="cls-5" d="M115.13,72.8a3.26,3.26,0,0,1-3.29-3.23.51.51,0,0,1,1,0,2.28,2.28,0,0,0,4.55,0,.5.5,0,0,1,.5-.5.5.5,0,0,1,.51.5A3.26,3.26,0,0,1,115.13,72.8Z"/><path class="cls-19" d="M116.16,59.49s-.61,4.41-4,5.45l2.67,1.19"/><path class="cls-5" d="M114.87,66.64a.52.52,0,0,1-.21,0L112,65.4a.5.5,0,0,1-.25-.67.49.49,0,0,1,.31-.27c3-.94,3.61-5,3.61-5a.51.51,0,0,1,.6-.39.5.5,0,0,1,.4.53A9.88,9.88,0,0,1,115.9,62a6.45,6.45,0,0,1-2.47,2.9l1.64.73a.51.51,0,0,1-.2,1Z"/><path class="cls-6" d="M73.82,109.53l-9,2.18"/><path class="cls-5" d="M64.85,112.34a.63.63,0,0,1-.61-.65.61.61,0,0,1,.46-.59l9-2.18a.62.62,0,0,1,.76.46.63.63,0,0,1-.46.77l-9,2.17Z"/><path class="cls-19" d="M19.76,20.21V55.87a3.85,3.85,0,0,0,3.9,3.81H51.73a3.86,3.86,0,0,0,3.9-3.81h0V17.5a3.85,3.85,0,0,0-3.9-3.81H26.41Z"/><path class="cls-5" d="M26.16,13.06H51.73a4.5,4.5,0,0,1,4.53,4.45V55.87a4.51,4.51,0,0,1-4.53,4.45H23.66a4.5,4.5,0,0,1-4.53-4.45V19.94Zm25.57,46A3.22,3.22,0,0,0,55,55.87V17.51a3.23,3.23,0,0,0-3.26-3.19H26.67l-6.28,6.15v35.4a3.24,3.24,0,0,0,3.27,3.18Z"/><path class="cls-5" d="M50.49,30.53H26a.63.63,0,1,1,0-1.26H50.49a.63.63,0,0,1,0,1.26Z"/><path class="cls-5" d="M50.49,36.09H26a.63.63,0,1,1,0-1.26H50.49a.63.63,0,1,1,0,1.26Z"/><path class="cls-5" d="M50.49,41.65H26a.63.63,0,1,1,0-1.26H50.49a.63.63,0,1,1,0,1.26Z"/><path class="cls-5" d="M43.72,47.21H32.78a.63.63,0,0,1,0-1.26H43.72a.63.63,0,1,1,0,1.26Z"/><path class="cls-5" d="M28,21.77H19.67V20.5h7V13.64H28Z"/><path class="cls-5" d="M72.07,34.59a.63.63,0,0,1-.63-.63c0-2.34-2.53-4.15-5-5.9-1.67-1.2-3.25-2.33-4-3.63s-1.29-3.52-.54-8.19a1.58,1.58,0,0,1,1.83-1.31,1.55,1.55,0,0,1,.8.39c2.94,2.69,7.91,5.08,12.75,7.3a.65.65,0,0,1,.31.84.63.63,0,0,1-.84.31c-4.93-2.26-10-4.71-13.08-7.52a.33.33,0,0,0-.46,0,.51.51,0,0,0-.07.15c-.31,1.95-.67,5.5.4,7.37A13.27,13.27,0,0,0,67.21,27C69.78,28.88,72.7,31,72.7,34a.63.63,0,0,1-.63.63Z"/><path class="cls-5" d="M74.14,25.75a.75.75,0,0,1-.26-.05c-.35-.16-8.6-3.88-11.36-6.9a.62.62,0,0,1,0-.89.63.63,0,0,1,.89,0c2.59,2.83,10.86,6.57,10.94,6.6a.63.63,0,0,1,.32.84.61.61,0,0,1-.57.37Z"/><path class="cls-5" d="M73.59,28.72a.54.54,0,0,1-.25-.06c-.35-.16-8.6-3.88-11.36-6.9a.63.63,0,1,1,.93-.85c2.59,2.83,10.86,6.56,10.94,6.6a.63.63,0,0,1,.32.83.64.64,0,0,1-.58.38Z"/><path class="cls-5" d="M86,38a.63.63,0,0,1-.63-.63c0-.48-.83-6.65-1.4-10.79l-.43-.53c-.93-1.14-2.77-3.35-4.68-5.3-3.11-3.2-4.34-3.62-4.72-3.65H74c0,.13,0,.8,1.13,2.82.48.82,1,1.62,1.56,2.39a.63.63,0,0,1-1,.75h0c-.59-.83-1.15-1.68-1.66-2.55-1.52-2.63-1.39-3.55-1.1-4.06a1.32,1.32,0,0,1,1.39-.62c1.56.13,3.9,2.36,5.52,4,1.94,2,3.81,4.23,4.75,5.39.35.42.54.67.55.68l.11.14,0,.17c.24,1.75,1.43,10.5,1.43,11.13A.62.62,0,0,1,86,38Z"/></g></g></g></svg>