<svg id="Layer_1" data-name="Layer 1" xmlns="http://www.w3.org/2000/svg" xmlns:xlink="http://www.w3.org/1999/xlink" viewBox="0 0 168 173.04"><defs><style>.cls-1{fill:none;}.cls-2{clip-path:url(#clip-path);}.cls-3{clip-path:url(#clip-path-2);}.cls-4{fill:#002b47;}.cls-5{fill:#fedd31;}.cls-6{fill:#1272e2;}.cls-7{fill:#fff;}.cls-8{fill:#a2c1f4;}</style><clipPath id="clip-path"><rect class="cls-1" x="-4.2" y="17.64" width="176.4" height="155.4"/></clipPath><clipPath id="clip-path-2"><rect class="cls-1" x="12.97" y="28.94" width="142.69" height="145.48"/></clipPath></defs><g class="cls-2"><g class="cls-3"><path class="cls-4" d="M77.83,62.08l24.49,10.54a3.35,3.35,0,0,0,4.5-1.51,1.42,1.42,0,0,0,.08-.18L115,53.1a3.76,3.76,0,0,0-1.59-4.87L84.54,35.79a3.35,3.35,0,0,0-4.5,1.5,1.54,1.54,0,0,0-.08.19L76.24,57.21a3.75,3.75,0,0,0,1.59,4.87"/><path class="cls-4" d="M97.56,56.28l-2.5,5.48A9.21,9.21,0,0,0,99,73.7l.8.41a8.22,8.22,0,0,0,11-3.69A4.69,4.69,0,0,0,111,70l2.5-5.48a9.22,9.22,0,0,0-3.91-11.94l-.8-.41a8.21,8.21,0,0,0-11,3.69c-.08.15-.15.31-.22.46"/><path class="cls-5" d="M54.2,68.7,35.27,77.45l18.13,43a7.37,7.37,0,0,0,9.52,4.21l.35-.15,5.13-2.37a8.2,8.2,0,0,0,3.87-10.6Z"/><path class="cls-4" d="M54.51,67.84l18.32,43.44a9,9,0,0,1,.16,6.66,8.36,8.36,0,0,1-4.34,4.81l-5.13,2.37a7.58,7.58,0,0,1-3.24.72,8.14,8.14,0,0,1-7.44-5.12L34.45,77.11Zm5.77,56.69a6.53,6.53,0,0,0,2.75-.61l5.12-2.37a7.09,7.09,0,0,0,3.69-4.08,7.69,7.69,0,0,0-.14-5.66L53.89,69.56l-17.8,8.23L54,120.19A6.93,6.93,0,0,0,60.28,124.53Z"/><path class="cls-6" d="M14.39,44.12l-.74-2.66a1.75,1.75,0,0,1,.94-2.07l9.51-4.18a1.55,1.55,0,0,1,1.5.15L29,37.69a1.55,1.55,0,0,0,1.43.17L51.29,29.7a1.58,1.58,0,0,1,2,.93l0,.09,8.5,24.56a1.74,1.74,0,0,1-1,2.2L25.53,71.31a1.58,1.58,0,0,1-2-.93l0-.09Z"/><path class="cls-4" d="M51.85,28.94a2.25,2.25,0,0,1,2.09,1.55l8.5,24.57a2.46,2.46,0,0,1-.06,1.81,2.27,2.27,0,0,1-1.26,1.23L25.74,71.93a2,2,0,0,1-.77.15,2.24,2.24,0,0,1-2.09-1.56L13.8,44.31l-.74-2.66a2.4,2.4,0,0,1,1.29-2.86l9.51-4.18a2.09,2.09,0,0,1,.85-.18,2.12,2.12,0,0,1,1.22.38l3.35,2.33a1,1,0,0,0,.55.17.8.8,0,0,0,.34-.07l20.91-8.16A2.19,2.19,0,0,1,51.85,28.94ZM25,70.76a1,1,0,0,0,.34-.06L60.7,56.87a1,1,0,0,0,.56-.55,1.13,1.13,0,0,0,0-.81L52.78,30.94a1,1,0,0,0-.93-.7,1,1,0,0,0-.35.07L30.6,38.47a2.07,2.07,0,0,1-.77.15,2.12,2.12,0,0,1-1.22-.38l-3.36-2.33a1,1,0,0,0-.92-.09L14.82,40a1.08,1.08,0,0,0-.57,1.28L15,43.92,24,70.07A1,1,0,0,0,25,70.76Z"/><path class="cls-7" d="M48,54.85l6.12,13.9L39.35,75.6l-3-8a.58.58,0,0,1,.31-.74l8.63-3.51L46,55.23a1.06,1.06,0,0,1,2-.38"/><path class="cls-4" d="M39,76.47l-3.26-8.65a1.3,1.3,0,0,1,0-.95,1.2,1.2,0,0,1,.65-.66l8.27-3.36.67-7.68a1.73,1.73,0,0,1,1.7-1.64,1.68,1.68,0,0,1,1.53,1L55,69.08Zm-2.09-9.06,2.76,7.32,13.62-6.31L47.46,55.13a.41.41,0,0,0-.4-.28.46.46,0,0,0-.47.44l-.74,8.5Z"/><path class="cls-5" d="M123.4,173.76h-56V137.87l-.08-2.29L66,92.17S73.9,81.28,82.91,79.88c5.92-.91,15.32,0,15.32,0S112.86,81,117.86,90.17c4.76,8.7,4.79,19.26,5,29,.21,12.61.74,25.17.69,37.79,0,5.59-.08,11.17-.1,16.76"/><path class="cls-4" d="M124,174.41H66.81V137.89l-.08-2.29L65.34,92l.14-.19a43.71,43.71,0,0,1,5.17-5.71,33.3,33.3,0,0,1,5.5-4.24,18.56,18.56,0,0,1,6.66-2.58,45.5,45.5,0,0,1,6.7-.42c4.44,0,8.59.4,8.77.41A37.85,37.85,0,0,1,106.35,81,27.67,27.67,0,0,1,113,84.15a16.38,16.38,0,0,1,5.38,5.69,39.38,39.38,0,0,1,4.23,13.93,126.66,126.66,0,0,1,.8,14.57v.85c.08,4.53.19,9.14.31,13.59.2,7.93.41,16.12.38,24.21,0,2.73,0,5.5,0,8.17,0,2.82,0,5.73,0,8.6Zm-56-1.31h54.73c0-2.66,0-5.34,0-7.95s0-5.44,0-8.16c0-8.07-.18-16.26-.38-24.17-.12-4.46-.23-9.07-.31-13.61v-.85a126.14,126.14,0,0,0-.79-14.41,38,38,0,0,0-4.07-13.45,15.15,15.15,0,0,0-5-5.23,26.69,26.69,0,0,0-6.35-3,37.36,37.36,0,0,0-7.82-1.69h0s-4.2-.4-8.66-.4a43,43,0,0,0-6.51.4c-4.51.7-8.76,3.92-11.53,6.51a43.21,43.21,0,0,0-4.87,5.34L68,135.56l.08,2.32Z"/><path class="cls-7" d="M62,77.23a2.69,2.69,0,0,0-2.53-1.91H36.26a1.7,1.7,0,0,0-1.63,1.77,1.78,1.78,0,0,0,.1.51l12.6,38.08a2.69,2.69,0,0,0,2.53,1.91H73.1a1.7,1.7,0,0,0,1.63-1.77,1.84,1.84,0,0,0-.1-.51Z"/><path class="cls-4" d="M36.25,74.66H59.49A3.34,3.34,0,0,1,62.61,77l12.6,38.08a2.5,2.5,0,0,1-.29,2.16,2.19,2.19,0,0,1-1.82,1H49.86a3.35,3.35,0,0,1-3.12-2.35L34.15,77.82a2.51,2.51,0,0,1,.28-2.15A2.21,2.21,0,0,1,36.25,74.66ZM73.1,116.94a1,1,0,0,0,.82-.45,1.12,1.12,0,0,0,.12-1L61.45,77.44a2.09,2.09,0,0,0-2-1.47H36.25a1,1,0,0,0-.81.45,1.12,1.12,0,0,0-.13,1l12.6,38.09a2.08,2.08,0,0,0,2,1.47Z"/><path class="cls-7" d="M87.77,76.38s-6.3,1.12-9.91-4.1-.55-12.67-.55-12.67l5.07-15.29s6.35,3.72,8.75,8.29c4,7.54,8.06,6.79,8.06,6.79s8.46-4.36,9.13,3.73c.47,5.72-5.76,7.49-5.76,7.49l1.21,11.3s-1.09,6.49-8.66,6.63c-7.8.15-8-4.49-8-4.49Z"/><path class="cls-4" d="M94.76,89.21c-3.27,0-5.64-.83-7.06-2.46a4.66,4.66,0,0,1-1.19-2.66v0l.58-6.94q-.33,0-.78,0a10.59,10.59,0,0,1-8.94-4.47,12.44,12.44,0,0,1-1.75-8.76,19.71,19.71,0,0,1,1.12-4.54l5.3-16,.63.38c.27.15,6.54,3.86,9,8.54,3.15,6,6.31,6.47,7.2,6.47H99a12,12,0,0,1,4.73-1.19,4.9,4.9,0,0,1,3.36,1.15,6.28,6.28,0,0,1,1.83,4.35,7.14,7.14,0,0,1-3,6.48,11,11,0,0,1-2.74,1.52l1.16,10.86,0,.1a9.06,9.06,0,0,1-1.61,3.56,9.23,9.23,0,0,1-7.64,3.62Zm-7-5.15a3.51,3.51,0,0,0,.91,1.87c1.18,1.28,3.28,2,6.1,2h.35a7.81,7.81,0,0,0,8-6l-1.26-11.76.52-.15a9.8,9.8,0,0,0,2.88-1.51,5.79,5.79,0,0,0,2.42-5.28c-.24-2.9-1.53-4.31-4-4.31A11,11,0,0,0,99.46,60l-.08,0H99.3a1.56,1.56,0,0,1-.43,0,6.13,6.13,0,0,1-3.35-1.14,15.79,15.79,0,0,1-4.93-6c-1.84-3.52-6.24-6.58-7.88-7.64L77.88,59.87a18.77,18.77,0,0,0-1,4.24,11,11,0,0,0,1.52,7.78,9.4,9.4,0,0,0,8,3.93,7.71,7.71,0,0,0,1.36-.09l.79-.13-.07.84Z"/><path class="cls-4" d="M87.51,81.61l.21-5.71,9.22-3.71Z"/><path class="cls-4" d="M83.45,53.59c-.6-.21-1.33.44-1.64,1.44s-.08,2,.52,2.2,1.33-.44,1.64-1.45.08-2-.52-2.19"/><path class="cls-4" d="M90.71,57.14c-.6-.21-1.33.44-1.64,1.45s-.08,2,.52,2.2,1.33-.44,1.64-1.45.08-2-.52-2.2"/><path class="cls-5" d="M116.51,112.74l-6.3,21.12c-3.51,11.78-17.49,15.47-25.79,6.81L56.56,111.59l10.22-11.14,26.88,18.28,8.87-18.56"/><path class="cls-4" d="M95.3,146.09a15.64,15.64,0,0,1-11.31-5L55.69,111.6l11-12,26.73,18.18L102,99.87l1.1.59L93.9,119.68l-27-18.39-9.44,10.29L84.85,140.2a14.5,14.5,0,0,0,6.75,4.08,14.2,14.2,0,0,0,7.35,0,14.86,14.86,0,0,0,6.49-3.67,15.75,15.75,0,0,0,4.18-7l6.3-21.13,1.18.4-6.3,21.13a16.53,16.53,0,0,1-11.54,11.51A15.54,15.54,0,0,1,95.3,146.09Z"/><path class="cls-7" d="M60.71,89.33,66,101.6l-7.8,8.28L48,100.74l-4.83-4c-.5-.42,0-1.25.56-1l4.8,2.4-6.11-7.26c-.42-.5.19-1.23.71-.85l6.75,5-7-8.92c-.4-.51.2-1.21.72-.84l9.23,6.61-5.61-8.16c-.38-.54.28-1.2.77-.78L60.32,93.6l-.63-3.93a.53.53,0,0,1,.39-.65.55.55,0,0,1,.63.31"/><path class="cls-4" d="M58.21,110.77l-10.64-9.52-4.82-4a1.27,1.27,0,0,1-.38-1.36,1.15,1.15,0,0,1,1.08-.84,1.06,1.06,0,0,1,.5.12l2.06,1-4.08-4.85a1.25,1.25,0,0,1-.2-1.31,1.18,1.18,0,0,1,1.06-.74,1.15,1.15,0,0,1,.66.23l3,2.22-4.09-5.22a1.27,1.27,0,0,1-.16-1.3,1.17,1.17,0,0,1,1-.72,1.11,1.11,0,0,1,.65.22l6.3,4.51-3.53-5.13a1.26,1.26,0,0,1-.1-1.27,1.17,1.17,0,0,1,1-.68,1.11,1.11,0,0,1,.72.27L59.44,92l-.35-2.21a1.24,1.24,0,0,1,.24-1,1.14,1.14,0,0,1,.9-.44,1.13,1.13,0,0,1,1,.72l5.44,12.67ZM44.08,96.69l4.28,3.55L58.14,109l7.09-7.54L60.4,90.2l.81,5L48,83.86l7.34,10.67-11.7-8.38,9.54,12.16L43.3,91,51,100.13Z"/><path class="cls-6" d="M126.17,43.28a1,1,0,0,1,1-1.07h10.68a1,1,0,0,1,1,1.07,1,1,0,0,1,0,.17l-1.28,7.19a1,1,0,0,1-1,.86h-9.26a1,1,0,0,1-1-1Z"/><path class="cls-4" d="M127.16,41.55h10.67a1.56,1.56,0,0,1,1.24.62,1.76,1.76,0,0,1,.33,1.4l-1.27,7.19a1.64,1.64,0,0,1-1.58,1.39h-9.26a1.67,1.67,0,0,1-1.61-1.67l-.12-7.19a1.76,1.76,0,0,1,.46-1.23A1.55,1.55,0,0,1,127.16,41.55Zm9.39,9.29a.38.38,0,0,0,.37-.32l1.28-7.19a.41.41,0,0,0-.08-.32.38.38,0,0,0-.29-.15H127.16a.37.37,0,0,0-.26.12.44.44,0,0,0-.11.29l.13,7.18a.39.39,0,0,0,.37.39Z"/><path class="cls-7" d="M137.37,50.44V42.38a1,1,0,0,0-1-1.05h-6.25a1,1,0,0,1-.81-.44l-1.06-1.57a1,1,0,0,0-.8-.45h-3a1,1,0,0,0-1,1.06V50.44a1,1,0,0,0,1,1.06h11.88a1,1,0,0,0,1-1.06"/><path class="cls-4" d="M136.38,52.15H124.5a1.65,1.65,0,0,1-1.6-1.7V39.93a1.65,1.65,0,0,1,1.6-1.71h3a1.56,1.56,0,0,1,1.31.72l1.06,1.57a.35.35,0,0,0,.3.16h6.25A1.66,1.66,0,0,1,138,42.38v8.07A1.66,1.66,0,0,1,136.38,52.15ZM124.5,39.53a.39.39,0,0,0-.37.4h0V50.45a.39.39,0,0,0,.37.4h11.88a.4.4,0,0,0,.38-.4h0V42.38a.4.4,0,0,0-.37-.4h-6.26a1.57,1.57,0,0,1-1.31-.71l-1.06-1.57a.34.34,0,0,0-.3-.17Z"/><path class="cls-6" d="M126.17,63.47a1,1,0,0,1,1-1.07h10.68a1,1,0,0,1,1,1.08,1.11,1.11,0,0,1,0,.17l-1.28,7.19a1,1,0,0,1-1,.85h-9.26a1,1,0,0,1-1-1Z"/><path class="cls-4" d="M127.16,61.75h10.67a1.58,1.58,0,0,1,1.24.61,1.78,1.78,0,0,1,.33,1.41L138.13,71a1.65,1.65,0,0,1-1.58,1.39h-9.26a1.67,1.67,0,0,1-1.61-1.67l-.12-7.19a1.73,1.73,0,0,1,.46-1.23A1.52,1.52,0,0,1,127.16,61.75ZM136.55,71a.39.39,0,0,0,.37-.33l1.28-7.18a.42.42,0,0,0-.08-.33.37.37,0,0,0-.29-.14H127.16a.34.34,0,0,0-.26.12.41.41,0,0,0-.11.28l.13,7.19a.39.39,0,0,0,.37.39Z"/><path class="cls-7" d="M137.37,70.77V62.71a1,1,0,0,0-1-1.05h-6.25a1,1,0,0,1-.81-.44l-1.06-1.58a.94.94,0,0,0-.8-.44h-3a1,1,0,0,0-1,1V70.77a1,1,0,0,0,1,1.06h11.88a1,1,0,0,0,1-1.06"/><path class="cls-4" d="M136.38,72.49H124.5a1.66,1.66,0,0,1-1.6-1.72V60.26a1.65,1.65,0,0,1,1.6-1.71h3a1.56,1.56,0,0,1,1.31.72l1.06,1.57a.35.35,0,0,0,.3.16h6.25A1.66,1.66,0,0,1,138,62.71v8.06A1.67,1.67,0,0,1,136.38,72.49ZM124.5,59.86a.39.39,0,0,0-.37.4h0V70.77a.38.38,0,0,0,.37.4h11.88a.38.38,0,0,0,.38-.39h0V62.71a.4.4,0,0,0-.37-.4h-6.26a1.57,1.57,0,0,1-1.31-.71L127.76,60a.35.35,0,0,0-.3-.16Z"/><path class="cls-4" d="M153.83,44.49H142a.66.66,0,0,1,0-1.32h11.83a.66.66,0,0,1,0,1.32Z"/><path class="cls-4" d="M148.31,47.2H142a.64.64,0,0,1-.62-.66.64.64,0,0,1,.62-.65h6.31a.63.63,0,0,1,.62.65A.64.64,0,0,1,148.31,47.2Z"/><path class="cls-4" d="M153.83,64.81H142a.64.64,0,0,1-.62-.65.64.64,0,0,1,.62-.66h11.83a.64.64,0,0,1,.62.66A.63.63,0,0,1,153.83,64.81Z"/><path class="cls-4" d="M148.31,67.53H142a.64.64,0,0,1-.62-.66.64.64,0,0,1,.62-.65h6.31a.63.63,0,0,1,.62.65A.64.64,0,0,1,148.31,67.53Z"/><path class="cls-6" d="M151.45,88.29H127.11a3.7,3.7,0,0,1-3.59-3.82v-.4a3.71,3.71,0,0,1,3.59-3.82h24.34A3.71,3.71,0,0,1,155,84.07v.4a3.71,3.71,0,0,1-3.59,3.82"/><path class="cls-4" d="M127.11,79.6h24.33a4.37,4.37,0,0,1,4.22,4.47v.4A4.36,4.36,0,0,1,151.45,89H127.11a4.35,4.35,0,0,1-4.21-4.48v-.4A4.35,4.35,0,0,1,127.11,79.6Zm24.34,8a3.08,3.08,0,0,0,3-3.16v-.4a3.08,3.08,0,0,0-3-3.17H127.11a3.08,3.08,0,0,0-3,3.16v.4a3.08,3.08,0,0,0,3,3.17Z"/><path class="cls-8" d="M149.41,84.93H129.15V83.62h20.26Z"/><path class="cls-6" d="M67.4,164.57h56v9.11h-56Z"/><path class="cls-4" d="M66.78,163.92H124v10.41H66.78Zm56,1.31H68V173h54.79Z"/><path class="cls-4" d="M85,63.12l-.18,0-3.09-1.17a.57.57,0,0,1-.36-.51.61.61,0,0,1,.28-.56c3.39-2,4-6.33,4.06-6.37a.57.57,0,0,1,.61-.51h0a.59.59,0,0,1,.47.67,11.21,11.21,0,0,1-3.64,6.55l2,.77a.6.6,0,0,1,.34.75A.57.57,0,0,1,85,63.12Z"/><path class="cls-4" d="M100.39,66.71a.52.52,0,0,1-.44-.23.61.61,0,0,1,.11-.83L104.65,62a.53.53,0,0,1,.75.08l0,0a.61.61,0,0,1-.11.82l-4.6,3.67A.55.55,0,0,1,100.39,66.71Z"/><path class="cls-4" d="M85.49,69a2.79,2.79,0,0,1-2.7-2.86.56.56,0,0,1,1.12-.07v.07a1.58,1.58,0,1,0,3.16.19v-.19a.56.56,0,0,1,1.11-.07v.07A2.78,2.78,0,0,1,85.49,69Z"/></g></g></svg>