<svg xmlns="http://www.w3.org/2000/svg" width="48" height="48" viewBox="0 0 48 48">
    <g data-name="Group 24019">
        <g data-name="Group 22675">
            <path data-name="Rectangle 23946" style="fill:none" d="M0 0h48v48H0z"/>
            <g data-name="Group 22674">
                <path data-name="Rectangle 23947" transform="translate(4 4)" style="opacity:.2;fill:none" d="M0 0h40v40H0z"/>
                <g data-name="Group 22673" transform="translate(1284 -7250)">
                    <circle data-name="Ellipse 5288" cx="12" cy="12" r="12" transform="translate(-1279 7270)" style="fill:#fedd31;opacity:.5"/>
                    <g data-name="Group 22672">
                        <path data-name="Union 178" d="m487.229 548.325-5.693-5.693a2.442 2.442 0 0 1 0-3.45l1.284-1.284a2.444 2.444 0 0 1 3.131-.269c.637-.606 1.738-1.661 2.472-2.4l.019-.018a5.813 5.813 0 0 1 3.45-1.671h3.674a3.752 3.752 0 0 1 2.12 1.015 4.717 4.717 0 0 0 .657.455h4.362a3.1 3.1 0 0 1 2.126.738l2.462-1.278c.873-1.654 1.759-2.75 3.325-3.114a3.634 3.634 0 0 1 3.711 1.017l.257.346-.169.4a39.746 39.746 0 0 1-3.8 6.083c-.3.335-1.592 1.649-2.9 2.861a31.52 31.52 0 0 1-1.894 1.657c-.92.729-1.312.876-1.649.876h-10.812a.845.845 0 0 0-.724.288 2.439 2.439 0 0 1-.675 2.156l-1.283 1.283a2.443 2.443 0 0 1-3.451 0zm-3.348-9.365-1.283 1.283a.94.94 0 0 0 0 1.329l5.693 5.693a.94.94 0 0 0 1.328 0l1.284-1.284a.941.941 0 0 0 0-1.329l-5.693-5.692a.94.94 0 0 0-1.329 0zm8.026 4.575a2.356 2.356 0 0 1 1.456-.438H504.1a14.793 14.793 0 0 0 2.768-2.29c1.209-1.133 2.37-2.314 2.628-2.6a42.088 42.088 0 0 0 3.314-5.189 2.638 2.638 0 0 0-1.85-.194c-.948.22-1.587.887-2.44 2.552l-.11.212-2.812 1.459a2.469 2.469 0 0 1-.724 2.366 3.06 3.06 0 0 1-2.166.778h-6.612a.75.75 0 1 1 0-1.5h6.612a1.635 1.635 0 0 0 1.14-.371.974.974 0 0 0 .313-.716c0-.541-.449-1.087-1.453-1.087H498.3a2.718 2.718 0 0 1-1.522-.764 3.235 3.235 0 0 0-1.209-.706h-3.674a4.458 4.458 0 0 0-2.417 1.26c-.725.724-1.791 1.746-2.437 2.361z" transform="translate(-1755.872 6745.011)" style="fill:#094771"/>
                    </g>
                    <path data-name="Union 177" d="M1.32 21.057c-1.786-2.328-1.374-5.316-.969-6.891a13.971 13.971 0 0 1 2.505-5.083 14.767 14.767 0 0 1 4.438-3.744h3.471A14.872 14.872 0 0 1 15.1 9.083a14.183 14.183 0 0 1 2.491 5.084c.437 1.547.909 4.493-.839 6.829-1.456 1.946-4.074 2.957-7.782 3-3.614-.044-6.189-1.034-7.65-2.939zM7.5 8.717a6.332 6.332 0 0 0-3.61 5.093.736.736 0 0 0 1.473 0 4.936 4.936 0 0 1 2.8-3.78.734.734 0 0 0-.33-1.391.739.739 0 0 0-.333.078zm-.213-3.8C5.422 3.7 5.314 1.951 4.823 1.419c-.18-.2-.243-.178-.152-.339C5.606-.587 7.93.056 9.54.513a4.088 4.088 0 0 0 2.1.235c.31-.088.586-.1.716.053s.092.253-.072.465c-1.57 1.687-1.093 3.076-2.017 3.651z" transform="translate(-1264 7254)" style="fill:#1272e2"/>
                </g>
            </g>
        </g>
    </g>
</svg>
