<svg xmlns="http://www.w3.org/2000/svg" width="171" height="144" viewBox="0 0 171 144">
    <defs>
        <clipPath id="xkcoaie2xa">
            <path data-name="Rectangle 24345" transform="translate(12381 -2587.295)" style="stroke:#707070;fill:#fff" d="M0 0h171v144H0z"/>
        </clipPath>
        <clipPath id="qylzrhilkb">
            <path data-name="Rectangle 24346" style="fill:none" d="M0 0h129.985v137.059H0z"/>
        </clipPath>
    </defs>
    <g data-name="Mask Group 24015" transform="translate(-12381 2587.295)" style="clip-path:url(#xkcoaie2xa)">
        <g data-name="Group 24338">
            <g data-name="Group 24337" transform="translate(12401.711 -2576.622)" style="clip-path:url(#qylzrhilkb)">
                <path data-name="Path 15009" d="m51.024 12.711-14.46 4.423a3.53 3.53 0 0 1-4.409-2.343l-1.775-5.8a3.529 3.529 0 0 1 2.343-4.411L47.183.155A3.532 3.532 0 0 1 51.592 2.5l1.775 5.8a3.531 3.531 0 0 1-2.343 4.409" transform="translate(8.899)" style="fill:#002b47"/>
                <path data-name="Path 15010" d="m47.614 20.634-12.081 3.7a3.529 3.529 0 0 1-4.409-2.343l-2.753-9a3.529 3.529 0 0 1 2.343-4.409l12.081-3.7A3.531 3.531 0 0 1 47.2 7.225l2.753 9a3.531 3.531 0 0 1-2.343 4.409" transform="translate(8.307 1.392)" style="fill:#002b47"/>
                <path data-name="Path 15011" d="m94.358 45.3-16.667-8.851a2.943 2.943 0 0 1-1.219-3.979l8.37-15.77a2.945 2.945 0 0 1 3.979-1.219l16.667 8.847a2.941 2.941 0 0 1 1.219 3.978l-8.37 15.77a2.943 2.943 0 0 1-3.979 1.224" transform="translate(22.415 4.456)" style="fill:#1272e2"/>
                <path data-name="Path 15012" d="M95.853 46.275a3.467 3.467 0 0 1-1.62-.4l-16.667-8.851a3.46 3.46 0 0 1-1.434-4.679L84.5 16.573a3.461 3.461 0 0 1 4.679-1.434l16.667 8.848a3.459 3.459 0 0 1 1.434 4.678l-8.368 15.772a3.456 3.456 0 0 1-3.059 1.838zm-8.29-30.505a2.424 2.424 0 0 0-2.146 1.288l-8.37 15.773a2.428 2.428 0 0 0 1 3.279l16.667 8.846a2.4 2.4 0 0 0 1.135.284A2.423 2.423 0 0 0 98 43.951l8.371-15.773a2.423 2.423 0 0 0-1-3.278L88.7 16.053a2.4 2.4 0 0 0-1.137-.283z" transform="translate(22.297 4.338)" style="fill:#002b47"/>
                <path data-name="Path 15013" d="M67.484 82.719H21.256a.105.105 0 0 1-.1-.1V30.252a6.16 6.16 0 0 1 6.16-6.159h34.113a6.16 6.16 0 0 1 6.16 6.159v52.363a.1.1 0 0 1-.1.1" transform="translate(6.228 7.094)" style="fill:#fedd31"/>
                <path data-name="Path 15014" d="M67.6 83.355H21.374a.623.623 0 0 1-.623-.623V30.37a6.685 6.685 0 0 1 6.678-6.677h34.117a6.685 6.685 0 0 1 6.678 6.677v52.362a.623.623 0 0 1-.624.623zm-45.813-1.036h45.4V30.37a5.648 5.648 0 0 0-5.642-5.641H27.429a5.648 5.648 0 0 0-5.642 5.641z" transform="translate(6.11 6.976)" style="fill:#002b47"/>
                <path data-name="Path 15015" d="M35.113 24.267a12.351 12.351 0 0 0-10.633 2.122c-6.274 4.92-15.2 19.563-22.1 28.588a9.638 9.638 0 0 0-.519 10.956l11.776 18.874 8.295-6.27-7.658-14.661L32.4 42.206" transform="translate(.118 7.026)" style="fill:#fedd31"/>
                <path data-name="Path 15016" d="M13.615 85.679 1.54 66.325a10.155 10.155 0 0 1 .547-11.545c2.16-2.825 4.482-6.151 6.941-9.672C14.38 37.445 19.914 29.522 24.279 26.1a12.484 12.484 0 0 1 7.491-2.635 12.226 12.226 0 0 1 3.616.427.518.518 0 0 1-.311.988 11.445 11.445 0 0 0-3.322-.379 11.267 11.267 0 0 0-6.836 2.414C20.675 30.241 15.186 38.1 9.877 45.7c-2.466 3.53-4.795 6.865-6.968 9.708a9.12 9.12 0 0 0-.491 10.368L13.894 84.17l7.493-5.664-7.614-14.579 18.349-21.936a.518.518 0 0 1 .794.664l-17.905 21.4 7.7 14.743z" transform="translate(0 6.908)" style="fill:#002b47"/>
                <path data-name="Path 15017" d="M53.78 24.363s5.5 1.416 9.137 9.141a9407.414 9407.414 0 0 0 10.61 22.345l7.556-12.217 9.885 6.268s-7.8 23.71-16.557 28.533-18.566-15.19-18.566-15.19" transform="translate(15.835 7.173)" style="fill:#fedd31"/>
                <path data-name="Path 15018" d="M71.68 79.819a7.155 7.155 0 0 1-2.162-.349c-3.085-.975-6.387-3.954-9.813-8.855a59.879 59.879 0 0 1-4.205-7.027.518.518 0 0 1 .93-.456c.064.132 6.527 13.179 13.4 15.351a5.41 5.41 0 0 0 4.448-.385c4.4-2.424 8.6-9.952 11.344-15.84a129.439 129.439 0 0 0 4.842-12.02l-9.1-5.771-7.78 12.579-.408-.858c-.079-.166-7.912-16.62-10.61-22.346a18.535 18.535 0 0 0-5.721-7.234 10.446 10.446 0 0 0-3.079-1.627.518.518 0 0 1 .26-1 11.151 11.151 0 0 1 3.374 1.754 19.528 19.528 0 0 1 6.1 7.665c2.34 4.967 8.548 18.013 10.2 21.485l7.331-11.854L91.7 49.8l-.126.383A128.944 128.944 0 0 1 86.562 62.7a70.944 70.944 0 0 1-5.321 9.654c-2.217 3.277-4.391 5.516-6.462 6.656a6.348 6.348 0 0 1-3.099.809z" transform="translate(15.717 7.056)" style="fill:#002b47"/>
                <path data-name="Path 15019" d="M34.315 17.553V29.9l6.4 7.117 5.456-8.541-.391-10.52-8.872-4.69s-3.03-3.974-5.324-1.5c-2.405 2.591.862 5.831 2.731 5.791" transform="translate(9.049 3.225)" style="fill:#fff"/>
                <path data-name="Path 15020" d="M33.436 10.453c1.91 0 3.625 1.944 4.04 2.451l9.083 4.8.418 11.096-6.023 9.428-7.138-7.934v-12.02a5.154 5.154 0 0 1-3.254-2.843 3.494 3.494 0 0 1 .7-3.962 2.908 2.908 0 0 1 2.174-1.016zM45.295 18.5l-8.668-4.582-.086-.113c-.438-.572-1.852-2.058-3.1-2.058a1.645 1.645 0 0 0-1.231.6 2.211 2.211 0 0 0-.458 2.564 3.676 3.676 0 0 0 2.68 2.14h.021l.661-.014v12.758l5.669 6.3 4.889-7.654z" transform="translate(8.901 3.078)" style="fill:#002b47"/>
                <path data-name="Path 15021" d="m17.671 66.229 5.356 8.756-.089 13.14s-5.417-3.785-4.427-9.673l-7.218-7.29z" transform="translate(3.325 19.5)" style="fill:#fff"/>
                <path data-name="Path 15022" d="m18.068 65.492 5.83 9.529-.1 14.556-1.01-.705a13.018 13.018 0 0 1-2.737-2.777 9.884 9.884 0 0 1-2.008-7.2l-7.5-7.58zm4.533 9.89L17.717 67.4l-5.228 4.043 6.936 7.006-.055.327a8.445 8.445 0 0 0 1.7 6.523 12.4 12.4 0 0 0 1.448 1.654z" transform="translate(3.103 19.283)" style="fill:#002b47"/>
                <path data-name="Path 15023" d="m76.011 41.948 4.089-8.882 7.8 3.863s.154 3.089-3.939 4.4L82.654 46.2z" transform="translate(22.38 9.736)" style="fill:#fff"/>
                <path data-name="Path 15024" d="M83.12 47.173 75.5 42.3l4.5-9.776 8.551 4.234.015.3a4.276 4.276 0 0 1-.49 1.968 5.979 5.979 0 0 1-3.539 2.862zm-6.3-5.258 5.668 3.625 1.2-4.456.27-.084c2.956-.949 3.474-2.87 3.563-3.6L80.5 33.926z" transform="translate(22.231 9.577)" style="fill:#002b47"/>
                <path data-name="Path 15025" d="M79.119 33.5s3.522-1.456 4.459-2.393 1.283 1.036-.395 3.5c0 0 1.086 3.206-2.713 3.8" transform="translate(23.296 9.09)" style="fill:#fff"/>
                <path data-name="Path 15026" d="m80.6 39.042-.16-1.023a2.848 2.848 0 0 0 2.122-1.146 2.644 2.644 0 0 0 .18-1.977l-.08-.242.143-.213a5.4 5.4 0 0 0 1.089-2.751 22.289 22.289 0 0 1-4.532 2.41l-.4-.957a20.136 20.136 0 0 0 4.291-2.281c.515-.515 1-.446 1.289-.21.72.6.383 2.4-.758 4.171a3.563 3.563 0 0 1-.341 2.579 3.807 3.807 0 0 1-2.843 1.64z" transform="translate(23.251 8.972)" style="fill:#002b47"/>
                <path data-name="Path 15027" d="M35.74 15.265c0-5.677 3.785-5.741 7.758-8.125 5.573-3.342 7.637 2.707 7.909 8.378.438 9.118-3.756 10.28-8.389 10.28" transform="translate(10.523 1.82)" style="fill:#fff"/>
                <path data-name="Path 15028" d="M43.165 26.593a.647.647 0 0 1 0-1.294c2.076 0 4.4-.212 5.9-1.788 1.42-1.49 2.022-4.046 1.841-7.814-.208-4.339-1.367-7.484-3.1-8.412-1.016-.544-2.3-.356-3.828.558a29.613 29.613 0 0 1-2.747 1.414c-2.828 1.329-4.7 2.206-4.7 6.156a.647.647 0 1 1-1.294 0 6.811 6.811 0 0 1 1.646-4.949 11.962 11.962 0 0 1 3.797-2.379 28.6 28.6 0 0 0 2.632-1.353c1.942-1.165 3.659-1.363 5.1-.59a6.551 6.551 0 0 1 2.817 3.877 20.8 20.8 0 0 1 .967 5.614c.2 4.141-.52 7.01-2.2 8.769-1.832 1.931-4.482 2.191-6.831 2.191z" transform="translate(10.376 1.673)" style="fill:#002b47"/>
                <path data-name="Path 15029" d="M44.465 9.9c.44-.155 1 .285 1.241.981s.088 1.388-.352 1.543-1-.285-1.24-.981-.089-1.388.351-1.543" transform="translate(12.955 2.907)" style="fill:#002b47"/>
                <path data-name="Path 15030" d="M40.352 11.915c.44-.155 1 .285 1.241.981s.088 1.388-.352 1.543-1-.285-1.24-.981-.089-1.388.351-1.543" transform="translate(11.744 3.499)" style="fill:#002b47"/>
                <path data-name="Path 15031" d="M42.611 10.49A7.368 7.368 0 0 0 46 15.277l-2.5 1.183" transform="translate(12.546 3.089)" style="fill:#fff"/>
                <path data-name="Path 15032" d="M43.624 17.1a.518.518 0 0 1-.222-.986l1.681-.8a7.861 7.861 0 0 1-2.865-4.626.518.518 0 0 1 1.023-.16 6.915 6.915 0 0 0 3.146 4.422.518.518 0 0 1-.043.913l-2.5 1.183a.516.516 0 0 1-.22.054z" transform="translate(12.428 2.971)" style="fill:#002b47"/>
                <path data-name="Path 15033" d="M44.943 16.982a1.757 1.757 0 1 1-3.514 0" transform="translate(12.198 5)" style="fill:#fff"/>
                <path data-name="Path 15034" d="M43.3 19.375a2.278 2.278 0 0 1-2.271-2.275.518.518 0 0 1 1.036 0 1.239 1.239 0 1 0 2.479 0 .518.518 0 1 1 1.036 0 2.278 2.278 0 0 1-2.28 2.275z" transform="translate(12.08 4.882)" style="fill:#002b47"/>
                <path data-name="Path 15035" d="m44.715 27.029-.258-4.153a1.331 1.331 0 0 0-.887-1.174l-7.878-2.782z" transform="translate(10.509 5.571)" style="fill:#002b47"/>
                <path data-name="Line 1176" transform="translate(42.203 16.6)" style="fill:#fff" d="m0 0 2.299 1.483"/>
                <path data-name="Line 1177" d="M2.446 2.278a.644.644 0 0 1-.35-.1L-.2.691A.647.647 0 1 1 .5-.4l2.3 1.487a.647.647 0 0 1-.352 1.191z" transform="translate(42.055 16.453)" style="fill:#002b47"/>
                <path data-name="Path 15036" d="m32.347 22.617-4.474.562a.652.652 0 0 0-.372 1.116l9.235 8.9a.652.652 0 0 0 1.065-.251l.836-2.346a.651.651 0 0 0-.1-.621l-5.6-7.114a.65.65 0 0 0-.593-.243" transform="translate(8.039 6.658)" style="fill:#fff"/>
                <path data-name="Path 15037" d="M32.546 22.212a1.16 1.16 0 0 1 .919.447l5.6 7.114a1.163 1.163 0 0 1 .182 1.115l-.836 2.346a1.174 1.174 0 0 1-1.1.777 1.161 1.161 0 0 1-.808-.327l-9.235-8.9a1.17 1.17 0 0 1 .666-2l4.474-.562a1.174 1.174 0 0 1 .138-.01zM37.3 32.975a.135.135 0 0 0 .129-.09l.836-2.345a.133.133 0 0 0-.02-.127L32.65 23.3a.132.132 0 0 0-.121-.05l-4.474.562a.134.134 0 0 0-.076.23l9.234 8.9a.125.125 0 0 0 .087.033z" transform="translate(7.921 6.54)" style="fill:#002b47"/>
                <path data-name="Path 15038" d="m40.477 30.6 1.2 1.9a.521.521 0 0 0 .849.044l7.257-9.19a.522.522 0 0 0-.418-.845l-3.843.07a.519.519 0 0 0-.43.239l-4.615 7.227a.52.52 0 0 0 0 .559" transform="translate(11.894 6.626)" style="fill:#fff"/>
                <path data-name="Path 15039" d="M42.236 33.375a1.032 1.032 0 0 1-.878-.484l-1.2-1.9a1.042 1.042 0 0 1 0-1.114l4.615-7.228a1.033 1.033 0 0 1 .858-.479l3.861-.07a1.04 1.04 0 0 1 .815 1.683l-7.257 9.191a1.033 1.033 0 0 1-.814.401zm7.256-10.236-3.842.072-4.617 7.227 1.2 1.9 7.267-9.191-.007-.008z" transform="translate(11.777 6.508)" style="fill:#002b47"/>
                <path data-name="Line 1178" transform="translate(49.734 40.237)" style="fill:#fff" d="M.034 0 0 49.577"/>
                <path data-name="Line 1179" d="M.636 49.577H-.4L-.366 0H.669z" transform="translate(49.616 40.237)" style="fill:#002b47"/>
                <path data-name="Path 15040" d="m21.182 69.384-.17 46.6h18.935L42.555 86.7l2.8 29.287h20.816v-46.6z" transform="translate(6.187 20.429)" style="fill:#fff"/>
                <path data-name="Path 15041" d="M20.685 68.884h46.28v47.893H44.914l-2.188-22.894-2.039 22.894H20.511zm44.986 1.294h-43.7l-.165 45.3H39.5l2.556-28.7h1.289l2.744 28.7h19.58z" transform="translate(6.039 20.282)" style="fill:#002b47"/>
                <path data-name="Line 1180" transform="translate(85.138 63.163)" style="fill:#fff" d="M0 4.703 4.083 0"/>
                <path data-name="Line 1181" d="M.118 5.338a.518.518 0 0 1-.391-.857l4.083-4.7a.518.518 0 1 1 .782.679L.509 5.16a.517.517 0 0 1-.391.178z" transform="translate(85.02 63.045)" style="fill:#002b47"/>
                <path data-name="Line 1182" transform="translate(111.072 27.283)" style="fill:#fedd31" d="m0 0 10.157 5.386"/>
                <path data-name="Line 1183" d="M10.275 6.022a.515.515 0 0 1-.242-.06L-.125.575A.518.518 0 0 1 .36-.34l10.158 5.387a.518.518 0 0 1-.243.975z" transform="translate(110.954 27.165)" style="fill:#fff"/>
                <path data-name="Line 1184" transform="translate(109.178 31.259)" style="fill:#fedd31" d="m0 0 10.157 5.386"/>
                <path data-name="Line 1185" d="M10.275 6.022a.515.515 0 0 1-.242-.06L-.125.575A.518.518 0 0 1 .36-.34l10.158 5.387a.518.518 0 0 1-.243.975z" transform="translate(109.06 31.141)" style="fill:#fff"/>
                <path data-name="Line 1186" transform="translate(107.474 34.952)" style="fill:#fedd31" d="m0 0 6.453 3.481"/>
                <path data-name="Line 1187" d="M6.57 4.116a.515.515 0 0 1-.245-.062L-.128.574a.518.518 0 0 1 .492-.912l6.452 3.481a.518.518 0 0 1-.246.974z" transform="translate(107.356 34.834)" style="fill:#fff"/>
            </g>
        </g>
    </g>
</svg>
