<svg xmlns="http://www.w3.org/2000/svg" width="44.745" height="28" viewBox="0 0 44.745 28">
  <g id="Group_21841" data-name="Group 21841" transform="translate(-7993.255 15675)">
    <g id="Group_21840" data-name="Group 21840" transform="translate(1838 -1432)">
      <g id="Group_21819" data-name="Group 21819" transform="translate(6149 -14247)">
        <path id="Path_12997" data-name="Path 12997" d="M80,63.544l-8,9a3.059,3.059,0,0,0,0,4l8,9a3.135,3.135,0,0,0,2,1h34s0,.793,0-24H82a3.135,3.135,0,0,0-2,1" transform="translate(-65 -58.544)" fill="#fcec95"/>
      </g>
      <text id="New" transform="translate(6167 -14226)" fill="#094771" font-size="12" font-family="Manrope-SemiBold, Manrope" font-weight="600"><tspan x="0" y="0">New</tspan></text>
    </g>
    <rect id="Rectangle_22936" data-name="Rectangle 22936" width="3" height="2" transform="translate(8035 -15651)" fill="#ffe989"/>
    <path id="Path_13000" data-name="Path 13000" d="M1278.091,2h0a2.059,2.059,0,0,1-2.114,2h-.886V0h.886a2.059,2.059,0,0,1,2.114,2" transform="translate(6759.91 -15651)" fill="#e6d27b"/>
  </g>
</svg>
