<svg xmlns="http://www.w3.org/2000/svg" width="542" height="434" viewBox="0 0 542 434">
    <defs>
        <clipPath id="0kiz1xcvaa">
            <path data-name="Rectangle 27707" transform="translate(5844 -542)" style="fill:#fff" d="M0 0h542v434H0z"/>
        </clipPath>
        <clipPath id="tzfs4ltq3b">
            <path data-name="Rectangle 27715" style="fill:none" d="M0 0h367.166v343.014H0z"/>
        </clipPath>
    </defs>
    <g data-name="Mask Group 6092" transform="translate(-5844 542)" style="clip-path:url(#0kiz1xcvaa)">
        <g data-name="Group 30390">
            <g data-name="Group 30389" transform="translate(5931.015 -496.762)" style="clip-path:url(#tzfs4ltq3b)">
                <path data-name="Path 19085" d="M123.748 0A123.746 123.746 0 1 1 0 123.748 123.747 123.747 0 0 1 123.748 0" style="fill:#ebf8ff"/>
                <path data-name="Line 661" d="M1.962 22.88a3.029 3.029 0 0 1-2.868-4L5.133.993a3.027 3.027 0 0 1 5.736 1.936l-6.04 17.892a3.028 3.028 0 0 1-2.867 2.059z" transform="translate(235.283 148.312)" style="fill:#2e1d1a"/>
                <path data-name="Path 19086" d="M16.929 82.573a.707.707 0 0 1 .7-.61h30.959a.707.707 0 0 1 .7.63L61 190.19a.708.708 0 1 1-1.408.153L47.952 83.377h-29.7L3.609 190.361a.708.708 0 1 1-1.4-.19z" transform="translate(4.046 150.765)" style="fill-rule:evenodd;fill:#fff"/>
                <path data-name="Path 19087" d="M18.182 81.663H49.14a1.558 1.558 0 0 1 1.551 1.389l11.7 107.6a1.56 1.56 0 0 1-3.1.338L47.74 84.781h-28.2L5 191.028a1.56 1.56 0 1 1-3.09-.424L16.637 83.01a1.566 1.566 0 0 1 1.545-1.347z" transform="translate(3.494 150.213)" style="fill:#002b47"/>
                <path data-name="Rectangle 27708" d="M1.268 0h131.863a1.267 1.267 0 0 1 1.269 1.267v12.566a1.267 1.267 0 0 1-1.267 1.267H1.268A1.268 1.268 0 0 1 0 13.832V1.268A1.268 1.268 0 0 1 1.268 0z" transform="translate(9.219 227.394)" style="fill:#fff"/>
                <path data-name="Rectangle 27709" d="M4.152-.3h127.2a4.454 4.454 0 0 1 4.448 4.449v7.9a4.454 4.454 0 0 1-4.449 4.449H4.152A4.457 4.457 0 0 1-.3 12.051v-7.9A4.457 4.457 0 0 1 4.152-.3zm127.2 15.1a2.749 2.749 0 0 0 2.746-2.746v-7.9a2.749 2.749 0 0 0-2.745-2.754H4.152A2.752 2.752 0 0 0 1.4 4.152v7.9A2.752 2.752 0 0 0 4.152 14.8z" transform="translate(8.667 226.842)" style="fill:#002b47"/>
                <path data-name="Path 19088" d="M150.918 31.686a4.614 4.614 0 0 0-4.469 3.461l-17.514 67.516H62.021a4.53 4.53 0 0 0 0 9.061h71.732a4.516 4.516 0 0 0 3.879-2.22 5.19 5.19 0 0 0 .863-1.812l16.92-70.3a4.628 4.628 0 0 0-4.5-5.7" transform="translate(105.758 58.284)" style="fill:#002b47"/>
                <path data-name="Path 19089" d="m20.582 116.511 10.54-17.36a.753.753 0 0 1 1.034-.256l32.354 19.428a.766.766 0 0 1 .355.505c1.607 8.527 6.323 24.635 6.877 26.534a.794.794 0 0 0 .2.318c1.161 1.127 9.447 9.083 15.6 13.436.7.494.2 2-.645 1.919l-21.563-1.975a.734.734 0 0 1-.446-.2l-44.179-41.4a.759.759 0 0 1-.128-.943" transform="translate(37.658 181.711)" style="fill:#002b47"/>
                <path data-name="Path 19090" d="m95.92 65.683-72.862 95.893 44.925 28.692 52.475-85.552c11.133-18.152-3.356-41.2-24.538-39.034" transform="translate(42.413 120.558)" style="fill:#fedd31"/>
                <path data-name="Path 19091" d="m69.057 192-46.435-29.652 73.646-96.923.368-.038a28.137 28.137 0 0 1 2.847-.146 26.129 26.129 0 0 1 13.692 3.842 26.939 26.939 0 0 1 9.365 9.79 26.225 26.225 0 0 1-.552 26.84zM25.1 161.907l43.415 27.728 52.022-84.812a24.542 24.542 0 0 0 .518-25.117 25.232 25.232 0 0 0-8.77-9.171 24.426 24.426 0 0 0-12.8-3.59c-.761 0-1.536.034-2.308.1z" transform="translate(41.612 120.006)" style="fill:#002b47"/>
                <path data-name="Path 19092" d="M81.864 11.134c20.387 15.478-7.925 43.8-7.925 43.8L44.491 71.918s-23.03-12.082-21.52-29.825C24.161 28.128 42.6 20.95 42.6 20.95s18.882-25.293 39.264-9.816" transform="translate(42.123 11.257)" style="fill:#002b47"/>
                <path data-name="Path 19093" d="m72.2 31.507-3.4-19.632C58.97 23.639 52.737 28.25 39.73 31.507c0 0-9.816-3.776-11.7 4.909s6.42 10.946 6.42 10.946l-4.536 11.327L50.3 69.637l3.018-13.97 7.158.6a10.579 10.579 0 0 0 11.447-10.078l.275-6.377 2.584-1.034a2.263 2.263 0 0 0 .809-3.652z" transform="translate(51.038 21.843)" style="fill:#fff"/>
                <path data-name="Path 19094" d="M69.351 11.575a.852.852 0 0 1 .839.707l3.355 19.381 3.22 3.437a3.115 3.115 0 0 1-1.115 5.025l-2.072.829-.252 5.828a11.4 11.4 0 0 1-11.408 10.925c-.318 0-.641-.013-.959-.04l-6.413-.537-2.86 13.239a.852.852 0 0 1-1.236.571L30.062 59.991a.852.852 0 0 1-.388-1.067l4.2-10.5a11.819 11.819 0 0 1-3.367-2.088c-1.848-1.657-3.828-4.659-2.766-9.544a7.54 7.54 0 0 1 7.951-6.4 15.221 15.221 0 0 1 4.627.78C52.52 28.081 58.657 23.9 68.7 11.881a.852.852 0 0 1 .651-.306zM61.918 56a9.7 9.7 0 0 0 9.706-9.3l.275-6.377a.852.852 0 0 1 .535-.754l2.584-1.034a1.411 1.411 0 0 0 .5-2.278l-3.393-3.62a.852.852 0 0 1-.218-.437l-3.083-17.828C64.016 20 60.373 23.469 56.49 26.135c-4.407 3.026-9.192 5.045-16 6.75a.852.852 0 0 1-.513-.031 13.572 13.572 0 0 0-4.279-.76c-3.442 0-5.557 1.7-6.287 5.055-.713 3.28.04 5.942 2.238 7.914a9.941 9.941 0 0 0 3.573 2.029.852.852 0 0 1 .567 1.138l-4.25 10.62 18.72 10.05 2.779-12.864a.852.852 0 0 1 .9-.669l7.158.6c.275.025.551.033.822.033z" transform="translate(50.486 21.291)" style="fill:#002b47"/>
                <path data-name="Path 19095" d="m33.879 25.856 8.683 3.776L39.544 43.6z" transform="translate(62.318 47.56)" style="fill:#002b47"/>
                <path data-name="Line 662" d="M7.1 2.166h-.082L.563 1.634A.994.994 0 0 1 .725-.347l6.454.529A.994.994 0 0 1 7.1 2.166z" transform="translate(111.489 67.63)" style="fill:#002b47"/>
                <path data-name="Path 19096" d="M39.732 19.729c.071 1.4.858 2.484 1.743 2.428s1.55-1.232 1.479-2.629-.863-2.484-1.749-2.431-1.55 1.235-1.474 2.632" transform="translate(73.073 31.446)" style="fill:#002b47"/>
                <path data-name="Path 19097" d="m71.7 135.461-11.575-20.813 41.93-2.152 4.7 7.536c13.618 4.066 44.82 10.756 44.82 14.353 0 1.434-48.071 1.434-79.876 1.076" transform="translate(110.595 206.928)" style="fill:#002b47"/>
                <path data-name="Path 19098" d="m17.487 107.03-.6-.426a28.241 28.241 0 0 1-4.191-42.475l105.287 3.711a28.809 28.809 0 0 1 24.09 14.654l68.612 121.84-56.743 2.513-45.817-86.547a19.293 19.293 0 0 0-17.048-10.265H26.929a16.341 16.341 0 0 1-9.441-3" transform="translate(9.115 117.96)" style="fill:#fedd31"/>
                <path data-name="Path 19099" d="m153.992 208.282-46.069-87.028a18.4 18.4 0 0 0-16.3-9.811H27.48a17.1 17.1 0 0 1-9.933-3.158l-.6-.426a29.093 29.093 0 0 1-4.32-43.759l.264-.279 105.673 3.725a29.66 29.66 0 0 1 24.8 15.088l69.292 123.047zM13.6 65.554a27.389 27.389 0 0 0 4.325 40.915l.6.426a15.407 15.407 0 0 0 8.949 2.845h64.154a20.1 20.1 0 0 1 17.8 10.718l45.565 86.075 54.82-2.428-67.931-120.632A27.957 27.957 0 0 0 118.5 69.252z" transform="translate(8.564 117.4)" style="fill:#002b47"/>
                <path data-name="Path 19100" d="M41.547 83.917a.7.7 0 0 1 .948.3l28.914 55.619a.7.7 0 0 1-.3.954.712.712 0 0 1-.957-.3L41.243 84.871a.71.71 0 0 1 .3-.954" transform="translate(75.718 154.211)" style="fill:#2b150a;fill-rule:evenodd"/>
                <path data-name="Path 19101" d="M73.545 64.268a.749.749 0 0 1 .65.846L53.817 223.3a.757.757 0 0 1-1.5-.193L72.7 64.921a.752.752 0 0 1 .843-.653" transform="translate(96.218 118.204)" style="fill-rule:evenodd;fill:#fff"/>
                <path data-name="Path 19102" d="M53.616 225.362a1.633 1.633 0 0 1-.208-.013 1.615 1.615 0 0 1-1.386-1.8L72.409 65.364a1.6 1.6 0 1 1 3.182.418L55.213 223.959a1.621 1.621 0 0 1-1.597 1.403z" transform="translate(95.666 117.653)" style="fill:#002b47"/>
                <path data-name="Path 19103" d="M121.947 64.151a.713.713 0 0 0-.61.792l20.39 158.187a.707.707 0 1 0 1.4-.182L122.739 64.761a.707.707 0 0 0-.792-.61" transform="translate(223.179 117.99)" style="fill-rule:evenodd;fill:#fff"/>
                <path data-name="Path 19104" d="M142.977 225.15a1.559 1.559 0 0 1-1.544-1.363L121.043 65.6a1.567 1.567 0 0 1 1.343-1.745 1.609 1.609 0 0 1 .2-.013 1.56 1.56 0 0 1 1.548 1.362l20.389 158.184a1.561 1.561 0 0 1-1.548 1.759z" transform="translate(222.627 117.438)" style="fill:#002b47"/>
                <path data-name="Rectangle 27710" d="M1.268 0H217.7a1.269 1.269 0 0 1 1.269 1.269v13.317a1.269 1.269 0 0 1-1.269 1.269H1.267A1.267 1.267 0 0 1 0 14.588V1.268A1.268 1.268 0 0 1 1.268 0z" transform="translate(146.641 170.009)" style="fill:#fff"/>
                <path data-name="Rectangle 27711" d="M4.152-.3h211.762a4.46 4.46 0 0 1 4.455 4.455V12.8a4.46 4.46 0 0 1-4.455 4.455H4.149A4.454 4.454 0 0 1-.3 12.81V4.152A4.457 4.457 0 0 1 4.152-.3zm211.762 15.855a2.755 2.755 0 0 0 2.751-2.751V4.155a2.755 2.755 0 0 0-2.751-2.755H4.152A2.752 2.752 0 0 0 1.4 4.152v8.658a2.749 2.749 0 0 0 2.746 2.746z" transform="translate(146.089 169.457)" style="fill:#002b47"/>
                <path data-name="Path 19105" d="M99.491 47.254h30.487l-3.878 36.03h-22.728z" transform="translate(183.006 86.921)" style="fill:#1272e2"/>
                <path data-name="Path 19106" d="M99.157 46.954h32.384l-4.065 37.733h-24.254zm30.487 1.7h-28.59l3.7 34.326h21.194z" transform="translate(182.391 86.369)" style="fill:#002b47"/>
                <path data-name="Path 19107" d="m101.189 64.54-1.113-11.917h27.443l-1.388 11.917z" transform="translate(184.083 96.795)" style="fill:#fff"/>
                <path data-name="Path 19108" d="M126.683 65.943h-24.942a.852.852 0 0 1-.848-.773L99.78 53.254a.852.852 0 0 1 .848-.931h27.443a.852.852 0 0 1 .846.95l-1.388 11.917a.852.852 0 0 1-.846.753zm-24.166-1.7h23.407l1.19-10.213h-25.551z" transform="translate(183.531 96.244)" style="fill:#002b47"/>
                <path data-name="Rectangle 27712" d="M.976 0h32.966a.977.977 0 0 1 .977.977V6.23a.976.976 0 0 1-.976.976H.975A.975.975 0 0 1 0 6.231V.976A.976.976 0 0 1 .976 0z" transform="translate(280.287 126.969)" style="fill:#2b150a"/>
                <path data-name="Path 19109" d="m68.187 30.846-.037-.02-.082.006-38.7-4.6a4.386 4.386 0 0 0-4.85 3.66 4.44 4.44 0 0 0 .156 2.042l1.675 5.185s-9.87 15.1-9.538 26.736c.21 7.382 6.778 9.875 11.556 10.716l-21 59.7 88.34 3.021-1.511-18.5 49.46 3.021 7.925-23.786-58.14-8.305-5.282-46.814c-8.1-4.049-11.562-7.74-19.422-11.769z" transform="translate(13.555 48.195)" style="fill:#1272e2"/>
                <path data-name="Path 19110" d="M29.618 25.9a5.3 5.3 0 0 1 .624.037l38.616 4.59.248-.017.8.427a86.1 86.1 0 0 1 9.478 5.774A82.681 82.681 0 0 0 89.31 42.7l.414.207 5.262 46.618 58.5 8.356-8.454 25.375-49.132-3 1.508 18.473-90.458-3.096L28.011 75.77a17.944 17.944 0 0 1-6.862-2.864 10.365 10.365 0 0 1-4.415-8.475c-.312-10.924 7.946-24.5 9.455-26.881l-1.552-4.8a5.323 5.323 0 0 1-.187-2.436 5.213 5.213 0 0 1 5.168-4.414zM68.7 32.225l-38.657-4.6a3.589 3.589 0 0 0-.423-.025 3.516 3.516 0 0 0-3.485 2.974 3.606 3.606 0 0 0 .127 1.648l1.8 5.569-.223.341c-.1.149-9.72 15.018-9.4 26.246.189 6.639 6.006 9.049 10.853 9.9l.989.174L9.328 134.01l86.225 2.949-1.513-18.526 49.788 3.041 7.4-22.2-57.787-8.25-5.306-47.01a85.45 85.45 0 0 1-9.7-5.889 84.736 84.736 0 0 0-9.313-5.675z" transform="translate(12.785 47.643)" style="fill:#002b47"/>
                <path data-name="Path 19111" d="m30.611 35.026-2.632 35.2 26.14 3.314" transform="translate(51.464 64.427)" style="fill:#1272e2;fill-rule:evenodd"/>
                <path data-name="Path 19112" d="M54.709 74.946a.856.856 0 0 1-.108-.007l-26.943-3.415 2.692-36.01a.852.852 0 1 1 1.7.127l-2.572 34.4 25.337 3.212a.852.852 0 0 1-.106 1.7z" transform="translate(50.875 63.875)" style="fill:#002b47"/>
                <path data-name="Path 19113" d="M78.757 107.154h-.029l-40.788-1.346a24.208 24.208 0 0 1-22.711-29.98l10.183-41.394a.852.852 0 0 1 1.654.407L16.884 76.235A22.5 22.5 0 0 0 38 104.1l40.788 1.346a.852.852 0 0 1-.028 1.7z" transform="translate(26.711 62.147)" style="fill:#002b47"/>
                <path data-name="Path 19114" d="m86.029 58.272-20.557-6.11 3.782 6.038 16.491 1.547a.755.755 0 0 0 .284-1.477" transform="translate(120.431 95.948)" style="fill:#fff"/>
                <path data-name="Path 19115" d="M86.381 61.157a1.349 1.349 0 0 1-.164-.008L69.726 59.6a.852.852 0 0 1-.642-.4L65.3 53.166a.852.852 0 0 1 .965-1.269l20.557 6.11a1.608 1.608 0 0 1-.443 3.149zM70.3 57.945l15.1 1.416-17.457-5.188z" transform="translate(119.879 95.396)" style="fill:#002b47"/>
                <path data-name="Path 19116" d="m62.3 52.162-6.8 21.52h41.584a.756.756 0 0 0 .327-1.437l-12.84-6.113 17.795 5.006a.755.755 0 0 0 .568-1.388l-17.6-9.66 18.913 6.02a.755.755 0 0 0 .625-1.363L84.2 52.162z" transform="translate(102.09 95.948)" style="fill:#fff"/>
                <path data-name="Path 19117" d="M62.85 51.862h21.9a.852.852 0 0 1 .443.124l20.671 12.584a1.567 1.567 0 0 1 .712 1.8 1.588 1.588 0 0 1-1.53 1.186 1.671 1.671 0 0 1-.509-.081l-10.558-3.36 9.918 5.442a1.581 1.581 0 0 1 .786 1.8 1.6 1.6 0 0 1-1.54 1.22 1.688 1.688 0 0 1-.453-.063l-8.18-2.3 3.82 1.819a1.6 1.6 0 0 1 .873 1.809 1.578 1.578 0 0 1-1.566 1.249H56.053a.852.852 0 0 1-.812-1.108l6.8-21.52a.852.852 0 0 1 .809-.601zm21.659 1.7H63.475l-6.26 19.82H97.21l-12.453-5.929a.852.852 0 0 1 .6-1.589l16.978 4.776-16.864-9.252a.852.852 0 0 1 .668-1.559l18.146 5.771z" transform="translate(101.538 95.396)" style="fill:#002b47"/>
                <path data-name="Path 19118" d="M76.026 44.367a4.563 4.563 0 1 1-4.54-4.583 4.563 4.563 0 0 1 4.54 4.583" transform="translate(123.057 73.18)" style="fill:#002b47"/>
                <path data-name="Path 19119" d="M68.1 45.254a12.644 12.644 0 0 1 18.3-.241c2.331 2.348 5.977-1.264 3.646-3.612a17.832 17.832 0 0 0-25.552.207C62.216 44 65.822 47.654 68.1 45.254" transform="translate(117.295 66.426)" style="fill:#002b47"/>
                <path data-name="Path 19120" d="M62.724 41.524c6.94-6 15.222-9.773 24.5-9.8a36.341 36.341 0 0 1 24.99 9.563c2.408 2.26 6.062-1.346 3.649-3.612a41.684 41.684 0 0 0-28.618-11.081c-10.673.026-20.16 4.39-28.133 11.284-2.5 2.164 1.122 5.8 3.612 3.646" transform="translate(107.179 48.918)" style="fill:#002b47"/>
                <path data-name="Path 19121" d="M64.789 44.726a25.1 25.1 0 0 1 36.89-.528c2.308 2.371 5.954-1.241 3.649-3.612a30.228 30.228 0 0 0-44.15.494c-2.24 2.422 1.363 6.076 3.612 3.646" transform="translate(111.23 57.484)" style="fill:#002b47"/>
                <path data-name="Path 19122" d="M101.905 36.666a14 14 0 1 1-14-14 14 14 0 0 1 14 14" transform="translate(135.928 41.685)" style="fill:#fedd31"/>
                <path data-name="Ellipse 5176" d="M14.556-.3A14.856 14.856 0 1 1-.3 14.556 14.873 14.873 0 0 1 14.556-.3zm0 28.008A13.152 13.152 0 1 0 1.4 14.556a13.167 13.167 0 0 0 13.156 13.152z" transform="translate(209.274 63.794)" style="fill:#002b47"/>
                <path data-name="Rectangle 27713" transform="rotate(-45 207.997 -222.699)" style="fill:#002b47" d="M0 0h12.577v2.807H0z"/>
                <path data-name="Rectangle 27714" transform="rotate(-45 199.601 -226.173)" style="fill:#002b47" d="M0 0h2.807v12.577H0z"/>
            </g>
        </g>
    </g>
</svg>
