<svg data-name="Pay my premium" xmlns="http://www.w3.org/2000/svg" width="48" height="48" viewBox="0 0 48 48">
    <defs>
        <clipPath id="jmpgl8igaa">
            <path data-name="Rectangle 22355" style="fill:#fff" d="M0 0h48v48H0z"/>
        </clipPath>
    </defs>
    <g data-name="Mask Group 5689" style="clip-path:url(#jmpgl8igaa)">
        <g data-name="Group 20601" transform="translate(2.374 8.291)">
            <rect data-name="Rectangle 22353" width="21.705" height="27.805" rx="1.743" transform="translate(2.864 4.282)" style="fill:#fedd31;opacity:.5"/>
            <path data-name="Path 12337" d="M27.586 27.093H10.9a7.552 7.552 0 0 1-5.943-3.169h-2.7a.75.75 0 0 1 0-1.5h3.522l.221.361a6.692 6.692 0 0 0 1.294 1.433 5.529 5.529 0 0 0 3.606 1.375h15.186V15.508l-4.041-5.125a4.012 4.012 0 0 0-3.135-1.519H2.266a.75.75 0 0 1 0-1.5H18.91a5.526 5.526 0 0 1 4.258 2.025l.036.043 4.381 5.556z" transform="translate(-2.266 -8.114)" style="fill:#094771"/>
            <path data-name="Path 12338" d="M10.829 10.769c.1.106.307.311.581.594-.274-.283-.477-.488-.581-.594z" transform="translate(2.306 -6.696)" style="fill:#fff"/>
            <path data-name="Path 12339" d="M14.684 14.7c.729.741 1.408 1.433 1.96 1.991a512.622 512.622 0 0 1-1.96-1.991z" transform="translate(4.364 -4.597)" style="fill:#fff"/>
            <path data-name="Path 12340" d="M22.518 19.737c-.23-.23-.541-.543-.91-.916-.552-.558-1.232-1.25-1.96-1.991l-1.5-1.526c-1.514-1.543-3.006-3.068-3.833-3.913l-.581-.594-.078-.081-8.269 6.329a7.219 7.219 0 0 0 7.212.9s1.4 1.25 2.713 2.379c.525.451 1.037.884 1.44 1.209.2.163.377.3.512.4a3.877 3.877 0 0 0 1.606.6 4.828 4.828 0 0 0 1.13.029 5.018 5.018 0 0 0 1.069-.207c1.512-.468 2.483-1.584 1.449-2.618z" transform="translate(-.6 -6.725)" style="fill:none"/>
            <path data-name="Path 12341" d="m13.707 13.707 1.5 1.526z" transform="translate(3.842 -5.128)" style="fill:#fff"/>
            <path data-name="Path 12342" d="M15.962 16z" transform="translate(5.046 -3.904)" style="fill:#fff"/>
            <path data-name="Path 12343" d="M38.752 11.866H13.535a3.264 3.264 0 0 0-.687.075c2.209 2.258 5.817 5.938 7.061 7.182 1.838 1.838-2.66 3.938-5.252 2.189-.907-.655-3.537-2.979-4.381-3.729v13.38a3.26 3.26 0 0 0 3.26 3.26h25.216a3.26 3.26 0 0 0 3.26-3.26V15.126a3.259 3.259 0 0 0-3.26-3.26z" transform="translate(2.01 -6.111)" style="fill:#0275e9"/>
            <path data-name="Path 12444" d="M0 0h31.736v4.672H0z" transform="translate(12.285 19.295)" style="fill:#2ea1ff"/>
            <path data-name="Path 12344" d="M19.283 23.333a4.837 4.837 0 0 1-2.717-.785l-.02-.014c-.911-.658-3.439-2.888-4.377-3.72a7.581 7.581 0 0 1-5.189.056 8.1 8.1 0 0 1-2.352-1.247.75.75 0 0 1 .955-1.157 6.747 6.747 0 0 0 1.933 1 6.024 6.024 0 0 0 4.5-.21l.444-.2.363.324c.035.032 3.544 3.163 4.6 3.928a3.629 3.629 0 0 0 2.479.479 3.13 3.13 0 0 0 1.881-.854c.179-.218.218-.381-.07-.668-1.82-1.821-8.8-8.955-8.867-9.027a.75.75 0 1 1 1.072-1.049c.07.072 7.042 7.2 8.856 9.015a1.881 1.881 0 0 1 .167 2.682 4.53 4.53 0 0 1-2.841 1.389 5.9 5.9 0 0 1-.817.058z" transform="translate(-.75 -6.725)" style="fill:#094771"/>
            <path data-name="Line 543" d="M8.008.75H0A.75.75 0 0 1-.75 0 .75.75 0 0 1 0-.75h8.008a.75.75 0 0 1 .75.75.75.75 0 0 1-.75.75z" transform="translate(31.067 11.905)" style="fill:#fff"/>
        </g>
    </g>
</svg>
