<svg xmlns="http://www.w3.org/2000/svg" width="132" height="104" viewBox="0 0 132 104">
    <defs>
        <clipPath id="sec64wk5ta">
            <path data-name="Rectangle 27177" transform="translate(-10036 -868)" style="fill:#cbcbcb" d="M0 0h132v104H0z"/>
        </clipPath>
        <clipPath id="3ergu9jzpb">
            <path data-name="Rectangle 27176" style="fill:none" d="M0 0h110.422v102.382H0z"/>
        </clipPath>
    </defs>
    <g data-name="Mask Group 24031" transform="translate(10036 868)" style="clip-path:url(#sec64wk5ta)">
        <g data-name="Group 29512">
            <g data-name="Group 29511" style="clip-path:url(#3ergu9jzpb)" transform="translate(-10025 -867.191)">
                <path data-name="Path 18380" d="M51.191 0A51.191 51.191 0 1 1 0 51.191 51.191 51.191 0 0 1 51.191 0" style="fill:#ebf8ff"/>
                <path data-name="Path 18381" d="M53.131 34.521c-14.7-1.768-29.464-3.447-50.5 1.4a51.188 51.188 0 1 0 94.79-5.814c-8.707 2.592-18.779 7.48-44.288 4.411" transform="translate(0 -.923)" style="fill:#d4f0fc"/>
                <path data-name="Path 18382" d="M6.272 47.089C5.787 49.3 4.9 51.428 4.3 53.624c-.466 1.72-1.07 4.315.474 5.678 2.191 1.934 12.407-6.052 12.976-6.146s2.738-10.829 2.738-10.829l1.4-7.947-11.537-8.432a2.984 2.984 0 0 0-2.68-.219c-1.084.4-1.409 1.178-1.753 2.212a17.632 17.632 0 0 0-.233 8.217c.482 3.122 1.218 6.269.847 9.407-.06.514-.15 1.021-.261 1.524" transform="translate(-.116 -.782)" style="fill:#002b47"/>
                <path data-name="Path 18383" d="M51.083 28.775a2.339 2.339 0 1 0-2.339-2.339" transform="translate(-1.493 -.738)" style="fill:#fedd31"/>
                <path data-name="Path 18198" d="M51.083 29.075a.3.3 0 0 1 0-.6 2.039 2.039 0 1 0-2.039-2.039.3.3 0 0 1-.6 0 2.639 2.639 0 1 1 2.639 2.639z" transform="translate(-1.493 -.738)" style="fill:#002b47"/>
                <path data-name="Path 18384" d="m35.46 41.052-2.854 3.226-6.954-6.955z" transform="translate(-.786 -1.144)" style="fill:#1272e2"/>
                <path data-name="Path 18200" d="m32.619 44.715-8.17-8.171 11.522 4.381zM26.854 38.1l5.739 5.739 2.355-2.662z" transform="translate(-.786 -1.144)" style="fill:#002b47"/>
                <path data-name="Path 18385" d="M5.708 32.507a8.584 8.584 0 1 0 6.5-10.254 8.564 8.564 0 0 0-6.5 10.254" transform="translate(-.168 -.675)" style="fill:#002b47"/>
                <path data-name="Path 18386" d="M9.382 70.012c-3.912-1.534-7.189-5.872-4.6-9.887A10.506 10.506 0 0 1 8.891 56.7c4.023-2.1 8.505-2.732 12.945-3.311A154.277 154.277 0 0 1 43.01 52.4c7.114.057 14.316.739 21.045 3.186 4.371 1.59 10.074 5.419 7.493 10.792A7.623 7.623 0 0 1 67.29 69.9c-7.233 2.816-14.954-.652-22.3-.958-3.9-.162-7.8-.19-11.7-.135a132.642 132.642 0 0 0-16.928 1.4 24.627 24.627 0 0 1-4.347.377 8.043 8.043 0 0 1-2.631-.572" transform="translate(-.118 -1.605)" style="fill:#ade0fe"/>
                <path data-name="Path 18203" d="M61 71.293a48.953 48.953 0 0 1-8.633-1.049 54.925 54.925 0 0 0-7.392-1c-2.6-.108-5.26-.16-8.138-.16-1.145 0-2.338.009-3.548.026A131.936 131.936 0 0 0 16.4 70.5l-.254.036a26.21 26.21 0 0 1-3.7.351c-.151 0-.3 0-.448-.008a8.293 8.293 0 0 1-2.73-.592 10.191 10.191 0 0 1-3.335-2.143 7.986 7.986 0 0 1-2.09-3.226 5.676 5.676 0 0 1 .679-4.959 10.691 10.691 0 0 1 4.226-3.529c4.2-2.188 8.9-2.8 13.045-3.343a140.961 140.961 0 0 1 18.572-1.005c.844 0 1.708 0 2.644.011 8.607.069 15.326 1.087 21.145 3.2a19.1 19.1 0 0 1 4.6 2.4 9.3 9.3 0 0 1 3.3 3.874 5.871 5.871 0 0 1-.245 4.929 7.978 7.978 0 0 1-4.42 3.673A17.344 17.344 0 0 1 61 71.293zM36.841 68.48c2.886 0 5.557.053 8.163.161a55.366 55.366 0 0 1 7.474 1.013A48.51 48.51 0 0 0 61 70.693a16.757 16.757 0 0 0 6.178-1.075 7.094 7.094 0 0 0 4.1-3.374 5.294 5.294 0 0 0 .23-4.442 8.718 8.718 0 0 0-3.1-3.615 18.5 18.5 0 0 0-4.457-2.323c-5.753-2.093-12.408-3.1-20.945-3.168-.934-.008-1.8-.011-2.639-.011a140.4 140.4 0 0 0-18.494 1c-4.1.535-8.74 1.141-12.845 3.28a10.12 10.12 0 0 0-4 3.322 5.094 5.094 0 0 0-.612 4.45 8.679 8.679 0 0 0 5.073 4.995 7.7 7.7 0 0 0 2.532.551c.139 0 .282.008.426.008a25.763 25.763 0 0 0 3.613-.345l.254-.036a132.526 132.526 0 0 1 16.966-1.4c1.22-.021 2.413-.03 3.561-.03z" transform="translate(-.118 -1.605)" style="fill:#002b47"/>
                <path data-name="Path 18387" d="m35.637 41.207 18.486 7.084-6.841 5.586-13.958-6.623-.929-2.36z" transform="translate(-.993 -1.263)" style="fill:#fff"/>
                <path data-name="Path 18205" d="M35.637 40.907a.3.3 0 0 1 .107.02l18.486 7.084a.3.3 0 0 1 .082.512l-6.841 5.586a.3.3 0 0 1-.318.039L33.2 47.525a.3.3 0 0 1-.151-.161L32.116 45a.3.3 0 0 1 .054-.308l3.242-3.687a.3.3 0 0 1 .225-.098zm17.9 7.479-17.812-6.825-2.983 3.393.818 2.08 13.679 6.491z" transform="translate(-.993 -1.263)" style="fill:#002b47"/>
                <path data-name="Path 18388" d="m102 58.5-7.669-2.78 2.89-9.92 7.318 1.041c3.966-2.468 7.957-5.848 8.763-5.311.322.213-6.507 9.948-11.3 16.974" transform="translate(-2.89 -1.271)" style="fill:#002b47"/>
                <path data-name="Path 18389" d="m64.227 42.859-1.2 13.136 31.017 3.118 7.23-12.952z" transform="translate(-1.931 -1.313)" style="fill:#fedd31"/>
                <path data-name="Path 18208" d="m63.955 42.533 37.807 3.37-7.552 13.528-31.51-3.168zm36.832 3.886L64.5 43.184l-1.147 12.542 30.525 3.069z" transform="translate(-1.931 -1.313)" style="fill:#002b47"/>
                <path data-name="Path 18390" d="M20.511 34.512a3.883 3.883 0 0 0 1.978-3.272 5.359 5.359 0 0 0-1.655-3.6l-3-3.542s-3.306.337-3.138 2.944c.216 3.35-1.366 4.1-1.366 4.1s-3.486 1.112-2.006 3.429c1.045 1.636 3.364 1.367 3.364 1.367l2.407 3.562a2.968 2.968 0 0 0 3.835-.119c2.251-1.67 1.35-2.955 1.35-2.955z" transform="translate(-.336 -.738)" style="fill:#fff"/>
                <path data-name="Path 18210" d="M18.877 40.438a3.125 3.125 0 0 1-1.984-.712.3.3 0 0 1-.047-.054l-2.312-3.421c-.061 0-.136.005-.221.005a3.821 3.821 0 0 1-3.244-1.522 2.089 2.089 0 0 1-.3-1.894c.457-1.265 2.2-1.89 2.443-1.973a1.975 1.975 0 0 0 .652-.719 5.377 5.377 0 0 0 .532-3.088 2.744 2.744 0 0 1 1.669-2.736A5.479 5.479 0 0 1 17.8 23.8a.3.3 0 0 1 .259.1l2.99 3.526a5.619 5.619 0 0 1 1.739 3.8 4.024 4.024 0 0 1-1.814 3.339l1.526 1.662a.3.3 0 0 1 .025.031c.044.062 1.04 1.544-1.417 3.368a3.731 3.731 0 0 1-2.231.812zM17.32 39.3a2.578 2.578 0 0 0 1.557.536 3.148 3.148 0 0 0 1.874-.694c1.864-1.383 1.37-2.394 1.29-2.53l-1.75-1.9a.3.3 0 0 1 .079-.468 3.544 3.544 0 0 0 1.82-3 5.07 5.07 0 0 0-1.553-3.382.3.3 0 0 1-.031-.031l-2.9-3.416a4.946 4.946 0 0 0-1.388.448 2.153 2.153 0 0 0-1.329 2.156c.227 3.513-1.464 4.359-1.536 4.394l-.038.015c-.017.005-1.708.559-2.089 1.615a1.5 1.5 0 0 0 .245 1.366 3.239 3.239 0 0 0 2.738 1.245 3.364 3.364 0 0 0 .338-.015.3.3 0 0 1 .283.13z" transform="translate(-.336 -.738)" style="fill:#002b47"/>
                <path data-name="Path 18391" d="M11.947 34.222a.23.23 0 0 0 .251.206l1.877-.184a.23.23 0 0 0-.045-.458l-1.877.184a.23.23 0 0 0-.206.251" transform="translate(-.366 -1.035)" style="fill-rule:evenodd;fill:#002b47"/>
                <path data-name="Path 18392" d="M19.931 31.517a.23.23 0 0 1 .229.232h-.231.231v.046a.99.99 0 0 1-.014.1 1.218 1.218 0 0 1-.1.321 1.1 1.1 0 0 1-.807.617 1.187 1.187 0 0 1-.948-.157 1.006 1.006 0 0 1-.218-.2.881.881 0 0 1-.054-.076L18 32.376v-.009l.206-.1-.206.1a.23.23 0 0 1 .409-.21v.006a.29.29 0 0 0 .024.036.592.592 0 0 0 .119.111.734.734 0 0 0 .593.085.637.637 0 0 0 .483-.364.807.807 0 0 0 .064-.2.6.6 0 0 0 .008-.063v-.016a.231.231 0 0 1 .232-.227" transform="translate(-.551 -.966)" style="fill-rule:evenodd;fill:#002b47"/>
                <path data-name="Path 18393" d="M17.741 28.685a.23.23 0 0 1 .3-.118l2.034.893a.4.4 0 0 1 .174.581l-.444.684a.23.23 0 1 1-.386-.25l.4-.623-1.967-.863a.23.23 0 0 1-.118-.3" transform="translate(-.543 -.875)" style="fill-rule:evenodd;fill:#002b47"/>
                <path data-name="Path 18394" d="M19.131 27.063c.361.21.546.566.413.794s-.533.241-.894.031-.547-.566-.414-.794.534-.241.895-.031" transform="translate(-.557 -.825)" style="fill:#002b47"/>
                <path data-name="Path 18395" d="M17.2 29.854c.362.21.546.566.413.794s-.533.241-.894.031-.547-.566-.414-.794.534-.241.895-.031" transform="translate(-.498 -.91)" style="fill:#002b47"/>
                <path data-name="Path 18396" d="m21.681 36.146-1.24-1.486-3.393 1.026z" transform="translate(-.522 -1.062)" style="fill:#002b47"/>
                <path data-name="Path 18397" d="M24.744 66.259a66.2 66.2 0 0 1-4.2-8.468C18.595 53.3 16.328 48.1 16.478 43.1a5.9 5.9 0 0 1 .833-3.139c1.539-2.28 3.1-3.43 5.842-3.268C28.44 37 48.495 54.831 48.495 54.831l-6.422 5.351S33.279 75 30.392 72.755a24.078 24.078 0 0 1-5.648-6.5" transform="translate(-.505 -1.124)" style="fill:#1272e2"/>
                <path data-name="Path 18218" d="M31.085 73.286a1.394 1.394 0 0 1-.877-.295 24.316 24.316 0 0 1-5.72-6.575 66.6 66.6 0 0 1-4.217-8.507l-.027-.062c-1.977-4.553-4.218-9.713-4.066-14.76a6.108 6.108 0 0 1 .884-3.3 8.687 8.687 0 0 1 2.383-2.527 5.7 5.7 0 0 1 3.211-.888c.167 0 .34.005.515.016 2.255.133 7.242 3.245 14.822 9.251a279.33 279.33 0 0 1 10.7 8.965l.26.232L42.3 60.38c-.24.4-2.055 3.409-4.212 6.381a39.059 39.059 0 0 1-3.644 4.439c-1.392 1.4-2.491 2.086-3.359 2.086zm-8.43-36.31c-2.137 0-3.566.883-5.1 3.151a5.542 5.542 0 0 0-.781 2.98c-.148 4.913 2.065 10.007 4.017 14.5l.027.062A66.112 66.112 0 0 0 25 66.1a23.729 23.729 0 0 0 5.577 6.417.8.8 0 0 0 .508.168c1.71 0 4.82-3.934 6.522-6.278a94.66 94.66 0 0 0 4.208-6.379l.026-.044 6.193-5.16c-1.1-.971-5.54-4.85-10.416-8.713C28.3 38.729 24.6 37.076 23.135 36.99a7.874 7.874 0 0 0-.48-.014z" transform="translate(-.505 -1.124)" style="fill:#002b47"/>
                <path data-name="Path 18398" d="m19.06 47.649 3.338 5.3 8.486-5.632-3.432-5.117" transform="translate(-.584 -1.293)" style="fill:#1272e2"/>
                <path data-name="Path 18220" d="m22.308 53.369-3.5-5.559.508-.32 3.175 5.04 7.979-5.3-3.27-4.867.5-.334 3.6 5.371z" transform="translate(-.584 -1.293)" style="fill:#002b47"/>
                <path data-name="Path 18399" d="m87.026 82.054-5.558-6.685 8.232-8.582 2.761 3c4.28-1.87 8.716-4.64 9.437-3.993.288.258-9.117 10-14.874 16.26" transform="translate(-2.496 -2.013)" style="fill:#002b47"/>
                <path data-name="Path 18400" d="m79.516 79.068 10.4-11.573-16.126-20.4a11.6 11.6 0 0 0-16.407-1.815l-12 9.738L32.4 68.167a8.979 8.979 0 0 0 14.7 3.589l14.843-14.2z" transform="translate(-.993 -1.308)" style="fill:#fedd31"/>
                <path data-name="Path 18223" d="M79.5 79.529 61.916 58 47.308 71.972a9.206 9.206 0 0 1-6.386 2.578 9.335 9.335 0 0 1-5.3-1.639 9.176 9.176 0 0 1-3.508-4.647l-.06-.176 13.141-13.3 12-9.738a11.9 11.9 0 0 1 16.832 1.861l16.283 20.6zM61.97 57.116l17.557 21.491 10-11.125L73.555 47.28a11.3 11.3 0 0 0-15.983-1.767l-11.988 9.728-12.843 13a8.569 8.569 0 0 0 3.218 4.172 8.858 8.858 0 0 0 4.962 1.534 8.609 8.609 0 0 0 5.971-2.411z" transform="translate(-.993 -1.308)" style="fill:#002b47"/>
                <path data-name="Path 18401" d="M12.066 60.548c7.233-2.816 11.645-.133 18.99.173 3.9.162 7.8.19 11.7.135 3.338-.047 6.672-.246 9.993-.566 4.595-.443 10.737-3.435 15.219-1.621a7.6 7.6 0 0 1 3.3 10.868 10.506 10.506 0 0 1-4.112 3.426c-4.022 2.1-8.505 2.732-12.945 3.311a154.269 154.269 0 0 1-21.174.992 67.2 67.2 0 0 1-18.408-2.322q-1.329-.39-2.638-.865c-4.371-1.59-9.754-5.363-7.855-11.5" transform="translate(-.115 -1.78)" style="fill:#ade0fe"/>
                <path data-name="Path 18225" d="M35.767 77.577q-1.4 0-2.733-.012a66.652 66.652 0 0 1-18.49-2.334c-.9-.263-1.791-.556-2.656-.871a15.933 15.933 0 0 1-6.4-4.13 8.224 8.224 0 0 1-1.829-3.418 8 8 0 0 1 .193-4.323.3.3 0 1 1 .573.177 7.134 7.134 0 0 0 1.516 7.17 15.33 15.33 0 0 0 6.154 3.96c.853.31 1.734.6 2.62.859a66.08 66.08 0 0 0 18.326 2.31 154.833 154.833 0 0 0 21.133-.989c4.1-.535 8.741-1.141 12.845-3.28a10.12 10.12 0 0 0 4-3.322 7.088 7.088 0 0 0 .733-6 7.01 7.01 0 0 0-3.89-4.423c-2.913-1.179-6.565-.261-10.1.627a35.188 35.188 0 0 1-4.981 1.014 122.6 122.6 0 0 1-10.018.567c-4.25.06-8.084.016-11.72-.135a49.714 49.714 0 0 1-6.46-.784c-4.078-.687-7.6-1.281-12.408.591a.3.3 0 1 1-.218-.559c4.962-1.932 8.56-1.325 12.725-.623a49.233 49.233 0 0 0 6.386.776c3.625.151 7.448.195 11.686.135 3.185-.044 6.539-.234 9.969-.565a34.785 34.785 0 0 0 4.892-1c3.625-.912 7.374-1.854 10.469-.6A7.9 7.9 0 0 1 71.52 69.7a10.69 10.69 0 0 1-4.226 3.529c-4.2 2.188-8.9 2.8-13.045 3.343a143.9 143.9 0 0 1-18.482 1.005z" transform="translate(-.115 -1.78)" style="fill:#002b47"/>
                <path data-name="Path 18402" d="M49.718 27.494a10.576 10.576 0 0 1 .5 3.3c0 3.442-1.477 6.232-3.3 6.232s-3.3-2.79-3.3-6.232a10.576 10.576 0 0 1 .5-3.3z" transform="translate(-1.337 -.842)" style="fill:#fedd31"/>
                <path data-name="Path 18227" d="M43.909 27.194h6.026L50 27.4a10.92 10.92 0 0 1 .518 3.39 9.918 9.918 0 0 1-1 4.547 3.133 3.133 0 0 1-2.6 1.985 3.132 3.132 0 0 1-2.6-1.985 9.92 9.92 0 0 1-1-4.547 10.92 10.92 0 0 1 .518-3.39zm5.589.6h-5.152a10.448 10.448 0 0 0-.423 3 9.316 9.316 0 0 0 .931 4.266c.569 1.074 1.3 1.666 2.067 1.666s1.5-.592 2.068-1.666a9.314 9.314 0 0 0 .932-4.266 10.448 10.448 0 0 0-.421-3z" transform="translate(-1.337 -.842)" style="fill:#002b47"/>
                <path data-name="Path 18403" d="m45.272 37.343-.209 1.2 2.056-1.558 2.566-5.651a.349.349 0 0 1 .663.2l-.672 4.306a15.4 15.4 0 0 1 1.542 3.439c.25 1.265-4.9 5.375-4.9 5.375l-10.13 14.175-.011.011a4.916 4.916 0 0 1-5.807 2.328l-.03-.008a4.9 4.9 0 0 1-2.368-1.66l-5.51-7.11 8.258-5.468L33.4 50.4l.042-.031 9.617-10.4 1.131-3.578" transform="translate(-.688 -.954)" style="fill:#fff"/>
                <path data-name="Path 18229" d="M31.863 61.7a5.234 5.234 0 0 1-1.575-.243l-.022-.006-.018-.005a5.2 5.2 0 0 1-2.513-1.767l-5.51-7.11a.3.3 0 0 1 .072-.434l8.258-5.468a.3.3 0 0 1 .4.067l2.467 3.213 9.368-10.132L43.9 36.3a.3.3 0 0 1 .572.181l-1.13 3.579a.3.3 0 0 1-.066.113l-9.617 10.4a.3.3 0 0 1-.041.037l-.042.031a.3.3 0 0 1-.417-.058l-2.507-3.266-7.752 5.14 5.312 6.855a4.6 4.6 0 0 0 2.215 1.561l.021.005h.016a4.616 4.616 0 0 0 5.45-2.178.3.3 0 0 1 .044-.06l10.118-14.165a.3.3 0 0 1 .057-.06 45.897 45.897 0 0 0 2.527-2.2c2.273-2.147 2.285-2.778 2.264-2.883a15.213 15.213 0 0 0-1.506-3.344.3.3 0 0 1-.038-.2l.672-4.306a.05.05 0 0 0-.026-.052.048.048 0 0 0-.038 0 .049.049 0 0 0-.029.026l-2.566 5.651a.3.3 0 0 1-.092.115l-2.056 1.558a.3.3 0 0 1-.477-.291l.209-1.2a.3.3 0 0 1 .591.1l-.078.444 1.387-1.051 2.534-5.582a.649.649 0 0 1 1.233.369l-.655 4.2a14.741 14.741 0 0 1 1.524 3.441c.081.409-.084 1.211-2.444 3.438a44.27 44.27 0 0 1-2.529 2.2L36.432 59l-.009.012a5.213 5.213 0 0 1-4.56 2.684z" transform="translate(-.688 -.954)" style="fill:#002b47"/>
                <path data-name="Path 18404" d="m45.976 27.4-.81-2.97h-1.013" transform="translate(-1.353 -.748)" style="fill:#fff"/>
                <path data-name="Path 18231" d="M45.976 27.7a.3.3 0 0 1-.289-.221l-.75-2.749h-.784a.3.3 0 0 1 0-.6h1.013a.3.3 0 0 1 .289.221l.81 2.97a.3.3 0 0 1-.29.379z" transform="translate(-1.353 -.748)" style="fill:#002b47"/>
                <path data-name="Path 18405" d="M64.707 62.876a1.993 1.993 0 1 0 1.993-1.994 1.994 1.994 0 0 0-1.994 1.994" transform="translate(-1.983 -1.865)" style="fill:#ade0fe"/>
                <path data-name="Path 18406" d="M64.707 62.876a1.993 1.993 0 1 0 1.993-1.994 1.994 1.994 0 0 0-1.993 1.994z" transform="translate(-1.983 -1.865)" style="fill:#fff"/>
                <path data-name="Path 18233 - Outline" d="M66.7 60.582a2.294 2.294 0 1 1-2.294 2.294 2.3 2.3 0 0 1 2.294-2.294zm0 3.988a1.694 1.694 0 1 0-1.694-1.694A1.7 1.7 0 0 0 66.7 64.57z" transform="translate(-1.983 -1.865)" style="fill:#002b47"/>
                <path data-name="Path 18407" d="M56.254 70.151a1.345 1.345 0 1 0 1.346-1.345 1.346 1.346 0 0 0-1.345 1.345" transform="translate(-1.724 -2.108)" style="fill:#ade0fe"/>
                <path data-name="Path 18235" d="M57.6 68.506a1.645 1.645 0 1 1-1.645 1.645 1.647 1.647 0 0 1 1.645-1.645zm0 2.691a1.045 1.045 0 1 0-1.045-1.045A1.046 1.046 0 0 0 57.6 71.2z" transform="translate(-1.724 -2.108)" style="fill:#002b47"/>
                <path data-name="Path 18408" d="M44.646 65.318a1.661 1.661 0 1 0 1.661-1.661 1.661 1.661 0 0 0-1.661 1.661" transform="translate(-1.368 -1.95)" style="fill:#ade0fe"/>
                <path data-name="Ellipse 5483" d="M1.661-.3A1.961 1.961 0 1 1-.3 1.661 1.964 1.964 0 0 1 1.661-.3zm0 3.323A1.361 1.361 0 1 0 .3 1.661a1.363 1.363 0 0 0 1.361 1.362z" transform="translate(43.278 61.707)" style="fill:#002b47"/>
                <path data-name="Path 18409" d="M31.6 69.748a2.761 2.761 0 1 0 2.762-2.762 2.762 2.762 0 0 0-2.762 2.762" transform="translate(-.968 -2.052)" style="fill:#ade0fe"/>
                <path data-name="Path 18410" d="M31.6 69.748a2.761 2.761 0 1 0 2.762-2.762 2.762 2.762 0 0 0-2.762 2.762z" transform="translate(-.968 -2.052)" style="fill:#fff"/>
                <path data-name="Path 18238 - Outline" d="M34.363 66.686a3.062 3.062 0 1 1-3.063 3.062 3.065 3.065 0 0 1 3.063-3.062zm0 5.523a2.462 2.462 0 1 0-2.463-2.461 2.464 2.464 0 0 0 2.463 2.461z" transform="translate(-.968 -2.052)" style="fill:#002b47"/>
                <path data-name="Path 18411" d="M19.631 63.614a1.345 1.345 0 1 0 1.345-1.345 1.346 1.346 0 0 0-1.345 1.345" transform="translate(-.601 -1.908)" style="fill:#ade0fe"/>
                <path data-name="Path 18240" d="M20.976 65.26a1.645 1.645 0 1 1 1.645-1.645 1.647 1.647 0 0 1-1.645 1.645zm0-2.691a1.045 1.045 0 1 0 1.045 1.045 1.047 1.047 0 0 0-1.045-1.045z" transform="translate(-.601 -1.908)" style="fill:#002b47"/>
                <path data-name="Path 18412" d="M9.171 67.375a1.345 1.345 0 1 0 1.345-1.345 1.346 1.346 0 0 0-1.345 1.345" transform="translate(-.281 -2.023)" style="fill:#ade0fe"/>
                <path data-name="Path 18413" d="M9.171 67.375a1.345 1.345 0 1 0 1.345-1.345 1.346 1.346 0 0 0-1.345 1.345z" transform="translate(-.281 -2.023)" style="fill:#fff"/>
                <path data-name="Path 18242 - Outline" d="M10.516 65.73a1.645 1.645 0 1 1-1.645 1.645 1.647 1.647 0 0 1 1.645-1.645zm0 2.691a1.045 1.045 0 1 0-1.045-1.045 1.046 1.046 0 0 0 1.045 1.045z" transform="translate(-.281 -2.023)" style="fill:#002b47"/>
                <path data-name="Line 1245" transform="translate(43.14 28.813)" style="fill:#fedd31" d="M5.71 0H0"/>
                <path data-name="Line 1222" d="M5.71.3H0A.3.3 0 0 1-.3 0 .3.3 0 0 1 0-.3h5.71a.3.3 0 0 1 .3.3.3.3 0 0 1-.3.3z" transform="translate(43.14 28.813)" style="fill:#002b47"/>
                <path data-name="Line 1223" d="M13.519.3H0A.3.3 0 0 1-.3 0 .3.3 0 0 1 0-.3h13.519a.3.3 0 0 1 .3.3.3.3 0 0 1-.3.3z" transform="translate(17.78 80.041)" style="fill:#cddae2"/>
                <path data-name="Line 1224" d="M13.519.3H0A.3.3 0 0 1-.3 0 .3.3 0 0 1 0-.3h13.519a.3.3 0 0 1 .3.3.3.3 0 0 1-.3.3z" transform="translate(34.8 91.096)" style="fill:#cddae2"/>
                <path data-name="Line 1225" d="M3.436.3H0A.3.3 0 0 1-.3 0 .3.3 0 0 1 0-.3h3.436a.3.3 0 0 1 .3.3.3.3 0 0 1-.3.3z" transform="translate(35.848 80.041)" style="fill:#cddae2"/>
                <path data-name="Line 1226" d="M3.436.3H0A.3.3 0 0 1-.3 0 .3.3 0 0 1 0-.3h3.436a.3.3 0 0 1 .3.3.3.3 0 0 1-.3.3z" transform="translate(75.764 81.211)" style="fill:#cddae2"/>
                <path data-name="Line 1227" d="M19.841.3H0A.3.3 0 0 1-.3 0 .3.3 0 0 1 0-.3h19.841a.3.3 0 0 1 .3.3.3.3 0 0 1-.3.3z" transform="translate(50.243 85.982)" style="fill:#cddae2"/>
                <path data-name="Line 1228" d="M8.239.3H0A.3.3 0 0 1-.3 0 .3.3 0 0 1 0-.3h8.239a.3.3 0 0 1 .3.3.3.3 0 0 1-.3.3z" transform="translate(57.97 92.971)" style="fill:#cddae2"/>
                <path data-name="Line 1229" d="M2.129.3H0A.3.3 0 0 1-.3 0 .3.3 0 0 1 0-.3h2.129a.3.3 0 0 1 .3.3.3.3 0 0 1-.3.3z" transform="translate(67.956 92.971)" style="fill:#cddae2"/>
                <path data-name="Line 1230" d="M19.841.3H0A.3.3 0 0 1-.3 0 .3.3 0 0 1 0-.3h19.841a.3.3 0 0 1 .3.3.3.3 0 0 1-.3.3z" transform="translate(52.804 78.994)" style="fill:#cddae2"/>
            </g>
        </g>
    </g>
</svg>
