<svg xmlns="http://www.w3.org/2000/svg" width="64" height="64" viewBox="0 0 64 64">
    <g data-name="Group 22406">
        <path data-name="Rectangle 23602" style="fill:none" d="M0 0h64v64H0z"/>
        <g data-name="Group 22374">
            <path data-name="Rectangle 23603" style="opacity:.2;fill:none" d="M0 0h53.333v53.333H0z" transform="translate(5.334 5.333)"/>
            <g data-name="Group 22373">
                <path data-name="Path 13073" d="M35.416 40.967a.9.9 0 0 1-.817-.975c.355-3.97 2.4-6.72 4.37-9.38a29.556 29.556 0 0 0 3.109-4.824c1.976-4.148 1.937-9.395 1.9-14.025v-.032a44.932 44.932 0 0 0-.462-6.9c-.017-.11-.037-.236-.057-.375a11.21 11.21 0 0 0-.351-1.732c-.229-.71-.455-.844-.5-.864-.2-.093-.259-.057-.282-.041-.119.079-.721.627-.942 3.67a48.838 48.838 0 0 0-.025 5.1c.014.405.023.65.019.8a.9.9 0 0 1-1.8-.044c0-.092-.009-.381-.019-.687a50.344 50.344 0 0 1 .029-5.3c.2-2.778.753-4.378 1.736-5.034a2.031 2.031 0 0 1 2.031-.1c1.395.635 1.7 2.722 1.884 3.97.018.127.036.245.052.346a46.494 46.494 0 0 1 .485 7.18v.031c.036 4.824.076 10.29-2.078 14.809a30.823 30.823 0 0 1-3.288 5.121c-1.908 2.574-3.712 5-4.023 8.471a.9.9 0 0 1-.9.818q-.031.001-.071-.003zM9.4 40.152c-.311-3.466-2.115-5.9-4.024-8.471a30.889 30.889 0 0 1-3.288-5.121C-.066 22.041-.026 16.574.009 11.751v-.031a46.361 46.361 0 0 1 .485-7.18l.052-.346C.729 2.946 1.036.858 2.431.223a2.031 2.031 0 0 1 2.031.1C5.446.978 6 2.578 6.2 5.356a50.347 50.347 0 0 1 .029 5.3c-.011.306-.022.6-.019.687a.9.9 0 0 1-1.8.044c0-.146.005-.39.019-.8a48.833 48.833 0 0 0-.025-5.1c-.222-3.043-.824-3.587-.943-3.67-.023-.016-.078-.052-.282.041-.043.019-.27.153-.5.864a11.35 11.35 0 0 0-.352 1.732c-.019.139-.039.265-.056.376a44.91 44.91 0 0 0-.462 6.9v.032c-.033 4.63-.072 9.877 1.9 14.025a29.557 29.557 0 0 0 3.109 4.824c1.973 2.66 4.014 5.41 4.37 9.38a.9.9 0 0 1-.817.975h-.081a.9.9 0 0 1-.89-.814zm16.506.662a.9.9 0 0 1-.9-.895 27.844 27.844 0 0 0-.5-4.361 23.094 23.094 0 0 1-.482-5.584 8.607 8.607 0 0 1 2.43-5.474 17.187 17.187 0 0 1 2.755-2.2 17.925 17.925 0 0 0 2.2-1.685 19.352 19.352 0 0 0 2.509-3.173c.385-.558.781-1.137 1.2-1.688.057-.075.122-.163.191-.258.869-1.175 2.484-3.364 4.4-2.691.7.244 1.541.911 1.591 2.7a10.093 10.093 0 0 1-.317 2.535 17.97 17.97 0 0 1-3.183 6.082 21.976 21.976 0 0 0-2.53 4.253.9.9 0 0 1-1.67-.675 23.661 23.661 0 0 1 2.723-4.609 16.4 16.4 0 0 0 2.9-5.464c.46-1.975.273-3-.118-3.133-.292-.1-.747.249-.992.467a10.706 10.706 0 0 0-1.356 1.6l-.205.276a40.501 40.501 0 0 0-1.149 1.619 21.031 21.031 0 0 1-2.755 3.46 19.6 19.6 0 0 1-2.414 1.861 15.627 15.627 0 0 0-2.478 1.962c-2.618 2.733-2.064 6.031-1.477 9.522a28.971 28.971 0 0 1 .526 4.651.9.9 0 0 1-.9.9zm-6.023 0a.9.9 0 0 1-.9-.9 28.971 28.971 0 0 1 .527-4.651c.587-3.491 1.141-6.789-1.476-9.521a15.629 15.629 0 0 0-2.479-1.963 19.6 19.6 0 0 1-2.414-1.861 21.031 21.031 0 0 1-2.755-3.46 41.493 41.493 0 0 0-1.354-1.895 10.705 10.705 0 0 0-1.356-1.6c-.245-.218-.7-.569-.991-.468-.392.138-.579 1.159-.119 3.134a16.4 16.4 0 0 0 2.9 5.464A23.661 23.661 0 0 1 12.19 27.7a.9.9 0 0 1-1.671.672 21.976 21.976 0 0 0-2.53-4.253 17.97 17.97 0 0 1-3.175-6.084A10.1 10.1 0 0 1 4.5 15.5c.05-1.79.894-2.457 1.592-2.7 1.91-.672 3.526 1.517 4.393 2.692l.193.259c.417.55.814 1.129 1.2 1.687a19.414 19.414 0 0 0 2.51 3.173 17.925 17.925 0 0 0 2.2 1.685 17.242 17.242 0 0 1 2.756 2.2 8.612 8.612 0 0 1 2.431 5.477 23.094 23.094 0 0 1-.482 5.584 27.845 27.845 0 0 0-.5 4.361.9.9 0 0 1-.9.895z" transform="translate(9.334 14.888)" style="fill:#094771"/>
                <path data-name="Path 13206" d="M196.472 50.72a12 12 0 1 1 6-1.607 12 12 0 0 1-6 1.607zm-5.907-15.459a2.03 2.03 0 1 0 .595-1.435 2.03 2.03 0 0 0-.595 1.435zm10.735 4.668h-9.658a.962.962 0 0 0-.954 1.128 5.894 5.894 0 0 0 11.566 0 .962.962 0 0 0-.958-1.128zm1.08-4.668a2.037 2.037 0 1 0-.6 1.434 2.029 2.029 0 0 0 .6-1.434z" transform="translate(-164.246 -20.054)" style="fill:#1272e2"/>
            </g>
        </g>
    </g>
</svg>
