<svg xmlns="http://www.w3.org/2000/svg" width="48" height="48" viewBox="0 0 48 48">
    <defs>
        <clipPath id="bugonqtkpa">
            <path data-name="Rectangle 23773" transform="translate(272 2918)" style="fill:#fff" d="M0 0h48v48H0z"/>
        </clipPath>
        <clipPath id="5tyh1oqfrb">
            <path data-name="Rectangle 23772" transform="translate(276 2922)" style="fill:#d3d3d3" d="M0 0h40v40H0z"/>
        </clipPath>
        <clipPath id="7a83d27gzc">
            <path data-name="Rectangle 23771" style="fill:none" d="M0 0h37.807v38H0z"/>
        </clipPath>
        <clipPath id="qa831r05xd">
            <path data-name="Rectangle 23769" style="fill:none" d="M0 0h26.862v26.862H0z"/>
        </clipPath>
    </defs>
    <g data-name="Mask Group 5982" transform="rotate(180 160 1483)" style="clip-path:url(#bugonqtkpa)">
        <g data-name="Mask Group 5981" style="clip-path:url(#5tyh1oqfrb)">
            <g data-name="Group 22957">
                <g data-name="Group 22956" style="clip-path:url(#7a83d27gzc)" transform="translate(277.096 2923)">
                    <g data-name="Group 22955">
                        <g data-name="Group 22954" style="clip-path:url(#7a83d27gzc)">
                            <g data-name="Group 22953" style="opacity:.5">
                                <g data-name="Group 22952">
                                    <g data-name="Group 22951" style="clip-path:url(#qa831r05xd)" transform="translate(10.106 .817)">
                                        <path data-name="Path 13305" d="M33.82 13.993A13.431 13.431 0 1 1 20.389.562 13.431 13.431 0 0 1 33.82 13.993" transform="translate(-6.959 -.563)" style="fill:#fedd31"/>
                                    </g>
                                </g>
                            </g>
                            <path data-name="Path 13279" d="M20.605 26.4H13.1a5.33 5.33 0 0 1-3.853-1.792c-.715-.66-1.151-1.033-1.8-1.033h-.964a.75.75 0 0 1 0-1.5h.967a4.1 4.1 0 0 1 2.813 1.425 3.921 3.921 0 0 0 2.837 1.4h7.507a.75.75 0 0 1 0 1.5z" transform="translate(2.932 10.323)" style="fill:#094771"/>
                            <path data-name="Path 13280" d="M22.271 13.644H25.1a3.575 3.575 0 1 1 0 7.15h-2.829a3.575 3.575 0 0 1 0-7.15zm2.825 5.65a2.075 2.075 0 1 0 0-4.15h-2.825a2.075 2.075 0 0 0 0 4.15z" transform="translate(8.797 6.511)" style="fill:#094771"/>
                            <path data-name="Path 13281" d="M21.623 9.755h2.825a3.575 3.575 0 1 1 0 7.15h-2.825a3.575 3.575 0 0 1 0-7.15zm2.825 5.65a2.075 2.075 0 1 0 0-4.15h-2.825a2.075 2.075 0 0 0 0 4.15z" transform="translate(8.504 4.752)" style="fill:#094771"/>
                            <path data-name="Path 13282" d="M21.623 17.534h2.825a3.575 3.575 0 1 1 0 7.15h-2.825a3.575 3.575 0 0 1 0-7.15zm2.825 5.65a2.075 2.075 0 1 0 0-4.15h-2.825a2.075 2.075 0 0 0 0 4.15z" transform="translate(8.504 8.27)" style="fill:#094771"/>
                            <path data-name="Path 13283" d="M19.856 21.423h3.766a3.1 3.1 0 1 1 0 6.208h-3.766a3.1 3.1 0 0 1 0-6.208zm3.766 4.708a1.6 1.6 0 1 0 0-3.208h-3.766a1.6 1.6 0 0 0 0 3.208z" transform="translate(7.917 10.03)" style="fill:#094771"/>
                            <path data-name="Path 13284" d="M14.206 28.849a.75.75 0 0 1-.263-1.453 10.551 10.551 0 0 0 6.857-9.662v-4.7a4.027 4.027 0 0 1 .265-1.166 12.382 12.382 0 0 0 .678-4.087c0-2.952-.526-3.941-1.727-5.494a1.768 1.768 0 0 0-1.892-.721.707.707 0 0 0-.531.7V3.62a12.334 12.334 0 0 1-1.063 5.175 17.277 17.277 0 0 1-2.971 4.351l-3.915 4.405H6.482a.75.75 0 0 1 0-1.5H8.97l3.468-3.9a15.852 15.852 0 0 0 2.724-3.971 10.721 10.721 0 0 0 .926-4.558V2.263A2.2 2.2 0 0 1 17.635.147 3.238 3.238 0 0 1 21.2 1.37c1.439 1.861 2.04 3.164 2.04 6.412a13.914 13.914 0 0 1-.749 4.542 4.47 4.47 0 0 0-.194.711v4.722A12.051 12.051 0 0 1 14.468 28.8a.749.749 0 0 1-.262.049z" transform="translate(2.932 .34)" style="fill:#094771"/>
                            <path data-name="Path 13306" d="M7.464 31.218H1.95A1.95 1.95 0 0 1 0 29.268V12.457A1.951 1.951 0 0 1 1.95 10.5h5.514a1.951 1.951 0 0 1 1.95 1.952v16.816a1.95 1.95 0 0 1-1.95 1.95" transform="translate(0 4.752)" style="fill:#147bf3"/>
                        </g>
                    </g>
                </g>
            </g>
        </g>
    </g>
</svg>
