<svg xmlns="http://www.w3.org/2000/svg" width="48" height="48" viewBox="0 0 48 48">
    <g data-name="Group 22558">
        <path data-name="Rectangle 23612" style="fill:none" d="M0 0h48v48H0z"/>
        <g data-name="Group 22386">
            <path data-name="Path 13214" d="M0 0h40v40H0z" style="opacity:.2;fill:none" transform="translate(4 4)"/>
            <g data-name="Group 22385" transform="translate(4 4)">
                <rect data-name="Rectangle 23074" width="26" height="26" rx="13" style="fill:#fedd31;opacity:.5"/>
                <path data-name="Path 13213" d="M3.722 35A3.709 3.709 0 0 1 0 31.312V3.688A3.709 3.709 0 0 1 3.722 0h20.713L31 6.5v15.366a.745.745 0 0 1-1.49 0V7.116l-5.692-5.639H3.722a2.224 2.224 0 0 0-2.231 2.211v27.624a2.223 2.223 0 0 0 2.231 2.21h19.24a.739.739 0 1 1 0 1.478zm1.318-7.439a.738.738 0 1 1 0-1.477h6.34a.738.738 0 1 1 0 1.477zm0-6.215a.738.738 0 1 1 0-1.476h9.205a.738.738 0 1 1 0 1.476zM5.023 16A5.68 5.68 0 0 1 5 15.5a5.509 5.509 0 0 1 3.5-5.125 3.5 3.5 0 1 1 3.993 0A5.51 5.51 0 0 1 16 15.5c0 .167-.007.334-.023.5H5.023zm1.6-1.5h7.747a4 4 0 0 0-7.747 0zm1.877-7a2 2 0 1 0 2-2 2 2 0 0 0-2 2zm14.282.946v-5.53a.745.745 0 0 1 1.49 0v4.052h3.848a.739.739 0 1 1 0 1.478z" transform="translate(3 3)" style="fill:#094771"/>
                <path data-name="Path 13209" d="M391.033 17.956a9 9 0 1 1 7.18-2.6 9.039 9.039 0 0 1-7.18 2.6zm1.048-7.579 2.7-2.7-1.62-1.62-5.4 5.4v1.538c0 .075.075.082.812.082h.809l2.7-2.7zm4.169-4.166a4.206 4.206 0 0 0 .482-.528 18.734 18.734 0 0 0-1.574-1.574 4.3 4.3 0 0 0-.54.493l-.492.493.8.8c.439.439.808.8.82.8s.24-.216.505-.48z" transform="translate(-360.848 22.008)" style="fill:#147bf3"/>
            </g>
        </g>
    </g>
</svg>
