<svg xmlns="http://www.w3.org/2000/svg" width="398" height="227.725" viewBox="0 0 398 227.725">
    <defs>
        <clipPath id="vqzi4xzvpa">
            <path data-name="Rectangle 23880" style="fill:none" d="M0 0h398v227.725H0z"/>
        </clipPath>
        <clipPath id="v4ya8j4stb">
            <path data-name="Rectangle 24209" style="fill:#fff" d="M0 0h361v212.743H0z"/>
        </clipPath>
        <clipPath id="bzc16c3ulc">
            <path data-name="Rectangle 24221" style="fill:none" d="M0 0h342.33v195.731H0z"/>
        </clipPath>
        <clipPath id="16fvxrgnrd">
            <path data-name="Rectangle 24214" style="fill:none" d="M0 0h6.755v6.758H0z"/>
        </clipPath>
    </defs>
    <g data-name="Mask Group 6027" style="clip-path:url(#vqzi4xzvpa)">
        <g data-name="Mask Group 6041" transform="translate(19 14.981)" style="clip-path:url(#v4ya8j4stb)">
            <g data-name="Group 23888">
                <g data-name="Group 23887" style="clip-path:url(#bzc16c3ulc)" transform="translate(9.527 6.782)">
                    <g data-name="Group 23886">
                        <g data-name="Group 23885" style="clip-path:url(#bzc16c3ulc)">
                            <path data-name="Path 14548" d="m85.5 25.8-22.19 8.1a13.3 13.3 0 0 1-9.116-24.991l22.19-8.1A13.3 13.3 0 0 1 85.5 25.8" transform="translate(69.616)" style="fill:#002b47"/>
                            <path data-name="Path 14549" d="m71.779 15.506 1.572 13.923a13.3 13.3 0 1 1-26.426 2.986l-1.57-13.923a13.3 13.3 0 1 1 26.423-2.986" transform="translate(69.34 5.666)" style="fill:#002b47"/>
                            <rect data-name="Rectangle 24210" width="233.166" height="13.3" rx="1.01" transform="translate(108.278 181.544)" style="fill:#fff"/>
                            <path data-name="Rectangle 24211" d="M3.093-.35h228.052a3.448 3.448 0 0 1 3.443 3.445v8.184a3.448 3.448 0 0 1-3.443 3.445H3.093A3.448 3.448 0 0 1-.35 11.278V3.095A3.448 3.448 0 0 1 3.093-.35zm228.052 13.3a1.673 1.673 0 0 0 1.671-1.672V3.095a1.673 1.673 0 0 0-1.671-1.672H3.093a1.673 1.673 0 0 0-1.671 1.672v8.184a1.673 1.673 0 0 0 1.671 1.671z" transform="translate(107.742 181.007)" style="fill:#002b47"/>
                            <path data-name="Path 14550" d="M106.348 38.353 81.922 48.981l23.4 52.239a9.706 9.706 0 0 0 12.732 4.939l6.613-2.877a9.716 9.716 0 0 0 4.99-12.882z" transform="translate(125.479 58.788)" style="fill:#1272e2"/>
                            <path data-name="Path 14551" d="m107.509 37.894 23.663 52.847a10.6 10.6 0 0 1-5.445 14.057l-6.613 2.877a10.584 10.584 0 0 1-13.894-5.39L81.458 49.229zm7.385 68.89a8.75 8.75 0 0 0 3.512-.734l6.613-2.877a8.829 8.829 0 0 0 4.535-11.707l-22.946-51.247-22.8 9.921 23.029 51.421a8.835 8.835 0 0 0 8.057 5.223z" transform="translate(124.768 58.085)" style="fill:#002b47"/>
                            <path data-name="Path 14552" d="m86.016 30.557 17.752 20.556-19.092 8.328-.64-7.067a7.194 7.194 0 0 1 1.008-4.354l3.9-6.428-5.19-9.46a1.388 1.388 0 0 1 2.266-1.575" transform="translate(127.996 46.081)" style="fill:#fff"/>
                            <path data-name="Path 14553" d="m84.441 61.282-.751-8.29a8.027 8.027 0 0 1 1.131-4.892l3.632-5.993L83.51 33.1a2.207 2.207 0 0 1 .016-2.231 2.376 2.376 0 0 1 2-1.152 2.22 2.22 0 0 1 1.7.8l18.538 21.466zm1.086-29.8a.588.588 0 0 0-.478.283.445.445 0 0 0 .015.475l5.436 9.911-4.161 6.866a6.263 6.263 0 0 0-.883 3.815l.53 5.842 16.863-7.356-16.967-19.645a.461.461 0 0 0-.354-.187z" transform="translate(127.459 45.545)" style="fill:#002b47"/>
                            <path data-name="Path 14554" d="M142.245 30.257c-6.805-5.932-15.81-9.035-24.808-5.466l-.233.091c-8.871 3.581-17.542 20.037-15.6 34.532 1.79 13.3 18.919 24.809 18.919 24.809l14.086 10.065a22.752 22.752 0 0 0 34.092-9.225 20.908 20.908 0 0 0 1.679-11.327A22.317 22.317 0 0 0 161.5 58.5c-2.879-2.153-5.605-5.03-6.841-8.411a61.982 61.982 0 0 0-5.585-11.821 36.4 36.4 0 0 0-6.83-8.006" transform="translate(155.21 35.678)" style="fill-rule:evenodd;fill:#002b47"/>
                            <path data-name="Path 14555" d="M164.5 56.508c-6.448-11.1-25.317-12.492-25.317-12.492s-12.127-1.112-19.767 0c-11.628 1.692-21.854 14.921-21.854 14.921l6.744 56.15h68.262c-2.081-23.6.6-43.658-8.069-58.579" transform="translate(149.441 66.711)" style="fill:#1272e2"/>
                            <path data-name="Path 14556" d="M174.1 116.51h-70.017L97.2 59.218l.222-.287a55.137 55.137 0 0 1 6.683-6.95c5.452-4.785 10.749-7.579 15.744-8.306a62 62 0 0 1 8.648-.5c5.723 0 11.074.475 11.319.5a50.98 50.98 0 0 1 10.433 2.12c7.441 2.337 12.828 6.076 15.577 10.81 6.288 10.82 6.706 24.13 7.191 39.541.2 6.214.4 12.64.994 19.406zm-68.444-1.773h66.511c-.538-6.461-.731-12.6-.917-18.541-.477-15.171-.889-28.273-6.952-38.706-6.142-10.577-24.432-12.04-24.616-12.053h-.016c-.054 0-5.42-.49-11.166-.49a60.278 60.278 0 0 0-8.393.485c-10.224 1.488-19.515 12.413-21.057 14.307z" transform="translate(148.882 66.175)" style="fill:#002b47"/>
                            <rect data-name="Rectangle 24212" width="78.234" height="7.163" rx="1.01" transform="translate(180.886 174.894)" style="fill:#fff"/>
                            <path data-name="Rectangle 24213" d="M3.093-.35h73.12a3.448 3.448 0 0 1 3.443 3.445v2.046a3.448 3.448 0 0 1-3.443 3.445H3.093A3.448 3.448 0 0 1-.35 5.141V3.095A3.448 3.448 0 0 1 3.093-.35zm73.12 7.163a1.673 1.673 0 0 0 1.671-1.672V3.095a1.673 1.673 0 0 0-1.671-1.672H3.093a1.673 1.673 0 0 0-1.671 1.672v2.046a1.673 1.673 0 0 0 1.671 1.672z" transform="translate(180.35 174.357)" style="fill:#002b47"/>
                            <path data-name="Path 14557" d="M120.644 57a2.556 2.556 0 0 0-2.4-1.679H65.992A2.558 2.558 0 0 0 63.61 58.8l15 38.461h56.758z" transform="translate(97.16 84.791)" style="fill:#fff"/>
                            <path data-name="Path 14558" d="M66.527 54.967h52.254a3.449 3.449 0 0 1 3.23 2.262l15.162 41.459H78.542L63.319 59.663a3.445 3.445 0 0 1 3.208-4.7zm68.111 41.949-14.291-39.079a1.671 1.671 0 0 0-1.565-1.1H66.527a1.672 1.672 0 0 0-1.557 2.279l14.783 37.9z" transform="translate(96.625 84.255)" style="fill:#002b47"/>
                            <path data-name="Path 14559" d="M116.936 43.845a3.465 3.465 0 0 0-3.268-2.32H83.685A2.082 2.082 0 0 0 81.72 44.3l16.246 46.26a3.47 3.47 0 0 0 3.271 2.32h29.985a2.081 2.081 0 0 0 1.965-2.771z" transform="translate(124.987 63.651)" style="fill:#fedd31"/>
                            <path data-name="Path 14560" d="M84.22 41.175h29.98a4.353 4.353 0 0 1 4.1 2.914l16.25 46.263a2.968 2.968 0 0 1-2.8 3.951h-29.978a4.365 4.365 0 0 1-4.106-2.911L81.419 45.129a2.968 2.968 0 0 1 2.8-3.954zm47.537 51.355a1.2 1.2 0 0 0 1.128-1.591l-16.25-46.264a2.58 2.58 0 0 0-2.432-1.727H84.22a1.2 1.2 0 0 0-1.129 1.593L99.337 90.8a2.59 2.59 0 0 0 2.435 1.727z" transform="translate(124.452 63.114)" style="fill:#002b47"/>
                            <path data-name="Path 14561" d="m109.294 53.043 6.711 14.726a.271.271 0 0 1-.053.3l-9.752 9.757a.272.272 0 0 1-.367.015L92.845 66.9l-6.223-4.866a.692.692 0 0 1 .719-1.173l5 2.35a.271.271 0 0 0 .316-.426l-6.997-7.82a.693.693 0 0 1 .909-1.033l7.071 4.9a.27.27 0 0 0 .362-.4l-7.75-9.306a.694.694 0 0 1 .922-1.021L97.8 55.277a.271.271 0 0 0 .37-.385l-6.332-8.66a.694.694 0 0 1 1-.95l15.4 12.487a.271.271 0 0 0 .438-.256l-.7-4.065a.693.693 0 0 1 1.314-.405" transform="translate(130.923 69.161)" style="fill:#fff"/>
                            <path data-name="Path 14562" d="M106.547 79.329a1.161 1.161 0 0 1-.744-.271l-12.98-10.936-6.21-4.856a1.554 1.554 0 0 1-.526-1.75 1.58 1.58 0 0 1 1.482-1.081 1.6 1.6 0 0 1 .686.157l2.255 1.061-4.974-5.562a1.555 1.555 0 0 1-.272-1.689 1.594 1.594 0 0 1 1.444-.954 1.577 1.577 0 0 1 .9.29l3.353 2.321-4.856-5.831a1.557 1.557 0 0 1-.226-1.67 1.57 1.57 0 0 1 2.323-.653l7.712 5.2-4.253-5.817a1.546 1.546 0 0 1-.143-1.639 1.611 1.611 0 0 1 1.419-.883 1.571 1.571 0 0 1 .993.358l14.133 11.458-.423-2.451a1.545 1.545 0 0 1 .335-1.28 1.629 1.629 0 0 1 1.235-.57 1.553 1.553 0 0 1 1.424.927l6.711 14.726a1.15 1.15 0 0 1-.223 1.289l-.01.01-9.749 9.754a1.15 1.15 0 0 1-.816.342zM89.065 62.934l4.887 3.821 12.559 10.581 9.047-9.051-5.915-12.979.447 2.593a1.158 1.158 0 0 1-1.141 1.355 1.158 1.158 0 0 1-.731-.263L93.966 47.438l5.46 7.467a1.149 1.149 0 0 1 .1 1.2 1.171 1.171 0 0 1-1.034.64 1.153 1.153 0 0 1-.648-.2l-9.513-6.417 6.888 8.272a1.139 1.139 0 0 1 .163 1.223 1.167 1.167 0 0 1-1.051.677 1.153 1.153 0 0 1-.661-.21l-5.724-3.963 5.9 6.6a1.141 1.141 0 0 1 .2 1.24 1.152 1.152 0 0 1-1.548.58z" transform="translate(130.387 68.624)" style="fill:#002b47"/>
                            <path data-name="Path 14563" d="M62.645 60.807v.5L36.3 51.735l-23.968 63.323 41.115.322 9.2-23.75v23.915h40.803l3.795-53.329z" transform="translate(18.889 79.3)" style="fill:#fedd31"/>
                            <path data-name="Path 14564" d="m36.56 51.288 25.973 9.443v-.154l46.436 1.466-3.919 55.072H62.532V97.056l-7.706 19.9-43-.336zM64.3 63.262l-26.7-9.71-23.214 61.314 39.23.307L64.3 87.572v27.77h39.1l3.671-51.585-42.771-1.35z" transform="translate(18.115 78.615)" style="fill:#002b47"/>
                            <path data-name="Path 14565" d="m74.425 47.44-19.942 8.186 10.993 45.783 2.046 7.674 32.727.256 6.046-.18a.511.511 0 0 0 .162-.99L79.028 98.084z" transform="translate(83.451 72.717)" style="fill:#fff"/>
                            <path data-name="Path 14566" d="m75.827 46.936 4.661 51.281 26.9 9.892a1.4 1.4 0 0 1-.444 2.709l-6.06.18h-.017l-33.4-.261-2.225-8.349-11.169-46.522zm29.129 62.164-26.131-9.606-4.545-50.006-18.129 7.442 10.813 45.034 1.869 7.011 32.035.25z" transform="translate(82.822 71.945)" style="fill:#002b47"/>
                            <path data-name="Path 14567" d="M50.658 29.655c-9.2 9.549-29.9 77.274-29.9 77.274L93.107 128l9.717-29.669 25.565-8.442s.547-34.188-4.729-47.944A21.5 21.5 0 0 0 109 28.776l-22.575-5.56s-20.815-9.075-35.767 6.439" transform="translate(31.789 31.543)" style="fill:#1272e2"/>
                            <path data-name="Path 14568" d="m94.354 129.632-74.038-21.567.263-.859c.848-2.774 20.87-68.038 30.114-77.63a29.938 29.938 0 0 1 11.275-7.436 32.235 32.235 0 0 1 11.158-1.911 39.3 39.3 0 0 1 14.253 2.681l22.489 5.538a20.709 20.709 0 0 1 6 2.543 22.324 22.324 0 0 1 9.288 11.178c2.222 5.792 3.7 15.685 4.4 29.4.518 10.178.388 18.787.387 18.873l-.01.63-25.738 8.5zm-71.816-22.766L93.2 127.45l9.589-29.28 25.388-8.384c.039-4.715.087-34.562-4.677-46.983a20.29 20.29 0 0 0-8.495-10.262 19.225 19.225 0 0 0-5.513-2.36l-.035-.008L86.813 24.6l-.069-.03A38.008 38.008 0 0 0 73.126 22a28.3 28.3 0 0 0-21.158 8.805c-8.397 8.715-26.989 68.17-29.43 76.061z" transform="translate(31.117 31.007)" style="fill:#002b47"/>
                            <path data-name="Path 14569" d="m66.836 26.858-20.453-5.372s-2.046 18.16 9.972 19.951 10.481-14.579 10.481-14.579" transform="translate(70.842 32.934)" style="fill:#fedd31"/>
                            <path data-name="Path 14570" d="M68.307 43.809s7.56 3.29 13.61-1.732 4.415-14.761 4.415-14.761L84.485 7.708a18.21 18.21 0 0 0-16.177.9c-8.306 4.782-9.3 11.616-9.3 11.616s-9.317-7.781-12.532 1.55c-2.271 6.593 5.01 10.62 5.01 10.62l-4.833 12.94s-.553 7.993 8.887 10.523c9.714 2.606 11.319-2.794 11.319-2.794z" transform="translate(70.515 9.54)" style="fill:#fff"/>
                            <path data-name="Path 14571" d="M60.869 57.991a19.638 19.638 0 0 1-5.023-.741c-5.209-1.4-7.53-4.415-8.56-6.7a10.779 10.779 0 0 1-.981-4.737l.009-.129L50.939 33.3a14.5 14.5 0 0 1-2.952-2.635 8.575 8.575 0 0 1-1.813-8.641c.816-2.367 2.556-5.189 6.213-5.189a12.8 12.8 0 0 1 6.619 2.43c.74-2.34 2.98-7.195 9.394-10.887a18.507 18.507 0 0 1 9.341-2.5 18.751 18.751 0 0 1 7.669 1.576l.444.219 1.892 20.07a22.825 22.825 0 0 1 .062 5.71c-.481 4.239-2.138 7.644-4.791 9.846a13 13 0 0 1-8.536 2.995 16.978 16.978 0 0 1-4.93-.752l-1.29 8.258-.017.057c-.051.165-1.301 4.134-7.375 4.134zM48.068 46.05c-.022.976.152 7.319 8.236 9.487a17.887 17.887 0 0 0 4.564.681c4.418 0 5.516-2.445 5.662-2.833l1.613-10.311 1.051.458a14.843 14.843 0 0 0 5.287.985 11.275 11.275 0 0 0 7.4-2.586C87.466 37.3 86.009 28.09 85.994 28l-.008-.063-1.8-19.084a17.9 17.9 0 0 0-6.445-1.2 16.756 16.756 0 0 0-8.458 2.268c-7.843 4.515-8.854 10.91-8.864 10.975l-.228 1.569-1.217-1.016c-.033-.028-3.443-2.835-6.588-2.835-2.128 0-3.612 1.306-4.538 3.993a6.8 6.8 0 0 0 1.494 6.923 12.5 12.5 0 0 0 3.107 2.632l.669.37z" transform="translate(69.98 9.004)" style="fill:#002b47"/>
                            <path data-name="Path 14572" d="m59.862 32.138 1.415-6.8-10.45-7.259z" transform="translate(77.85 27.712)" style="fill:#002b47"/>
                            <path data-name="Path 14573" d="M60.409 10.99c.81-.058 1.539.935 1.633 2.216s-.491 2.371-1.3 2.429-1.542-.935-1.631-2.216.489-2.371 1.3-2.429" transform="translate(90.525 16.843)" style="fill:#002b47"/>
                            <path data-name="Path 14574" d="M56.409 11.75c.81-.058 1.537.935 1.63 2.216s-.491 2.371-1.3 2.429-1.542-.935-1.633-2.216.486-2.371 1.3-2.429" transform="translate(84.396 18.008)" style="fill:#002b47"/>
                            <path data-name="Line 1076" d="m1.409 27.2-1.756-.241 3.7-27.01 1.76.244z" transform="translate(135.552 87.197)" style="fill:#002b47"/>
                            <path data-name="Path 14575" d="M51.348 86.54 32.325 41.39c-4.5-11.788 8.182-22.76 19.19-16.6l1.7.955a.278.278 0 0 1 .109.114l21.87 45.028a.263.263 0 0 0 .273.147l40.674-5.339a.3.3 0 0 0 .081-.025l15.861-7.834a.511.511 0 0 1 .544.859l-4.344 3.452a.266.266 0 0 0 .167.474h16.94a.511.511 0 0 1 .129 1.006l-9.653 2.492a.265.265 0 0 0 .073.522l10.112-.3a.512.512 0 0 1 .142 1.008l-9.982 2.538a.021.021 0 0 0 .01.041l8.863-1.651a1.289 1.289 0 0 1 1.524 1.266V71.2a.518.518 0 0 1-.352.486l-27.77 9.093-43.069 16.135A18.917 18.917 0 0 1 51.348 86.54" transform="translate(48.084 35.286)" style="fill:#fff"/>
                            <path data-name="Path 14576" d="M69.319 99.544a19.771 19.771 0 0 1-18.255-12.123L32.03 42.243a14.1 14.1 0 0 1 1.51-13.209 14.5 14.5 0 0 1 11.9-6.363 14.282 14.282 0 0 1 7.042 1.885l1.7.955a1.157 1.157 0 0 1 .46.475l.013.025 21.673 44.622 40.126-5.267 15.77-7.789a1.387 1.387 0 0 1 1.943.8 1.374 1.374 0 0 1-.458 1.545l-2.949 2.348h15.162a1.4 1.4 0 0 1 .349 2.751L142 66.124l4.56-.136h.045a1.4 1.4 0 0 1 .79 2.554 2.17 2.17 0 0 1 .634 1.534v1.662a1.4 1.4 0 0 1-.952 1.325l-27.763 9.091L76.26 98.281a19.724 19.724 0 0 1-6.941 1.263zM33.68 41.6 52.7 86.732a18.014 18.014 0 0 0 22.942 9.889l43.1-16.146 27.512-9.008v-1.39a.4.4 0 0 0-.4-.4.42.42 0 0 0-.076.007l-8.943 1.666h-.086a.912.912 0 0 1-.9-.776.9.9 0 0 1 .636-1l.037-.01 6.684-1.7-6.747.2a1.152 1.152 0 0 1-.283-2.267l6.788-1.753h-13.981a1.153 1.153 0 0 1-.717-2.055l1.592-1.265L117.147 67a1.182 1.182 0 0 1-.315.1l-.043.007-40.674 5.342a1.159 1.159 0 0 1-.151.01 1.143 1.143 0 0 1-1.034-.647l-21.781-44.85-1.535-.86a12.531 12.531 0 0 0-6.176-1.659A12.724 12.724 0 0 0 35 30.039 12.354 12.354 0 0 0 33.68 41.6z" transform="translate(47.551 34.75)" style="fill:#002b47"/>
                            <path data-name="Path 14577" d="M32.246 44.3a15.673 15.673 0 0 1 28.783-12.416l11.792 26.967-28.636 13.556z" transform="translate(47.474 34.463)" style="fill:#1272e2"/>
                            <path data-name="Path 14578" d="M43.362 64.714a2.84 2.84 0 0 1-2.582-1.654L31.2 42.043l1.612-.736 9.582 21.015a1.062 1.062 0 0 0 1.4.524L69.682 51.03a1.058 1.058 0 0 0 .524-1.4l-9.583-21.018 1.612-.736 9.582 21.015a2.831 2.831 0 0 1-1.4 3.753L44.531 64.459a2.81 2.81 0 0 1-1.169.255z" transform="translate(47.785 42.729)" style="fill:#002b47"/>
                            <path data-name="Line 1077" transform="translate(184.683 105.391)" style="fill:#fff" d="M0 2.082 9.952 0"/>
                            <path data-name="Line 1078" d="M.535 3.505a.887.887 0 0 1-.18-1.754l9.952-2.082A.886.886 0 0 1 10.67 1.4L.718 3.486a.89.89 0 0 1-.183.019z" transform="translate(184.146 104.855)" style="fill:#002b47"/>
                            <path data-name="Line 1079" transform="translate(169.191 177.135)" style="fill:#fff" d="m0 0 14.403 4.248"/>
                            <path data-name="Line 1080" d="M14.939 5.671a.886.886 0 0 1-.251-.036L.286 1.387a.886.886 0 0 1 .5-1.7l14.4 4.248a.887.887 0 0 1-.25 1.737z" transform="translate(168.655 176.598)" style="fill:#002b47"/>
                            <path data-name="Line 1081" transform="translate(161.099 177.791)" style="fill:#fff" d="m0 0 14.403 4.248"/>
                            <path data-name="Line 1082" d="M14.939 5.671a.886.886 0 0 1-.251-.036L.286 1.387a.886.886 0 0 1 .5-1.7l14.4 4.248a.887.887 0 0 1-.25 1.737z" transform="translate(160.563 177.255)" style="fill:#002b47"/>
                            <g data-name="Group 23869" style="opacity:.34">
                                <g data-name="Group 23868">
                                    <g data-name="Group 23867" style="clip-path:url(#16fvxrgnrd)" transform="translate(255.984 124.096)">
                                        <path data-name="Path 14579" d="M107.867 52.374a3.377 3.377 0 1 1-3.377-3.379 3.377 3.377 0 0 1 3.377 3.379" transform="translate(-101.112 -48.996)" style="fill:#fedd31;fill-rule:evenodd"/>
                                    </g>
                                </g>
                            </g>
                            <g data-name="Group 23872" style="opacity:.34">
                                <g data-name="Group 23871">
                                    <g data-name="Group 23870" style="clip-path:url(#16fvxrgnrd)" transform="translate(273.789 143.784)">
                                        <path data-name="Path 14580" d="M114.9 60.147a3.377 3.377 0 1 1-3.377-3.379 3.377 3.377 0 0 1 3.377 3.379" transform="translate(-108.145 -56.768)" style="fill:#fedd31;fill-rule:evenodd"/>
                                    </g>
                                </g>
                            </g>
                            <g data-name="Group 23875" style="opacity:.34">
                                <g data-name="Group 23874">
                                    <g data-name="Group 23873" style="clip-path:url(#16fvxrgnrd)" transform="translate(312.552 166.516)">
                                        <path data-name="Path 14581" d="M130.211 69.122a3.377 3.377 0 1 1-3.377-3.379 3.377 3.377 0 0 1 3.377 3.379" transform="translate(-123.456 -65.744)" style="fill:#fedd31;fill-rule:evenodd"/>
                                    </g>
                                </g>
                            </g>
                            <path data-name="Line 1083" transform="translate(0 194.845)" style="fill:#fff" d="M0 0h338.887"/>
                            <path data-name="Line 1084" d="M338.887 1.423H0V-.35h338.887z" transform="translate(0 194.308)" style="fill:#002b47"/>
                            <path data-name="Path 14582" d="m132.4 55.317-7.425 41.341h-5.428s11.769-34.632 12.853-41.341" transform="translate(183.104 84.791)" style="fill:#002b47"/>
                            <path data-name="Path 14583" d="M31.393 33.5 38.3 54.863a2.372 2.372 0 0 0 3.306 1.4l1.509-.742-1.435-.881z" transform="translate(48.084 51.348)" style="fill:#002b47"/>
                            <path data-name="Path 14584" d="m52.931 51.758 3.079-.423 2.38-16.785z" transform="translate(81.074 52.959)" style="fill:#002b47"/>
                            <path data-name="Path 14585" d="M149.264 51.1s-8.094-.94-15.37 8.3-14.686 28.861-14.686 28.861l-15.471-9.84s10.4-25.863 1.441-33.058c0 0 26.423-6.907 44.087 5.734" transform="translate(158.893 66.643)" style="fill:#fedd31;fill-rule:evenodd"/>
                            <path data-name="Path 14586" d="M117.789 65.6s-8.134 1.367-12.789-4.972-.711-15.392-.711-15.392l6.534-18.576s.661 4.291 7.562 10.942 14.129 7.373 14.129 7.373 10.922-5.294 11.78 4.539c.61 6.945-7.428 9.09-7.428 9.09l1.56 13.725s-1.4 7.887-11.167 8.059c-10.053.175-10.309-5.453-10.309-5.453z" transform="translate(157.349 40.865)" style="fill:#fff"/>
                            <path data-name="Path 14587" d="M127.341 83.476c-4.241 0-7.33-1.014-9.18-3.013a5.54 5.54 0 0 1-1.56-3.291v-.06l.748-8.326c-.266.015-.572.025-.912.025-2.839 0-8.123-.709-11.612-5.462-2.043-2.78-2.827-6.485-2.267-10.714A22.81 22.81 0 0 1 104 47.11l7.7-21.883.538 3.495c.006.034.766 4.14 7.3 10.438a27.857 27.857 0 0 0 9.288 5.964 20.441 20.441 0 0 0 4.091 1.134 16.151 16.151 0 0 1 6.019-1.4c3.991 0 6.4 2.4 6.78 6.771a8.57 8.57 0 0 1-3.847 7.944 14.5 14.5 0 0 1-3.5 1.842l1.492 13.135-.023.127a10.786 10.786 0 0 1-2.1 4.359c-1.552 1.969-4.534 4.337-9.926 4.432-.16.007-.317.008-.471.008zm-8.965-6.34c.056.5.767 4.567 8.965 4.567h.439c8.359-.147 10.069-6.251 10.286-7.214l-1.63-14.344.738-.2a12.629 12.629 0 0 0 3.691-1.831 6.786 6.786 0 0 0 3.083-6.325c-.3-3.468-1.943-5.153-5.014-5.153a14.773 14.773 0 0 0-5.5 1.335l-.225.108-.249-.025c-.307-.031-7.612-.833-14.656-7.616a32.369 32.369 0 0 1-6.93-8.96l-5.74 16.31c-.037.085-3.681 8.668.613 14.512 3.026 4.123 7.679 4.739 10.184 4.739a12.043 12.043 0 0 0 1.745-.111l1.128-.185-.1 1.139z" transform="translate(156.814 38.668)" style="fill:#002b47"/>
                            <path data-name="Path 14588" d="m108.546 51.556.271-6.942 11.894-4.514z" transform="translate(166.259 61.469)" style="fill:#002b47"/>
                            <path data-name="Path 14589" d="M105.744 32.888c-.4 1.223-.1 2.419.676 2.67s1.717-.534 2.117-1.755.1-2.419-.671-2.67-1.716.532-2.122 1.755" transform="translate(161.696 47.648)" style="fill:#002b47"/>
                            <path data-name="Path 14590" d="M109.444 34.594c-.4 1.223-.1 2.419.671 2.67s1.722-.534 2.122-1.755.1-2.419-.676-2.67-1.716.532-2.116 1.755" transform="translate(167.363 50.263)" style="fill:#002b47"/>
                            <path data-name="Path 14591" d="M114.691 41.507a3.814 3.814 0 1 0 3.815-3.817 3.817 3.817 0 0 0-3.815 3.817" transform="translate(175.671 57.772)" style="fill:#fedd31"/>
                            <path data-name="Path 14592" d="M119.042 46.747a4.7 4.7 0 1 1 4.7-4.7 4.708 4.708 0 0 1-4.7 4.7zm0-7.634a2.93 2.93 0 1 0 2.927 2.93 2.933 2.933 0 0 0-2.927-2.93z" transform="translate(175.135 57.236)" style="fill:#002b47"/>
                            <path data-name="Path 14593" d="m173.165 58.736-11.18 35.474c-7.066 23.413-17.38 22.215-33.271 8.272L92.771 67.16l13.182-13.533 34.684 22.208 11.444-22.555" transform="translate(142.096 81.669)" style="fill:#1272e2"/>
                            <path data-name="Path 14594" d="M147.793 113.851c-4.988 0-10.979-3.268-18.908-10.225l-.037-.034-36.571-35.941 14.3-14.683 34.468 22.069 11-21.681 1.58.8-11.884 23.431-34.9-22.346-12.063 12.383 35.295 34.686a53.193 53.193 0 0 0 11.354 8.064c3.411 1.642 6.3 2.089 8.828 1.364 4.726-1.353 8.533-7.014 11.639-17.307l11.183-35.485 1.69.533-11.18 35.475a45.778 45.778 0 0 1-5.62 12.754c-2.13 3.077-4.493 4.953-7.225 5.735a10.645 10.645 0 0 1-2.949.408z" transform="translate(141.34 81.191)" style="fill:#fff"/>
                            <g data-name="Group 23878" style="opacity:.34">
                                <g data-name="Group 23877">
                                    <g data-name="Group 23876" style="clip-path:url(#16fvxrgnrd)" transform="translate(292.078 151.4)">
                                        <path data-name="Path 14595" d="M122.124 63.154a3.377 3.377 0 1 1-3.377-3.379 3.377 3.377 0 0 1 3.377 3.379" transform="translate(-115.369 -59.775)" style="fill:#fedd31;fill-rule:evenodd"/>
                                    </g>
                                </g>
                            </g>
                            <g data-name="Group 23881" style="opacity:.34">
                                <g data-name="Group 23880">
                                    <g data-name="Group 23879" style="clip-path:url(#16fvxrgnrd)" transform="translate(288.701 174.967)">
                                        <path data-name="Path 14596" d="M120.79 72.459a3.377 3.377 0 1 1-3.377-3.379 3.377 3.377 0 0 1 3.377 3.379" transform="translate(-114.035 -69.08)" style="fill:#fedd31;fill-rule:evenodd"/>
                                    </g>
                                </g>
                            </g>
                            <g data-name="Group 23884" style="opacity:.34">
                                <g data-name="Group 23883">
                                    <g data-name="Group 23882" style="clip-path:url(#16fvxrgnrd)" transform="translate(259.361 160.618)">
                                        <path data-name="Path 14597" d="M109.2 66.794a3.377 3.377 0 1 1-3.377-3.379 3.377 3.377 0 0 1 3.377 3.379" transform="translate(-102.446 -63.415)" style="fill:#fedd31;fill-rule:evenodd"/>
                                    </g>
                                </g>
                            </g>
                            <path data-name="Path 14598" d="M109.146 42.633a.883.883 0 0 1-.351-.073l-2.01-.869a1.692 1.692 0 0 1-1.016-1.41 1.672 1.672 0 0 1 .747-1.546c4.4-2.888 4.215-6.159 4.205-6.3a.886.886 0 1 1 1.766-.151c.016.178.327 4.352-4.858 7.837l1.869.808a.887.887 0 0 1-.352 1.7z" transform="translate(161.995 48.248)" style="fill:#002b47"/>
                            <path data-name="Path 14599" d="M107.131 37.6s2.651 4.283 5.436 0" transform="translate(164.091 57.631)" style="fill-rule:evenodd;fill:#fff"/>
                            <path data-name="Path 14600" d="M110.457 40.925h-.034c-2.027-.023-3.364-2.088-3.509-2.323a.886.886 0 0 1 1.506-.935c.259.412 1.126 1.478 2.027 1.485.768 0 1.466-.813 1.913-1.5a.886.886 0 1 1 1.486.967c-.996 1.53-2.136 2.306-3.389 2.306z" transform="translate(163.555 57.095)" style="fill:#002b47"/>
                            <path data-name="Path 14601" d="M58.3 23.08a.887.887 0 0 1-.123-1.764l2-.284c-3.188-3.752-2.693-8.948-2.669-9.178a.886.886 0 1 1 1.763.183c-.01.11-.454 5.131 2.651 8.277a1.4 1.4 0 0 1-.8 2.375l-2.691.382a.893.893 0 0 1-.131.009z" transform="translate(87.945 16.952)" style="fill:#002b47"/>
                            <path data-name="Path 14602" d="M58.336 19.978a3 3 0 0 1-2.591-1.484l-.354-.607a.886.886 0 1 1 1.531-.893l.354.608a1.22 1.22 0 0 0 1.429.544l1.158-.382a.886.886 0 0 1 .555 1.684l-1.16.382a2.959 2.959 0 0 1-.922.148z" transform="translate(84.656 25.374)" style="fill:#002b47"/>
                            <path data-name="Line 1085" d="M4.256 6.02a.884.884 0 0 1-.689-.329l-3.719-4.6A.886.886 0 1 1 1.225-.021l3.719 4.6a.886.886 0 0 1-.688 1.441z" transform="translate(121.247 30.704)" style="fill:#002b47"/>
                            <path data-name="Line 1086" d="M.537 5.121a.887.887 0 0 1-.53-1.6l4.967-3.7a.886.886 0 0 1 1.058 1.427l-4.967 3.7a.882.882 0 0 1-.528.173z" transform="translate(292.345 87.788)" style="fill:#002b47"/>
                            <path data-name="Path 14603" d="M84.752 66.28a4.43 4.43 0 1 1-4.43-4.432 4.431 4.431 0 0 1 4.43 4.432" transform="translate(116.241 94.802)" style="fill-rule:evenodd;fill:#fff"/>
                            <path data-name="Ellipse 5311" d="M4.967-.35A5.319 5.319 0 1 1-.35 4.969 5.324 5.324 0 0 1 4.967-.35zm0 8.865a3.546 3.546 0 1 0-3.545-3.546 3.549 3.549 0 0 0 3.545 3.546z" transform="translate(191.596 156.113)" style="fill:#002b47"/>
                            <path data-name="Line 1087" transform="translate(217.126 88.128)" style="fill:#fff" d="m0 0 3.405 5.111"/>
                            <path data-name="Line 1088" d="M3.942 6.534a.885.885 0 0 1-.742-.395L-.2 1.028A.886.886 0 1 1 1.273.045l3.406 5.111a.887.887 0 0 1-.737 1.378z" transform="translate(216.59 87.591)" style="fill:#002b47"/>
                            <path data-name="Line 1089" transform="translate(214.113 92.43)" style="fill:#fff" d="m0 0 2.519 3.586"/>
                            <path data-name="Line 1090" d="M3.056 5.01a.885.885 0 0 1-.726-.377L-.189 1.046A.886.886 0 1 1 1.261.027L3.78 3.613a.887.887 0 0 1-.724 1.4z" transform="translate(213.577 91.894)" style="fill:#002b47"/>
                        </g>
                    </g>
                </g>
            </g>
        </g>
    </g>
</svg>
