<svg data-name="Waiting period" xmlns="http://www.w3.org/2000/svg" width="48" height="48" viewBox="0 0 48 48">
    <path data-name="Rectangle 23128" style="fill:none" d="M0 0h48v48H0z"/>
    <g data-name="Group 22294" transform="translate(3.75 3.75)">
        <path data-name="Rectangle 23129" style="opacity:.2;fill:none" d="M0 0h39.75v39.75H0z"/>
        <rect data-name="Rectangle 26964" width="21" height="21" rx="10.5" transform="translate(0 18.75)" style="fill:#fcec95"/>
        <g data-name="Group 22293">
            <path data-name="Path 13116" d="M1.492 13.927 13.927 0A13.927 13.927 0 1 1 0 13.927 13.927 13.927 0 0 1 13.927 0z" transform="translate(7.072 7.193)" style="fill:#147bf3"/>
            <path data-name="Union 37" d="M18.4 37.646a.756.756 0 0 1-.082 0h-.416A17.905 17.905 0 0 1 5.245 7.079a17.787 17.787 0 0 1 12.661-5.245c.145 0 .294 0 .441.006l.072-.005a26.146 26.146 0 0 1 4 .472l-.536-1.267a.746.746 0 1 1 1.373-.587L24.9 4.308l-1.39-.28a37.02 37.02 0 0 0-5.06-.7h-.05v.008c-.157 0-.323-.008-.5-.008A16.415 16.415 0 0 0 6.3 31.347a16.307 16.307 0 0 0 11.607 4.808c.165 0 .332 0 .5-.007v.007h1.337a.746.746 0 0 1 0 1.492z" style="fill:#094771" transform="translate(2.218 1.302)"/>
            <path data-name="Path 13117" d="M799.649 156.088a.746.746 0 0 1-.191-1.467h.005a.746.746 0 1 1 .383 1.442h-.005a.746.746 0 0 1-.192.025zm4.592-1.888a.746.746 0 0 1-.38-1.388.746.746 0 1 1 .76 1.284.742.742 0 0 1-.38.104zm3.772-3.21a.746.746 0 0 1-.577-1.219.746.746 0 0 1 1.155.944.745.745 0 0 1-.578.275zm2.4-4.334a.747.747 0 0 1-.7-.992.746.746 0 0 1 1.409.491v.005a.747.747 0 0 1-.709.497zm.963-4.871h-.054a.746.746 0 0 1-.691-.8v-.005a.746.746 0 1 1 1.488.105v.006a.746.746 0 0 1-.744.694zm-.155-4.969a.746.746 0 0 1-.738-.643v-.005a.746.746 0 0 1 1.478-.206v.006a.746.746 0 0 1-.636.842.757.757 0 0 1-.105.006zm-1.34-4.777a.746.746 0 0 1-.681-.44.746.746 0 0 1 1.36-.614v.005a.746.746 0 0 1-.68 1.053zm-2.775-4.105a.744.744 0 0 1-.536-.227.746.746 0 1 1 1.072-1.038.746.746 0 0 1-.536 1.265zm-3.986-2.95a.743.743 0 0 1-.346-.086.746.746 0 1 1 .693-1.321h.005a.746.746 0 0 1-.348 1.407z" transform="translate(-773.805 -117.613)" style="fill:#094771"/>
            <path data-name="Path 13117" d="M.684 10.5A.685.685 0 0 1 0 9.815V.684a.685.685 0 0 1 1.37 0V9.13h8.445a.685.685 0 1 1 0 1.37z" transform="translate(19.5 12)" style="fill:#fff"/>
        </g>
    </g>
</svg>
