<svg xmlns="http://www.w3.org/2000/svg" width="32" height="32" viewBox="0 0 32 32">
    <g data-name="Lumpsum payment at maturity">
        <g data-name="Group 22675">
            <path data-name="Rectangle 23946" style="fill:none" d="M0 0h32v32H0z"/>
            <g data-name="Group 22674">
                <path data-name="Rectangle 23947" style="opacity:.2;fill:none" d="M0 0h26.667v26.667H0z" transform="translate(2.667 2.667)"/>
                <g data-name="Group 22673" transform="translate(3.334 2.667)">
                    <circle data-name="Ellipse 5288" cx="8" cy="8" r="8" transform="translate(0 10.667)" style="fill:#fcec95"/>
                    <g data-name="Group 22672">
                        <path data-name="Union 178" d="M4.271 11.392.476 7.6a1.628 1.628 0 0 1 0-2.3l.856-.856a1.629 1.629 0 0 1 2.087-.179c.424-.4 1.159-1.107 1.648-1.6l.013-.012a3.875 3.875 0 0 1 2.3-1.114h2.449a2.5 2.5 0 0 1 1.414.677 3.147 3.147 0 0 0 .438.3h2.908a2.065 2.065 0 0 1 1.417.492l1.641-.852A3.423 3.423 0 0 1 19.863.082a2.423 2.423 0 0 1 2.474.678l.172.231-.113.265a26.5 26.5 0 0 1-2.536 4.055c-.2.223-1.061 1.1-1.93 1.907-.5.464-.923.836-1.262 1.1-.613.486-.875.584-1.1.584H8.36a.563.563 0 0 0-.483.192 1.626 1.626 0 0 1-.45 1.437l-.856.856a1.628 1.628 0 0 1-2.3 0zM2.039 5.148 1.183 6a.626.626 0 0 0 0 .886l3.8 3.8a.627.627 0 0 0 .886 0l.856-.856a.628.628 0 0 0 0-.886l-3.8-3.794a.626.626 0 0 0-.886 0zM7.389 8.2a1.571 1.571 0 0 1 .97-.292h7.157a9.864 9.864 0 0 0 1.846-1.528 41.075 41.075 0 0 0 1.752-1.735 28.061 28.061 0 0 0 2.209-3.46 1.759 1.759 0 0 0-1.234-.129c-.632.146-1.058.592-1.627 1.7l-.072.144-1.874.973a1.646 1.646 0 0 1-.482 1.577 2.04 2.04 0 0 1-1.444.518h-4.409a.5.5 0 1 1 0-1h4.408a1.09 1.09 0 0 0 .76-.247.649.649 0 0 0 .209-.477c0-.361-.3-.725-.969-.725h-2.94a1.812 1.812 0 0 1-1.015-.509 2.157 2.157 0 0 0-.806-.47H7.38a2.972 2.972 0 0 0-1.612.84 104.86 104.86 0 0 1-1.625 1.574z" transform="translate(2.634 14.832)" style="fill:#094771"/>
                    </g>
                    <path data-name="Union 177" d="M.88 14.038a5.412 5.412 0 0 1-.646-4.594A9.314 9.314 0 0 1 1.9 6.055a9.845 9.845 0 0 1 2.958-2.5h2.318a9.915 9.915 0 0 1 2.892 2.5 9.455 9.455 0 0 1 1.661 3.389A5.274 5.274 0 0 1 11.17 14c-.971 1.3-2.716 1.971-5.188 2-2.411-.032-4.128-.692-5.102-1.962zM5 5.811a4.222 4.222 0 0 0-2.4 3.396.491.491 0 0 0 .982 0 3.291 3.291 0 0 1 1.864-2.52.49.49 0 0 0-.22-.927.492.492 0 0 0-.226.051zm-.139-2.534C3.614 2.469 3.542 1.3 3.216.946 3.1.815 3.054.827 3.114.72 3.737-.391 5.287.038 6.36.342A2.725 2.725 0 0 0 7.757.5c.207-.059.39-.069.477.035S8.3.7 8.186.844c-1.047 1.124-.729 2.05-1.345 2.433z" transform="translate(10)" style="fill:#1272e2"/>
                </g>
            </g>
        </g>
    </g>
</svg>
