<svg data-name="Group 26196" xmlns="http://www.w3.org/2000/svg" width="325" height="200" viewBox="0 0 325 200">
    <defs>
        <clipPath id="5cy6iwr3ba">
            <path data-name="Rectangle 24321" style="fill:none" d="M0 0h325v200H0z"/>
        </clipPath>
    </defs>
    <path data-name="Rectangle 24318" style="fill:#fff" d="M0 0h325v200H0z"/>
    <g data-name="Group 26195">
        <g data-name="Group 26194" style="clip-path:url(#5cy6iwr3ba)">
            <path data-name="Path 14840" d="M295.864 178.377H84.427a7.264 7.264 0 0 1-7.242-7.243V28.581a7.264 7.264 0 0 1 7.242-7.243h211.438a7.263 7.263 0 0 1 7.242 7.242v142.554a7.264 7.264 0 0 1-7.243 7.243" style="fill:#fff"/>
            <path data-name="Path 14841" d="M133.042 196.538H39.584a4.415 4.415 0 0 1-4.4-4.4v-59.774a4.414 4.414 0 0 1 4.4-4.4h93.459a4.415 4.415 0 0 1 4.4 4.4v59.771a4.415 4.415 0 0 1-4.4 4.4" style="fill:#d2dbe2"/>
            <path data-name="Path 14842" d="M161.857 87.963a16.9 16.9 0 0 1 7.605-6.191 25.37 25.37 0 0 1 22.1 1.241L202 114.889s2.052 8.1 8.1 7.445 8.643-10.022 11.169-15.815 7.148-18.174 15.617-20.822c0 0 7.711-4.067 25.14-1.631 0 0 2.668 6.97 2.621 13.332s-2.084 27.94 8.978 26.581c6.078-.745 7.382-11.616 7.323-12.564S279.913 92.7 279.913 92.7s12.479 17.479 16.736 27.626 7.873 19.024 8.389 24.974 1.908 13.076-5.05 17.211-13.194-1.121-13.194-1.121l1.452 35.144h-68.664l1.51-42.391s-14.511 4.923-25.124 1.014-18.264-10.6-23.955-25.216-10.156-41.982-10.156-41.982" style="fill:#1171e0"/>
            <path data-name="Path 14843" d="m258.117 75.764-.263-1.1c-4.26-1.044-2.706-3.654-2.706-3.654-2.053-.715-2.177-5.043-2.177-5.043 4.167.649 6.656-2.39 6.134-6.083s-4.128-4.513-6.142-4.646a4.446 4.446 0 0 0-3.413 1.688c-10.139-.926-14.066-13.385-14.066-13.385l-1.656 13.216s-4.868.416-5.411 2.756c-.522 2.252 3.034 4.293 3.307 4.446-.063.025-.19.531.166 5.093.442 5.658 10.168 6.712 10.168 6.712l-.125 2.98a12.735 12.735 0 0 0-5.7 7.182c9.076-4.309 25.789-1.861 25.789-1.861a53.707 53.707 0 0 0-3.906-8.3" style="fill:#fff"/>
            <path data-name="Path 14844" d="M252.971 65.97s.124 4.763 2.177 5.043 8.466-3.6 9.642-5.043a25.061 25.061 0 0 0 5.2-13.338c.461-6.812-2.369-11.29-4.857-12.724s-10.077-4.818-12.783-3.139c0 0-5.005-2.406-8.987-1.576a14.654 14.654 0 0 0-8.74 5.776s1.923 8.62 6.792 12.054 8.137 3.906 8.137 3.906 5.6-4.451 9.206.913c0 0 .684 6.981-2.364 7.417s-3.422.711-3.422.711" style="fill:#002a47"/>
            <path data-name="Path 14845" d="M257.287 75.027s5.615 10.487 5.1 20.366-1.386 18.044-.539 22.118 4.144 8.873 9.891 8.47 7.888-4.231 8.958-10.71a62.222 62.222 0 0 0 .129-18.663c-.811-5.762-4.03-10.858-5.771-13.467s-8.177-11.1-8.177-11.1a9.747 9.747 0 0 1-9.591 2.981" style="fill:#002a47"/>
            <path data-name="Path 14846" d="M255.627 71.013s-.969 1.82 0 2.985 6.317 1.326 7.989.729c2.648-.946 3.76-2.641 3.339-4.741a8.1 8.1 0 0 0-2.36-3.8s-5.132 4.547-8.968 4.827" style="fill:#fff"/>
            <path data-name="Path 14847" d="M96.467 163.987a7.34 7.34 0 1 1-7.34-7.341 7.34 7.34 0 0 1 7.34 7.341" style="fill:#fff"/>
            <path data-name="Rectangle 24319" d="M14.878 0h53.583a14.88 14.88 0 0 1 14.88 14.88v25.265a14.878 14.878 0 0 1-14.878 14.878H14.878A14.878 14.878 0 0 1 0 40.145V14.878A14.878 14.878 0 0 1 14.878 0z" transform="translate(105.48 8.942)" style="fill:#fddb2e"/>
            <path data-name="Path 14848" d="M152.033 20.965c-1.466-2.508-3.865-2.508-5.33 0l-11.264 19.292c-1.465 2.509-.286 4.563 2.62 4.563h22.63c2.906 0 4.084-2.054 2.618-4.563z" style="fill:#fff"/>
            <path data-name="Path 14849" d="M252.331 113.561s-5.14 37.54-31.588 50.385l.349-9.8s23.336-7.526 31.239-40.587" style="fill:#0d67d2"/>
            <path data-name="Path 14850" d="M187.5 80.722s1.909-6.027 2.432-7.56 3.231-9.177.009-10.01-5.041 5.689-5.281 6.52-.6 3.932-3.343 3.274-3.592-5.081-4.158-7.131S173.831 55.42 173 53.669s-1.766-4.464-4.75-3.559-.766 6.84-.394 7.941 2.609 7.418 2.609 7.418-2.358-.141-3.467.632a3.6 3.6 0 0 0-1.252 2.384 14.43 14.43 0 0 0-2.692 1.4c-.959.72-1.258 3.27-1.141 4.39s1.109 7.728 3.04 9.618c0 0 6.286-3.378 10.205-3.854s10.464-.092 12.346.68" style="fill:#fff"/>
            <path data-name="Rectangle 24320" transform="translate(283.71 58.252)" style="fill:#fddb2e" d="M0 0h14.434v14.434H0z"/>
            <path data-name="Path 14851" d="M106.652 85.669H95.485a1.56 1.56 0 0 1-1.555-1.555V72.946a1.56 1.56 0 0 1 1.555-1.555h11.167a1.56 1.56 0 0 1 1.556 1.556v11.166a1.56 1.56 0 0 1-1.556 1.556" style="fill:#1171e0"/>
            <path data-name="Path 14852" d="M113.791 117.883h-11.168a1.56 1.56 0 0 1-1.555-1.555v-11.167a1.56 1.56 0 0 1 1.556-1.556h11.166a1.56 1.56 0 0 1 1.556 1.556v11.167a1.56 1.56 0 0 1-1.555 1.555" style="fill:#fdf4ca"/>
            <path data-name="Path 14853" d="M187.865 80.534c-.457-.166-.56-.463-.445-.708a30.223 30.223 0 0 0 1.383-4.433c.3-1.126.575-2.19.836-2.914 1.73-4.847 1.845-6.718 1.636-7.439a2.182 2.182 0 0 0-1.055-1.348 2.285 2.285 0 0 0-2.149.242c-.457.295-1.6 1.29-2.4 4.191-.5 2.208-1.068 4.782-3.088 5.263-1.726.418-4.049-.3-5.508-5.965a151.283 151.283 0 0 0-1.38-4.984 61.824 61.824 0 0 0-3.631-9.587 5.384 5.384 0 0 0-1.433-2.174 2.014 2.014 0 0 0-1.29-.347 2.14 2.14 0 0 0-1.668.875 4.009 4.009 0 0 0-.442 3.2c.6 2.417 3.664 10.813 3.7 10.9-.6.642-2.247.242-3.452 1.057a3.215 3.215 0 0 0-1.27 2.356c-.468.428-2.014.547-3 1.726a4.463 4.463 0 0 0-.8 3.457.5.5 0 0 1-.439.543.55.55 0 0 1-.541-.439 5.393 5.393 0 0 1 1.036-4.2 4.866 4.866 0 0 1 2.831-1.586 3.994 3.994 0 0 1 1.637-2.674 4.509 4.509 0 0 1 2.793-.666c-.78-2.157-2.932-8.176-3.447-10.232a4.941 4.941 0 0 1 .606-4.015 3.118 3.118 0 0 1 2.4-1.275 2.792 2.792 0 0 1 1.933.537 5.384 5.384 0 0 1 1.588 2.228 64.012 64.012 0 0 1 3.837 10.04c.548 1.836 1.03 3.647 1.387 5.021 1.017 3.933 2.471 5.717 4.327 5.256 1.42-.338 1.907-2.537 2.2-3.848.06-.275.115-.521.169-.717.851-3.113 2.129-4.318 2.816-4.76a3.216 3.216 0 0 1 3.115-.3 3.111 3.111 0 0 1 1.566 1.96c.366 1.262-.172 3.894-1.653 8.043-.245.687-.518 1.729-.811 2.833a30.681 30.681 0 0 1-1.445 4.611.494.494 0 0 1-.445.279" style="fill:#032643"/>
            <path data-name="Path 14854" d="M168.247 75.608c-3.031-4.182-3-7.013-3-7.134a.542.542 0 0 1 .5-.478.49.49 0 0 1 .484.5c0 .026-.011 2.67 2.422 6.346a.5.5 0 0 1-.138.684.511.511 0 0 1-.273.082" style="fill:#032643"/>
            <path data-name="Path 14855" d="M172.677 71.76c-2.483-4.821-2.692-6.165-2.7-6.22a.494.494 0 0 1 .417-.558.5.5 0 0 1 .558.413 30.109 30.109 0 0 0 2.174 5.668.5.5 0 0 1-.448.7" style="fill:#032643"/>
            <path data-name="Path 14856" d="M164.949 84.389a21.293 21.293 0 0 1-3.585-11.231.494.494 0 0 1 .988.005 21.554 21.554 0 0 0 3.013 10.466.5.5 0 0 1-.149.681.514.514 0 0 1-.267.079" style="fill:#032643"/>
            <path data-name="Path 14857" d="M168 58.975h-53.145a15.387 15.387 0 0 1-15.37-15.369V18.34a15.389 15.389 0 0 1 15.37-15.372h53.586a15.389 15.389 0 0 1 15.37 15.372v25.266a14.924 14.924 0 0 1-9.09 13.84.492.492 0 0 1-.394-.9 13.954 13.954 0 0 0 8.5-12.938V18.34a14.4 14.4 0 0 0-14.386-14.386h-53.586a14.4 14.4 0 0 0-14.384 14.386v25.266a14.4 14.4 0 0 0 14.384 14.383H168a.493.493 0 1 1 0 .986" style="fill:#032643"/>
            <path data-name="Path 14858" d="M155.207 42.088h-22.629A3.667 3.667 0 0 1 129.2 40.5a3.661 3.661 0 0 1 .333-3.715L140.8 17.5a3.307 3.307 0 0 1 6.179 0l11.274 19.292a3.652 3.652 0 0 1 .333 3.715 3.657 3.657 0 0 1-3.375 1.589m-11.326-25.742a2.778 2.778 0 0 0-2.241 1.637L130.379 37.28a2.743 2.743 0 0 0-.327 2.729 2.747 2.747 0 0 0 2.526 1.093h22.629a2.738 2.738 0 0 0 2.521-1.093 2.739 2.739 0 0 0-.327-2.729l-11.273-19.292a2.781 2.781 0 0 0-2.243-1.634" style="fill:#032643"/>
            <path data-name="Path 14859" d="M135.83 197.033a.493.493 0 1 1 0-.986 6.556 6.556 0 0 0 6.546-6.551v-25.51a.494.494 0 0 1 .988 0V189.5a7.545 7.545 0 0 1-7.534 7.537" style="fill:#032643"/>
            <path data-name="Path 14860" d="M47.652 197.033a7.547 7.547 0 0 1-7.537-7.537v-54.491a7.548 7.548 0 0 1 7.537-7.537h88.178a7.545 7.545 0 0 1 7.533 7.537v8.444a.494.494 0 1 1-.987 0v-8.444a6.556 6.556 0 0 0-6.546-6.55H47.652a6.556 6.556 0 0 0-6.55 6.55V189.5a6.557 6.557 0 0 0 6.55 6.551.493.493 0 0 1 0 .986" style="fill:#032643"/>
            <path data-name="Path 14861" d="M91.864 170.407a7.708 7.708 0 1 1 7.709-7.709 7.717 7.717 0 0 1-7.709 7.709m0-14.431a6.723 6.723 0 1 0 6.721 6.722 6.73 6.73 0 0 0-6.721-6.722" style="fill:#032643"/>
            <path data-name="Path 14862" d="M237.467 50.4c-.557-.417-.518-.716-.306-.877a2.841 2.841 0 0 1 1.341-.445.485.485 0 0 1 .551.423.49.49 0 0 1-.424.552 2.183 2.183 0 0 0-.88.259.5.5 0 0 1-.282.088" style="fill:#032643"/>
            <path data-name="Path 14863" d="M238.227 53.571c-.39-.083-.661.07-.852 1.478-.212 1.57.181 1.871.535 1.877s.737-.463.781-1.589.047-1.657-.464-1.766" style="fill:#032643"/>
            <path data-name="Path 14864" d="M253.794 66.463a5.847 5.847 0 0 1-3.368-1.062.493.493 0 0 1 .569-.806 4.871 4.871 0 1 0-1.329-6.579.488.488 0 0 1-.68.153.5.5 0 0 1-.155-.681 5.859 5.859 0 1 1 4.963 8.975" style="fill:#032643"/>
            <path data-name="Path 14865" d="M255.129 63.529c-.273-.082-3.968-2.521-3.968-2.521-.02-.809 3.692-3.562 3.692-3.562a.494.494 0 0 1 .588.793l-3.149 2.332 3.11 2.053a.493.493 0 0 1-.273.9" style="fill:#032643"/>
            <path data-name="Path 14866" d="M243.835 79.105a.5.5 0 0 1-.493-.512l.117-3.124a.494.494 0 1 1 .987.035l-.118 3.125a.5.5 0 0 1-.493.476" style="fill:#032643"/>
            <path data-name="Path 14867" d="M219.583 197.033a.5.5 0 0 1-.493-.487c-.1-7.556.95-29.645 1.586-42.138a.491.491 0 1 1 .981.049c-.632 12.483-1.677 34.549-1.581 42.077a.5.5 0 0 1-.487.5z" style="fill:#1a1a1a"/>
            <path data-name="Path 14868" d="M288.246 197.033c-.515-.684-2.861-24.624-1.63-43.113 1.227-18.419.013-43.366 0-43.617-.175-3.5-3.293-14.068-7.785-18.374a.493.493 0 0 1 .685-.709c4.576 4.39 7.882 14.968 8.082 19.035.015.25 1.232 25.255 0 43.732-1.227 18.4 1.114 42.265 1.138 42.5a.5.5 0 0 1-.442.54h-.048" style="fill:#032643"/>
            <path data-name="Path 14869" d="M206.669 157.19c-9.444 0-18.184-3.36-24.439-9.74-7.867-8.031-11.742-19.1-14.5-28.878-3-10.649-4.459-19.282-6.309-30.214.13-.9 3.6-7.89 15.757-8.987 10.94-.992 14.6 3.14 14.756 3.322.093.164 10.533 32.07 10.533 32.07.828 2.561 1.606 4.98 3.935 6.31a6.321 6.321 0 0 0 7.229-.778c2.049-1.712 3.241-4.318 4.289-6.841.536-1.3 1.062-2.6 1.586-3.912a118.783 118.783 0 0 1 5.641-12.6c3.149-5.774 7.028-9.709 11.531-11.7A32.18 32.18 0 0 1 250.4 82.79c4.009.087 5.91-.151 10.414.594a.489.489 0 0 1 .4.566.484.484 0 0 1-.567.4c-4.378-.724-6.192-.5-10.268-.575a31.519 31.519 0 0 0-13.3 2.371c-4.3 1.9-8.021 5.689-11.064 11.269a116.858 116.858 0 0 0-5.593 12.491c-.527 1.311-1.053 2.622-1.593 3.92-1.092 2.638-2.347 5.37-4.566 7.223a7.289 7.289 0 0 1-8.351.874c-2.658-1.516-3.533-4.236-4.379-6.861l-10.406-31.8c-.5-.493-4.209-3.782-13.857-2.915-10.671.963-14.369 6.749-14.9 7.694 1.87 11.049 3.323 19.658 6.314 30.258 2.716 9.653 6.534 20.584 14.246 28.455 8.978 9.156 23.259 11.9 37.282 7.148l1.567-.481c23.606-9.272 29.845-39.655 29.9-39.96a.494.494 0 0 1 .97.187c-.063.312-6.407 31.222-30.548 40.7l-1.588.491a43.235 43.235 0 0 1-13.847 2.343" style="fill:#032643"/>
            <path data-name="Path 14870" d="M294.735 164.419a15.76 15.76 0 0 1-8.228-2.625.493.493 0 0 1 .576-.8c.36.254 8.768 6.183 15.47-1.235 8.424-9.309-6.635-43.139-20.263-62.967a.492.492 0 1 1 .811-.557c14.166 20.6 29.059 54.376 20.185 64.183a11.2 11.2 0 0 1-8.551 4" style="fill:#032643"/>
            <path data-name="Path 14871" d="M245.193 75.98c-4.868 0-11.564-.6-13.471-5.78a11.828 11.828 0 0 1-.648-4.39c.109-.8.178-1.267.2-1.538-1.005-.589-3.771-2.462-3.295-5.1.413-2.293 4.089-2.777 5.408-2.879l1.608-12.809a.483.483 0 0 1 .548-.427.49.49 0 0 1 .428.548l-1.658 13.215c-1.733.474-5.081.938-5.365 2.524-.409 2.269 2.667 4 3.019 4.188.361.306.346.579.152 1.875a10.828 10.828 0 0 0 .529 4.453c1.693 4.6 7.97 5.133 12.545 5.133a.494.494 0 1 1 0 .987" style="fill:#032643"/>
            <path data-name="Path 14872" d="M324.505 197.033H.494a.493.493 0 1 1 0-.986h324.011a.493.493 0 1 1 0 .986" style="fill:#032643"/>
            <path data-name="Path 14873" d="M214.2 178.871h-71.33a.494.494 0 0 1 0-.987h71.33a.494.494 0 1 1 0 .987" style="fill:#032643"/>
            <path data-name="Path 14874" d="M291.289 178.871a.493.493 0 0 1 0-.987 11.338 11.338 0 0 0 11.325-11.324v-6.471a.494.494 0 1 1 .988 0v6.471a12.326 12.326 0 0 1-12.313 12.311" style="fill:#313c50"/>
            <path data-name="Path 14875" d="M303.107 136.951a.493.493 0 0 1-.493-.493V91.574a.494.494 0 0 1 .988 0v44.884a.494.494 0 0 1-.495.493" style="fill:#313c50"/>
            <path data-name="Path 14876" d="M303.107 74.847a.493.493 0 0 1-.493-.493V33.159a11.339 11.339 0 0 0-11.325-11.325H190.933a.494.494 0 0 1 0-.988h100.356A12.326 12.326 0 0 1 303.6 33.159v41.195a.494.494 0 0 1-.495.493" style="fill:#313c50"/>
            <path data-name="Path 14877" d="M77.184 127.862a.5.5 0 0 1-.494-.5V33.159A12.325 12.325 0 0 1 89 20.846h7.509a.494.494 0 0 1 0 .988H89a11.339 11.339 0 0 0-11.323 11.325v94.208a.494.494 0 0 1-.493.5" style="fill:#032643"/>
            <path data-name="Path 14878" d="M26.646 163.474h-5.668a.494.494 0 1 1 0-.987h5.668a.494.494 0 1 1 0 .987m-6.937-4.4a.492.492 0 0 1-.493-.493v-5.666a.494.494 0 0 1 .987 0v5.666a.493.493 0 0 1-.494.493m0-11.333a.493.493 0 0 1-.493-.493v-5.669a.494.494 0 0 1 .987 0v5.669a.494.494 0 0 1-.494.493m0-11.336a.494.494 0 0 1-.493-.495v-5.668a.494.494 0 1 1 .987 0v5.668a.5.5 0 0 1-.494.495m0-11.338a.492.492 0 0 1-.493-.493v-5.666a.494.494 0 1 1 .987 0v5.666a.493.493 0 0 1-.494.493m0-11.334a.492.492 0 0 1-.493-.493v-5.669a.494.494 0 0 1 .987 0v5.669a.493.493 0 0 1-.494.493m0-11.336a.493.493 0 0 1-.493-.493v-5.669a.494.494 0 0 1 .987 0v5.665a.494.494 0 0 1-.494.493m0-11.338a.492.492 0 0 1-.493-.493V84.9a.494.494 0 1 1 .987 0v5.664a.493.493 0 0 1-.494.493m0-11.333a.492.492 0 0 1-.493-.493v-5.667a.494.494 0 0 1 .987 0v5.669a.493.493 0 0 1-.494.493" style="fill:#032643"/>
            <path data-name="Path 14879" d="M66.143 70.169h-5.667a.494.494 0 0 1 0-.988h5.667a.494.494 0 1 1 0 .988m-11.336 0h-5.665a.494.494 0 1 1 0-.988h5.665a.494.494 0 0 1 0 .988m-11.334 0h-5.668a.494.494 0 1 1 0-.988h5.668a.494.494 0 1 1 0 .988m-11.336 0h-5.669a.494.494 0 0 1 0-.988h5.669a.494.494 0 0 1 0 .988" style="fill:#032643"/>
            <path data-name="Path 14880" d="M70.032 74.058a4.382 4.382 0 1 1 4.382-4.382 4.387 4.387 0 0 1-4.382 4.382m0-7.776a3.394 3.394 0 1 0 3.394 3.394 3.4 3.4 0 0 0-3.394-3.394" style="fill:#032643"/>
            <path data-name="Path 14881" d="M33.641 167.362a4.382 4.382 0 1 1 4.382-4.382 4.387 4.387 0 0 1-4.382 4.382m0-7.776a3.394 3.394 0 1 0 3.394 3.394 3.4 3.4 0 0 0-3.394-3.394" style="fill:#032643"/>
            <path data-name="Path 14882" d="M19.709 74.058a4.382 4.382 0 1 1 4.379-4.382 4.387 4.387 0 0 1-4.379 4.382m0-7.776a3.394 3.394 0 1 0 3.391 3.394 3.4 3.4 0 0 0-3.392-3.394" style="fill:#032643"/>
            <path data-name="Path 14883" d="M255.147 71.5c-.266-.063-2.828-.975-2.67-5.554a.521.521 0 0 1 .512-.474.5.5 0 0 1 .475.511c-.118 3.365 1.359 4.321 1.753 4.517 5.883-.8 10.733-5.008 12.983-11.283 2.264-6.325 2.143-14.969-3.479-18.994a17.915 17.915 0 0 0-9.472-2.949c-.8-.045-1.507-.064-2.159-.042a1.686 1.686 0 0 1-.953-.019c-10.15-5.078-16.049 2.517-16.979 3.843.521 1.787 4.506 14.3 14.147 15.382a.494.494 0 0 1 .436.545.521.521 0 0 1-.544.437c-11.008-1.242-14.892-15.713-15.05-16.327.128-.495 6.781-10.6 18.425-4.761a16.77 16.77 0 0 1 2.737-.04 18.88 18.88 0 0 1 9.987 3.132c6.035 4.32 6.216 13.462 3.83 20.128s-7.595 11.142-13.915 11.948a.462.462 0 0 1-.064.006" style="fill:#032643"/>
            <path data-name="Path 14884" d="M236.206 86.508c-.39-.088-.544-.356-.474-.62.063-.239 1.625-5.862 6.957-7.461a116.677 116.677 0 0 1 15.365-3.149.492.492 0 0 1 .127.975 115.627 115.627 0 0 0-15.207 3.118c-4.8 1.439-6.276 6.72-6.292 6.771a.493.493 0 0 1-.476.366" style="fill:#032643"/>
            <path data-name="Path 14885" d="M259.429 75.786c-2.1 0-3.525-.511-4.255-1.529a3.484 3.484 0 0 1-.242-3.161.493.493 0 0 1 .909.384 2.527 2.527 0 0 0 .138 2.208c.634.881 2.2 1.241 4.524 1.072 2.807-.214 4.77-.948 5.672-2.117a2.766 2.766 0 0 0 .532-2.2 7.567 7.567 0 0 0-2.285-3.882.491.491 0 1 1 .635-.75 8.447 8.447 0 0 1 2.619 4.456 3.736 3.736 0 0 1-.721 2.98c-1.092 1.418-3.239 2.255-6.379 2.495-.4.03-.784.045-1.147.045" style="fill:#032643"/>
            <path data-name="Path 14886" d="M271.631 126.474c-3.327-.012-5.9-1.042-7.664-3.061-3.166-3.625-3.911-10.34-2.407-21.777 1.779-13.511-4.2-26.113-4.265-26.237a.492.492 0 0 1 .884-.431c.063.13 6.177 12.987 4.357 26.795-1.464 11.13-.791 17.611 2.174 21 1.6 1.822 3.851 2.714 6.9 2.723 6.219 0 8.28-7.035 8.917-12.939a57.544 57.544 0 0 0-.127-14.314c-1.357-9.4-7.28-17.325-12.5-24.318l-1.121-1.486a.493.493 0 0 1 .786-.594l1.121 1.49c5.3 7.085 11.3 15.115 12.69 24.769a58.558 58.558 0 0 1 .133 14.555c-.977 9.046-4.39 13.823-9.874 13.823" style="fill:#032643"/>
            <path data-name="Path 14887" d="M233.152 69.082a4.878 4.878 0 0 1-1.579-.254.489.489 0 0 1-.287-.63.507.507 0 0 1 .63-.294 3.646 3.646 0 0 0 3.918-1.041.491.491 0 0 1 .7-.049.5.5 0 0 1 .049.7 4.409 4.409 0 0 1-3.428 1.572" style="fill:#1a1a1a"/>
            <path data-name="Path 14888" d="M109.762 92.067H100.8a3.154 3.154 0 0 1-3.152-3.148v-8.963a3.155 3.155 0 0 1 3.152-3.151h8.964a3.154 3.154 0 0 1 3.148 3.151v8.963a3.153 3.153 0 0 1-3.148 3.148M100.8 77.791a2.168 2.168 0 0 0-2.164 2.165v8.963a2.166 2.166 0 0 0 2.164 2.162h8.964a2.163 2.163 0 0 0 2.162-2.162v-8.963a2.166 2.166 0 0 0-2.162-2.165z" style="fill:#032643"/>
            <path data-name="Path 14889" d="M109.762 115.644H100.8a3.156 3.156 0 0 1-3.152-3.152v-8.962a3.156 3.156 0 0 1 3.152-3.152h8.964a3.154 3.154 0 0 1 3.148 3.152v8.962a3.154 3.154 0 0 1-3.148 3.152m-8.964-14.28a2.168 2.168 0 0 0-2.164 2.166v8.962a2.168 2.168 0 0 0 2.164 2.165h8.964a2.166 2.166 0 0 0 2.162-2.165v-8.962a2.166 2.166 0 0 0-2.162-2.166z" style="fill:#032643"/>
            <path data-name="Path 14890" d="M154.486 80.846H117.91a.493.493 0 1 1 0-.986h36.576a.493.493 0 1 1 0 .986" style="fill:#032643"/>
            <path data-name="Path 14891" d="M154.486 89.8H117.91a.493.493 0 1 1 0-.985h36.576a.493.493 0 1 1 0 .985" style="fill:#032643"/>
            <path data-name="Path 14892" d="M154.486 104.422H117.91a.494.494 0 0 1 0-.988h36.576a.494.494 0 0 1 0 .988" style="fill:#032643"/>
            <path data-name="Path 14893" d="M154.486 113.378H117.91a.493.493 0 1 1 0-.986h36.576a.493.493 0 1 1 0 .986" style="fill:#032643"/>
            <path data-name="Path 14894" d="M223 80.846h-36.577a.493.493 0 1 1 0-.986H223a.493.493 0 1 1 0 .986" style="fill:#032643"/>
            <path data-name="Path 14895" d="M223 89.8h-29.268a.493.493 0 1 1 0-.985H223a.493.493 0 1 1 0 .985" style="fill:#032643"/>
            <path data-name="Path 14896" d="M222.375 104.422h-24a.494.494 0 1 1 0-.988h24a.494.494 0 0 1 0 .988" style="fill:#032643"/>
            <path data-name="Path 14897" d="M218.553 113.378h-17.211a.493.493 0 0 1 0-.986h17.211a.493.493 0 1 1 0 .986" style="fill:#032643"/>
            <path data-name="Path 14898" d="M193.177 154.21a.493.493 0 0 1-.495-.492c0-5.933 6.92-10.762 15.422-10.762 8.067 0 14.823 4.393 15.383 10a.494.494 0 0 1-.442.538.522.522 0 0 1-.54-.441c-.508-5.108-6.834-9.108-14.4-9.108-7.96 0-14.434 4.383-14.434 9.774a.493.493 0 0 1-.493.492" style="fill:#fff"/>
            <path data-name="Path 14899" d="M295.834 70.169H281.4a.492.492 0 0 1-.493-.493V55.242a.494.494 0 0 1 .493-.495h14.434a.494.494 0 0 1 .493.495v14.434a.492.492 0 0 1-.493.493m-13.941-.987h13.448V55.736h-13.448z" style="fill:#1a1a1a"/>
        </g>
    </g>
</svg>
