<svg xmlns="http://www.w3.org/2000/svg" width="32" height="32" viewBox="0 0 32 32">
    <g data-name="Group 21979">
        <path data-name="Rectangle 22383" style="fill:none" d="M0 0h32v32H0z"/>
        <path data-name="Union 114" d="M9.2 20.845.453 11.788a1.641 1.641 0 0 1 0-2.263L9.2.469a1.509 1.509 0 0 1 2.187 0 1.641 1.641 0 0 1 0 2.263l-6.11 6.324h15.834a1.6 1.6 0 0 1 0 3.2H5.278l6.1 6.322a1.642 1.642 0 0 1 0 2.265 1.508 1.508 0 0 1-2.186 0z" transform="rotate(180 13.5 13.329)" style="fill:#1272e2"/>
    </g>
</svg>
