<svg data-name="Award winning ebook" xmlns="http://www.w3.org/2000/svg" width="40" height="40" viewBox="0 0 40 40">
    <defs>
        <clipPath id="5qctfln1ia">
            <path data-name="Rectangle 24635" style="fill:#dedede" d="M0 0h40v40H0z"/>
        </clipPath>
        <clipPath id="5n446zpheb">
            <path data-name="Rectangle 27297" style="fill:#bfbfbf" d="M0 0h33.333v33.333H0z"/>
        </clipPath>
        <clipPath id="ruybef22nc">
            <path data-name="Rectangle 27309" style="fill:none" d="M0 0h33.107v25.86H0z"/>
        </clipPath>
    </defs>
    <g data-name="Mask Group 6031" style="clip-path:url(#5qctfln1ia)">
        <g data-name="Mask Group 6030" transform="translate(3.333 3.333)" style="clip-path:url(#5n446zpheb)">
            <g data-name="Group 29525">
                <g data-name="Group 29524" style="clip-path:url(#ruybef22nc)" transform="translate(0 3.333)">
                    <path data-name="Path 18229" d="M29.9 8.874v16.77a1.453 1.453 0 0 1-1.453 1.456H1.453A1.453 1.453 0 0 1 0 25.644V8.874a1.453 1.453 0 0 1 1.453-1.452h26.994A1.453 1.453 0 0 1 29.9 8.874" transform="translate(0 -1.237)" style="fill:#fcec95"/>
                    <path data-name="Path 18230" d="M2.759 22.559s11.98-1.278 15.092 4.027H2.759z" transform="translate(-.46 -3.737)" style="fill:#147bf3"/>
                    <path data-name="Path 18231" d="M35.96 22.559s-11.98-1.278-15.092 4.027H35.96z" transform="translate(-3.478 -3.737)" style="fill:#147bf3"/>
                    <path data-name="Path 18232" d="M18.351 23.475H2.009V0H11.5a8.187 8.187 0 0 1 5.06 2.194 9.353 9.353 0 0 1 1.706 2.017l.085.146zm-15.092-1.25H17.1V4.707A8.65 8.65 0 0 0 15.692 3.1a6.854 6.854 0 0 0-4.244-1.85H3.259z" transform="translate(-.335)" style="fill:#094771"/>
                    <path data-name="Path 18233" d="M36.461 23.475H20.119V4.357l.085-.146a9.353 9.353 0 0 1 1.706-2.017A8.187 8.187 0 0 1 26.971 0h9.49zm-15.092-1.25h13.842V1.25h-8.19a6.854 6.854 0 0 0-4.244 1.85 8.649 8.649 0 0 0-1.408 1.612z" transform="translate(-3.353)" style="fill:#094771"/>
                    <path data-name="Path 18234" d="M34.233 9.476h-10.2a.687.687 0 0 1-.688-.688V5.554a.688.688 0 0 1 .688-.687h10.2a.688.688 0 0 1 .688.688v3.233a.687.687 0 0 1-.687.688" transform="translate(-3.891 -.811)" style="fill:#147bf3"/>
                    <path data-name="Path 18235" d="M25.706 8.2V6.567h1.057v.257h-.784v.4h.647v.257h-.647v.463h.784V8.2z" transform="translate(-4.284 -1.094)" style="fill:#fff"/>
                    <path data-name="Rectangle 27308" transform="translate(22.729 6.183)" style="fill:#fff" d="M0 0h.683v.214H0z"/>
                    <path data-name="Path 18236" d="M28.448 8.2V6.566h.652a.508.508 0 0 1 .272.067.413.413 0 0 1 .158.171.463.463 0 0 1 .052.213.4.4 0 0 1-.063.229.314.314 0 0 1-.175.127v-.056a.38.38 0 0 1 .235.147.425.425 0 0 1 .08.254.541.541 0 0 1-.056.253.4.4 0 0 1-.165.172.562.562 0 0 1-.272.061zm.278-.983h.368A.23.23 0 0 0 29.2 7.2a.179.179 0 0 0 .074-.067.2.2 0 0 0 .027-.109.2.2 0 0 0-.054-.142.2.2 0 0 0-.153-.057h-.368zm0 .726h.4a.28.28 0 0 0 .128-.029.225.225 0 0 0 .09-.082.238.238 0 0 0 .032-.126.243.243 0 0 0-.029-.119.22.22 0 0 0-.083-.083.26.26 0 0 0-.131-.031h-.412z" transform="translate(-4.741 -1.094)" style="fill:#fff"/>
                    <path data-name="Path 18237" d="M30.7 8.313a.614.614 0 0 1-.322-.082.563.563 0 0 1-.214-.231.779.779 0 0 1 0-.674.566.566 0 0 1 .215-.228.668.668 0 0 1 .642 0 .572.572 0 0 1 .213.229.783.783 0 0 1 0 .674.577.577 0 0 1-.214.228.621.621 0 0 1-.322.082m0-.257a.282.282 0 0 0 .243-.109.541.541 0 0 0 0-.568.288.288 0 0 0-.243-.106.31.31 0 0 0-.182.05.285.285 0 0 0-.1.137.576.576 0 0 0-.034.2.454.454 0 0 0 .082.285.283.283 0 0 0 .239.107" transform="translate(-5.015 -1.169)" style="fill:#fff"/>
                    <path data-name="Path 18238" d="M32.386 8.313a.614.614 0 0 1-.322-.082.563.563 0 0 1-.213-.231.779.779 0 0 1 0-.674.566.566 0 0 1 .215-.228.668.668 0 0 1 .642 0 .572.572 0 0 1 .213.229.783.783 0 0 1 0 .674.577.577 0 0 1-.214.228.621.621 0 0 1-.322.082m0-.257a.282.282 0 0 0 .243-.109.541.541 0 0 0 0-.568.288.288 0 0 0-.243-.106.31.31 0 0 0-.182.05.285.285 0 0 0-.105.137.576.576 0 0 0-.034.2.454.454 0 0 0 .082.285.283.283 0 0 0 .239.107" transform="translate(-5.296 -1.169)" style="fill:#fff"/>
                    <path data-name="Path 18239" d="M33.542 8.2V6.563h.278v1l.449-.592h.342l-.477.614.518.614h-.363l-.469-.592V8.2z" transform="translate(-5.59 -1.094)" style="fill:#fff"/>
                    <path data-name="Line 708" d="M10.13.5H-.125A.625.625 0 0 1-.75-.125.625.625 0 0 1-.125-.75H10.13a.625.625 0 0 1 .625.625.625.625 0 0 1-.625.625z" transform="translate(20.182 11.723)" style="fill:#094771"/>
                    <path data-name="Line 709" d="M5.825.5h-5.95A.625.625 0 0 1-.75-.125.625.625 0 0 1-.125-.75h5.95a.625.625 0 0 1 .625.625.625.625 0 0 1-.625.625z" transform="translate(20.182 15.848)" style="fill:#094771"/>
                    <path data-name="Line 710" d="M5.825.5h-5.95A.625.625 0 0 1-.75-.125.625.625 0 0 1-.125-.75h5.95a.625.625 0 0 1 .625.625.625.625 0 0 1-.625.625z" transform="translate(6.503 15.848)" style="fill:#094771"/>
                    <path data-name="Path 18240" d="M10.294 4.116a1.411 1.411 0 0 1 1.273.791l.627 1.271a.168.168 0 0 0 .127.093l1.4.2a1.42 1.42 0 0 1 .791 2.429l-1.012.986a.171.171 0 0 0-.049.151l.24 1.4a1.418 1.418 0 0 1-2.06 1.5l-1.254-.659a.171.171 0 0 0-.158 0l-1.254.659a1.408 1.408 0 0 1-.665.163 1.422 1.422 0 0 1-1.4-1.661l.24-1.4a.17.17 0 0 0-.049-.15L6.076 8.9a1.42 1.42 0 0 1 .787-2.422l1.4-.2a.171.171 0 0 0 .129-.094l.626-1.27a1.411 1.411 0 0 1 1.276-.798zm1.994 7.729a.18.18 0 0 0 .133-.065.158.158 0 0 0 .035-.136l-.24-1.4a1.42 1.42 0 0 1 .409-1.258L13.639 8a.17.17 0 0 0-.094-.29l-1.4-.2a1.417 1.417 0 0 1-1.07-.778l-.627-1.27a.17.17 0 0 0-.3 0l-.633 1.27a1.421 1.421 0 0 1-1.07.777l-1.4.2A.17.17 0 0 0 6.949 8l1.014.989a1.42 1.42 0 0 1 .409 1.257l-.24 1.4a.157.157 0 0 0 .035.135.181.181 0 0 0 .133.065.169.169 0 0 0 .079-.021l1.254-.659a1.419 1.419 0 0 1 1.321 0l1.254.659a.168.168 0 0 0 .081.02z" transform="translate(-.941 -.686)" style="fill:#094771"/>
                    <path data-name="Line 711" d="M-.125 3.157a.625.625 0 0 1-.625-.625V-.125A.625.625 0 0 1-.125-.75.625.625 0 0 1 .5-.125v2.657a.625.625 0 0 1-.625.625z" transform="translate(9.478 12.896)" style="fill:#094771"/>
                </g>
            </g>
        </g>
    </g>
</svg>
