<svg xmlns="http://www.w3.org/2000/svg" width="48" height="48" viewBox="0 0 48 48">
    <g data-name="Group 22935">
        <path data-name="Rectangle 23604" style="fill:none" d="M0 0h48v48H0z"/>
        <g data-name="Group 22424">
            <path data-name="Rectangle 23605" transform="translate(4 4)" style="opacity:.2;fill:none" d="M0 0h40v40H0z"/>
            <g data-name="Group 22423" transform="translate(19819 -4944)">
                <circle data-name="Ellipse 5239" cx="10.5" cy="10.5" r="10.5" transform="translate(-19815 4948)" style="fill:#fedd31;opacity:.5"/>
                <path data-name="Path 13271" d="M20.5 25.379H3.429a3.393 3.393 0 0 1-2.424-1.014A3.506 3.506 0 0 1 0 21.919V3.461a3.5 3.5 0 0 1 1.005-2.446A3.44 3.44 0 0 1 3.429 0h6.857a3.456 3.456 0 0 1 2.742 1.383l2.057 2.769a1.148 1.148 0 0 0 .915.462h12.571a3.393 3.393 0 0 1 2.423 1.016A3.5 3.5 0 0 1 32 8.075v6.115h-1.5V8.077a2 2 0 0 0-.572-1.392 1.9 1.9 0 0 0-1.357-.57H16a2.659 2.659 0 0 1-2.115-1.067l-2.058-2.766a1.94 1.94 0 0 0-1.541-.782H3.43a1.9 1.9 0 0 0-1.359.571 1.986 1.986 0 0 0-.571 1.39v18.456a1.993 1.993 0 0 0 .571 1.392 1.9 1.9 0 0 0 1.358.57H20.5v1.5z" transform="translate(-19811 4958.311)" style="fill:#094771"/>
                <path data-name="Path 13304" d="M27 14.925H16a1.15 1.15 0 0 1-.914-.461l-2.057-2.77a3.456 3.456 0 0 0-2.742-1.383H5V4a4 4 0 0 1 4-4h10.623L27 7.377v7.546z" transform="translate(-19811 4948)" style="fill:#1272e2"/>
                <path data-name="Path 13208" d="M9 18a9 9 0 1 1 9-9 9.01 9.01 0 0 1-9 9zm-3.317-6.272a.6.6 0 0 0 0 1.2h6.632a.6.6 0 0 0 0-1.2H9.66l2.456-2.344a.6.6 0 1 0-.829-.868L9.6 10.125V5.671a.6.6 0 0 0-1.2 0v4.412l-1.5-1.5a.6.6 0 1 0-.848.851l2.3 2.29z" transform="translate(-19793 4970)" style="stroke:transparent;fill:#1272e2"/>
            </g>
        </g>
    </g>
</svg>
