<svg xmlns="http://www.w3.org/2000/svg" width="48" height="48" viewBox="0 0 48 48">
    <defs>
        <clipPath id="fhwyfk2w8a">
            <path data-name="Rectangle 22094" style="fill:#fff" d="M0 0h48v48H0z"/>
        </clipPath>
    </defs>
    <g data-name="Mask Group 5646" style="clip-path:url(#fhwyfk2w8a)">
        <g data-name="Group 20232" transform="translate(4.735 4.796)">
            <rect data-name="Rectangle 22096" width="35.66" height="28.532" rx="2.748" transform="translate(0 10.299)" style="fill:#fedd31;opacity:.5"/>
            <path data-name="Path 11809" d="M72.071 15.411v-2.173a1.574 1.574 0 0 0-1.571-1.575h-23a1.574 1.574 0 0 0-1.575 1.575v2.047l9.209 8.38 3.037-1.351 3.13.519 1.325 1.188z" transform="translate(-39.192 .536)" style="fill:#0275e9"/>
            <path data-name="Path 11810" d="M43.608 32.348 57.19 20.379a4.071 4.071 0 0 1 5.512.056l13.016 11.913" transform="translate(-40.058 3.396)" style="stroke:#094771;stroke-width:1.5px;fill:none;stroke-linecap:round;stroke-miterlimit:10"/>
            <path data-name="Path 11811" d="M42.629 16.474v19.7a2.91 2.91 0 0 0 2.909 2.909h29.445a2.91 2.91 0 0 0 2.909-2.909V16.467a2.909 2.909 0 0 0-1.186-2.344L62.05 3.344a2.907 2.907 0 0 0-3.438-.007L43.823 14.124a2.912 2.912 0 0 0-1.194 2.35z" transform="translate(-40.423 -2.778)" style="stroke:#094771;stroke-width:1.5px;fill:none;stroke-linecap:round;stroke-miterlimit:10"/>
            <path data-name="Line 498" transform="translate(3.551 13.21)" style="stroke:#094771;stroke-width:1.5px;fill:none;stroke-linecap:round;stroke-miterlimit:10" d="m0 0 11.756 10.366"/>
            <path data-name="Line 499" transform="translate(24.476 13.21)" style="stroke:#094771;stroke-width:1.5px;fill:none;stroke-linecap:round;stroke-miterlimit:10" d="M11.756 0 0 10.366"/>
            <path data-name="Line 500" transform="translate(15.033 16.866)" style="stroke:#fff;fill:none;stroke-linecap:round;stroke-miterlimit:10" d="M0 0h12.665"/>
            <path data-name="Line 501" transform="translate(15.033 19.835)" style="stroke:#fff;fill:none;stroke-linecap:round;stroke-miterlimit:10" d="M0 0h5.163"/>
        </g>
    </g>
</svg>
