<svg xmlns="http://www.w3.org/2000/svg" width="96" height="96" viewBox="0 0 96 96">
    <g data-name="Group 22401">
        <path data-name="Rectangle 23623" style="fill:none" d="M0 0h96v96H0z"/>
        <g data-name="Group 22400">
            <path data-name="Rectangle 23624" style="opacity:.2;fill:none" d="M0 0h80v80H0z" transform="translate(8 8)"/>
            <g data-name="Group 22399">
                <g data-name="Rectangle 23626" transform="translate(13.498 42)" style="stroke:#094771;stroke-width:1.5px;fill:none">
                    <rect width="68" height="46" rx="4" style="stroke:none"/>
                    <rect x=".75" y=".75" width="66.5" height="44.5" rx="3.25" style="fill:none"/>
                </g>
                <g data-name="Rectangle 23628" transform="translate(13.498 42)" style="stroke:#094771;stroke-width:1.5px;fill:none">
                    <rect width="68" height="26" rx="4" style="stroke:none"/>
                    <rect x=".75" y=".75" width="66.5" height="24.5" rx="3.25" style="fill:none"/>
                </g>
                <path data-name="Path 13266" d="M36 50H0V8a8.008 8.008 0 0 1 8-8h20a8.008 8.008 0 0 1 8 8v42zM18 27.5a4.505 4.505 0 0 1 4.5 4.5 1.5 1.5 0 0 0 3 0 7.5 7.5 0 0 0-15 0 1.5 1.5 0 0 0 3 0 4.505 4.505 0 0 1 4.5-4.5zM24 14a1.406 1.406 0 0 0-1.5 1.285v3.429a1.518 1.518 0 0 0 3 0v-3.428A1.407 1.407 0 0 0 24 14zm-12 0a1.407 1.407 0 0 0-1.5 1.285v3.429A1.407 1.407 0 0 0 12 20a1.406 1.406 0 0 0 1.5-1.285v-3.429A1.406 1.406 0 0 0 12 14z" transform="translate(29.498 10)" style="fill:#1272e2"/>
                <path data-name="Subtraction 57" d="M43 10H5A5 5 0 1 1 5 0h1v3H5a2 2 0 0 0 0 4h38a2 2 0 0 0 0-4h-1V0h1a5 5 0 1 1 0 10z" transform="translate(23.498 49.999)" style="fill:#094771"/>
            </g>
        </g>
    </g>
</svg>
