<svg xmlns="http://www.w3.org/2000/svg" width="186" height="138.437" viewBox="0 0 186 138.437">
    <defs>
        <clipPath id="9ltvrv5f1a">
            <path data-name="Rectangle 27297" style="fill:none" d="M0 0h186v138.437H0z"/>
        </clipPath>
        <clipPath id="204c7xgawb">
            <path data-name="Rectangle 27296" style="fill:none" d="M0 0h187v138.437H0z"/>
        </clipPath>
        <clipPath id="dq0yrmgo5c">
            <path data-name="Rectangle 27295" style="fill:none" d="M0 0h140v140H0z"/>
        </clipPath>
    </defs>
    <g data-name="Group 29561" style="clip-path:url(#9ltvrv5f1a)">
        <g data-name="Group 29560">
            <g data-name="Group 29559" style="clip-path:url(#204c7xgawb)" transform="translate(-1)">
                <g data-name="Group 29558" style="opacity:.1">
                    <g data-name="Group 29557">
                        <g data-name="Group 29556" style="clip-path:url(#dq0yrmgo5c)" transform="translate(35.244 32.98)">
                            <path data-name="Path 18228" d="M140 69.999a70 70 0 1 1-70-70 70 70 0 0 1 70 70"/>
                        </g>
                    </g>
                </g>
                <path data-name="Path 18229" d="M73.31 5.033c-1.026.589-1.661 1.867-1.665 3.667v70.454a12.523 12.523 0 0 0 5.682 9.82l44.811 25.842a4 4 0 0 0 4 .405l.013-.008a.03.03 0 0 1 .01 0l7.486-4.32-.007-.013c1.074-.571 1.747-1.846 1.747-3.706V36.72a12.507 12.507 0 0 0-5.68-9.813L84.9 1.065c-1.626-.934-3.08-.98-4.115-.319l-.01-.017z" transform="translate(14.935 -.017)" style="fill:#1272e2"/>
                <path data-name="Path 18230" d="M82.366 0a5.365 5.365 0 0 1 2.654.8l44.81 25.842a11.807 11.807 0 0 1 4.122 4.333 11.782 11.782 0 0 1 1.7 5.724v70.454a4.315 4.315 0 0 1-1.659 3.815l.008.016-7.756 4.476-.409.262v-.077a3.317 3.317 0 0 1-1.181.207 5.408 5.408 0 0 1-2.676-.812L77.169 89.2a12.8 12.8 0 0 1-5.824-10.065V8.681c0-1.855.646-3.244 1.807-3.91l7.7-4.442.011.018A3.249 3.249 0 0 1 82.366 0zm50.891 110.764-.011-.022.244-.129c1.03-.547 1.6-1.775 1.6-3.456V36.7a12.218 12.218 0 0 0-5.539-9.568L84.737 1.292a4.813 4.813 0 0 0-2.371-.727 2.639 2.639 0 0 0-1.445.4l-.243.155-.017-.028-7.227 4.169a3.717 3.717 0 0 0-1.523 3.421v70.454a12.236 12.236 0 0 0 5.541 9.575l44.811 25.842a4.856 4.856 0 0 0 2.393.736 2.641 2.641 0 0 0 1.324-.332l.423-.241z" transform="translate(14.952)" style="fill:#002b47"/>
                <path data-name="Path 18231" d="M72.971 5.373c1.042-.91 2.628-.981 4.43.059l44.809 25.842a12.5 12.5 0 0 1 5.677 9.817v70.451a4 4 0 0 1-1.654 3.672l7.486-4.32-.007-.012c1.074-.572 1.747-1.847 1.747-3.707V36.72a12.51 12.51 0 0 0-5.68-9.813L84.971 1.066C83.35.132 81.9.085 80.86.746l-.01-.017-7.465 4.3a2.771 2.771 0 0 0-.414.339" transform="translate(14.859 -.017)" style="fill:#fedd31"/>
                <path data-name="Path 18232" d="M82.446 0A5.367 5.367 0 0 1 85.1.8l44.81 25.841a11.813 11.813 0 0 1 4.122 4.334 11.781 11.781 0 0 1 1.7 5.724v70.454a4.322 4.322 0 0 1-1.652 3.811l.008.015-7.723 4.457-.284-.489a3.731 3.731 0 0 0 1.514-3.427V41.069a12.216 12.216 0 0 0-5.536-9.572L77.248 5.659a4.762 4.762 0 0 0-2.348-.723 2.582 2.582 0 0 0-1.742.625l-.008.007-.372-.426.009-.008.092-.083a2.009 2.009 0 0 1 .359-.281l7.7-4.442.011.018A3.249 3.249 0 0 1 82.446 0zm50.885 110.768-.011-.021.251-.133c1.03-.548 1.6-1.776 1.6-3.457V36.7a12.22 12.22 0 0 0-5.539-9.568L84.818 1.293a4.815 4.815 0 0 0-2.372-.728A2.64 2.64 0 0 0 81 .967l-.243.155-.017-.028-5.688 3.28a5.437 5.437 0 0 1 2.478.8l44.81 25.838a12.783 12.783 0 0 1 5.819 10.062v70.45a5.635 5.635 0 0 1-.526 2.531z" transform="translate(14.87)" style="fill:#002b47"/>
                <path data-name="Path 18233" d="m88.44 76.3-9.84-5.677a.921.921 0 0 0-1-.057.791.791 0 0 0-.09.056.548.548 0 0 0-.092.049 2.114 2.114 0 0 0-.085.052.666.666 0 0 0-.094.053l-.09.051a.55.55 0 0 0-.09.054.857.857 0 0 0-.09.053.423.423 0 0 0-.09.05.742.742 0 0 0-.09.056.442.442 0 0 0-.091.048c-.028.018-.062.035-.09.052a.64.64 0 0 0-.09.053c-.035.018-.062.033-.092.052s-.059.034-.09.053-.059.033-.091.052a.847.847 0 0 0-.085.051.554.554 0 0 0-.094.054l-.09.051a.411.411 0 0 0-.09.051l-.041.025a.888.888 0 0 0-.5.915v11.329a3 3 0 0 0 1.366 2.358l9.838 5.674a.887.887 0 0 0 1.053.019c.011-.007.023-.011.034-.019.032-.017.062-.034.088-.051a.541.541 0 0 0 .093-.052.344.344 0 0 0 .083-.055.952.952 0 0 0 .1-.051.739.739 0 0 0 .09-.047 1.054 1.054 0 0 0 .09-.056.6.6 0 0 0 .09-.051.446.446 0 0 0 .091-.052.83.83 0 0 0 .088-.051c.029-.017.059-.034.091-.055s.059-.03.09-.047.06-.035.09-.056a.367.367 0 0 0 .09-.051.634.634 0 0 0 .09-.052.651.651 0 0 0 .092-.056.385.385 0 0 0 .09-.051.465.465 0 0 0 .091-.051.958.958 0 0 0 .088-.052.382.382 0 0 0 .091-.051.911.911 0 0 0 .455-.891V78.645A3 3 0 0 0 88.44 76.3m0-37.665-9.84-5.68a.905.905 0 0 0-1-.049.277.277 0 0 0-.091.049.441.441 0 0 0-.092.052.4.4 0 0 0-.088.053.277.277 0 0 0-.091.051.426.426 0 0 0-.09.054.486.486 0 0 0-.093.048.83.83 0 0 0-.086.052.514.514 0 0 0-.091.056.273.273 0 0 0-.09.051.507.507 0 0 0-.091.051.644.644 0 0 0-.088.054.438.438 0 0 0-.092.051.443.443 0 0 0-.09.056.427.427 0 0 0-.091.049.308.308 0 0 0-.088.052.365.365 0 0 0-.09.054.294.294 0 0 0-.091.05.452.452 0 0 0-.09.054.289.289 0 0 0-.088.054c-.009 0-.017.01-.026.014a.869.869 0 0 0-.52.917v11.339a3.013 3.013 0 0 0 1.364 2.358l9.836 5.672a.888.888 0 0 0 1.048.023.341.341 0 0 0 .041-.023.679.679 0 0 0 .09-.049c.03-.017.06-.034.09-.054a.5.5 0 0 0 .09-.053.723.723 0 0 0 .09-.052.624.624 0 0 0 .092-.051.384.384 0 0 0 .087-.054.58.58 0 0 0 .092-.051.9.9 0 0 0 .093-.051c.03-.018.058-.032.086-.052a.837.837 0 0 0 .09-.053.357.357 0 0 0 .091-.055.64.64 0 0 0 .091-.048c.032-.017.058-.034.09-.053a.5.5 0 0 0 .088-.054.881.881 0 0 0 .092-.051.532.532 0 0 0 .09-.053c.031-.016.061-.031.091-.048l.09-.053a.48.48 0 0 0 .088-.056.9.9 0 0 0 .457-.888V40.989a3 3 0 0 0-1.358-2.358m32.7 37.686-9.842-5.672a.921.921 0 0 0-1.006-.056.9.9 0 0 0-.09.054.563.563 0 0 0-.087.051.534.534 0 0 0-.091.049c-.034.02-.06.034-.091.056a.871.871 0 0 0-.089.049.816.816 0 0 0-.091.057.483.483 0 0 0-.09.049.621.621 0 0 0-.092.054.483.483 0 0 0-.089.051.446.446 0 0 0-.089.054.407.407 0 0 0-.091.046 1.066 1.066 0 0 0-.093.056c-.031.015-.059.033-.091.051a.6.6 0 0 0-.089.054.691.691 0 0 0-.088.052.4.4 0 0 0-.091.054.5.5 0 0 0-.091.05.865.865 0 0 0-.089.052.976.976 0 0 0-.091.051c-.017.009-.033.02-.049.03a.891.891 0 0 0-.494.91v11.333a3 3 0 0 0 1.365 2.354l9.838 5.674a.886.886 0 0 0 1.041.029.266.266 0 0 0 .045-.025.416.416 0 0 0 .089-.05.4.4 0 0 0 .091-.057.415.415 0 0 0 .091-.051.311.311 0 0 0 .09-.051.339.339 0 0 0 .088-.051.32.32 0 0 0 .091-.052.336.336 0 0 0 .091-.055.528.528 0 0 0 .089-.047.26.26 0 0 0 .091-.056.4.4 0 0 0 .091-.051.435.435 0 0 0 .091-.051.488.488 0 0 0 .09-.057.353.353 0 0 0 .09-.051.384.384 0 0 0 .089-.051.236.236 0 0 0 .092-.056 1.745 1.745 0 0 0 .177-.1.384.384 0 0 0 .09-.056.324.324 0 0 0 .092-.051.9.9 0 0 0 .452-.891V78.666a3 3 0 0 0-1.361-2.354m0 18.838-9.831-5.672a.9.9 0 0 0-1-.056l-.091.051-.091.052c-.029.017-.059.038-.088.051a.676.676 0 0 0-.091.056c-.033.017-.059.03-.092.051s-.057.035-.09.052a.8.8 0 0 0-.087.051c-.035.017-.059.034-.09.052a.436.436 0 0 0-.091.055.662.662 0 0 0-.091.052.615.615 0 0 0-.091.051c-.03.017-.058.034-.091.051l-.091.051c-.029.018-.057.035-.087.057a.282.282 0 0 0-.09.05l-.09.048-.092.055c-.032.017-.059.035-.091.052l-.088.051-.039.024a.888.888 0 0 0-.506.919v11.335a3.009 3.009 0 0 0 1.364 2.357l9.832 5.667a.892.892 0 0 0 1.049.028l.042-.024.089-.051c.032-.017.06-.035.091-.052l.086-.051a.671.671 0 0 0 .094-.056.948.948 0 0 1 .092-.047c.026-.017.058-.039.087-.056l.091-.051.088-.052.091-.055a.608.608 0 0 0 .091-.052c.029-.016.061-.034.089-.046s.062-.039.091-.056.063-.034.091-.051l.088-.052a.787.787 0 0 0 .093-.056l.086-.051c.034-.017.063-.034.093-.051a.788.788 0 0 0 .091-.052c.03-.017.06-.033.089-.051a.91.91 0 0 0 .455-.887V97.497a2.981 2.981 0 0 0-1.359-2.344M104.79 66.891l-9.838-5.674a.911.911 0 0 0-1-.051.413.413 0 0 0-.091.051.4.4 0 0 0-.09.051.839.839 0 0 0-.092.052c-.027.017-.061.032-.089.053a.416.416 0 0 0-.091.054.481.481 0 0 0-.088.047.872.872 0 0 0-.091.056.387.387 0 0 0-.089.049.709.709 0 0 0-.091.057.251.251 0 0 0-.09.049.5.5 0 0 0-.091.054.338.338 0 0 0-.09.051.29.29 0 0 0-.088.053.461.461 0 0 0-.091.047c-.034.017-.062.037-.092.055A.562.562 0 0 0 92.5 62a.726.726 0 0 0-.09.054.378.378 0 0 0-.088.051.367.367 0 0 0-.091.053l-.042.024a.88.88 0 0 0-.5.915v11.331a3.009 3.009 0 0 0 1.366 2.358l9.834 5.669a.892.892 0 0 0 1.051.028c.013-.008.027-.013.04-.022a.653.653 0 0 0 .092-.054.431.431 0 0 0 .085-.051.33.33 0 0 0 .091-.052.622.622 0 0 0 .09-.053.485.485 0 0 0 .091-.049.41.41 0 0 0 .091-.054c.033-.017.062-.034.091-.051s.062-.034.091-.053.059-.033.09-.052a.349.349 0 0 0 .09-.056.407.407 0 0 0 .09-.048.442.442 0 0 0 .091-.057.583.583 0 0 0 .09-.048.258.258 0 0 0 .088-.052c.035-.02.064-.034.091-.053a.309.309 0 0 0 .091-.052.537.537 0 0 0 .089-.053.581.581 0 0 0 .092-.051.924.924 0 0 0 .09-.052.9.9 0 0 0 .451-.891V69.243a3.02 3.02 0 0 0-1.359-2.35m0-18.833-9.832-5.672a.91.91 0 0 0-1.007-.057.538.538 0 0 0-.09.049c-.032.02-.062.037-.09.056a.321.321 0 0 0-.09.051.487.487 0 0 0-.091.054.341.341 0 0 0-.091.051.379.379 0 0 0-.09.053.431.431 0 0 0-.091.05c-.032.015-.058.034-.09.053a.652.652 0 0 0-.092.052.562.562 0 0 0-.085.054.393.393 0 0 0-.091.05.4.4 0 0 0-.09.05.6.6 0 0 0-.092.056.354.354 0 0 0-.09.051.657.657 0 0 0-.09.051.426.426 0 0 0-.09.054.559.559 0 0 0-.091.053.513.513 0 0 0-.088.047 1.057 1.057 0 0 0-.091.056.345.345 0 0 0-.037.022.882.882 0 0 0-.506.921v11.333a3.026 3.026 0 0 0 1.368 2.361l9.832 5.668a.889.889 0 0 0 1.047.028l.043-.024a.75.75 0 0 0 .09-.054.5.5 0 0 0 .09-.051l.088-.051a.805.805 0 0 0 .093-.054c.031-.017.06-.03.092-.049l.087-.053a.917.917 0 0 0 .091-.054c.034-.017.062-.034.09-.051a.5.5 0 0 0 .091-.054.426.426 0 0 0 .088-.051c.032-.017.064-.037.091-.05a.9.9 0 0 0 .09-.055c.035-.019.062-.03.091-.049s.06-.037.088-.054.062-.034.094-.053l.085-.051a1.023 1.023 0 0 0 .094-.054.457.457 0 0 0 .088-.052c.034-.017.064-.034.091-.051a.922.922 0 0 0 .455-.893V50.408a3.012 3.012 0 0 0-1.36-2.347m0 37.666-9.837-5.677a.914.914 0 0 0-1-.054.332.332 0 0 0-.09.05.743.743 0 0 0-.09.056.394.394 0 0 0-.09.049c-.03.017-.064.034-.091.051a.916.916 0 0 0-.091.053c-.034.018-.061.032-.091.052a.792.792 0 0 0-.088.051c-.034.017-.061.035-.093.053s-.06.035-.086.052a.518.518 0 0 0-.093.054c-.03.014-.058.034-.088.051a.382.382 0 0 0-.091.051c-.03.019-.062.034-.091.056a.481.481 0 0 0-.091.049l-.088.052c-.032.018-.061.033-.091.053s-.061.034-.09.051a.564.564 0 0 0-.09.054.418.418 0 0 0-.088.054.2.2 0 0 0-.04.012.876.876 0 0 0-.508.911v11.341a2.991 2.991 0 0 0 1.362 2.355l9.836 5.675a.89.89 0 0 0 1.052.022.164.164 0 0 0 .037-.022.454.454 0 0 0 .09-.051.4.4 0 0 0 .09-.046c.035-.018.062-.039.09-.056a.332.332 0 0 0 .091-.051c.035-.018.062-.035.092-.051a.432.432 0 0 0 .09-.057.661.661 0 0 0 .088-.05.416.416 0 0 0 .091-.052.631.631 0 0 0 .09-.051.764.764 0 0 0 .09-.052.6.6 0 0 0 .09-.055.423.423 0 0 0 .091-.052.469.469 0 0 0 .092-.051.42.42 0 0 0 .088-.052.52.52 0 0 0 .091-.051.721.721 0 0 0 .088-.056.325.325 0 0 0 .093-.051.79.79 0 0 0 .086-.051.413.413 0 0 0 .091-.051.912.912 0 0 0 .453-.9v-11.33a2.986 2.986 0 0 0-1.358-2.353m4.62-18.347 9.834 5.672a.888.888 0 0 0 1.049.024l.04-.022c.034-.017.061-.037.093-.054s.058-.032.086-.051.063-.034.091-.051a.751.751 0 0 0 .09-.054c.033-.017.059-.032.092-.052l.084-.051a.887.887 0 0 0 .094-.053c.03-.017.059-.034.092-.049s.059-.037.087-.057a.5.5 0 0 0 .091-.051c.034-.017.061-.034.089-.051a.848.848 0 0 0 .092-.053c.032-.018.06-.032.09-.052s.062-.036.089-.049.062-.036.091-.055l.091-.051c.033-.017.059-.035.09-.054a.809.809 0 0 0 .091-.052l.086-.051a.906.906 0 0 0 .455-.891V59.823a3.008 3.008 0 0 0-1.362-2.356l-9.831-5.655a.905.905 0 0 0-1-.054.409.409 0 0 0-.093.052.758.758 0 0 0-.09.051c-.033.015-.059.032-.092.051a.517.517 0 0 0-.089.054c-.031.015-.062.034-.091.051a.579.579 0 0 0-.09.052l-.089.053c-.03.019-.059.032-.091.051a.642.642 0 0 0-.089.056.491.491 0 0 0-.091.049.929.929 0 0 0-.091.051.521.521 0 0 0-.091.054.9.9 0 0 0-.091.052.631.631 0 0 0-.087.048c-.035.02-.059.033-.094.057s-.058.031-.087.048a.52.52 0 0 0-.092.057.537.537 0 0 0-.087.051.52.52 0 0 0-.091.051.356.356 0 0 0-.048.028.888.888 0 0 0-.5.912v11.336a2.993 2.993 0 0 0 1.364 2.356m-32.7-.024 9.84 5.674a.891.891 0 0 0 1.043.025c.014-.008.03-.016.041-.024.032-.017.059-.034.092-.053l.089-.049a.665.665 0 0 0 .09-.058.4.4 0 0 0 .105-.05.384.384 0 0 0 .091-.056.558.558 0 0 0 .088-.046.677.677 0 0 0 .09-.053c.034-.021.064-.035.09-.054a.433.433 0 0 0 .091-.052.562.562 0 0 0 .09-.051c.032-.017.062-.035.091-.052s.06-.034.09-.053a.756.756 0 0 0 .09-.051.506.506 0 0 0 .088-.054.449.449 0 0 0 .092-.049c.032-.019.061-.036.091-.057a.593.593 0 0 0 .09-.049.428.428 0 0 0 .09-.051c.032-.017.062-.037.09-.051a.9.9 0 0 0 .453-.892V59.815a2.992 2.992 0 0 0-1.358-2.354L78.6 51.8a.911.911 0 0 0-1-.06.528.528 0 0 0-.091.054 1.33 1.33 0 0 0-.177.1.441.441 0 0 0-.091.047.546.546 0 0 0-.091.059.373.373 0 0 0-.088.051 2.072 2.072 0 0 1-.181.1.514.514 0 0 0-.091.054.271.271 0 0 0-.09.049.445.445 0 0 0-.09.053.47.47 0 0 0-.09.054.341.341 0 0 0-.091.051.361.361 0 0 0-.089.051.685.685 0 0 0-.09.05.441.441 0 0 0-.09.057.447.447 0 0 0-.092.046.343.343 0 0 0-.09.056.362.362 0 0 0-.09.051.378.378 0 0 0-.042.025.888.888 0 0 0-.5.913V65a3 3 0 0 0 1.366 2.356" transform="translate(14.725 -1.895)" style="fill:#fff"/>
                <path data-name="Path 18234" d="M119.822 111.16a1.489 1.489 0 0 1-.742-.222l-9.831-5.667a3.292 3.292 0 0 1-1.505-2.6V91.335a1.166 1.166 0 0 1 .661-1.172l.026-.015.092-.053.038-.022.05-.028.045-.027.042-.025.062-.034.021-.011a.578.578 0 0 1 .11-.064l.07-.044.016-.009.042-.024.046-.026h.006l.048-.027.028-.016.014-.008a.815.815 0 0 1 .084-.047.867.867 0 0 1 .076-.043.728.728 0 0 1 .108-.063l.011-.007c.02-.012.044-.027.074-.043h.006a.857.857 0 0 1 .095-.054l.025-.015.048-.028a1.45 1.45 0 0 1 .088-.049.92.92 0 0 1 .111-.066h.007l.013-.009.057-.034.011-.006.079-.044.082-.046a1 1 0 0 1 .56-.166 1.445 1.445 0 0 1 .729.219l9.836 5.676a3.242 3.242 0 0 1 1.5 2.59v11.343a1.186 1.186 0 0 1-.6 1.134l-.061.028-.021.012-.02.012a.651.651 0 0 1-.085.047l-.081.044-.028.017-.041.024a1.074 1.074 0 0 1-.113.067l-.035.021-.044.026-.049.027a.589.589 0 0 0-.033.018l-.023.014-.064.04-.019.012-.021.009a1.075 1.075 0 0 0-.056.029.864.864 0 0 1-.1.059l-.016.01c-.019.012-.042.027-.071.042l-.089.052-.092.051-.043.027-.05.032-.022.009a.44.44 0 0 0-.052.027.947.947 0 0 1-.109.064l-.086.051-.034.019-.061.034-.033.019-.053.03-.02.011a.976.976 0 0 1-.614.204zM109.109 90.4l-.013.009-.029.019-.05.026-.036.019-.1.06-.035.02-.057.032-.075.043-.012.007-.008.005-.039.024-.027.01c-.279.1-.32.453-.32.653v11.335a2.715 2.715 0 0 0 1.223 2.113l9.831 5.667a.952.952 0 0 0 .459.146.41.41 0 0 0 .268-.091l.02-.017.065-.036.038-.022.053-.03.043-.024.043-.025.1-.058a.394.394 0 0 0 .056-.032l.026-.017c.03-.017.061-.034.095-.05h.006c.024-.016.05-.033.075-.047l.01-.005.082-.046.078-.046.025-.014.034-.02.042-.026.018-.01a.336.336 0 0 0 .053-.03l.034-.021c.024-.013.051-.028.078-.041l.067-.041.012-.007c.028-.018.053-.031.072-.041l.022-.012.035-.021.055-.032.012-.006a.507.507 0 0 0 .061-.037l.009-.006.058-.034.051-.029.066-.036.047-.024.014-.009.05-.03.02-.011.052-.03.029-.016a.667.667 0 0 0 .294-.633V97.483a2.707 2.707 0 0 0-1.217-2.1l-9.839-5.677a.65.65 0 0 0-.7-.068l-.025.016-.08.045-.014.008-.064.036-.03.017-.022.014a.68.68 0 0 1-.07.04.4.4 0 0 0-.052.032l-.016.012-.026.014a.865.865 0 0 0-.063.034l-.018.011-.027.016a.816.816 0 0 1-.066.037l-.013.006-.033.02-.047.027a.451.451 0 0 0-.04.023l-.029.018-.024.013a.212.212 0 0 0-.033.018l-.023.019-.038.019a.358.358 0 0 0-.043.024l-.03.021-.034.013-.023.015-.024.015-.033.019-.07.039-.035.019-.049.027a.74.74 0 0 0-.062.041l-.042.03zm-5.635 11.329a1.488 1.488 0 0 1-.738-.219L92.9 95.838a3.278 3.278 0 0 1-1.5-2.6V81.896a1.166 1.166 0 0 1 .669-1.167l.014-.008a.707.707 0 0 1 .085-.051.859.859 0 0 1 .1-.057l.044-.025.033-.018c.039-.026.076-.045.108-.062l.042-.025.036-.021h.006a.81.81 0 0 1 .095-.053.996.996 0 0 1 .055-.033l.016-.009a.671.671 0 0 1 .122-.069l.011-.007a.816.816 0 0 1 .055-.032.754.754 0 0 1 .1-.058l.06-.036.028-.016.028-.016.065-.037.011-.007a.83.83 0 0 1 .078-.045c.03-.019.058-.034.085-.048s.062-.038.1-.056l.062-.035.018-.01a.681.681 0 0 1 .1-.059.917.917 0 0 1 .075-.046.621.621 0 0 1 .107-.061 1 1 0 0 1 .546-.157 1.48 1.48 0 0 1 .732.216l9.836 5.674a3.252 3.252 0 0 1 1.5 2.6V99.39a1.2 1.2 0 0 1-.593 1.141.7.7 0 0 1-.1.057l-.068.041a.579.579 0 0 1-.107.059.94.94 0 0 1-.081.05.842.842 0 0 1-.094.054.707.707 0 0 1-.091.053.747.747 0 0 1-.092.052.713.713 0 0 1-.089.05.912.912 0 0 1-.107.053l-.014.009a.743.743 0 0 1-.075.044.887.887 0 0 1-.084.047.7.7 0 0 1-.1.057c-.028.018-.053.031-.074.042a.647.647 0 0 1-.116.07l-.023.013-.042.024a.612.612 0 0 1-.112.063c-.02.013-.046.031-.078.048a8.241 8.241 0 0 0-.172.094l-.031.018a.978.978 0 0 1-.605.204zm-11.147-20.5-.01.005-.019.01-.02.007c-.279.1-.32.447-.32.645v11.341a2.7 2.7 0 0 0 1.22 2.11l9.836 5.675a.949.949 0 0 0 .455.144.411.411 0 0 0 .273-.093l.025-.019.014-.009.008-.008.06-.029.029-.015.039-.031.045-.014.022-.013.028-.016c.009 0 .021-.013.035-.022l.034-.022.025-.016.028-.01.013-.007.021-.017.024-.012.044-.024.045-.025.021-.01.028-.02.023-.017.043-.022.029-.016.03-.022.035-.014a.21.21 0 0 0 .03-.019l.019-.014.021-.01a.36.36 0 0 0 .053-.03l.025-.017.025-.01.019-.012.039-.024.013-.007a.332.332 0 0 0 .048-.028l.029-.022.034-.014a.139.139 0 0 0 .031-.017l.029-.022.034-.014a.188.188 0 0 0 .037-.021l.022-.015.025-.011a.139.139 0 0 0 .029-.017l.031-.024.036-.014a.386.386 0 0 0 .043-.026l.021-.013a.445.445 0 0 0 .055-.035l.028-.02.032-.013.023-.01.027-.022.028-.012c.008 0 .03-.018.043-.026l.034-.022.027-.01a.14.14 0 0 0 .03-.018l.021-.015.023-.011a.653.653 0 0 0 .29-.64v-11.33a2.717 2.717 0 0 0-1.217-2.108l-9.836-5.674a.94.94 0 0 0-.45-.141.429.429 0 0 0-.25.074l-.032.022-.036.013-.01.007-.022.017-.025.013a.39.39 0 0 0-.044.028l-.04.027-.03.012a.111.111 0 0 0-.025.014l-.027.017-.038.021-.043.024-.02.011a.637.637 0 0 0-.063.037l-.031.018a.726.726 0 0 0-.062.035l-.02.013-.021.009-.026.016-.03.019-.019.01-.042.024-.037.021-.021.012-.049.03-.044.024a.22.22 0 0 0-.034.019l-.024.018-.028.013-.025.015-.044.026-.018.01-.019.007a.1.1 0 0 0-.024.014L93 80.84l-.043.025-.026.015-.036.027-.042.015-.027.017-.017.01-.031.018-.061.033h-.006a.774.774 0 0 0-.069.039h-.006l-.061.035-.032.018-.023.013-.036.02-.023.018-.026.013-.032.017-.044.037zm27.5 11.1a1.472 1.472 0 0 1-.738-.222l-9.837-5.673a3.272 3.272 0 0 1-1.506-2.6V72.5a1.171 1.171 0 0 1 .647-1.162l.037-.022c.026-.016.057-.035.094-.053s.054-.033.084-.049a.778.778 0 0 1 .094-.053.659.659 0 0 1 .1-.057.819.819 0 0 1 .077-.045.889.889 0 0 1 .1-.061l.022-.012.058-.033c.028-.018.052-.032.072-.043l.019-.011a.727.727 0 0 1 .1-.054.713.713 0 0 1 .08-.047.741.741 0 0 1 .092-.053.889.889 0 0 1 .094-.054.771.771 0 0 1 .088-.049c.026-.018.049-.031.068-.043l.04-.024c.02-.012.044-.026.073-.041s.048-.029.07-.042l.013-.008a.826.826 0 0 1 .1-.055.852.852 0 0 1 .082-.047.887.887 0 0 1 .081-.048h.005a.994.994 0 0 1 .56-.165 1.489 1.489 0 0 1 .734.216l9.837 5.673a3.269 3.269 0 0 1 1.5 2.6v11.333a1.187 1.187 0 0 1-.59 1.135.6.6 0 0 1-.1.055.646.646 0 0 1-.079.048.6.6 0 0 1-.1.061.621.621 0 0 1-.08.044.5.5 0 0 1-.1.059.665.665 0 0 1-.083.047.628.628 0 0 1-.085.049.705.705 0 0 1-.078.048h-.008a.732.732 0 0 1-.1.059.67.67 0 0 1-.077.045.541.541 0 0 1-.115.066.917.917 0 0 1-.067.037.59.59 0 0 1-.105.056.6.6 0 0 1-.1.058.622.622 0 0 1-.085.049.588.588 0 0 1-.1.055.7.7 0 0 1-.077.044.663.663 0 0 1-.094.056.7.7 0 0 1-.1.056l-.03.017a.975.975 0 0 1-.592.193zM109.03 71.617l-.026.018-.026.019-.029.013a.217.217 0 0 0-.042.023l-.031.018a.585.585 0 0 0-.06.035l-.018.012-.02.009a.74.74 0 0 0-.065.037l-.009.005-.033.02-.025.016-.027.011c-.27.1-.312.45-.313.647v11.334a2.738 2.738 0 0 0 1.222 2.108l9.84 5.675a.634.634 0 0 0 .72.056l.019-.016.022-.012.019-.01.017-.015.044-.017a.155.155 0 0 0 .029-.017l.015-.011.036-.019.018-.009.035-.031.048-.019a.15.15 0 0 0 .029-.017l.032-.023.037-.013.01-.007.034-.027.041-.016a.068.068 0 0 0 .014-.009l.035-.028.042-.015a.039.039 0 0 0 .013-.008l.023-.018.045-.022.012-.006.032-.031.055-.021.028-.016.036-.022.024-.009.038-.036.053-.02.027-.018.028-.019.032-.012a.183.183 0 0 0 .034-.02l.019-.012.028-.015.019-.011.038-.033.045-.016a.073.073 0 0 0 .018-.011l.032-.024.037-.015a.117.117 0 0 0 .024-.015l.033-.024.038-.014.042-.04.062-.019.012-.007.027-.019.031-.012h.009l.026-.022.031-.015.03-.016.043-.037.054-.018.015-.011.022-.016.025-.012a.641.641 0 0 0 .289-.634V78.662a2.735 2.735 0 0 0-1.219-2.109l-9.835-5.672a.949.949 0 0 0-.452-.141.437.437 0 0 0-.252.074l-.039.023a.486.486 0 0 0-.045.027l-.018.013-.02.01a.4.4 0 0 0-.044.024l-.028.021-.032.014a.252.252 0 0 0-.043.024l-.037.022-.05.03-.022.015-.025.011a.373.373 0 0 0-.037.021l-.046.027a.35.35 0 0 0-.037.023l-.031.024-.036.015a.2.2 0 0 0-.037.02l-.019.013-.021.01a.334.334 0 0 0-.051.03l-.018.013-.02.01-.039.02-.026.021-.029.013a.165.165 0 0 0-.034.021l-.037.028-.044.015a.183.183 0 0 0-.029.017l-.01.006-.035.02a.362.362 0 0 0-.036.022l-.02.014-.022.01-.042.023-.035.02-.011.006a.315.315 0 0 0-.048.029l-.02.014-.022.011a.406.406 0 0 0-.052.031l-.029.02-.033.012zM87.126 92.3a1.475 1.475 0 0 1-.736-.219l-9.838-5.674a3.273 3.273 0 0 1-1.507-2.6V72.476a1.164 1.164 0 0 1 .661-1.17.7.7 0 0 1 .127-.073l.024-.014.039-.022a.783.783 0 0 1 .1-.059c.027-.018.055-.034.087-.052l.017-.01c.022-.013.047-.028.077-.043s.053-.033.086-.05.054-.032.086-.048a.919.919 0 0 1 .1-.056l.044-.025.034-.02.014-.009a.722.722 0 0 1 .1-.052.865.865 0 0 1 .08-.049.716.716 0 0 1 .1-.056c.025-.016.047-.028.067-.039a.791.791 0 0 1 .1-.059l.012-.011.033-.019.041-.024a.865.865 0 0 1 .1-.057l.084-.051.014-.008a.8.8 0 0 1 .085-.046c.027-.018.052-.033.079-.048a1.006 1.006 0 0 1 .556-.162 1.481 1.481 0 0 1 .734.217l9.837 5.672a3.28 3.28 0 0 1 1.5 2.6v11.334a1.2 1.2 0 0 1-.593 1.135.669.669 0 0 1-.106.059c-.02.012-.043.027-.069.041a.741.741 0 0 1-.095.053.667.667 0 0 1-.092.053.925.925 0 0 1-.081.048.7.7 0 0 1-.081.047h-.007a.653.653 0 0 1-.1.06l-.066.04-.031.018a1.524 1.524 0 0 1-.083.044l-.071.042h-.008c-.029.019-.06.037-.09.053a.732.732 0 0 1-.1.056.767.767 0 0 1-.079.044c-.031.021-.061.038-.085.052l-.029.016c-.022.013-.048.027-.078.041s-.048.03-.076.045a.632.632 0 0 1-.1.061.8.8 0 0 1-.094.052 1.567 1.567 0 0 1-.081.046l-.018.01a.981.981 0 0 1-.624.217zM77.053 71.18l-.026.016-.036.021a.394.394 0 0 0-.045.028l-.044.03-.036.012-.022.014-.013.008-.058.034-.03.017-.028.016-.04.022-.02.015-.022.011c-.03.016-.051.027-.072.04l-.018.01c-.023.012-.043.025-.072.043l-.029.016a.344.344 0 0 0-.042.024l-.037.022a.566.566 0 0 0-.057.034l-.018.012-.019.009a.313.313 0 0 0-.051.027l-.017.012-.018.01-.033.019-.056.032-.026.012a.128.128 0 0 0-.028.016l-.012.008-.044.027-.031.019-.025.009c-.2.074-.317.311-.318.65v11.334a2.7 2.7 0 0 0 1.224 2.113l9.839 5.678a.937.937 0 0 0 .452.143.415.415 0 0 0 .276-.1l.019-.016.021-.012.026-.014.018-.01a.986.986 0 0 0 .063-.036l.023-.015.026-.011a.288.288 0 0 0 .044-.026l.024-.016.027-.011.014-.008.024-.02.028-.014a.713.713 0 0 0 .067-.04l.024-.015.026-.01.032-.018.028-.016c.022-.013.041-.024.057-.035l.016-.011.017-.009.029-.015.023-.012.03-.023.033-.013a.164.164 0 0 0 .034-.02l.018-.013.02-.01a.547.547 0 0 0 .057-.033l.03-.018c.021-.012.042-.024.064-.039l.019-.012.021-.009c.014-.006.033-.017.054-.029l.022-.013a.645.645 0 0 0 .053-.033l.029-.021.033-.013a.087.087 0 0 0 .02-.012l.016-.012.017-.01.037-.02.018-.009.02-.016.026-.013a.371.371 0 0 0 .054-.032l.03-.021.034-.013a.127.127 0 0 0 .023-.015l.027-.019.03-.013a.183.183 0 0 0 .037-.02l.023-.017.026-.012.025-.016.033-.02.021-.013.023-.009a.1.1 0 0 0 .024-.014l.023-.017.026-.012a.652.652 0 0 0 .292-.637V78.629a2.7 2.7 0 0 0-1.22-2.107l-9.835-5.671a.941.941 0 0 0-.452-.142.435.435 0 0 0-.25.073l-.027.016a.511.511 0 0 0-.058.036l-.032.023-.037.013-.023.014-.02.012c-.025.015-.05.029-.071.043l-.042.024a.351.351 0 0 0-.046.025l-.031.019-.033.019-.056.032-.013.007a.26.26 0 0 0-.035.02l-.018.015-.045.025-.034.02-.034.025zm26.423 11.72a1.487 1.487 0 0 1-.743-.223l-9.833-5.67a3.288 3.288 0 0 1-1.507-2.6V63.075a1.156 1.156 0 0 1 .662-1.171l.012-.007a.626.626 0 0 1 .1-.059.664.664 0 0 1 .089-.051c.028-.019.054-.033.074-.044l.011-.006a.846.846 0 0 1 .105-.06l.01-.006c.02-.013.045-.028.074-.044a.774.774 0 0 1 .086-.047.583.583 0 0 1 .09-.053.621.621 0 0 1 .093-.053.727.727 0 0 1 .079-.046.53.53 0 0 1 .107-.06c.026-.017.05-.032.073-.045a.67.67 0 0 1 .107-.061c.024-.016.051-.033.084-.051a.778.778 0 0 1 .087-.049.691.691 0 0 1 .091-.053.782.782 0 0 1 .062-.036l.019-.011c.028-.017.059-.036.1-.055a.683.683 0 0 1 .1-.055.693.693 0 0 1 .092-.052.994.994 0 0 1 .549-.16 1.483 1.483 0 0 1 .729.214l9.84 5.675a3.292 3.292 0 0 1 1.5 2.595V80.56a1.188 1.188 0 0 1-.595 1.138c-.032.02-.061.037-.091.052l-.01.006a.771.771 0 0 1-.08.045.8.8 0 0 1-.077.045.583.583 0 0 1-.112.064.743.743 0 0 1-.058.033h-.006a.532.532 0 0 1-.123.072.782.782 0 0 1-.071.039.66.66 0 0 1-.094.057.706.706 0 0 1-.082.046.668.668 0 0 1-.1.059c-.029.018-.055.033-.083.048s-.059.035-.1.055-.051.03-.083.047a.631.631 0 0 1-.105.062.736.736 0 0 1-.085.047.907.907 0 0 1-.078.046.6.6 0 0 1-.1.06.7.7 0 0 1-.077.046.741.741 0 0 1-.079.045l-.013.007-.029.017a.976.976 0 0 1-.611.204zM92.342 62.389h-.006l-.027.015-.017.009-.019.007c-.274.1-.314.449-.314.649V74.4a2.711 2.711 0 0 0 1.224 2.113l9.835 5.669c.295.171.562.194.729.056l.019-.016.021-.012.028-.015.014-.008.036-.019.022-.012.03-.023.033-.013a.246.246 0 0 0 .026-.017l.036-.027.037-.012.02-.014.019-.014.021-.01a.357.357 0 0 0 .05-.029l.031-.022.035-.013a.323.323 0 0 0 .034-.02l.031-.019.022-.008.015-.01.05-.032a.814.814 0 0 0 .074-.042l.013-.007a1.08 1.08 0 0 0 .07-.04l.021-.012a.946.946 0 0 0 .072-.042l.029-.016.022-.011.037-.034.053-.02a.141.141 0 0 0 .028-.016l.022-.015.025-.011a.226.226 0 0 0 .036-.024l.032-.024.038-.014.022-.013.024-.015.027-.016.018-.006.02-.017.023-.013.033-.018.033-.019.031-.022.036-.013.01-.005.023-.019.027-.014a.35.35 0 0 0 .043-.024l.034-.027.04-.015.021-.013.027-.017.018-.01a.645.645 0 0 0 .063-.037l.031-.017a.643.643 0 0 0 .29-.634V69.222a2.757 2.757 0 0 0-1.22-2.106l-9.836-5.673a.943.943 0 0 0-.448-.139.422.422 0 0 0-.249.074l-.028.02-.032.013a.139.139 0 0 0-.03.018l-.026.019-.03.012a.118.118 0 0 0-.026.015l-.024.018-.027.013a.561.561 0 0 0-.062.035l-.048.027-.023.013-.027.02-.029.012a.133.133 0 0 0-.03.017l-.033.026-.039.015a.249.249 0 0 0-.037.021l-.026.015a.519.519 0 0 0-.051.031l-.038.025-.029.011a.11.11 0 0 0-.024.014l-.03.019a.53.53 0 0 0-.051.031l-.042.033-.045.014-.021.018-.036.018a.23.23 0 0 0-.041.023l-.033.025-.038.015a.055.055 0 0 0-.015.008l-.032.025-.038.015h-.007l-.037.034-.054.019a.243.243 0 0 0-.038.021l-.023.013-.04.023-.035.021-.018.011-.019.008a.464.464 0 0 0-.043.026l-.042.024-.032.018-.029.022-.036.016a.1.1 0 0 0-.022.013l-.029.022-.034.014a.09.09 0 0 0-.027.015l-.025.02zM119.821 73.5a1.481 1.481 0 0 1-.738-.22l-9.835-5.68a3.278 3.278 0 0 1-1.505-2.6V53.663a1.168 1.168 0 0 1 .65-1.165l.04-.023a.8.8 0 0 1 .092-.052.822.822 0 0 1 .077-.045.8.8 0 0 1 .106-.063l.076-.042c.033-.021.059-.036.085-.051h.006a.918.918 0 0 1 .1-.055 1.77 1.77 0 0 1 .08-.046.816.816 0 0 1 .1-.058c.031-.019.061-.035.089-.049a.781.781 0 0 1 .09-.05 1.011 1.011 0 0 1 .089-.054 1.19 1.19 0 0 1 .091-.051l.079-.047a.869.869 0 0 1 .107-.062c.024-.014.049-.029.076-.043a.8.8 0 0 1 .1-.061l.015-.009c.021-.013.045-.027.074-.041s.052-.032.085-.048a.683.683 0 0 1 .1-.057 1 1 0 0 1 .547-.158 1.459 1.459 0 0 1 .729.217l9.836 5.669a3.28 3.28 0 0 1 1.5 2.6v11.334a1.193 1.193 0 0 1-.6 1.139l-.011.007-.065.039a1.106 1.106 0 0 1-.1.057h-.006c-.024.015-.051.033-.085.05l-.043.024-.036.02a1.47 1.47 0 0 1-.1.06l-.014.007-.034.019-.035.02a.953.953 0 0 1-.076.044l-.013.007a1.134 1.134 0 0 1-.1.057c-.023.014-.05.031-.083.048a.779.779 0 0 1-.1.054l-.039.025-.029.019-.02.013-.022.01a.748.748 0 0 0-.061.032 1.168 1.168 0 0 1-.1.057l-.036.022-.033.02h-.007a1.546 1.546 0 0 1-.091.052 1.077 1.077 0 0 1-.1.058l-.062.035-.022.012a.884.884 0 0 1-.1.056l-.027.016a.97.97 0 0 1-.072.041h-.006a.975.975 0 0 1-.613.227zm-11.134-20.518-.008.005-.032.021-.028.011c-.273.1-.314.451-.314.648v11.336a2.7 2.7 0 0 0 1.222 2.112l9.835 5.672a.636.636 0 0 0 .725.052l.02-.016.022-.013.053-.029.031-.018.055-.032.064-.037.02-.012.035-.019.048-.027.013-.007a.526.526 0 0 0 .056-.033l.017-.013.019-.01a.837.837 0 0 0 .073-.041l.047-.029.033-.02.029-.016a.61.61 0 0 0 .065-.036l.024-.014c.024-.014.051-.029.082-.044l.026-.017.034-.022.026-.018.029-.012a.215.215 0 0 0 .04-.023l.017-.012.019-.009a.783.783 0 0 0 .066-.038l.023-.013a.574.574 0 0 0 .062-.035l.019-.012.026-.014a.88.88 0 0 0 .043-.025l.026-.016.033-.019.054-.03.068-.041.014-.009.058-.032.033-.018.014-.007c.014-.007.029-.017.047-.028l.051-.03a.548.548 0 0 0 .06-.035l.013-.008.056-.033.045-.026a.659.659 0 0 0 .3-.635V59.82a2.746 2.746 0 0 0-1.221-2.112l-9.836-5.669a.921.921 0 0 0-.446-.141.431.431 0 0 0-.251.075l-.03.021-.034.013a.281.281 0 0 0-.031.02l-.019.013-.021.01a.483.483 0 0 0-.057.033l-.017.011-.019.008-.043.023-.045.025a.236.236 0 0 0-.041.024l-.022.017-.025.012a1.175 1.175 0 0 0-.064.036l-.033.018a.3.3 0 0 0-.044.026l-.022.014c-.028.016-.051.029-.076.045l-.027.015a.66.66 0 0 0-.07.04l-.011.006a.466.466 0 0 0-.049.03l-.032.025-.038.015a.221.221 0 0 0-.039.022l-.03.018a.651.651 0 0 0-.065.036l-.03.017a.29.29 0 0 0-.042.024l-.023.017-.026.013a.62.62 0 0 0-.063.036l-.017.011-.018.008a.348.348 0 0 0-.047.026l-.032.019a.817.817 0 0 0-.061.037l-.028.017-.075.041-.019.01a.236.236 0 0 0-.044.027l-.024.019-.028.013a.253.253 0 0 0-.041.024l-.03.022-.035.013-.032.02zM87.128 73.473a1.48 1.48 0 0 1-.736-.218l-9.84-5.674a3.277 3.277 0 0 1-1.507-2.6V53.645a1.168 1.168 0 0 1 .657-1.166l.022-.013a.649.649 0 0 1 .091-.054.666.666 0 0 1 .106-.062h.008a.722.722 0 0 1 .077-.041.69.69 0 0 1 .093-.057l.011-.007a.809.809 0 0 1 .071-.041.639.639 0 0 1 .091-.052.612.612 0 0 1 .093-.052.738.738 0 0 1 .084-.05.705.705 0 0 1 .088-.052.567.567 0 0 1 .106-.059.722.722 0 0 1 .08-.046.618.618 0 0 1 .095-.053.582.582 0 0 1 .086-.052.637.637 0 0 1 .089-.052.807.807 0 0 1 .1-.057h.007a.726.726 0 0 1 .078-.042.686.686 0 0 1 .088-.054.711.711 0 0 1 .095-.052.782.782 0 0 1 .089-.052 1.009 1.009 0 0 1 .55-.165 1.46 1.46 0 0 1 .735.221l9.83 5.665a3.253 3.253 0 0 1 1.5 2.6v11.333a1.185 1.185 0 0 1-.61 1.145l-.025.015-.047.027-.009.006a.617.617 0 0 1-.1.055.84.84 0 0 1-.078.043c-.029.02-.057.036-.083.051l-.015.009a.692.692 0 0 1-.089.049.738.738 0 0 1-.082.049.926.926 0 0 1-.082.046h-.007c-.032.021-.063.038-.094.055l-.009.005-.074.042a.863.863 0 0 1-.1.056.667.667 0 0 1-.1.054l-.049.029-.018.01a.742.742 0 0 1-.089.053l-.02.011-.015.009a.706.706 0 0 1-.066.036.629.629 0 0 1-.093.055.7.7 0 0 1-.084.047.736.736 0 0 1-.062.039l-.018.011-.03.018c-.024.014-.052.031-.083.045l-.021.012-.06.034-.028.016a.978.978 0 0 1-.597.208zM76 52.959l-.024.015-.023.014-.023.012c-.2.074-.317.31-.319.649v11.33a2.742 2.742 0 0 0 1.223 2.111l9.842 5.675a.639.639 0 0 0 .722.052l.022-.018.025-.013.021-.011.022-.013.049-.028.059-.033.043-.024.014-.008.038-.023.014-.008.035-.032.052-.019a.135.135 0 0 0 .027-.016l.025-.017.028-.012a.122.122 0 0 0 .029-.02l.04-.03.036-.011.011-.006.038-.022.027-.015.025-.014.024-.017.046-.027.024-.014.033-.024.037-.013.019-.013.035-.023.022-.01a.285.285 0 0 0 .042-.025l.028-.017.067-.038.024-.014c.022-.012.044-.024.069-.04l.043-.024a.379.379 0 0 0 .037-.02l.022-.015.024-.011a.276.276 0 0 0 .039-.026l.035-.025.038-.013L88.8 72l.028-.017a.76.76 0 0 0 .065-.041l.027-.019.031-.013a.427.427 0 0 0 .049-.023l.03-.018.021-.007.011-.007.028-.018.018-.01.035-.02.057-.032.011-.005c.251-.116.289-.448.289-.636V59.8a2.718 2.718 0 0 0-1.217-2.109l-9.836-5.665A.924.924 0 0 0 78 51.88a.437.437 0 0 0-.25.073l-.021.014-.024.01a.266.266 0 0 0-.042.026l-.03.021-.034.013a.145.145 0 0 0-.026.015l-.016.011-.018.009a.135.135 0 0 0-.034.021l-.044.037-.048.015-.017.01-.023.013-.018.01a.265.265 0 0 0-.049.029l-.031.023-.036.014-.021.015-.03.022-.031.012-.022.016-.037.028-.044.015a.124.124 0 0 0-.02.013l-.034.019-.031.013-.037.024-.038.026-.035.011-.028.023-.031.019a.165.165 0 0 0-.036.022l-.025.019-.029.013a.2.2 0 0 0-.034.022l-.032.023-.037.014a.059.059 0 0 0-.018.011l-.033.025-.038.015a.094.094 0 0 0-.019.012l-.03.023-.035.014-.021.013-.031.019-.018.01a.161.161 0 0 0-.036.023l-.043.035-.048.014-.016.01-.024.014-.018.009-.022.011-.035.033-.05.019a.08.08 0 0 0-.021.013l-.027.02zm27.472 11.109a1.485 1.485 0 0 1-.741-.222L92.9 58.179a3.3 3.3 0 0 1-1.509-2.6V44.245a1.159 1.159 0 0 1 .662-1.175l.021-.012c.027-.018.057-.036.089-.054a.8.8 0 0 1 .093-.052.786.786 0 0 1 .082-.047.7.7 0 0 1 .1-.059.909.909 0 0 1 .081-.046.63.63 0 0 1 .1-.057.859.859 0 0 1 .084-.05.673.673 0 0 1 .1-.056.666.666 0 0 1 .085-.048.731.731 0 0 1 .063-.039l.012-.007a.925.925 0 0 1 .11-.063l.014-.009c.018-.011.039-.025.065-.038a.69.69 0 0 1 .093-.052.667.667 0 0 1 .089-.052.613.613 0 0 1 .094-.053.728.728 0 0 1 .083-.048.594.594 0 0 1 .107-.061l.045-.028.023-.014a.792.792 0 0 1 .1-.058 1 1 0 0 1 .55-.161 1.482 1.482 0 0 1 .738.221l9.831 5.672a3.311 3.311 0 0 1 1.5 2.591v11.34a1.21 1.21 0 0 1-.6 1.141 2.165 2.165 0 0 1-.082.046.705.705 0 0 1-.1.058 1.51 1.51 0 0 1-.089.05l-.083.05-.013.008c-.024.014-.052.031-.084.047l-.009.006-.071.043a.759.759 0 0 1-.075.041l-.015.007c-.035.024-.07.043-.1.059l-.015.008-.035.019-.032.018a.721.721 0 0 1-.094.056.791.791 0 0 1-.1.054c-.025.015-.053.032-.085.048s-.061.038-.092.054l-.047.028-.032.02h-.006l-.071.038-.02.01a1.086 1.086 0 0 1-.1.059l-.075.044a.8.8 0 0 1-.1.057 1.202 1.202 0 0 1-.092.054l-.024.014a.974.974 0 0 1-.59.201zM92.345 43.551l-.04.025-.028.01c-.2.072-.318.31-.317.654v11.333a2.768 2.768 0 0 0 1.227 2.117l9.832 5.668c.293.17.559.193.725.056l.025-.021.029-.015.03-.016h.008a.528.528 0 0 0 .056-.033l.027-.02.031-.013a.323.323 0 0 0 .039-.024l.02-.012.081-.047.019-.01a.525.525 0 0 0 .061-.035l.023-.014.044-.023.039-.02.037-.022.043-.026.024-.014a.63.63 0 0 0 .063-.037l.03-.018c.023-.011.042-.023.067-.038l.028-.015a.272.272 0 0 0 .039-.021l.033-.026.04-.015.026-.018.031-.019.033-.018.059-.032a.645.645 0 0 0 .055-.033l.015-.011.016-.009.043-.022.029-.016.013-.008.055-.034.049-.029c.019-.009.035-.019.058-.032l.021-.013.074-.045.02-.011a.743.743 0 0 0 .07-.04l.022-.014.024-.01.033-.022.017-.012.019-.009c.025-.012.047-.025.069-.038l.027-.015a.663.663 0 0 0 .294-.641V50.391a2.727 2.727 0 0 0-1.218-2.1L94.8 42.613a.945.945 0 0 0-.455-.145.423.423 0 0 0-.248.074l-.023.016-.025.011a.264.264 0 0 0-.044.023l-.012.008-.033.02-.044.028-.031.021-.035.012-.013.01-.02.015-.039.02-.027.014-.035.028-.042.016a.06.06 0 0 0-.019.011l-.029.022-.033.014a.1.1 0 0 0-.023.013l-.031.025-.037.015a.153.153 0 0 0-.035.019l-.021.015-.024.011-.027.016-.039.024-.023.012a.371.371 0 0 0-.054.03l-.009.006-.038.022-.013.007-.034.031-.054.019a.179.179 0 0 0-.027.017l-.025.017-.028.011a.125.125 0 0 0-.031.017l-.02.014-.022.011a.318.318 0 0 0-.051.031l-.03.021-.034.013a.073.073 0 0 0-.019.011l-.023.017-.026.013a.377.377 0 0 0-.053.029l-.022.015-.024.011a.146.146 0 0 0-.032.02l-.021.016-.03.015a.274.274 0 0 0-.045.025l-.028.02-.032.013a.232.232 0 0 0-.038.021l-.025.015c-.021.011-.044.026-.069.042zM87.126 54.64a1.484 1.484 0 0 1-.737-.219l-9.837-5.672a3.294 3.294 0 0 1-1.505-2.6v-11.34a1.158 1.158 0 0 1 .678-1.172.567.567 0 0 1 .1-.058.711.711 0 0 1 .084-.05.574.574 0 0 1 .1-.057.658.658 0 0 1 .081-.047.6.6 0 0 1 .1-.06.691.691 0 0 1 .083-.045 3.846 3.846 0 0 1 .186-.108c.027-.018.054-.033.078-.047a.754.754 0 0 1 .091-.052.557.557 0 0 1 .1-.058.828.828 0 0 1 .08-.055c.029-.02.056-.034.078-.047l.023-.013A.772.772 0 0 1 77 32.9a.694.694 0 0 1 .078-.046.558.558 0 0 1 .1-.058.686.686 0 0 1 .082-.048.7.7 0 0 1 .093-.052.562.562 0 0 1 .106-.058 1.006 1.006 0 0 1 .541-.16 1.457 1.457 0 0 1 .725.215l9.836 5.676a3.262 3.262 0 0 1 1.5 2.6v11.329a1.2 1.2 0 0 1-.589 1.13.837.837 0 0 1-.1.062l-.048.028-.039.023-.083.044a.813.813 0 0 1-.1.059.95.95 0 0 1-.081.045.8.8 0 0 1-.1.058l-.01.006c-.025.015-.049.03-.076.044a.956.956 0 0 1-.087.047.645.645 0 0 1-.1.058 1.19 1.19 0 0 1-.072.042h-.009l-.067.041-.035.021a.973.973 0 0 1-.088.048.852.852 0 0 1-.081.046.687.687 0 0 1-.1.059.905.905 0 0 1-.094.052 1.136 1.136 0 0 1-.079.046.784.784 0 0 1-.1.056c-.03.019-.059.036-.086.051a.983.983 0 0 1-.1.054l-.023.013a.977.977 0 0 1-.588.209zm-11.142-20.5-.031.014-.015.006c-.209.07-.328.306-.326.648v11.34a2.717 2.717 0 0 0 1.223 2.114l9.835 5.671a.946.946 0 0 0 .454.143.41.41 0 0 0 .271-.093l.019-.016.022-.013.022-.012.013-.01.031-.014a.413.413 0 0 0 .054-.03l.011-.007c.027-.015.05-.028.07-.041l.018-.012.02-.009a.227.227 0 0 0 .039-.022l.024-.018.027-.013a.433.433 0 0 0 .053-.031l.023-.015.025-.011a.412.412 0 0 0 .048-.028l.032-.018a.128.128 0 0 0 .024-.013l.03-.026.04-.019a.305.305 0 0 0 .049-.028l.019-.013.021-.009a.536.536 0 0 0 .051-.028l.013-.008.029-.017.038-.023.025-.016.023-.013.036-.02.028-.02.032-.013a.074.074 0 0 0 .02-.012l.033-.027.039-.016a.364.364 0 0 0 .051-.027l.017-.01.054-.031.042-.024a.244.244 0 0 0 .038-.022l.026-.02.03-.014a.6.6 0 0 0 .063-.035l.03-.016a.251.251 0 0 0 .043-.025l.018-.013.039-.02.061-.032.029-.017L89.1 53h.006a.323.323 0 0 0 .037-.021l.029-.025.034-.016c.253-.118.292-.447.293-.633V40.977a2.728 2.728 0 0 0-1.216-2.113l-9.837-5.676a.917.917 0 0 0-.446-.144.433.433 0 0 0-.254.076l-.037.026-.043.013-.028.022-.031.015a.226.226 0 0 0-.035.018l-.026.02-.029.013a.124.124 0 0 0-.025.014l-.04.032-.048.017-.029.024-.037.017a.146.146 0 0 0-.032.02l-.037.028-.044.015-.025.014-.039.022a.454.454 0 0 0-.04.024l-.019.014-.021.011a.31.31 0 0 0-.042.024l-.04.032-.043.014-.03.026-.037.016a.226.226 0 0 0-.043.023l-.031.019a.422.422 0 0 0-.05.029l-.034.026-.041.015-.032.02-.017.012-.019.009a.16.16 0 0 0-.033.021l-.034.027-.04.016a.146.146 0 0 0-.034.018l-.029.02-.032.012-.031.027-.037.016a.135.135 0 0 0-.022.011l-.041.035-.05.017-.027.022-.031.014a.173.173 0 0 0-.037.022l-.03.023-.035.015h-.007l-.045.041z" transform="translate(14.742 -1.878)" style="fill:#002b47"/>
                <path data-name="Path 18235" d="M89.826 59.817v11.334a.9.9 0 0 1-.453.891l-.09.052a.427.427 0 0 1-.09.051.593.593 0 0 1-.09.049c-.03.021-.059.038-.091.057a.449.449 0 0 1-.092.049.506.506 0 0 1-.088.054.688.688 0 0 1-.09.051c-.029.019-.058.036-.09.053s-.059.035-.091.052a.561.561 0 0 1-.09.051.411.411 0 0 1-.091.052c-.025.019-.056.033-.09.054a.677.677 0 0 1-.09.053.558.558 0 0 1-.088.046.384.384 0 0 1-.091.056.4.4 0 0 1-.091.049.667.667 0 0 1-.09.058c-.029.017-.059.036-.089.049s-.06.036-.092.053l-.09.051a.955.955 0 0 0 .358-.839V60.909a2.988 2.988 0 0 0-1.355-2.354l-9.84-5.667a.953.953 0 0 0-.906-.109.348.348 0 0 1 .088-.054.362.362 0 0 1 .09-.051.32.32 0 0 1 .09-.056.447.447 0 0 1 .092-.046.4.4 0 0 1 .09-.057.751.751 0 0 1 .09-.05.35.35 0 0 1 .09-.051.335.335 0 0 1 .09-.051.5.5 0 0 1 .09-.054.5.5 0 0 1 .09-.054.286.286 0 0 1 .09-.048.514.514 0 0 1 .091-.054 2.069 2.069 0 0 0 .181-.1.343.343 0 0 1 .09-.053.586.586 0 0 1 .092-.056.442.442 0 0 1 .091-.047.413.413 0 0 1 .09-.057.377.377 0 0 1 .088-.047.529.529 0 0 1 .091-.054.911.911 0 0 1 1 .06l9.836 5.665a2.992 2.992 0 0 1 1.358 2.354M89.1 91.027a.44.44 0 0 0 .091-.051.85.85 0 0 0 .088-.052.381.381 0 0 0 .091-.051.911.911 0 0 0 .455-.891V78.648a3 3 0 0 0-1.36-2.352l-9.836-5.672a.921.921 0 0 0-1-.057.675.675 0 0 0-.09.056.549.549 0 0 0-.092.049 2.114 2.114 0 0 0-.085.052.666.666 0 0 0-.094.053l-.09.051a.55.55 0 0 0-.09.054.966.966 0 0 0-.09.053.423.423 0 0 0-.09.05.742.742 0 0 0-.09.056.4.4 0 0 0-.091.048c-.027.018-.062.035-.09.051a.753.753 0 0 0-.09.054.929.929 0 0 0-.091.052c-.033.017-.06.034-.091.053s-.059.033-.091.052a.7.7 0 0 0-.085.051.554.554 0 0 0-.094.054l-.09.051a.411.411 0 0 0-.09.051c-.03.019-.059.034-.09.056a.966.966 0 0 1 .913.108l9.84 5.674a2.994 2.994 0 0 1 1.354 2.348l.009 11.34a.977.977 0 0 1-.37.832.413.413 0 0 0 .091-.051c.032-.017.062-.034.088-.051a.54.54 0 0 0 .093-.052.344.344 0 0 0 .086-.051.952.952 0 0 0 .094-.056.9.9 0 0 0 .09-.047.923.923 0 0 0 .09-.056.594.594 0 0 0 .09-.051.445.445 0 0 0 .091-.052.827.827 0 0 0 .088-.051c.03-.017.059-.034.091-.056a.735.735 0 0 0 .09-.046c.03-.018.06-.035.09-.056a.4.4 0 0 0 .09-.051.586.586 0 0 0 .09-.052.649.649 0 0 0 .092-.056.385.385 0 0 0 .09-.051m16.347 9.428a.313.313 0 0 0 .093-.051.708.708 0 0 0 .086-.051.382.382 0 0 0 .091-.052.91.91 0 0 0 .453-.9V88.073a2.986 2.986 0 0 0-1.358-2.352l-9.835-5.674a.914.914 0 0 0-1-.054.332.332 0 0 0-.09.05.877.877 0 0 0-.09.055.436.436 0 0 0-.09.05c-.03.017-.064.034-.091.051a1.039 1.039 0 0 0-.091.053c-.034.018-.061.032-.091.052a.79.79 0 0 0-.088.051c-.034.017-.061.035-.093.053s-.06.035-.086.052a.519.519 0 0 0-.093.054c-.03.014-.058.034-.088.051a.382.382 0 0 0-.091.051c-.03.019-.062.034-.091.056a.434.434 0 0 0-.091.049l-.088.052c-.032.018-.061.033-.091.053s-.061.034-.09.051a.562.562 0 0 0-.09.054.444.444 0 0 0-.088.054.311.311 0 0 0-.091.048.983.983 0 0 1 .911.109l9.836 5.676a2.979 2.979 0 0 1 1.357 2.35v11.33a.965.965 0 0 1-.361.84.214.214 0 0 0 .09-.052.453.453 0 0 0 .09-.051.4.4 0 0 0 .09-.046c.035-.018.062-.039.09-.056a.332.332 0 0 0 .091-.051c.035-.018.062-.035.093-.051a.453.453 0 0 0 .089-.057.535.535 0 0 0 .088-.051.379.379 0 0 0 .091-.051.518.518 0 0 0 .09-.052.646.646 0 0 0 .09-.051.6.6 0 0 0 .09-.055.422.422 0 0 0 .091-.052.468.468 0 0 0 .092-.051.42.42 0 0 0 .088-.052.519.519 0 0 0 .091-.051.722.722 0 0 0 .088-.056m.722-19.878V69.238a3.02 3.02 0 0 0-1.359-2.35l-9.838-5.674a.909.909 0 0 0-1-.051.413.413 0 0 0-.091.051.4.4 0 0 0-.09.051.839.839 0 0 0-.092.052c-.027.017-.061.032-.089.053a.415.415 0 0 0-.091.054.429.429 0 0 0-.088.047.872.872 0 0 0-.091.056.387.387 0 0 0-.089.049.707.707 0 0 0-.091.057.251.251 0 0 0-.09.049.56.56 0 0 0-.091.053.37.37 0 0 0-.09.052.291.291 0 0 0-.088.053.461.461 0 0 0-.091.047c-.034.017-.062.037-.092.055a.6.6 0 0 0-.091.052.727.727 0 0 0-.09.054.378.378 0 0 0-.088.051.367.367 0 0 0-.091.053.61.61 0 0 0-.09.049.966.966 0 0 1 .914.109l9.836 5.671a3.007 3.007 0 0 1 1.357 2.353v11.333a.956.956 0 0 1-.358.836.43.43 0 0 0 .09-.048.654.654 0 0 0 .092-.054.431.431 0 0 0 .085-.051.356.356 0 0 0 .091-.052.623.623 0 0 0 .09-.053.487.487 0 0 0 .091-.049.44.44 0 0 0 .091-.054l.09-.051c.028-.017.062-.034.091-.053s.06-.033.09-.052a.349.349 0 0 0 .09-.056.408.408 0 0 0 .09-.048.44.44 0 0 0 .091-.057.582.582 0 0 0 .09-.048.257.257 0 0 0 .088-.052.926.926 0 0 0 .091-.053.308.308 0 0 0 .091-.052.5.5 0 0 0 .089-.053.487.487 0 0 0 .092-.052.757.757 0 0 0 .09-.051.9.9 0 0 0 .451-.891m3.262-27.671 9.832 5.669a3.006 3.006 0 0 1 1.365 2.355V72.26a.958.958 0 0 1-.361.838l.091-.052c.034-.016.061-.036.094-.053s.057-.032.085-.051l.091-.052a.747.747 0 0 0 .09-.053c.033-.017.059-.032.092-.052l.084-.051a.883.883 0 0 0 .094-.053c.03-.017.059-.034.092-.049s.059-.037.087-.057a.5.5 0 0 0 .091-.051c.034-.017.061-.034.089-.051a.847.847 0 0 0 .092-.053c.032-.018.06-.032.09-.052s.062-.036.089-.049.062-.037.091-.055.064-.035.091-.052.059-.034.091-.053a1.013 1.013 0 0 0 .091-.052l.086-.051a.907.907 0 0 0 .454-.891V59.831a3.008 3.008 0 0 0-1.362-2.356l-9.836-5.669a.905.905 0 0 0-1-.054.376.376 0 0 0-.093.052.758.758 0 0 0-.09.051 1.008 1.008 0 0 0-.092.051.517.517 0 0 0-.089.054c-.031.015-.062.034-.091.051a.579.579 0 0 0-.09.052l-.089.053c-.03.019-.059.032-.091.051a.643.643 0 0 0-.089.056.491.491 0 0 0-.091.049.929.929 0 0 0-.091.051.521.521 0 0 0-.091.054.9.9 0 0 0-.091.052.63.63 0 0 0-.087.048c-.035.02-.059.033-.094.057s-.058.031-.087.048a.615.615 0 0 0-.092.056.752.752 0 0 0-.087.052.52.52 0 0 0-.091.051.667.667 0 0 0-.091.053.973.973 0 0 1 .914.109m-16.356-9.425 9.836 5.672a3.025 3.025 0 0 1 1.36 2.347v11.339a.965.965 0 0 1-.365.839c.034-.019.064-.034.091-.052a.746.746 0 0 0 .09-.053.5.5 0 0 0 .09-.051l.088-.051c.034-.018.064-.035.093-.054s.06-.03.093-.049l.087-.053a.9.9 0 0 0 .09-.054c.034-.017.062-.034.09-.051a.467.467 0 0 0 .091-.054.426.426 0 0 0 .088-.051c.032-.017.064-.037.091-.05a.906.906 0 0 0 .09-.055c.035-.019.062-.03.091-.049l.088-.054c.035-.017.062-.034.094-.053l.086-.051c.034-.018.061-.033.093-.054a.43.43 0 0 0 .088-.052c.034-.017.064-.034.091-.051a.922.922 0 0 0 .455-.893V50.401a3.012 3.012 0 0 0-1.36-2.347l-9.832-5.672a.91.91 0 0 0-1.007-.057.538.538 0 0 0-.09.049c-.032.02-.062.037-.09.056a.335.335 0 0 0-.09.051.44.44 0 0 0-.091.054.316.316 0 0 0-.091.051.379.379 0 0 0-.09.053.431.431 0 0 0-.091.05c-.032.015-.058.034-.09.053a2.877 2.877 0 0 0-.177.1.435.435 0 0 0-.091.051.4.4 0 0 0-.09.05.6.6 0 0 0-.092.056.354.354 0 0 0-.09.051.658.658 0 0 0-.09.051.4.4 0 0 0-.089.054.531.531 0 0 0-.092.053.514.514 0 0 0-.088.047 1.057 1.057 0 0 0-.091.056.32.32 0 0 0-.088.051.964.964 0 0 1 .909.111M76.1 33.787a.434.434 0 0 0-.09.054.289.289 0 0 0-.088.054.293.293 0 0 0-.091.048.968.968 0 0 1 .911.109l9.838 5.669a3.011 3.011 0 0 1 1.354 2.358l.008 11.329a.979.979 0 0 1-.365.838.441.441 0 0 0 .09-.051.624.624 0 0 0 .09-.049c.03-.017.06-.034.09-.054a.5.5 0 0 0 .09-.053.725.725 0 0 0 .09-.052.625.625 0 0 0 .092-.051.384.384 0 0 0 .087-.054.666.666 0 0 0 .092-.051.9.9 0 0 0 .093-.051c.03-.018.058-.032.086-.052a.836.836 0 0 0 .09-.053.36.36 0 0 0 .091-.056.555.555 0 0 0 .091-.047c.033-.017.058-.034.09-.053a.426.426 0 0 0 .088-.055.73.73 0 0 0 .092-.05.48.48 0 0 0 .09-.054c.032-.015.061-.03.091-.047l.09-.053a.536.536 0 0 0 .088-.056.9.9 0 0 0 .457-.888V40.987a3 3 0 0 0-1.358-2.358l-9.836-5.676a.905.905 0 0 0-1-.049.277.277 0 0 0-.091.049.441.441 0 0 0-.092.052.4.4 0 0 0-.088.053.288.288 0 0 0-.091.051.426.426 0 0 0-.09.054.438.438 0 0 0-.093.048.831.831 0 0 0-.086.052.55.55 0 0 0-.091.056.273.273 0 0 0-.09.051.507.507 0 0 0-.091.051.5.5 0 0 0-.088.054 1.845 1.845 0 0 0-.181.106.413.413 0 0 0-.092.049.321.321 0 0 0-.088.052.365.365 0 0 0-.09.054.276.276 0 0 0-.091.05m34.227 36.8a.815.815 0 0 0-.091.054.536.536 0 0 0-.087.051.62.62 0 0 0-.091.049c-.034.02-.059.034-.091.056a.872.872 0 0 0-.089.049.816.816 0 0 0-.091.057.483.483 0 0 0-.09.049.618.618 0 0 0-.092.054.482.482 0 0 0-.089.051.445.445 0 0 0-.089.054.407.407 0 0 0-.091.046.873.873 0 0 0-.093.056c-.031.015-.059.032-.091.051a.6.6 0 0 0-.089.054.692.692 0 0 0-.088.052.432.432 0 0 0-.091.053.505.505 0 0 0-.091.051.863.863 0 0 0-.089.052.975.975 0 0 0-.091.051.589.589 0 0 0-.088.054.983.983 0 0 1 .914.109l9.836 5.671a3.015 3.015 0 0 1 1.36 2.354v11.329a.969.969 0 0 1-.363.844.3.3 0 0 0 .092-.052.4.4 0 0 0 .09-.05.394.394 0 0 0 .091-.057.416.416 0 0 0 .091-.051.311.311 0 0 0 .09-.051.339.339 0 0 0 .088-.051.321.321 0 0 0 .091-.052.336.336 0 0 0 .091-.055.607.607 0 0 0 .089-.047.26.26 0 0 0 .091-.056.4.4 0 0 0 .091-.051.435.435 0 0 0 .091-.051.488.488 0 0 0 .09-.057.354.354 0 0 0 .09-.051.384.384 0 0 0 .089-.051.236.236 0 0 0 .092-.056.3.3 0 0 0 .09-.046.312.312 0 0 0 .088-.052.384.384 0 0 0 .09-.056.324.324 0 0 0 .092-.051.9.9 0 0 0 .452-.891V78.669a3 3 0 0 0-1.361-2.355l-9.835-5.671a.919.919 0 0 0-1-.056m0 18.833-.091.051-.091.052c-.029.017-.059.038-.088.051a.675.675 0 0 0-.091.056.9.9 0 0 0-.092.051c-.031.017-.057.035-.09.052a.674.674 0 0 0-.087.051c-.035.017-.059.034-.09.052a.436.436 0 0 0-.091.055.771.771 0 0 0-.091.051.62.62 0 0 0-.091.052c-.03.017-.058.034-.091.051s-.059.034-.091.051-.057.035-.087.057a.265.265 0 0 0-.09.05l-.09.048-.092.055c-.031.017-.059.035-.091.052l-.088.051a.564.564 0 0 0-.089.056.982.982 0 0 1 .906.1l9.839 5.677a3 3 0 0 1 1.359 2.345v11.347a.948.948 0 0 1-.363.832c.034-.017.064-.034.092-.051s.058-.035.09-.051l.091-.052.086-.051a.671.671 0 0 0 .094-.056.945.945 0 0 1 .092-.047c.026-.017.058-.039.087-.056l.091-.051.088-.052.091-.055a.609.609 0 0 0 .091-.052c.029-.017.061-.034.089-.046s.062-.039.091-.056l.091-.051.088-.052a.785.785 0 0 0 .093-.056l.086-.051c.034-.017.063-.034.094-.051a.877.877 0 0 0 .091-.052c.029-.017.059-.033.088-.051a.91.91 0 0 0 .455-.887V97.495a2.98 2.98 0 0 0-1.359-2.344l-9.838-5.677a.9.9 0 0 0-1-.056" transform="translate(14.697 -1.895)" style="fill:#1272e2"/>
                <path data-name="Path 18236" d="M78.031 32.479a1.457 1.457 0 0 1 .725.215l9.836 5.676a3.262 3.262 0 0 1 1.5 2.6v11.329a1.2 1.2 0 0 1-.591 1.131.887.887 0 0 1-.1.061l-.048.028-.034.02c-.028.016-.056.03-.085.044a.767.767 0 0 1-.1.058 1.133 1.133 0 0 1-.081.045.718.718 0 0 1-.1.059l-.011.007c-.022.013-.046.028-.076.044a.879.879 0 0 1-.086.046.645.645 0 0 1-.1.057.866.866 0 0 1-.074.043h-.007a.858.858 0 0 1-.069.042l-.022.013-.013.008c-.026.015-.055.032-.09.049s-.048.029-.079.044a.686.686 0 0 1-.1.059.9.9 0 0 1-.094.052 1.136 1.136 0 0 1-.079.046.784.784 0 0 1-.1.056l-.084.05a.919.919 0 0 1-.093.052.759.759 0 0 1-.118.064.283.283 0 0 1-.265-.477.743.743 0 0 0 .246-.61l-.009-11.328a2.741 2.741 0 0 0-1.213-2.114l-9.837-5.669a.705.705 0 0 0-.651-.1.283.283 0 0 1-.289-.482.6.6 0 0 1 .12-.071.573.573 0 0 1 .088-.052.691.691 0 0 1 .083-.05.545.545 0 0 1 .1-.057.661.661 0 0 1 .081-.047.607.607 0 0 1 .1-.059.68.68 0 0 1 .084-.046 3.893 3.893 0 0 1 .183-.107.8.8 0 0 1 .083-.05.752.752 0 0 1 .088-.05.557.557 0 0 1 .1-.058.84.84 0 0 1 .081-.048.848.848 0 0 1 .078-.047l.025-.014a2.237 2.237 0 0 0 .164-.092.561.561 0 0 1 .1-.057.687.687 0 0 1 .082-.048.7.7 0 0 1 .093-.052.561.561 0 0 1 .106-.058 1.006 1.006 0 0 1 .552-.155zm11.006 20.575.029-.017.064-.037h.006a.279.279 0 0 0 .041-.025.283.283 0 0 1 .059-.037c.253-.118.292-.447.293-.633V40.977a2.728 2.728 0 0 0-1.219-2.117l-9.837-5.676a.917.917 0 0 0-.442-.139.433.433 0 0 0-.254.076.284.284 0 0 1-.08.039.273.273 0 0 1-.059.037.227.227 0 0 0-.035.018.282.282 0 0 1-.055.033.124.124 0 0 0-.025.014.283.283 0 0 1-.088.049.313.313 0 0 1-.068.042.146.146 0 0 0-.032.02.283.283 0 0 1-.083.044l-.018.011-.021.013-.018.01a.452.452 0 0 0-.04.024.283.283 0 0 1-.041.025.278.278 0 0 0-.046.027.284.284 0 0 1-.079.043.279.279 0 0 1-.067.042.225.225 0 0 0-.043.023.282.282 0 0 1-.037.022.241.241 0 0 0-.038.022.283.283 0 0 1-.066.039q.067.032.134.072l9.828 5.669a3.276 3.276 0 0 1 1.5 2.6V53.39q0 .076-.007.147l.015-.009.013-.008.031-.018.032-.019.029-.018.023-.013.035-.02a.281.281 0 0 1 .053-.031.106.106 0 0 0 .022-.011.283.283 0 0 1 .082-.049.282.282 0 0 0 .045-.024l.02-.011a.983.983 0 0 0 .047-.027l.025-.016.023-.013a.158.158 0 0 0 .031-.018.283.283 0 0 1 .066-.041.453.453 0 0 0 .057-.031l.03-.016a.2.2 0 0 0 .038-.022.282.282 0 0 1 .052-.031.877.877 0 0 0 .075-.037zM94.369 41.9a1.482 1.482 0 0 1 .738.221l9.831 5.672a3.311 3.311 0 0 1 1.5 2.591v11.34a1.21 1.21 0 0 1-.6 1.141 1.592 1.592 0 0 1-.082.046.684.684 0 0 1-.1.059 1.801 1.801 0 0 1-.087.05l-.014.009-.07.041-.013.008c-.024.014-.052.031-.085.047l-.077.047a.857.857 0 0 1-.078.043l-.015.008c-.035.024-.07.043-.1.059l-.015.008-.035.019-.032.018a.726.726 0 0 1-.092.055.76.76 0 0 1-.1.055l-.083.048c-.031.017-.059.037-.093.055l-.032.019-.042.026-.013.008-.066.035-.024.012c-.029.018-.06.036-.1.056l-.078.045a.8.8 0 0 1-.1.058c-.03.02-.059.035-.086.05l-.071.041-.025.014a.283.283 0 0 1-.3-.481.709.709 0 0 0 .241-.607V51.478a2.75 2.75 0 0 0-1.219-2.1l-9.836-5.672a.9.9 0 0 0-.446-.143.471.471 0 0 0-.2.043.283.283 0 0 1-.3-.471.581.581 0 0 1 .136-.085c.025-.016.052-.033.082-.049a.8.8 0 0 1 .093-.052.762.762 0 0 1 .083-.047.666.666 0 0 1 .1-.059.907.907 0 0 1 .081-.046.629.629 0 0 1 .1-.057.859.859 0 0 1 .084-.05.673.673 0 0 1 .1-.056.717.717 0 0 1 .084-.048.748.748 0 0 1 .067-.04l.011-.006a.868.868 0 0 1 .109-.062l.014-.009c.018-.011.039-.025.065-.038a.689.689 0 0 1 .093-.052.666.666 0 0 1 .089-.052.6.6 0 0 1 .1-.054.7.7 0 0 1 .084-.048.611.611 0 0 1 .1-.059l.046-.028.023-.014a.792.792 0 0 1 .1-.058 1 1 0 0 1 .555-.166zm10.482 20.884a.646.646 0 0 0 .056-.033l.031-.02.043-.022.029-.016h.008l.084-.051.025-.014c.019-.009.035-.019.058-.032l.017-.01.057-.034.022-.013.013-.008a.77.77 0 0 0 .072-.041.283.283 0 0 1 .049-.025l.027-.019a.336.336 0 0 1 .039-.023c.025-.012.047-.025.069-.038l.027-.015a.663.663 0 0 0 .294-.641V50.392a2.727 2.727 0 0 0-1.218-2.1l-9.832-5.672a.945.945 0 0 0-.455-.145.423.423 0 0 0-.248.074.283.283 0 0 1-.048.027.263.263 0 0 0-.044.023l-.012.008-.033.02-.044.028a.283.283 0 0 1-.065.033l-.015.01a.283.283 0 0 1-.047.029.363.363 0 0 0-.038.02.283.283 0 0 1-.084.047l-.012.009a.284.284 0 0 1-.062.036.1.1 0 0 0-.023.013.283.283 0 0 1-.068.04.153.153 0 0 0-.035.019.283.283 0 0 1-.045.026l-.027.016-.039.024-.023.012a.313.313 0 0 0-.05.028l-.016.011-.037.021-.016.009a.283.283 0 0 1-.076.044.183.183 0 0 0-.034.02.284.284 0 0 1-.053.029q.068.033.137.073l9.834 5.671a3.286 3.286 0 0 1 1.5 2.59v11.341q0 .074-.006.145l.02-.012.023-.013h.009l.031-.016a.283.283 0 0 1 .077-.044l.026-.018.031-.019.033-.018zM78.022 51.315a1.46 1.46 0 0 1 .735.221l9.835 5.664a3.253 3.253 0 0 1 1.5 2.6v11.333a1.184 1.184 0 0 1-.607 1.143l-.029.017-.044.026-.011.007a.618.618 0 0 1-.1.055.83.83 0 0 1-.08.044l-.057.036-.039.024a.7.7 0 0 1-.089.049.737.737 0 0 1-.082.049.937.937 0 0 1-.091.051c-.032.02-.062.038-.093.054l-.009.005-.074.042a.864.864 0 0 1-.1.055.658.658 0 0 1-.1.055l-.049.029-.018.01a.742.742 0 0 1-.089.053l-.02.011-.015.009a.7.7 0 0 1-.066.036.629.629 0 0 1-.093.055.7.7 0 0 1-.084.047.736.736 0 0 1-.062.039l-.018.011-.013.008-.016.01c-.024.014-.051.03-.082.045l-.08.046c-.034.022-.07.04-.1.057a.283.283 0 0 1-.291-.484.7.7 0 0 0 .234-.6V60.891a2.71 2.71 0 0 0-1.214-2.109l-9.84-5.667a.692.692 0 0 0-.643-.1.283.283 0 0 1-.3-.474 2.524 2.524 0 0 1 .208-.129.621.621 0 0 1 .109-.064h.006a.729.729 0 0 1 .076-.04.684.684 0 0 1 .1-.057l.011-.007c.019-.011.042-.026.07-.04a.631.631 0 0 1 .092-.053.614.614 0 0 1 .092-.052 38.488 38.488 0 0 0 .171-.1.577.577 0 0 1 .107-.059.722.722 0 0 1 .08-.046.619.619 0 0 1 .095-.053.583.583 0 0 1 .085-.051.614.614 0 0 1 .091-.053.857.857 0 0 1 .095-.055h.008a.728.728 0 0 1 .078-.042.681.681 0 0 1 .086-.053.655.655 0 0 1 .1-.054.78.78 0 0 1 .088-.051 1.008 1.008 0 0 1 .546-.167zm11.056 20.549.012-.008.028-.018.012-.007.04-.023.051-.029.019-.009c.25-.115.288-.447.288-.634V59.802a2.718 2.718 0 0 0-1.217-2.109l-9.836-5.665a.924.924 0 0 0-.45-.145.437.437 0 0 0-.25.073.283.283 0 0 1-.045.025.268.268 0 0 0-.042.026.283.283 0 0 1-.064.034.094.094 0 0 0-.021.011.284.284 0 0 1-.039.024.135.135 0 0 0-.034.021.283.283 0 0 1-.092.052l-.017.01-.023.013-.016.008a.309.309 0 0 0-.051.03.283.283 0 0 1-.067.036.088.088 0 0 0-.017.011.283.283 0 0 1-.066.038l-.022.016a.283.283 0 0 1-.081.043.124.124 0 0 0-.02.013.283.283 0 0 1-.058.033l-.037.024a.321.321 0 0 1-.074.037h-.007a.283.283 0 0 1-.051.031.22.22 0 0 0-.042.026.284.284 0 0 1-.054.031h-.007q.068.033.135.073l9.837 5.671a3.245 3.245 0 0 1 1.5 2.6V72.37h.005a.274.274 0 0 1 .07-.037l.024-.016h.007a.282.282 0 0 1 .045-.025.285.285 0 0 0 .042-.025l.028-.017.068-.038.011-.012.01-.005c.022-.012.044-.024.069-.041l.024-.014.012-.006a.382.382 0 0 0 .043-.024.285.285 0 0 1 .046-.027.275.275 0 0 0 .039-.026.283.283 0 0 1 .073-.038l.018-.011.044-.027.054-.034a.282.282 0 0 1 .053-.028.423.423 0 0 0 .047-.027.283.283 0 0 1 .046-.028zm21.644-20.53a1.459 1.459 0 0 1 .729.217l9.836 5.669a3.281 3.281 0 0 1 1.5 2.6v11.334a1.193 1.193 0 0 1-.6 1.139l-.076.045c-.03.019-.063.038-.1.057h-.007a2.05 2.05 0 0 1-.081.047l-.052.03-.032.018c-.03.019-.062.038-.1.058l-.014.007-.052.029-.015.008c-.029.019-.056.033-.079.046l-.013.007a1.125 1.125 0 0 1-.1.057 1.343 1.343 0 0 1-.083.048.78.78 0 0 1-.1.054l-.039.025-.029.019a.282.282 0 0 1-.041.023.607.607 0 0 0-.06.032 1.162 1.162 0 0 1-.1.057l-.036.022-.033.02h-.007a2.573 2.573 0 0 1-.093.053 1.03 1.03 0 0 1-.1.057l-.078.044c-.03.02-.06.037-.084.05h-.007l-.011.006-.026.015c-.017.01-.038.023-.063.035l-.087.05a.283.283 0 0 1-.3-.48.718.718 0 0 0 .239-.6V60.898a2.741 2.741 0 0 0-1.224-2.11l-9.831-5.669a.719.719 0 0 0-.652-.1.283.283 0 0 1-.271-.5l.017-.011a.816.816 0 0 1 .088-.051.785.785 0 0 1 .091-.051c.023-.015.048-.03.074-.044a.907.907 0 0 1 .106-.063l.077-.043c.033-.021.059-.036.085-.051h.006a.92.92 0 0 1 .1-.055 1.77 1.77 0 0 1 .08-.046.816.816 0 0 1 .1-.058c.031-.019.061-.035.089-.049a.781.781 0 0 1 .09-.05 1.009 1.009 0 0 1 .089-.054c.026-.016.057-.034.091-.052l.079-.047a.87.87 0 0 1 .107-.062c.024-.014.049-.029.076-.043a.8.8 0 0 1 .1-.06c.028-.017.057-.033.09-.05s.051-.031.083-.048a.644.644 0 0 1 .1-.059 1 1 0 0 1 .553-.138zm10.744 20.726.074-.045.009-.005.048-.027.036-.021.02-.011c.02-.01.036-.021.054-.031l.019-.012.023-.013a.757.757 0 0 0 .066-.038h.007l.082-.049.022-.012a.66.66 0 0 0 .295-.635V59.825A2.746 2.746 0 0 0 121 57.709l-9.836-5.669a.921.921 0 0 0-.446-.141.431.431 0 0 0-.251.075.283.283 0 0 1-.064.033.108.108 0 0 0-.026.016.285.285 0 0 1-.045.026.476.476 0 0 0-.056.033l-.033.018a.747.747 0 0 0-.067.037l-.023.012a.234.234 0 0 0-.041.024.283.283 0 0 1-.047.029.992.992 0 0 0-.065.037l-.033.017a.3.3 0 0 0-.044.026l-.022.014c-.028.016-.051.029-.076.045l-.027.015a.66.66 0 0 0-.07.04l-.011.006a.467.467 0 0 0-.049.03.283.283 0 0 1-.07.04.219.219 0 0 0-.039.022l-.03.018a.653.653 0 0 0-.065.036l-.03.017-.015.008q.068.033.137.072l9.831 5.669a3.276 3.276 0 0 1 1.506 2.6v11.334q0 .074-.005.145l.036-.019.026-.017.034-.022a.282.282 0 0 1 .055-.031.215.215 0 0 0 .04-.023.283.283 0 0 1 .036-.021c.022-.011.041-.023.066-.038l.023-.013a.57.57 0 0 0 .062-.035l.019-.012.026-.014a.88.88 0 0 0 .043-.025l.02-.012.022-.012zM94.373 60.74a1.478 1.478 0 0 1 .729.215l9.839 5.675a3.292 3.292 0 0 1 1.5 2.595v11.336a1.19 1.19 0 0 1-.595 1.138.875.875 0 0 1-.09.051.714.714 0 0 1-.088.05.781.781 0 0 1-.077.045.583.583 0 0 1-.109.062.975.975 0 0 1-.06.034h-.006a.532.532 0 0 1-.123.072.776.776 0 0 1-.071.039.66.66 0 0 1-.094.057.707.707 0 0 1-.082.046.668.668 0 0 1-.1.058c-.026.016-.053.032-.084.048s-.058.035-.094.054-.053.031-.084.048h-.006a.637.637 0 0 1-.1.059.735.735 0 0 1-.085.047.909.909 0 0 1-.079.046.635.635 0 0 1-.1.059.7.7 0 0 1-.079.047.739.739 0 0 1-.079.045l-.011.006a.7.7 0 0 1-.135.07.283.283 0 0 1-.261-.5.716.716 0 0 0 .236-.6V70.308a2.745 2.745 0 0 0-1.217-2.109l-9.835-5.67a.7.7 0 0 0-.652-.1.283.283 0 0 1-.281-.481.924.924 0 0 1 .1-.056.627.627 0 0 1 .095-.055.663.663 0 0 1 .089-.051c.028-.019.054-.033.074-.044l.011-.006a.9.9 0 0 1 .1-.06l.011-.007c.02-.013.045-.028.074-.044a.776.776 0 0 1 .086-.047.583.583 0 0 1 .09-.053.658.658 0 0 1 .093-.053.777.777 0 0 1 .079-.045.53.53 0 0 1 .107-.06c.026-.017.05-.032.073-.045a.669.669 0 0 1 .107-.061.848.848 0 0 1 .084-.05.742.742 0 0 1 .089-.05.692.692 0 0 1 .089-.052.782.782 0 0 1 .062-.036l.019-.011c.028-.017.059-.036.1-.055a.684.684 0 0 1 .1-.055.694.694 0 0 1 .093-.052 1 1 0 0 1 .548-.16zm10.693 20.76a.282.282 0 0 1 .044-.031l.035-.019.028-.016a.273.273 0 0 1 .069-.037l.01-.005a.283.283 0 0 1 .053-.034.374.374 0 0 0 .04-.022.283.283 0 0 1 .077-.043l.018-.012.023-.015.029-.016a.481.481 0 0 0 .057-.033l.03-.017a.672.672 0 0 0 .291-.634V69.227a2.757 2.757 0 0 0-1.22-2.106l-9.83-5.676a.938.938 0 0 0-.447-.14.424.424 0 0 0-.25.075.283.283 0 0 1-.061.033.139.139 0 0 0-.03.018.283.283 0 0 1-.056.031.119.119 0 0 0-.026.015.283.283 0 0 1-.05.031.566.566 0 0 0-.063.035l-.048.027-.023.013a.262.262 0 0 1-.055.032.134.134 0 0 0-.03.018.283.283 0 0 1-.078.043l-.028.017-.029.017a.522.522 0 0 0-.051.031l-.012.008a.282.282 0 0 1-.054.028.109.109 0 0 0-.024.014l-.026.016a.53.53 0 0 0-.051.031 1.026 1.026 0 0 0-.139.08h-.006a.275.275 0 0 0-.045.025.283.283 0 0 1-.054.031q.066.032.133.071l9.834 5.67a3.28 3.28 0 0 1 1.5 2.6v11.333q0 .076-.006.148l.022-.014.021-.012a.924.924 0 0 0 .069-.04l.033-.018.022-.011a.283.283 0 0 1 .089-.053.14.14 0 0 0 .028-.016.284.284 0 0 1 .048-.026.229.229 0 0 0 .036-.024.283.283 0 0 1 .07-.038l.022-.013.024-.015a.284.284 0 0 1 .037-.016zM78.021 70.145a1.481 1.481 0 0 1 .734.217l9.837 5.672a3.28 3.28 0 0 1 1.5 2.6v11.334A1.2 1.2 0 0 1 89.5 91.1a.668.668 0 0 1-.106.059c-.02.013-.043.028-.071.042a.72.72 0 0 1-.095.053.665.665 0 0 1-.092.052.925.925 0 0 1-.081.048.716.716 0 0 1-.084.049.681.681 0 0 1-.1.058c-.024.016-.047.029-.068.042l-.015.009c-.03.017-.063.036-.1.052s-.055.034-.08.048-.059.036-.089.052a.733.733 0 0 1-.1.056.767.767 0 0 1-.079.044.924.924 0 0 1-.1.059l-.014.008c-.023.013-.049.028-.079.042s-.049.031-.078.046a.633.633 0 0 1-.1.061.8.8 0 0 1-.094.052 5.785 5.785 0 0 1-.074.043.682.682 0 0 1-.137.073.283.283 0 0 1-.265-.5.738.738 0 0 0 .249-.6l-.009-11.337a2.731 2.731 0 0 0-1.213-2.1l-9.846-5.667a.725.725 0 0 0-.624-.109.284.284 0 1 1-.271-.5l.04-.024.017-.01a.7.7 0 0 1 .124-.071l.024-.014.039-.022a.781.781 0 0 1 .1-.058 1.026 1.026 0 0 1 .089-.053l.016-.01c.022-.014.047-.029.077-.043s.052-.032.084-.049.06-.035.086-.049a.931.931 0 0 1 .084-.05l.015-.008.039-.022.035-.02a.75.75 0 0 1 .114-.063.86.86 0 0 1 .079-.048.712.712 0 0 1 .1-.056.888.888 0 0 1 .061-.035h.008a.786.786 0 0 1 .1-.06l.011-.006.038-.022.035-.02a.864.864 0 0 1 .1-.058l.084-.051.016-.013a.815.815 0 0 1 .083-.045.867.867 0 0 1 .081-.049 1.006 1.006 0 0 1 .557-.161zM89.063 90.7l.024-.015.034-.021a.282.282 0 0 1 .045-.022.1.1 0 0 0 .024-.014.282.282 0 0 1 .048-.029.652.652 0 0 0 .292-.637V78.629a2.7 2.7 0 0 0-1.22-2.107l-9.835-5.671a.942.942 0 0 0-.452-.142.435.435 0 0 0-.25.073l-.027.016a.4.4 0 0 0-.053.033.283.283 0 0 1-.074.04l-.023.014-.02.012c-.025.015-.05.029-.071.043l-.03.018-.012.006a.349.349 0 0 0-.046.025l-.028.017-.033.019-.06.034-.013.007a.26.26 0 0 0-.035.02.282.282 0 0 1-.032.022l-.034.019-.03.017a.308.308 0 0 1-.068.037l-.026.017h-.007l-.029.017a.392.392 0 0 0-.045.028l-.013.009a.284.284 0 0 1-.067.033l-.03.018a.995.995 0 0 1-.074.043l-.026.014h-.005l-.021.012h-.008q.067.032.134.072l9.833 5.684a3.267 3.267 0 0 1 1.5 2.593l.009 11.339v.005q0 .069-.007.133a.283.283 0 0 1 .039-.023.542.542 0 0 0 .057-.033l.018-.011c.028-.016.049-.028.072-.043a.282.282 0 0 1 .052-.028.567.567 0 0 0 .054-.029l.015-.009a.645.645 0 0 0 .053-.033.283.283 0 0 1 .056-.031.118.118 0 0 0 .026-.015.282.282 0 0 1 .036-.023l.031-.016.02-.011a.282.282 0 0 1 .047-.029.368.368 0 0 0 .054-.032.283.283 0 0 1 .068-.032.127.127 0 0 0 .023-.015.283.283 0 0 1 .06-.033.157.157 0 0 0 .034-.019.283.283 0 0 1 .046-.033zm21.654-20.534a1.489 1.489 0 0 1 .734.216l9.837 5.672a3.273 3.273 0 0 1 1.5 2.6v11.333a1.187 1.187 0 0 1-.59 1.135.6.6 0 0 1-.1.055.644.644 0 0 1-.079.048.6.6 0 0 1-.1.061.608.608 0 0 1-.081.045.5.5 0 0 1-.1.059.662.662 0 0 1-.083.047.628.628 0 0 1-.085.049.705.705 0 0 1-.078.048h-.008a.731.731 0 0 1-.1.059.671.671 0 0 1-.077.045.541.541 0 0 1-.115.067c-.019.011-.04.024-.065.036a.586.586 0 0 1-.093.055.6.6 0 0 1-.1.058.621.621 0 0 1-.085.049.587.587 0 0 1-.1.055.705.705 0 0 1-.077.044.665.665 0 0 1-.093.056.7.7 0 0 1-.093.054.563.563 0 0 1-.143.073.283.283 0 0 1-.254-.5.731.731 0 0 0 .242-.613V79.743a2.751 2.751 0 0 0-1.219-2.109l-9.836-5.671a.764.764 0 0 0-.618-.113.283.283 0 0 1-.352-.039.285.285 0 0 1 .076-.458c.024-.016.047-.028.067-.039.026-.016.057-.034.092-.052s.053-.032.082-.048a.767.767 0 0 1 .1-.055.693.693 0 0 1 .1-.056.819.819 0 0 1 .077-.045.889.889 0 0 1 .1-.058c.026-.015.052-.031.082-.046s.059-.036.084-.05l.01-.005a.718.718 0 0 1 .1-.053.71.71 0 0 1 .08-.048.754.754 0 0 1 .092-.052.883.883 0 0 1 .094-.054.77.77 0 0 1 .088-.049c.026-.018.049-.031.068-.043l.04-.024c.02-.012.044-.026.074-.041s.05-.031.072-.044l.011-.006a.914.914 0 0 1 .1-.054.829.829 0 0 1 .084-.049c.033-.022.063-.038.088-.052a1 1 0 0 1 .55-.163zm11.153 20.495.015-.011a.284.284 0 0 1 .047-.028.641.641 0 0 0 .289-.634V78.654a2.738 2.738 0 0 0-1.22-2.11l-9.835-5.671a.949.949 0 0 0-.452-.141.434.434 0 0 0-.251.074l-.025.015-.012.007a.48.48 0 0 0-.049.029.284.284 0 0 1-.042.025.261.261 0 0 0-.04.023.283.283 0 0 1-.058.033.336.336 0 0 0-.05.027l-.01.006-.017.01c-.02.012-.038.022-.059.036a.282.282 0 0 1-.044.024.376.376 0 0 0-.037.021l-.046.027a.353.353 0 0 0-.037.023.283.283 0 0 1-.066.039.2.2 0 0 0-.037.02.285.285 0 0 1-.04.023.332.332 0 0 0-.051.03.284.284 0 0 1-.039.023l-.039.02a.265.265 0 0 1-.055.034.163.163 0 0 0-.034.021.284.284 0 0 1-.081.043.181.181 0 0 0-.029.016l-.016.009-.02.011-.01.006q.067.032.133.07l9.837 5.671a3.286 3.286 0 0 1 1.5 2.6v11.33q0 .079-.006.152l.019-.011h.006a.811.811 0 0 0 .139-.078l.027-.018a.283.283 0 0 1 .059-.032.184.184 0 0 0 .034-.02l.019-.012.028-.015.019-.011a.267.267 0 0 1 .083-.05.073.073 0 0 0 .018-.011.282.282 0 0 1 .068-.039.117.117 0 0 0 .024-.015.283.283 0 0 1 .071-.038.3.3 0 0 1 .1-.06l.011-.007a.283.283 0 0 1 .059-.032h.009a.282.282 0 0 1 .057-.038l.03-.016a.284.284 0 0 1 .1-.055zm-27.5-11.089a1.48 1.48 0 0 1 .732.216l9.836 5.674a3.251 3.251 0 0 1 1.5 2.6v11.329a1.2 1.2 0 0 1-.591 1.139.653.653 0 0 1-.1.058.898.898 0 0 1-.069.041.558.558 0 0 1-.108.06.936.936 0 0 1-.08.049.839.839 0 0 1-.094.054.7.7 0 0 1-.091.053.745.745 0 0 1-.092.051.711.711 0 0 1-.089.05.914.914 0 0 1-.094.055l-.013.008a.722.722 0 0 1-.075.043.771.771 0 0 1-.086.049.658.658 0 0 1-.1.056.763.763 0 0 1-.075.043.656.656 0 0 1-.116.07l-.028.016-.037.021a.611.611 0 0 1-.112.063c-.02.013-.046.031-.078.048a.7.7 0 0 1-.1.052.667.667 0 0 1-.067.038.521.521 0 0 1-.154.081.283.283 0 0 1-.256-.5.726.726 0 0 0 .24-.609V89.15a2.707 2.707 0 0 0-1.215-2.1l-9.832-5.68a.723.723 0 0 0-.65-.1.283.283 0 0 1-.288-.483.608.608 0 0 1 .123-.071.749.749 0 0 1 .075-.044.857.857 0 0 1 .1-.058l.044-.024.033-.018c.036-.023.069-.041.1-.057h.009l.042-.025.035-.021.01-.006a.729.729 0 0 1 .093-.051c.019-.013.037-.023.053-.032l.016-.009a.673.673 0 0 1 .122-.069l.011-.007a.816.816 0 0 1 .055-.032.754.754 0 0 1 .1-.058l.06-.036.021-.013h.006l.028-.016.065-.037.011-.007a.835.835 0 0 1 .078-.045c.03-.019.058-.034.085-.048s.067-.04.094-.055l.063-.035.018-.01a.721.721 0 0 1 .1-.059c.021-.014.045-.03.075-.046a.622.622 0 0 1 .107-.061 1 1 0 0 1 .55-.165zm10.33 20.971.017-.011.037-.023.013-.007a.332.332 0 0 0 .048-.028.282.282 0 0 1 .063-.036.14.14 0 0 0 .031-.017.283.283 0 0 1 .064-.035.188.188 0 0 0 .037-.021.284.284 0 0 1 .047-.026.137.137 0 0 0 .029-.017.283.283 0 0 1 .067-.038.386.386 0 0 0 .043-.026l.021-.013a.447.447 0 0 0 .055-.035.283.283 0 0 1 .063-.034l.02-.008a.254.254 0 0 1 .056-.035.459.459 0 0 0 .049-.03.283.283 0 0 1 .054-.028.1.1 0 0 0 .025-.015.284.284 0 0 1 .049-.029.65.65 0 0 0 .29-.639V88.061a2.716 2.716 0 0 0-1.217-2.107l-9.841-5.676a.94.94 0 0 0-.45-.141.428.428 0 0 0-.25.074.284.284 0 0 1-.068.035l-.01.007a.282.282 0 0 1-.047.03.409.409 0 0 0-.041.025l-.021.014a.283.283 0 0 1-.046.024.153.153 0 0 0-.031.018l-.027.017-.039.021-.042.024-.017.01a.63.63 0 0 0-.066.038l-.025.015h-.007c-.027.014-.045.023-.062.035a.282.282 0 0 1-.041.022l-.026.016-.03.019-.019.01-.042.024-.037.021-.021.012-.049.03-.03.018-.014.007a.22.22 0 0 0-.034.019.282.282 0 0 1-.052.031l-.025.015-.044.026-.031.015q.066.031.132.069l9.837 5.676a3.241 3.241 0 0 1 1.5 2.6v11.328q0 .079-.006.152l.009-.006a.281.281 0 0 1 .04-.024.261.261 0 0 0 .045-.025.283.283 0 0 1 .067-.036zM110.72 89a1.445 1.445 0 0 1 .729.219l9.836 5.676a3.242 3.242 0 0 1 1.5 2.59v11.343a1.186 1.186 0 0 1-.6 1.134l-.056.033-.026.015-.01.005-.016.01a.628.628 0 0 1-.084.047l-.013.007-.067.036-.039.023-.032.019a1.068 1.068 0 0 1-.113.067l-.035.021-.045.027-.04.022c-.012.007-.026.013-.04.022h-.007l-.016.01-.064.04a.284.284 0 0 1-.04.022l-.054.028a.862.862 0 0 1-.106.061l-.016.01c-.019.012-.042.027-.071.042l-.089.052-.092.051-.043.027-.029.019a.281.281 0 0 1-.042.022.44.44 0 0 0-.052.027.946.946 0 0 1-.109.064l-.078.046-.009.005-.037.021-.053.03h-.009l-.03.017-.047.027c-.036.021-.07.04-.105.058a.283.283 0 0 1-.285-.487.69.69 0 0 0 .238-.6V98.571a2.731 2.731 0 0 0-1.218-2.1l-9.839-5.676a.719.719 0 0 0-.647-.09.283.283 0 0 1-.294-.478.818.818 0 0 1 .125-.08l.091-.053.044-.025.043-.025.047-.028.042-.025.062-.034.021-.011a.556.556 0 0 1 .112-.065l.069-.043.018-.008.033-.019.061-.034.048-.027.026-.015a.914.914 0 0 1 .1-.056 1.34 1.34 0 0 1 .076-.043.726.726 0 0 1 .108-.063l.011-.007c.02-.012.044-.027.074-.042h.007a.751.751 0 0 1 .1-.055l.027-.016.04-.024a1.007 1.007 0 0 1 .092-.051.921.921 0 0 1 .111-.065h.007l.016-.01.053-.031.012-.007.079-.045.062-.035.019-.01a1 1 0 0 1 .558-.175zm11.106 20.518.028-.016.046-.027.029-.016a.667.667 0 0 0 .294-.633V97.484a2.707 2.707 0 0 0-1.217-2.1l-9.839-5.677a.65.65 0 0 0-.7-.068l-.022.014-.033.018-.051.029-.014.008-.064.036-.017.01-.01.005-.024.014a.719.719 0 0 1-.072.041.4.4 0 0 0-.052.032.284.284 0 0 1-.034.021l-.019.01a.461.461 0 0 0-.047.026l-.02.012-.028.016c-.022.013-.043.026-.068.039l-.017.008-.025.016-.025.016-.026.014a.442.442 0 0 0-.04.023l-.029.018-.024.013a.211.211 0 0 0-.033.018.279.279 0 0 1-.05.033l-.013.007a.421.421 0 0 0-.047.026.284.284 0 0 1-.053.028l-.038.023-.01.006-.013.008-.025.014q.062.029.124.065l9.841 5.678a3.266 3.266 0 0 1 1.5 2.59v11.347q0 .071-.005.139l.019-.012.025-.014.034-.02.042-.026.018-.01a.336.336 0 0 0 .053-.03l.02-.013c.024-.014.057-.032.094-.05l.067-.041.012-.007c.03-.019.057-.033.078-.044l.023-.012.034-.02.055-.032.012-.006a.507.507 0 0 0 .061-.037l.009-.006.05-.03.036-.021.023-.013.057-.031.028-.016.027-.013.012-.008z" transform="translate(14.714 -1.878)" style="fill:#002b47"/>
                <path data-name="Path 18237" d="M123.1 39.228v11.339c0 .861-.613 1.211-1.361.78L79.2 26.819a3.022 3.022 0 0 1-1.368-2.355V13.131c0-.868.611-1.21 1.364-.782l42.531 24.531a2.992 2.992 0 0 1 1.361 2.35" transform="translate(14.583 -.703)" style="fill:#bbe2f9"/>
                <path data-name="Path 18238" d="m118.721 103.23-7.958-4.6v-1.771l7.963 4.592zm.007 1.48-7.965-4.591v1.775l7.961 4.59zm0-39.961-3.213-1.849v-3.7l-1.547-.891v3.7l-3.205-1.853v1.78l3.208 1.85v3.7l1.542.888v-3.7l3.213 1.851zM118.1 87.06l-2.277-3.929 2.275-1.3-1.1-1.888-2.264 1.309-2.271-3.927-1.1.636 2.272 3.914-2.266 1.309 1.091 1.888 2.269-1.309 2.27 3.927zM97.564 74.318c-.111.02-.155.073-.155.215v1.091a.416.416 0 0 0 .217.378l1.177.676v-.512c0-.161.081-.208.223-.128l1.046.6a.415.415 0 0 1 .216.376v1.925c0 .16-.078.208-.222.126l-3.923-2.262a.428.428 0 0 1-.217-.382v-3.706c0-.239.078-.3.282-.295l2.594-.113v-1.864a.821.821 0 0 0-.432-.754l-.522-.3c-.3-.169-.437-.082-.437.253v.983c0 .122-.064.16-.171.1l-1.14-.652a.336.336 0 0 1-.174-.3v-1.332c0-1.182.547-1.5 1.572-.9l1.221.7a3.017 3.017 0 0 1 1.571 2.714v2.965c0 .242-.088.294-.3.3zM83.66 43.555c0 .128-.068.163-.178.1l-1.089-.629a.331.331 0 0 1-.174-.3V41.72a.82.82 0 0 0-.434-.751l-.565-.33c-.293-.17-.432-.073-.432.252l-.007 5.728a.821.821 0 0 0 .437.755l.569.323c.283.165.437.091.437-.247v-1c0-.134.061-.179.176-.111l1.1.629a.356.356 0 0 1 .174.307v1.355c0 1.181-.557 1.486-1.571.9l-1.221-.708a3 3 0 0 1-1.582-2.718v-6.429c0-1.186.558-1.492 1.586-.9l1.219.706a3 3 0 0 1 1.552 2.719zm0 39.288c0 .458-.3.646-.69.492v.025a1.769 1.769 0 0 1 .69 1.3v2.3c0 1.182-.557 1.491-1.582.9l-1.264-.729a2.959 2.959 0 0 1-1.534-2.643v-.414c0-.166.078-.206.22-.128l1.049.608a.4.4 0 0 1 .218.375v.516l1.222.7c.137.08.217.035.217-.125v-1.782a.808.808 0 0 0-.434-.753l-1.29-.742a.411.411 0 0 1-.215-.376v-1.153c0-.163.077-.211.221-.128l1.284.742c.287.163.435.072.441-.232V79.79a.4.4 0 0 0-.217-.373l-1.222-.7v.51c0 .17-.075.211-.215.131l-1.059-.612a.428.428 0 0 1-.217-.375v-.514c0-1.081.539-1.356 1.527-.784l1.265.729a3.024 3.024 0 0 1 1.586 2.726zm16.928 11.139a.425.425 0 0 1 .218.378v1.081c0 .165-.076.208-.217.125l-.448-.255v2.708c0 .16-.07.208-.215.13l-.95-.551a.405.405 0 0 1-.217-.373v-2.744l-3.131-1.8a.413.413 0 0 1-.215-.374v-1.119a.385.385 0 0 1 .078-.261l2.8-3.61c.054-.082.142-.082.257-.012l1.148.659c.173.1.241.266.143.387L97.1 92l1.659.958v-1.514c0-.166.076-.2.217-.126l.95.546a.433.433 0 0 1 .219.383v1.479zm-18.1-35.1a.341.341 0 0 1 .175.3v9.649c0 .126-.067.168-.175.1l-1.134-.658a.334.334 0 0 1-.175-.3v-7.935l-.675-.293a.36.36 0 0 1-.227-.355v-1.209c0-.16.062-.218.2-.15zm19.6-1.948-7.966-4.593v-1.772l7.963 4.588zm-3.165-5.867a1.792 1.792 0 0 0-.818-1.412c-.457-.255-.817-.052-.817.468a1.779 1.779 0 0 0 .817 1.411c.453.26.815.051.818-.467m0 6.31a1.808 1.808 0 0 0-.82-1.414c-.452-.254-.817-.043-.817.473a1.794 1.794 0 0 0 .817 1.41c.453.263.82.05.82-.469" transform="translate(14.501 -2.225)" style="fill:#1272e2"/>
                <path data-name="Path 18239" d="m105.017 34.9-7.959-4.6v-1.767l7.964 4.591z" transform="translate(13.492 -1.65)" style="fill:#1272e2"/>
                <path data-name="Path 18240" d="m105.024 36.583-7.966-4.591v1.775l7.961 4.59z" transform="translate(13.493 -1.85)" style="fill:#1272e2"/>
                <path data-name="Path 18241" d="M110.471 39.977c-.11.021-.155.074-.155.216v1.092a.416.416 0 0 0 .218.377l1.177.676v-.512c0-.162.08-.208.222-.128l1.047.6a.415.415 0 0 1 .215.376v1.925c0 .16-.079.208-.222.126l-3.924-2.261a.431.431 0 0 1-.217-.383v-3.707c0-.237.078-.3.282-.294l2.594-.113v-1.864a.821.821 0 0 0-.433-.753l-.521-.3c-.3-.17-.438-.083-.438.251v.984c0 .122-.064.16-.172.1l-1.134-.653a.336.336 0 0 1-.174-.3V34.1c0-1.182.548-1.5 1.573-.9l1.221.7a3.017 3.017 0 0 1 1.571 2.715v2.965c0 .242-.087.295-.3.3z" transform="translate(12.824 -1.902)" style="fill:#1272e2"/>
                <path data-name="Path 18242" d="M120.906 44.254a.427.427 0 0 1 .218.378v1.081c0 .165-.075.208-.217.125l-.448-.255v2.708c0 .16-.069.208-.215.13l-.95-.551a.405.405 0 0 1-.217-.373v-2.744l-3.13-1.8a.409.409 0 0 1-.215-.374V41.46a.392.392 0 0 1 .078-.261l2.8-3.609c.055-.083.143-.083.257-.013l1.149.66c.172.1.241.265.143.386l-2.739 3.645 1.659.958v-1.51c0-.166.076-.2.217-.126l.95.546a.436.436 0 0 1 .22.383v1.479z" transform="translate(12.433 -2.17)" style="fill:#1272e2"/>
                <path data-name="Path 18243" d="m84.55 30.014-5.058 2.469-4.216 1.69a5.5 5.5 0 0 0-2.833 2.567l-.586 1.131a5.5 5.5 0 0 1-.6.913l-14.7 18.263a6.291 6.291 0 0 0-.788.371l-10.053 5.708A6.351 6.351 0 1 0 52 74.166l10.057-5.708a6.316 6.316 0 0 0 1.765-1.491 5.565 5.565 0 0 0 1.069-1.5L75.2 44.371a5.481 5.481 0 0 1 1.513-1.884L79.46 40.3a2.082 2.082 0 0 0 .784-1.659v-.118a1.714 1.714 0 0 1 .313-1.016l.2-.291a1.215 1.215 0 0 0-.006-1.407 1.214 1.214 0 0 1 .271-1.689l4.165-3.042a.622.622 0 0 0-.64-1.06" transform="translate(16.588 -1.732)" style="fill:#fff"/>
                <path data-name="Path 18244" d="M84.808 29.649a.912.912 0 0 1 .731.374.89.89 0 0 1 .13.8.91.91 0 0 1-.328.457l-4.166 3.043a.935.935 0 0 0-.208 1.3 1.5 1.5 0 0 1 .007 1.734l-.2.291a1.424 1.424 0 0 0-.262.849v.118a2.379 2.379 0 0 1-.89 1.884l-2.755 2.191a5.229 5.229 0 0 0-1.435 1.787l-10.309 21.1a5.874 5.874 0 0 1-1.113 1.563 6.6 6.6 0 0 1-1.835 1.546l-10.057 5.709a6.633 6.633 0 1 1-6.558-11.532l10.057-5.707a6.326 6.326 0 0 1 .753-.36L71.024 38.59a5.23 5.23 0 0 0 .565-.866l.586-1.13a5.781 5.781 0 0 1 2.978-2.7l4.207-1.686 5.048-2.465a.9.9 0 0 1 .4-.094zM48.845 74.7a6.079 6.079 0 0 0 2.994-.793L61.9 68.2a6.033 6.033 0 0 0 1.686-1.424l.018-.02a5.309 5.309 0 0 0 1.015-1.422l10.309-21.1a5.8 5.8 0 0 1 1.591-1.982l2.752-2.191a1.81 1.81 0 0 0 .677-1.434v-.118a1.985 1.985 0 0 1 .365-1.183l.2-.291a.932.932 0 0 0 0-1.08 1.5 1.5 0 0 1 .334-2.082l4.166-3.042a.34.34 0 0 0 .122-.171.327.327 0 0 0-.047-.3.34.34 0 0 0-.425-.107l-5.076 2.478-4.216 1.69a5.215 5.215 0 0 0-2.687 2.435l-.586 1.13a5.8 5.8 0 0 1-.627.96l-14.753 18.32-.069.028a5.956 5.956 0 0 0-.752.354l-10.058 5.706a6.062 6.062 0 0 0-2.28 8.27 6.091 6.091 0 0 0 5.286 3.076z" transform="translate(16.606 -1.714)" style="fill:#002b47"/>
                <path data-name="Path 18245" d="m7.8 112.025 30.352.043.508 32.138-37.8.6z" transform="translate(18.951 -6.477)" style="fill:#fedd31"/>
                <path data-name="Path 18246" d="m7.55 111.725 30.86.044.517 32.7-38.436.607zm30.3.609-29.844-.043L1.192 144.5l37.16-.587z" transform="translate(18.972 -6.46)" style="fill:#002b47"/>
                <path data-name="Path 18247" d="M12.914 55.938a13.736 13.736 0 0 0 .956 4.848 15.513 15.513 0 0 0 6.267 29.927 15.689 15.689 0 0 0 15.579-15.8q-.011-.728-.09-1.438h.2A10.077 10.077 0 0 0 46 63.516c-.078-4.978-3.194-9.778-8.274-10.323-.841-6.368-6.849-10.476-12.985-10.379-6.646.1-11.942 5.981-11.828 13.124" transform="translate(18.769 -2.475)" style="fill:#0e2b45"/>
                <path data-name="Path 18248" d="M7.115 98.347 7.8 110.32s4.644 4.108 17.47 4.428c6.258.155 13.126-5.434 13.126-5.434l1.671-26.684 13.855-9.1c-2.834-7.064-4.964-10.55-5.676-11.41l-17.411 7.457-9.548.151-5.411 1.949a26.147 26.147 0 0 0-6.836 3.688S3.217 77.593 5.827 88.83a56.318 56.318 0 0 1 1.288 9.517" transform="translate(18.708 -3.592)" style="fill:#1272e2"/>
                <path data-name="Path 18249" d="M25.513 115.013h-.266a42.558 42.558 0 0 1-13.64-2.353 14.116 14.116 0 0 1-4.007-2.15l-.088-.078-.696-12.09a55.79 55.79 0 0 0-1.282-9.469 21.594 21.594 0 0 1-.6-6.936 10.486 10.486 0 0 1 1.264-4.215A6.134 6.134 0 0 1 8.883 75.1a26.4 26.4 0 0 1 6.881-3.706l5.455-1.965 9.539-.151 17.556-7.524.135.163c.748.9 2.906 4.469 5.72 11.485l.086.214-13.93 9.154-1.669 26.667-.1.078a31.85 31.85 0 0 1-4.155 2.747c-2.255 1.253-5.631 2.751-8.888 2.751zM8.06 110.158a15.044 15.044 0 0 0 3.793 1.987 40.365 40.365 0 0 0 13.408 2.3h.252c3.132 0 6.409-1.456 8.607-2.678a32.015 32.015 0 0 0 3.986-2.62l1.671-26.7 13.779-9.055c-2.6-6.438-4.6-9.864-5.415-10.955l-17.264 7.4-9.556.151-5.366 1.933a25.838 25.838 0 0 0-6.761 3.649l-.032.024-.037.014a5.6 5.6 0 0 0-2.465 2.436 9.99 9.99 0 0 0-1.171 3.986 21.1 21.1 0 0 0 .6 6.715 56.345 56.345 0 0 1 1.3 9.565z" transform="translate(18.725 -3.57)" style="fill:#002b47"/>
                <path data-name="Path 18250" d="M27.149 72.879c.031 1.947 3.536 5.923 6.078 5.882s3.757-5.01 3.726-6.957-2.42-3.333-4.962-3.294-4.873 2.422-4.842 4.369" transform="translate(17.459 -3.961)" style="fill:#fff"/>
                <path data-name="Path 18251" d="M17.222 72.786c.026 1.693 1.4 6.416 3.937 6.376s6.062-4.841 6.035-6.533-2.109-3.033-4.651-2.992-5.347 1.457-5.321 3.15" transform="translate(18.023 -4.026)" style="fill:#fff"/>
                <path data-name="Path 18252" d="M31.447 65.481s3.626.647 5.737-2.158.393-6.863.393-6.863l-2.83-8.317S30.176 46 28.112 51.29s-3.145 4.917-3.145 4.917-4.853-2.414-5.285 1.967c-.306 3.1 3.275 4.09 3.275 4.09l-.9 6.536s.5 3.205 4.858 3.329c4.492.128 4.863-2.483 4.863-2.483z" transform="translate(17.884 -2.759)" style="fill:#fff"/>
                <path data-name="Path 18253" d="M27.21 72.4h-.324a5.612 5.612 0 0 1-4.276-1.814 4 4 0 0 1-.854-1.754l-.006-.041.877-6.343a6.365 6.365 0 0 1-1.608-.853 3.713 3.713 0 0 1-1.636-3.46c.235-2.385 1.708-2.886 2.9-2.886a7.093 7.093 0 0 1 2.735.666c.149-.033 1.124-.415 2.811-4.74 1.211-3.106 3.27-3.758 4.784-3.758a5.731 5.731 0 0 1 2.236.458l.109.051 2.865 8.421a10.024 10.024 0 0 1 .611 2.445 6.371 6.371 0 0 1-1.043 4.687 6.191 6.191 0 0 1-5.04 2.335c-.245 0-.453-.012-.614-.026l.3 3.854v.031a2.736 2.736 0 0 1-.78 1.4A5.491 5.491 0 0 1 27.21 72.4zm-4.887-3.623a3.579 3.579 0 0 0 .744 1.469A4.919 4.919 0 0 0 26.9 71.83a5.31 5.31 0 0 0 3.927-1.13 2.3 2.3 0 0 0 .645-1.088l-.353-4.493.361.064a6.086 6.086 0 0 0 5.461-2.049c1.99-2.645.375-6.544.359-6.583l-.007-.019-2.789-8.2a5.349 5.349 0 0 0-1.889-.359 3.981 3.981 0 0 0-2.231.646 5.614 5.614 0 0 0-2.026 2.752 17.531 17.531 0 0 1-2.179 4.272c-.546.687-.943.831-1.179.831a.437.437 0 0 1-.144-.022l-.032-.014a6.682 6.682 0 0 0-2.539-.634c-1.416 0-2.181.777-2.338 2.376a3.136 3.136 0 0 0 1.41 2.951 5.717 5.717 0 0 0 1.659.839l.238.066z" transform="translate(17.901 -2.741)" style="fill:#002b47"/>
                <path data-name="Path 18254" d="M32.089 69.529 32 66.431l-5.292-2.069z" transform="translate(17.484 -3.721)" style="fill:#0e2b45"/>
                <path data-name="Path 18255" d="M36.832 54.767c.173.547.032 1.079-.313 1.188s-.766-.247-.939-.794-.033-1.079.313-1.187.766.246.939.793" transform="translate(16.985 -3.12)" style="fill:#0e2b45"/>
                <path data-name="Path 18256" d="M31.607 56.822c.173.547.032 1.079-.313 1.188s-.766-.247-.939-.794-.033-1.079.313-1.187.766.246.939.793" transform="translate(17.282 -3.238)" style="fill:#0e2b45"/>
                <path data-name="Path 18257" d="M82.013 33.994a.973.973 0 0 0-1.3-.9l-3.4 1.191a.288.288 0 1 0 .191.543l3.4-1.191a.4.4 0 0 1 .363.7L78.5 36.325l-.37 1.735a2.278 2.278 0 0 1-1.273 1.6l.242.522a2.857 2.857 0 0 0 1.6-2l.32-1.516 2.589-1.866a.974.974 0 0 0 .4-.8" transform="translate(14.639 -1.91)" style="fill-rule:evenodd;fill:#0e2b45"/>
                <path data-name="Path 18258" d="M82.581 35.745a.288.288 0 0 0-.407-.025l-3.394 3a1.051 1.051 0 0 0 1.294 1.652l2.105-1.45a.288.288 0 1 0-.327-.474L79.747 39.9a.476.476 0 0 1-.586-.748l3.395-3a.287.287 0 0 0 .025-.406" transform="translate(14.55 -2.061)" style="fill-rule:evenodd;fill:#0e2b45"/>
                <path data-name="Line 1211" transform="translate(41.958 70.69)" style="fill:#fff" d="M2.677 0 0 40.171"/>
                <path data-name="Line 1212" d="m.265 40.188-.565-.037L2.378-.02l.565.038z" transform="translate(41.975 70.691)" style="fill:#002b47"/>
                <path data-name="Line 1213" transform="translate(38.966 54.877)" style="fill:#fff" d="m0 0 2.384 2.133"/>
                <path data-name="Line 1214" d="M2.366 2.4a.282.282 0 0 1-.189-.072L-.206.193a.282.282 0 0 1-.022-.4.283.283 0 0 1 .4-.022l2.383 2.134a.283.283 0 0 1-.189.493z" transform="translate(38.983 54.894)" style="fill:#002b47"/>
                <path data-name="Path 18259" d="M34.9 61.615a1.263 1.263 0 0 1-2.455-.593" transform="translate(17.161 -3.528)" style="fill-rule:evenodd;fill:#fff"/>
                <path data-name="Path 18260" d="M33.654 62.845a1.546 1.546 0 0 1-1.5-1.907.283.283 0 0 1 .55.132.98.98 0 0 0 1.905.46.283.283 0 0 1 .55.133 1.549 1.549 0 0 1-1.505 1.182z" transform="translate(17.178 -3.511)" style="fill:#002b47"/>
                <path data-name="Path 18261" d="m33.129 54.567 2.051 3.371-1.339.725" transform="translate(17.12 -3.155)" style="fill-rule:evenodd;fill:#fff"/>
                <path data-name="Path 18262" d="M33.824 58.929a.283.283 0 0 1-.135-.531l1.078-.584-1.9-3.117a.283.283 0 0 1 .484-.294l2.049 3.371a.282.282 0 0 1-.107.4l-1.339.725a.282.282 0 0 1-.13.03z" transform="translate(17.137 -3.138)" style="fill:#002b47"/>
                <path data-name="Path 18263" d="M14.607 81.4a1.471 1.471 0 1 1-1.471-1.47 1.47 1.47 0 0 1 1.471 1.47" transform="translate(18.338 -4.622)" style="fill:#bbe2f9"/>
                <path data-name="Path 18264" d="M15.38 111.121a1.471 1.471 0 1 1-1.471-1.47 1.47 1.47 0 0 1 1.471 1.47" transform="translate(18.294 -6.34)" style="fill:#bbe2f9"/>
                <path data-name="Path 18265" d="M19.842 97.634a1.471 1.471 0 1 1-1.471-1.47 1.47 1.47 0 0 1 1.471 1.47" transform="translate(18.041 -5.56)" style="fill:#bbe2f9"/>
                <path data-name="Path 18266" d="M44.079 74.634a1.471 1.471 0 1 1-1.471-1.47 1.47 1.47 0 0 1 1.471 1.47" transform="translate(16.666 -4.23)" style="fill:#bbe2f9"/>
                <path data-name="Path 18267" d="M32.95 87.247a1.471 1.471 0 1 1-1.471-1.47 1.47 1.47 0 0 1 1.471 1.47" transform="translate(17.297 -4.96)" style="fill:#bbe2f9"/>
                <path data-name="Path 18268" d="M36.7 109.209a1.471 1.471 0 1 1-1.471-1.47 1.47 1.47 0 0 1 1.471 1.47" transform="translate(17.084 -6.23)" style="fill:#bbe2f9"/>
                <path data-name="Path 18269" d="m6.9 87.616 2.276 7.994 12.97-2.118-2.14-11.067" transform="translate(18.608 -4.766)" style="fill:#1272e2"/>
                <path data-name="Path 18270" d="m8.955 95.913-2.341-8.237a.283.283 0 0 1 .544-.154l2.2 7.752L21.8 93.243l-2.089-10.782a.283.283 0 0 1 .556-.107l2.195 11.353z" transform="translate(18.625 -4.748)" style="fill:#002b47"/>
                <path data-name="Path 18271" d="m23.375 99.6-1.247-5.855-12.72 1.994 3.267 9.858a7.486 7.486 0 0 0 10.745 4.18L41.706 99.6s8.231-2.117 8.6-3.737a19.773 19.773 0 0 0 0-4.858l3.065-4.71a.45.45 0 0 0-.675-.583l-6.006 5.293-3.242.747L46.07 87.5a.521.521 0 0 0-.833-.62l-4.9 5.494z" transform="translate(18.466 -4.949)" style="fill:#fff"/>
                <path data-name="Path 18272" d="M19.758 111.078a7.855 7.855 0 0 1-7.471-5.386L8.88 95.412l13.512-2.118 1.226 5.756 16.461-7.012 4.847-5.431a.893.893 0 0 1 .671-.3.908.908 0 0 1 .219.027.9.9 0 0 1 .546 1.342l-2.146 3.484 2.27-.523 5.934-5.23a.827.827 0 0 1 1.241 1.072l-2.991 4.6a18.932 18.932 0 0 1-.022 4.85c-.12.521-.737 1.374-4.686 2.747a61.433 61.433 0 0 1-4.144 1.258l-18.244 10.148a7.867 7.867 0 0 1-3.816.996zM9.876 96.019 13 105.455a7.1 7.1 0 0 0 10.2 3.969l18.328-10.2.047-.012c.02-.005 2.07-.535 4.136-1.253 3.815-1.327 4.163-2.068 4.195-2.2a19.538 19.538 0 0 0-.007-4.73l-.016-.135 3.139-4.824a.074.074 0 0 0 0-.087.073.073 0 0 0-.057-.026.07.07 0 0 0-.048.018l-6.077 5.356-4.214.971 3.091-5.018a.143.143 0 0 0 .011-.131.14.14 0 0 0-.1-.085.149.149 0 0 0-.035 0 .14.14 0 0 0-.106.046l-4.957 5.552-17.459 7.434-1.271-5.95z" transform="translate(18.496 -4.926)" style="fill:#002b47"/>
                <path data-name="Line 1215" transform="translate(65.159 86.432)" style="fill:#fff" d="M3.511 0 0 2.28"/>
                <path data-name="Line 1216" d="M-.022 2.634a.377.377 0 0 1-.317-.171.377.377 0 0 1 .111-.521l3.51-2.281a.378.378 0 0 1 .518.11.377.377 0 0 1-.111.521L.183 2.573a.376.376 0 0 1-.205.061z" transform="translate(65.182 86.455)" style="fill:#002b47"/>
                <path data-name="Line 1217" transform="translate(66.177 88.817)" style="fill:#fff" d="M2.599 0 0 1.648"/>
                <path data-name="Line 1218" d="M-.022 2a.377.377 0 0 1-.319-.175.377.377 0 0 1 .116-.52l2.6-1.648a.378.378 0 0 1 .521.116.377.377 0 0 1-.118.527L.18 1.943A.376.376 0 0 1-.022 2z" transform="translate(66.199 88.84)" style="fill:#002b47"/>
            </g>
        </g>
    </g>
</svg>
