<svg data-name="To pay-off loans in" xmlns="http://www.w3.org/2000/svg" width="48" height="48" viewBox="0 0 48 48">
    <path data-name="Rectangle 24005" style="fill:none" d="M0 0h48v48H0z"/>
    <g data-name="Group 22726">
        <path data-name="Rectangle 24006" style="opacity:.2;fill:none" d="M0 0h40v40H0z" transform="translate(4 4)"/>
        <g data-name="Group 22725" transform="translate(12.096 4.129)">
            <path data-name="Subtraction 89" d="M10.011 19c-4.311-.058-7.287-1.333-8.845-3.791a9.454 9.454 0 0 1-.775-7.4C1.435 3.8 3.769 2.478 7.3.475h.007q.4-.229.828-.471h3.875q.474.28.923.54c3.412 1.99 5.665 3.3 6.7 7.273a9.217 9.217 0 0 1-.638 7.326 7.179 7.179 0 0 1-3.174 2.732A14.286 14.286 0 0 1 10.011 19zM7.766 9.27a.6.6 0 0 0-.545.637.134.134 0 0 0 0 .018.675.675 0 0 0 .207.5l3.395 3.125a.5.5 0 0 0 .337.137.52.52 0 0 0 .429-.243.708.708 0 0 0 .113-.468.665.665 0 0 0-.2-.425L9.271 10.5a2.45 2.45 0 0 0 1.784-1.958h1.036a.6.6 0 0 0 .545-.636.6.6 0 0 0-.545-.637h-1.037a2.858 2.858 0 0 0-.26-.728h1.3a.6.6 0 0 0 .545-.637.6.6 0 0 0-.545-.636H7.766a.6.6 0 0 0-.545.636.6.6 0 0 0 .546.639H8.92a1.181 1.181 0 0 1 .975.728H7.767a.6.6 0 0 0-.546.637.6.6 0 0 0 .546.636H9.9a1.161 1.161 0 0 1-1.036.729z" transform="translate(7.707 21)" style="fill:#1272e2"/>
            <circle data-name="Ellipse 5156" cx="10.922" cy="10.922" r="10.922" transform="translate(-6.096 2.155)" style="fill:#fedd31;opacity:.5"/>
            <path data-name="Path 14775" d="M14.529 11.411c.948-.7.459-2.4 2.07-4.456.169-.259.2-.383.075-.567s-.417-.173-.735-.065a3.565 3.565 0 0 1-2.15-.286c-1.652-.557-4.036-1.342-5 .692-.093.2-.029.174.156.413.5.65.614 2.789 2.532 4.269" transform="translate(5.144 -5.411)" style="fill:#1272e2"/>
            <g data-name="Group 22724">
                <path data-name="Union 180" d="M2.249 19.379A2.252 2.252 0 0 1 0 17.129V4.542a2.252 2.252 0 0 1 2.249-2.251h4.085a2.253 2.253 0 0 1 2.251 2.251v12.587a2.252 2.252 0 0 1-2.251 2.25zM1.5 4.542v12.587a.75.75 0 0 0 .75.749h4.084a.751.751 0 0 0 .751-.749V4.542a.753.753 0 0 0-.751-.751H2.249a.752.752 0 0 0-.749.751zm20.521 13.065h-3.468c-.092 0-.181 0-.271-.01a.827.827 0 0 1-.127.01h-6.9a3.81 3.81 0 0 1-2.089-.622.75.75 0 0 1 .824-1.253 2.3 2.3 0 0 0 1.267.376h6.692a.728.728 0 0 1 .316-.022 2.125 2.125 0 0 0 .29.022h3.531a1.508 1.508 0 0 0 1.627-1.274 1.081 1.081 0 0 0-.4-.776.75.75 0 0 1 .507-1.324 1.481 1.481 0 0 0 1.58-1.252 1.086 1.086 0 0 0-.47-.825.75.75 0 0 1 .238-1.333 1.841 1.841 0 0 0 .672-.348 1.214 1.214 0 0 0 .453-.9 1.294 1.294 0 0 0-.734-1.1.749.749 0 0 1-.01-1.333 1.777 1.777 0 0 0 .29-.195l.008-.007a1.179 1.179 0 0 0 .446-.875 1.531 1.531 0 0 0-1.64-1.342H22.52a12.993 12.993 0 0 1-2.579-.248c-.415-.083-.8-.152-1.172-.212a.751.751 0 0 1-.624-.858c0-.009 0-.018.005-.026a.9.9 0 0 0-.741-.382H14.42a1.147 1.147 0 0 0-.9.431l-2.629 3.286a8.753 8.753 0 0 0-.691 1.124.746.746 0 0 1-.667.407.723.723 0 0 1-.343-.083.75.75 0 0 1-.326-1.009 10.041 10.041 0 0 1 .829-1.34.189.189 0 0 1 .018-.026l2.642-3.3A2.638 2.638 0 0 1 14.42 0h2.98a2.4 2.4 0 0 1 2.082 1.178.825.825 0 0 1 .048.1l.044.108c.215.038.436.081.666.126a11.511 11.511 0 0 0 2.283.218H24.6a3.032 3.032 0 0 1 3.191 2.78v.045a2.649 2.649 0 0 1-.691 1.754 2.73 2.73 0 0 1 .687 1.747v.027a2.709 2.709 0 0 1-.987 2.047 3.313 3.313 0 0 1-.222.168 2.528 2.528 0 0 1 .322 1.192.563.563 0 0 1 0 .075 2.9 2.9 0 0 1-1.842 2.448 2.53 2.53 0 0 1 .154.836v.067a2.849 2.849 0 0 1-1.047 1.984 3.1 3.1 0 0 1-1.982.707 1.46 1.46 0 0 1-.162 0z" style="fill:#094771" transform="translate(0 4.811)"/>
            </g>
            <path data-name="Rectangle 24007" transform="translate(2.749 5)" style="fill:none" d="M0 0h27v19H0z"/>
        </g>
    </g>
</svg>
