<svg xmlns="http://www.w3.org/2000/svg" width="96" height="96" viewBox="0 0 96 96">
    <defs>
        <clipPath id="5s94t2l5ma">
            <path data-name="Rectangle 23171" transform="translate(19608 262)" style="fill:#fff" d="M0 0h96v96H0z"/>
        </clipPath>
    </defs>
    <g data-name="Mask Group 5937" transform="translate(-19608 -262)" style="clip-path:url(#5s94t2l5ma)">
        <g data-name="Group 22244">
            <g data-name="Group 22243">
                <path data-name="Path 12943" d="M46 59.161a2.144 2.144 0 0 1-1.631-.755L35.059 48.2H4.385A4.389 4.389 0 0 1 0 43.819V4.377A4.382 4.382 0 0 1 4.377 0h50.407a4.382 4.382 0 0 1 4.377 4.377v39.432a4.4 4.4 0 0 1-4.392 4.391H48.2v8.764a2.18 2.18 0 0 1-2.2 2.197zm-16.637-26.67a2.689 2.689 0 0 0-2 .847 2.867 2.867 0 0 0-.818 2.076 2.8 2.8 0 0 0 .842 2.168 2.875 2.875 0 0 0 1.978.774 2.746 2.746 0 0 0 1.928-.787 2.824 2.824 0 0 0 .836-2.155 2.914 2.914 0 0 0-.8-2.076 2.607 2.607 0 0 0-1.966-.847zm.446-19.673a3.922 3.922 0 0 1 2.845 1.082 3.554 3.554 0 0 1 1.1 2.642 3.1 3.1 0 0 1-.362 1.49 5.507 5.507 0 0 1-.888 1.245c-.353.374-.931.931-1.72 1.657a30.117 30.117 0 0 0-2.143 2.166 7.245 7.245 0 0 0-1.279 2.118 7.489 7.489 0 0 0-.485 2.848 2.727 2.727 0 0 0 .657 1.98 2.214 2.214 0 0 0 1.626.667 2.114 2.114 0 0 0 2.207-2.037c.122-.58.231-1.057.307-1.344a4.084 4.084 0 0 1 .287-.763 4.263 4.263 0 0 1 .563-.842 13.073 13.073 0 0 1 1.011-1.068c1.637-1.55 2.612-2.5 3.163-3.069a8.947 8.947 0 0 0 1.522-2.162 6.361 6.361 0 0 0 .638-2.918 7.333 7.333 0 0 0-1.12-3.921 7.816 7.816 0 0 0-3.184-2.853 10.342 10.342 0 0 0-4.744-1.05 9.963 9.963 0 0 0-5.062 1.256 8.939 8.939 0 0 0-3.3 3.163 7.393 7.393 0 0 0-1.133 3.778 2.452 2.452 0 0 0 .711 1.673 2.293 2.293 0 0 0 1.756.771c1.17 0 1.975-.744 2.392-2.212a8.932 8.932 0 0 1 1.634-3.2 3.828 3.828 0 0 1 3.001-1.097z" transform="translate(19635.529 274.232)" style="fill:#147bf3"/>
                <path data-name="Path 12943 - Outline" d="M46.975 61.619a3.6 3.6 0 0 1-2.734-1.248l-8.856-9.711H5.364A5.869 5.869 0 0 1-.5 44.8V5.356A5.863 5.863 0 0 1 5.356-.5h50.407a5.863 5.863 0 0 1 5.856 5.856v39.432a5.878 5.878 0 0 1-5.872 5.872h-5.086v7.285a3.645 3.645 0 0 1-3.686 3.675zM5.356 2.458a2.9 2.9 0 0 0-2.9 2.9V44.8a2.908 2.908 0 0 0 2.906 2.9h31.329l9.767 10.711a.668.668 0 0 0 .517.249.708.708 0 0 0 .728-.716V47.7h8.045a2.917 2.917 0 0 0 2.914-2.914V5.356a2.9 2.9 0 0 0-2.9-2.9zm24.986 38.356a4.369 4.369 0 0 1-2.969-1.155 4.245 4.245 0 0 1-1.329-3.265 4.405 4.405 0 0 1 2.085-3.794 3.8 3.8 0 0 1-.665-.535 4.139 4.139 0 0 1-1.087-3.023 8.926 8.926 0 0 1 .593-3.4 8.7 8.7 0 0 1 1.54-2.542 31.512 31.512 0 0 1 2.25-2.271c.769-.708 1.323-1.241 1.652-1.59a4.037 4.037 0 0 0 .653-.915l.01-.018a1.616 1.616 0 0 0 .184-.787 2.072 2.072 0 0 0-.656-1.581 2.465 2.465 0 0 0-1.814-.663 2.471 2.471 0 0 0-1.9.59 7.351 7.351 0 0 0-1.325 2.652c-.816 2.839-2.735 3.264-3.808 3.264a3.749 3.749 0 0 1-2.837-1.241l-.011-.012a3.936 3.936 0 0 1-1.1-2.671 8.845 8.845 0 0 1 1.341-4.533 10.4 10.4 0 0 1 3.833-3.689 11.417 11.417 0 0 1 5.8-1.454A11.8 11.8 0 0 1 36.2 9.4a9.268 9.268 0 0 1 3.768 3.391 8.79 8.79 0 0 1 1.342 4.7 7.819 7.819 0 0 1-.8 3.591 10.429 10.429 0 0 1-1.774 2.518c-.561.583-1.551 1.545-3.206 3.111a11.576 11.576 0 0 0-.885.934 2.84 2.84 0 0 0-.372.542l-.008.016a2.621 2.621 0 0 0-.184.49c-.067.252-.17.706-.284 1.243a3.934 3.934 0 0 1-1.446 2.564 4.231 4.231 0 0 1 1.031.805 4.4 4.4 0 0 1 1.2 3.092 4.3 4.3 0 0 1-1.3 3.233 4.236 4.236 0 0 1-2.94 1.184zm0-5.865a1.214 1.214 0 0 0-.938.4 1.4 1.4 0 0 0-.4 1.048 1.3 1.3 0 0 0 .362 1.077 1.393 1.393 0 0 0 .978.385 1.279 1.279 0 0 0 .915-.386 1.335 1.335 0 0 0 .37-1.077 1.444 1.444 0 0 0-.394-1.058 1.139 1.139 0 0 0-.893-.389zm5.34-15.249a6.986 6.986 0 0 1-1.123 1.572c-.372.394-.976.976-1.789 1.726a28.671 28.671 0 0 0-2.034 2.049 5.781 5.781 0 0 0-1.02 1.693 6.065 6.065 0 0 0-.38 2.3 1.451 1.451 0 0 0 .233.943.731.731 0 0 0 .571.225c.34 0 .608 0 .75-.813l.01-.05c.09-.427.219-1.02.325-1.419a5.557 5.557 0 0 1 .385-1.026 5.712 5.712 0 0 1 .75-1.133 14.517 14.517 0 0 1 1.128-1.195c1.628-1.542 2.588-2.473 3.123-3.029a7.49 7.49 0 0 0 1.272-1.814 4.9 4.9 0 0 0 .475-2.242 5.875 5.875 0 0 0-.9-3.141 6.36 6.36 0 0 0-2.6-2.313 8.888 8.888 0 0 0-4.076-.89 8.51 8.51 0 0 0-4.315 1.057 7.485 7.485 0 0 0-2.77 2.637 5.946 5.946 0 0 0-.927 3.024.954.954 0 0 0 .318.669.821.821 0 0 0 .67.3c.226 0 .646 0 .969-1.137l.013-.043a10.354 10.354 0 0 1 1.936-3.738 5.223 5.223 0 0 1 4.112-1.588 5.422 5.422 0 0 1 3.878 1.5 5.047 5.047 0 0 1 1.551 3.7 4.562 4.562 0 0 1-.535 2.176z" transform="translate(19634.55 273.253)" style="fill:transparent"/>
                <path data-name="Path 11895" d="M32.646 62.582a3.536 3.536 0 0 1-1.243-.227 3.458 3.458 0 0 1-2.265-3.263v-8.566H10.5a5.519 5.519 0 0 1-5.519-5.507V10.883a5.5 5.5 0 0 1 5.5-5.49h11.251a1.478 1.478 0 1 1 0 2.957H10.486a2.539 2.539 0 0 0-2.539 2.533v34.136a2.556 2.556 0 0 0 2.556 2.55H32.1v11.523a.532.532 0 0 0 .9.378l8.953-11.9h8.797a2.542 2.542 0 0 0 2.542-2.537v-2.011a1.482 1.482 0 0 1 2.964 0v2.011a5.506 5.506 0 0 1-5.506 5.494h-7.311l-8.177 10.861a3.47 3.47 0 0 1-2.616 1.194z" transform="translate(19610.826 284.615)" style="fill:#094771"/>
            </g>
        </g>
    </g>
</svg>
