<svg data-name="Group 29769" xmlns="http://www.w3.org/2000/svg" width="325" height="200" viewBox="0 0 325 200">
    <defs>
        <clipPath id="baj19ij6pa">
            <path data-name="Rectangle 26892" style="fill:none" d="M0 0h325v200H0z"/>
        </clipPath>
    </defs>
    <path data-name="Rectangle 26889" style="fill:#fff" d="M0 0h325v200H0z"/>
    <g data-name="Group 29768">
        <g data-name="Group 29767" style="clip-path:url(#baj19ij6pa)">
            <path data-name="Path 14966" d="M260.945 180.26H49.508a7.264 7.264 0 0 1-7.242-7.243V30.464a7.264 7.264 0 0 1 7.242-7.243h211.438a7.263 7.263 0 0 1 7.242 7.242v142.554a7.265 7.265 0 0 1-7.243 7.243" style="fill:#fff"/>
            <path data-name="Path 14967" d="M303.326 29.259a7.34 7.34 0 1 1-7.34-7.341 7.34 7.34 0 0 1 7.34 7.341" style="fill:#fddb2e"/>
            <path data-name="Path 14968" d="M298.723 35.679a7.708 7.708 0 1 1 7.709-7.709 7.708 7.708 0 0 1-7.709 7.709m0-14.431a6.723 6.723 0 1 0 6.721 6.725 6.73 6.73 0 0 0-6.721-6.722" style="fill:#032643"/>
            <path data-name="Path 14969" d="M239.25 180.754h-130.9c-.5-.012-.888-.243-.865-.516.021-.255.4-.459.865-.471h130.9c.5-.012.924.2.946.471s-.364.5-.864.516h-.082" style="fill:#032643"/>
            <path data-name="Path 14970" d="M256.37 180.754a.493.493 0 1 1 0-.987 11.338 11.338 0 0 0 11.33-11.324v-6.471a.494.494 0 1 1 .988 0v6.471a12.325 12.325 0 0 1-12.313 12.311" style="fill:#313c50"/>
            <path data-name="Path 14971" d="M268.188 138.834a.493.493 0 0 1-.493-.493V93.457a.494.494 0 1 1 .988 0v44.884a.494.494 0 0 1-.5.493" style="fill:#313c50"/>
            <path data-name="Path 14972" d="M268.188 76.73a.493.493 0 0 1-.493-.493V35.042a11.34 11.34 0 0 0-11.325-11.325H156.014a.494.494 0 1 1 0-.988H256.37a12.325 12.325 0 0 1 12.311 12.313v41.195a.494.494 0 0 1-.495.493" style="fill:#313c50"/>
            <path data-name="Path 14973" d="M42.265 129.745a.5.5 0 0 1-.494-.5v-94.2a12.326 12.326 0 0 1 12.31-12.313h7.509a.494.494 0 0 1 0 .988h-7.509a11.339 11.339 0 0 0-11.323 11.322v94.208a.494.494 0 0 1-.488.5h-.005" style="fill:#032643"/>
            <path data-name="Path 14974" d="M42.265 75.139a.5.5 0 0 0-.494.5v94.2a12.326 12.326 0 0 0 12.31 12.313h7.509a.494.494 0 1 0 0-.988h-7.509a11.339 11.339 0 0 1-11.323-11.325V75.634a.494.494 0 0 0-.488-.5h-.005" style="fill:#032643"/>
            <path data-name="Rectangle 26890" transform="translate(105.04 100.571)" style="fill:#d2dbe2" d="M0 0h114.036v5.386H0z"/>
            <path data-name="Path 14975" d="M186.17 137.834h-48.223a5.994 5.994 0 0 1-5.994-5.993v-6.393a5.994 5.994 0 0 1 5.994-5.993h48.223a5.993 5.993 0 0 1 5.993 5.993v6.393a5.993 5.993 0 0 1-5.993 5.993" style="fill:#fddb2e"/>
            <path data-name="Path 14976" d="M186.17 138.333h-48.223a6.5 6.5 0 0 1-6.493-6.493v-6.392a6.5 6.5 0 0 1 6.493-6.493h48.223a6.5 6.5 0 0 1 6.493 6.493v6.392a6.5 6.5 0 0 1-6.493 6.493m-48.223-18.379a5.5 5.5 0 0 0-5.494 5.494v6.392a5.5 5.5 0 0 0 5.494 5.494h48.223a5.5 5.5 0 0 0 5.494-5.494v-6.392a5.5 5.5 0 0 0-5.494-5.494z" style="fill:#01294a"/>
            <path data-name="Path 14977" d="M188.256 134.333s-2.709-5.141-3.374-6.473-3.915-8.039-6.541-6.47.465 6.971.854 7.664 2.184 2.932-.018 4.3-5.642-.932-7.349-1.885-8.948-4.537-10.629-5.124-4.061-1.728-5.4.808 3.979 4.918 4.94 5.386 6.536 3.084 6.536 3.084a6.424 6.424 0 0 0-1.826 2.676 3.309 3.309 0 0 0 .751 2.358 13.283 13.283 0 0 0-.823 2.665c-.148 1.092 1.327 2.934 2.135 3.581s5.77 4.266 8.253 4.223c0 0 1.85-6.292 4.07-9.163s6.7-6.9 8.418-7.636" style="fill:#fff"/>
            <path data-name="Path 14978" d="M188.636 134.429c-.4.192-.664.067-.75-.166a35.16 35.16 0 0 0-2.274-4.223c-.543-.924-1.061-1.791-1.366-2.429-2.053-4.262-3.2-5.545-3.809-5.874a2 2 0 0 0-1.563-.181 2.1 2.1 0 0 0-1.229 1.562c-.1.49-.19 1.88 1.191 4.276 1.121 1.753 2.438 3.787 1.448 5.419-.841 1.4-2.811 2.454-7.459-.25-1.123-.647-2.611-1.5-4.15-2.316a56.836 56.836 0 0 0-8.615-3.816 4.942 4.942 0 0 0-2.348-.467 1.854 1.854 0 0 0-1.06.619 1.971 1.971 0 0 0-.5 1.656 3.688 3.688 0 0 0 1.808 2.356c1.968 1.169 9.438 4.587 9.518 4.619.033.807-1.293 1.626-1.538 2.941a2.955 2.955 0 0 0 .721 2.352c-.022.582-.943 1.67-.809 3.076a4.1 4.1 0 0 0 1.745 2.756.459.459 0 0 1 .071.638.5.5 0 0 1-.636.07 4.955 4.955 0 0 1-2.078-3.39 4.471 4.471 0 0 1 .791-2.875 3.675 3.675 0 0 1-.692-2.8 4.15 4.15 0 0 1 1.368-2.257c-1.914-.883-7.24-3.362-8.918-4.353a4.54 4.54 0 0 1-2.234-2.989 2.865 2.865 0 0 1 .716-2.393 2.564 2.564 0 0 1 1.6-.918 4.956 4.956 0 0 1 2.483.4 58.737 58.737 0 0 1 9.044 3.974c1.555.827 3.051 1.681 4.18 2.335 3.229 1.875 5.335 2.076 6.232.564.7-1.147-.428-2.885-1.1-3.923a13.292 13.292 0 0 1-.36-.574c-1.486-2.567-1.449-4.181-1.295-4.916a2.957 2.957 0 0 1 1.816-2.231 2.858 2.858 0 0 1 2.293.242c1.062.575 2.436 2.627 4.193 6.275.291.6.8 1.455 1.329 2.36a28.2 28.2 0 0 1 2.083 3.923.456.456 0 0 1-.1.471" style="fill:#032643"/>
            <path data-name="Path 14979" d="M172.478 143.623c-4.693-.718-6.524-2.567-6.6-2.645a.5.5 0 0 1 .01-.636.45.45 0 0 1 .637 0 11.576 11.576 0 0 0 5.714 2.514.459.459 0 0 1 .358.532.468.468 0 0 1-.122.231" style="fill:#032643"/>
            <path data-name="Path 14980" d="M172.822 138.24c-4.757-1.489-5.771-2.221-5.812-2.251a.453.453 0 0 1 .535-.731 27.693 27.693 0 0 0 5.111 2.238.46.46 0 0 1 .264.594.466.466 0 0 1-.1.151" style="fill:#032643"/>
            <path data-name="Path 14981" d="M176.091 151.45a19.576 19.576 0 0 1-9.661-4.908.454.454 0 0 1 .642-.643 19.811 19.811 0 0 0 8.791 4.788.46.46 0 0 1 .349.537.48.48 0 0 1-.121.226" style="fill:#032643"/>
            <path data-name="Path 14982" d="m184.882 127.86 6.239 10.567L205.9 140.5l-1.182 17.873-16.339-7.259a3.024 3.024 0 0 0-2.076-.133 19.515 19.515 0 0 1-12.084-.454" style="fill:#fff"/>
            <path data-name="Path 14983" d="m205.074 158.968-16.862-7.492a2.624 2.624 0 0 0-1.8-.114 20.054 20.054 0 0 1-12.336-.463l.279-.749a19.262 19.262 0 0 0 11.833.446 3.417 3.417 0 0 1 2.35.151l15.815 7.025 1.12-16.93-14.6-2.047-6.337-10.732.688-.406 6.141 10.4 14.952 2.1z" style="fill:#032643"/>
            <path data-name="Path 14984" d="M220.352 130.172c5.559-.6 7.944-9.212 10.266-14.536s6.57-16.7 14.354-19.138c0 0 7.087-3.738 23.107-1.5a39.442 39.442 0 0 1 2.409 12.254c-.043 5.847-1.916 25.68 8.252 24.431 5.586-.685 6.785-10.677 6.731-11.548s-.952-17.2-.952-17.2S295.989 119 299.9 128.326s7.236 17.486 7.71 22.955 1.754 12.018-4.641 15.819-12.127-1.03-12.127-1.03l1.334 32.3h-63.109l1.388-38.963a33.427 33.427 0 0 1-10.639 2.008" style="fill:#1171e0"/>
            <path data-name="Path 14985" d="m264.486 87.368-.242-1.01C260.329 85.4 261.757 83 261.757 83c-1.887-.657-2-4.635-2-4.635 3.83.6 6.118-2.2 5.638-5.591s-3.794-4.148-5.645-4.27a4.084 4.084 0 0 0-3.137 1.551c-9.319-.852-12.929-12.3-12.929-12.3L242.161 69.9s-4.474.382-4.973 2.533c-.48 2.07 2.788 3.946 3.039 4.087-.058.023-.174.488.153 4.681.406 5.2 9.346 6.168 9.346 6.168l-.115 2.74a11.7 11.7 0 0 0-5.239 6.6c8.342-3.96 23.7-1.71 23.7-1.71a49.367 49.367 0 0 0-3.59-7.629" style="fill:#fff"/>
            <path data-name="Path 14986" d="M259.756 78.367s.114 4.378 2 4.635 7.781-3.309 8.862-4.635a23.035 23.035 0 0 0 4.78-12.259c.423-6.262-2.178-10.377-4.465-11.7s-9.262-4.429-11.749-2.886c0 0-4.6-2.211-8.26-1.448a13.468 13.468 0 0 0-8.033 5.309s1.767 7.923 6.243 11.079 7.478 3.59 7.478 3.59 5.148-4.091 8.462.839c0 0 .629 6.417-2.173 6.817a11.029 11.029 0 0 0-3.145.654" style="fill:#002a47"/>
            <path data-name="Path 14987" d="M263.723 86.691s5.161 9.639 4.688 18.719-1.274 16.585-.5 20.329 3.809 8.156 9.091 7.785 7.25-3.888 8.234-9.843a57.154 57.154 0 0 0 .118-17.154c-.745-5.3-3.7-9.98-5.3-12.378s-7.516-10.2-7.516-10.2a8.956 8.956 0 0 1-8.815 2.74" style="fill:#002a47"/>
            <path data-name="Path 14988" d="M262.2 83s-.891 1.673 0 2.744 5.806 1.218 7.343.67c2.434-.87 3.456-2.428 3.069-4.358a7.452 7.452 0 0 0-2.169-3.493s-4.72 4.182-8.243 4.437" style="fill:#fff"/>
            <path data-name="Path 14989" d="M259.168 122.109s-4.725 34.5-29.035 46.31l.321-9.007s21.45-6.917 28.714-37.305" style="fill:#0d67d2"/>
            <path data-name="Path 14990" d="M245.506 64.056c-.512-.383-.476-.658-.281-.806a2.608 2.608 0 0 1 1.232-.409.446.446 0 0 1 .505.377v.012a.452.452 0 0 1-.386.507 2 2 0 0 0-.809.238.451.451 0 0 1-.259.081" style="fill:#032643"/>
            <path data-name="Path 14991" d="M246.2 66.97c-.358-.076-.608.064-.783 1.358-.2 1.444.166 1.72.492 1.726s.677-.426.717-1.461.044-1.523-.426-1.623" style="fill:#032643"/>
            <path data-name="Path 14992" d="M260.512 78.82a5.377 5.377 0 0 1-3.1-.976.453.453 0 0 1 .523-.741 4.477 4.477 0 1 0-1.1-6.236 4.748 4.748 0 0 0-.125.189.449.449 0 0 1-.618.146l-.007-.005a.46.46 0 0 1-.143-.626 5.385 5.385 0 1 1 4.562 8.249" style="fill:#032643"/>
            <path data-name="Path 14993" d="M261.739 76.123c-.251-.075-3.647-2.317-3.647-2.317-.018-.744 3.393-3.274 3.393-3.274a.454.454 0 0 1 .541.729l-2.895 2.139 2.859 1.887a.453.453 0 0 1-.251.827" style="fill:#032643"/>
            <path data-name="Path 14994" d="M251.359 90.439a.459.459 0 0 1-.453-.466l.107-2.871a.454.454 0 0 1 .908.007v.025L251.812 90a.46.46 0 0 1-.453.437" style="fill:#032643"/>
            <path data-name="Path 14995" d="M229.068 198.831a.459.459 0 0 1-.453-.448c-.092-6.945.873-27.247 1.458-38.73a.451.451 0 0 1 .9.045c-.581 11.474-1.541 31.755-1.453 38.674a.459.459 0 0 1-.447.46z" style="fill:#032643"/>
            <path data-name="Path 14996" d="M292.178 198.831c-.473-.629-2.63-22.633-1.5-39.627 1.128-16.929.012-39.859 0-40.089-.161-3.217-3.027-12.931-7.156-16.888a.453.453 0 0 1 .63-.652c4.206 4.035 7.245 13.757 7.428 17.5.014.229 1.133 23.212 0 40.2-1.127 16.912 1.024 38.847 1.046 39.063a.459.459 0 0 1-.406.5h-.044" style="fill:#032643"/>
            <path data-name="Path 14997" d="M259.106 121.666a.455.455 0 0 0-.538.351c-.05.28-5.785 28.206-27.482 36.728l-1.44.443c-.2.068-.4.127-.6.191l.165.9s.477-.148.713-.229l1.46-.451c22.189-8.712 28.02-37.122 28.078-37.409a.454.454 0 0 0-.354-.523" style="fill:#032643"/>
            <path data-name="Path 14998" d="M266.964 94.372c-4.14-.685-5.887-.466-9.572-.546a29.577 29.577 0 0 0-12.612 2.254c-4.139 1.83-7.7 5.446-10.6 10.753a109.4 109.4 0 0 0-5.18 11.582c-.481 1.206-.964 2.4-1.457 3.6-.963 2.319-2.059 4.714-3.942 6.288a5.68 5.68 0 0 1-2.34 1.084c.1.286.195.572.292.857a6.488 6.488 0 0 0 2.628-1.248c2.04-1.7 3.193-4.214 4.2-6.639.5-1.193.98-2.4 1.464-3.6a107.605 107.605 0 0 1 5.141-11.481c2.8-5.128 6.217-8.611 10.17-10.357a28.967 28.967 0 0 1 12.224-2.18c3.746.069 5.414-.137 9.438.529h.012a.446.446 0 0 0 .509-.37.45.45 0 0 0-.368-.518" style="fill:#032643"/>
            <path data-name="Path 14999" d="M298.142 168.854a14.483 14.483 0 0 1-7.563-2.413.453.453 0 0 1 .53-.735c.331.233 8.059 5.683 14.219-1.135 7.743-8.556-6.1-39.651-18.625-57.875a.452.452 0 1 1 .737-.525l.009.013c13.02 18.934 26.709 49.979 18.552 58.993a10.3 10.3 0 0 1-7.859 3.676" style="fill:#032643"/>
            <path data-name="Path 15000" d="M252.607 87.567c-4.474 0-10.629-.551-12.382-5.313a10.871 10.871 0 0 1-.6-4.035c.1-.735.163-1.164.184-1.413-.924-.542-3.466-2.263-3.029-4.688.38-2.107 3.758-2.552 4.971-2.646l1.483-11.772a.443.443 0 0 1 .488-.394h.015a.451.451 0 0 1 .394.5l-1.524 12.146c-1.593.436-4.67.863-4.931 2.32-.376 2.086 2.451 3.677 2.775 3.85.331.281.318.532.139 1.723a9.975 9.975 0 0 0 .486 4.093c1.557 4.228 7.326 4.718 11.531 4.718a.454.454 0 1 1 .041.907h-.041" style="fill:#032643"/>
            <path data-name="Path 15001" d="M261.756 83.449c-.244-.058-2.6-.9-2.454-5.1a.48.48 0 0 1 .471-.436.46.46 0 0 1 .436.47c-.108 3.093 1.249 3.972 1.611 4.152 5.408-.735 9.865-4.6 11.933-10.371 2.081-5.813 1.97-13.758-3.2-17.458a16.467 16.467 0 0 0-8.706-2.71 22.103 22.103 0 0 0-1.985-.039 1.546 1.546 0 0 1-.876-.017c-9.329-4.668-14.751 2.313-15.606 3.532.479 1.642 4.142 13.144 13 14.138a.454.454 0 0 1 .4.5.479.479 0 0 1-.5.4c-10.111-1.144-13.68-14.445-13.826-15.01.118-.455 6.233-9.743 16.935-4.376a15.429 15.429 0 0 1 2.516-.037 17.353 17.353 0 0 1 9.179 2.879c5.547 3.971 5.714 12.373 3.521 18.5s-6.981 10.241-12.79 10.982a.587.587 0 0 1-.059.006" style="fill:#032643"/>
            <path data-name="Path 15002" d="M244.346 97.244c-.358-.081-.5-.327-.436-.57.058-.22 1.494-5.388 6.395-6.858a107.314 107.314 0 0 1 14.122-2.894.452.452 0 0 1 .117.9 106.286 106.286 0 0 0-13.977 2.866c-4.412 1.323-5.769 6.177-5.783 6.224a.454.454 0 0 1-.438.336" style="fill:#032643"/>
            <path data-name="Path 15003" d="M265.691 87.389c-1.93 0-3.24-.47-3.911-1.4a3.2 3.2 0 0 1-.222-2.906.453.453 0 1 1 .835.353 2.323 2.323 0 0 0 .127 2.03c.583.809 2.022 1.14 4.158.985 2.58-.2 4.384-.871 5.213-1.946a2.541 2.541 0 0 0 .489-2.022 6.952 6.952 0 0 0-2.1-3.568.452.452 0 1 1 .584-.689 7.761 7.761 0 0 1 2.407 4.1 3.433 3.433 0 0 1-.663 2.739c-1 1.3-2.977 2.073-5.863 2.294-.367.027-.72.041-1.054.041" style="fill:#032643"/>
            <path data-name="Path 15004" d="M276.907 133.978a8.929 8.929 0 0 1-7.044-2.813c-2.91-3.332-3.6-9.5-2.213-20.016 1.636-12.419-3.86-24-3.92-24.116a.452.452 0 0 1 .813-.4c.058.12 5.677 11.937 4 24.628-1.345 10.23-.727 16.187 2 19.3a7.946 7.946 0 0 0 6.342 2.5c5.716 0 7.61-6.466 8.2-11.893a52.944 52.944 0 0 0-.117-13.156c-1.247-8.64-6.691-15.924-11.489-22.352l-1.032-1.36a.453.453 0 0 1 .723-.546l1.03 1.369c4.872 6.512 10.386 13.893 11.664 22.766a53.811 53.811 0 0 1 .122 13.378c-.9 8.314-4.035 12.7-9.075 12.7" style="fill:#032643"/>
            <path data-name="Path 15005" d="M241.54 81.227a4.463 4.463 0 0 1-1.451-.233.45.45 0 0 1-.265-.579.467.467 0 0 1 .58-.27 3.35 3.35 0 0 0 3.6-.957.452.452 0 0 1 .636-.051l.007.006a.46.46 0 0 1 .045.644 4.056 4.056 0 0 1-3.151 1.445" style="fill:#1a1a1a"/>
            <path data-name="Path 15006" d="M222.527 129.451c-3.848 1.579-30.031-.393-30.031-.393s-11.006 12.792-7.941 30.209c20.218 3.209 25.254 3.016 42.905.966 0 0 2.918-.737 4.24-1.254" style="fill:#1171e0"/>
            <path data-name="Path 15007" d="M208.245 162.22c-6.5 0-12.987-.749-23.768-2.46l-.352-.057-.062-.35c-3.07-17.448 7.943-30.492 8.055-30.622l.164-.191.252.019c9.015.679 26.847 1.644 29.8.429a.5.5 0 0 1 .379.925c-3.748 1.537-27.1-.125-30-.339-1.313 1.641-10.323 13.592-7.731 29.255 19.681 3.112 24.533 2.985 42.416.906-.018 0 2.842-.722 4.115-1.222a.5.5 0 0 1 .364.931c-1.336.523-4.179 1.242-4.3 1.272a166.062 166.062 0 0 1-19.338 1.5" style="fill:#032643"/>
            <path data-name="Path 15008" d="M214.167 161.661a.5.5 0 0 1-.5-.5c0-5.946 5.087-10.782 11.341-10.782a11.372 11.372 0 0 1 10.409 6.5.5.5 0 1 1-.908.414 10.373 10.373 0 0 0-9.5-5.911c-5.7 0-10.343 4.388-10.343 9.783a.5.5 0 0 1-.5.5" style="fill:#fff"/>
            <path data-name="Path 15009" d="M311.4 199.544H13.6a.453.453 0 1 1 0-.906h297.8a.453.453 0 1 1 0 .906z" style="fill:#032643"/>
            <path data-name="Path 15010" d="M180.865 84.62H83.042a3.484 3.484 0 0 1-3.484-3.484V3.485A3.484 3.484 0 0 1 83.042 0h97.823a3.484 3.484 0 0 1 3.484 3.485v77.651a3.484 3.484 0 0 1-3.484 3.484" style="fill:#fdf4ca"/>
            <path data-name="Path 15011" d="M110.1 13.924H97.072a.587.587 0 0 0-.62.075.588.588 0 0 0-.316.524.6.6 0 0 0 .087.307v13.01a.592.592 0 0 0 .592.591h.007a.6.6 0 0 0 .591-.591V15.125H110.1a.6.6 0 0 0 .007-1.2" style="fill:#032643"/>
            <path data-name="Path 15012" d="M153.826 13.924h13.032a.6.6 0 0 1 .25-.056.6.6 0 0 1 .37.131.588.588 0 0 1 .316.524.582.582 0 0 1-.087.307v13.01a.592.592 0 0 1-.592.591h-.007a.592.592 0 0 1-.6-.584V15.125h-12.682a.6.6 0 0 1 0-1.2z" style="fill:#032643"/>
            <path data-name="Path 15013" d="M153.8 70.695h13.032a.591.591 0 0 0 .621-.074.6.6 0 0 0 .317-.524.6.6 0 0 0-.088-.307V56.78a.591.591 0 0 0-.584-.6h-.014a.591.591 0 0 0-.6.584V69.5H153.8a.6.6 0 0 0 0 1.2" style="fill:#032643"/>
            <path data-name="Path 15014" d="M110.08 70.695H97.048a.649.649 0 0 1-.85-.9V56.78a.592.592 0 0 1 .584-.6h.007a.592.592 0 0 1 .6.584V69.5h12.685a.6.6 0 0 1 .007 1.2" style="fill:#032643"/>
            <path data-name="Path 15015" d="M130.534 40.961a9.248 9.248 0 1 0-7.7-7.645 9.226 9.226 0 0 0 7.7 7.645" style="fill:#1171e0"/>
            <path data-name="Path 15016" d="M131.969 41.571a9.9 9.9 0 0 1-1.512-.117 9.729 9.729 0 1 1 11.1-8.12 9.731 9.731 0 0 1-9.59 8.237m-1.357-1.1a8.749 8.749 0 1 0-7.281-7.232 8.762 8.762 0 0 0 7.281 7.232" style="fill:#032643"/>
            <path data-name="Path 15017" d="M150.438 62.044v-8.158c0-6.16-12.324-9.24-18.486-9.24s-18.483 3.081-18.483 9.24v8.158z" style="fill:#1171e0"/>
            <path data-name="Path 15018" d="M150.937 62.544h-37.968v-8.658c0-6.937 13.4-9.739 18.983-9.739s18.985 2.8 18.985 9.739zm-36.969-1h35.971v-7.658c0-5.655-11.882-8.741-17.987-8.741s-17.984 3.086-17.984 8.741z" style="fill:#032643"/>
            <path data-name="Rectangle 26891" transform="translate(87.087 34.272)" style="fill:#01294a" d="M0 0h91.9v2.997H0z"/>
            <path data-name="Path 15019" d="M92.816 35.771a3.948 3.948 0 1 1-3.948-3.948 3.948 3.948 0 0 1 3.948 3.948" style="fill:#01294a"/>
            <path data-name="Path 15020" d="M178.986 35.771a3.947 3.947 0 1 1-3.948-3.948 3.948 3.948 0 0 1 3.948 3.948" style="fill:#01294a"/>
            <path data-name="Path 15021" d="M62.656 97.528a20.885 20.885 0 1 1-20.885-20.885 20.885 20.885 0 0 1 20.885 20.885" style="fill:#fff"/>
            <path data-name="Path 15022" d="M41.771 118.912a21.385 21.385 0 1 1 21.385-21.385 21.409 21.409 0 0 1-21.385 21.385m0-41.77a20.386 20.386 0 1 0 20.386 20.385 20.409 20.409 0 0 0-20.386-20.385" style="fill:#01294a"/>
            <path data-name="Path 15023" d="M49.161 87.95a.59.59 0 0 1-.293-.076 14.893 14.893 0 0 0-14.169 0 .637.637 0 1 1-.611-1.119 16.185 16.185 0 0 1 15.365-.013.644.644 0 0 1-.292 1.208m-18.2 6.678a.655.655 0 0 1-.368-.115.633.633 0 0 1-.153-.89 13.142 13.142 0 0 1 4.77-4.159 14.681 14.681 0 0 1 13.113-.013 13.205 13.205 0 0 1 4.77 4.134.639.639 0 0 1-1.043.738 11.946 11.946 0 0 0-4.312-3.74 13.4 13.4 0 0 0-11.958.017 12.062 12.062 0 0 0-4.325 3.765.553.553 0 0 1-.5.267m7.95 15.352a.6.6 0 0 1-.445-.191 12.838 12.838 0 0 1-2.557-3.358 11.3 11.3 0 0 1-1.335-5.52 7.208 7.208 0 0 1 14.4 0 .636.636 0 0 1-1.272 0 5.938 5.938 0 0 0-11.854 0 9.974 9.974 0 0 0 1.182 4.9 12.02 12.02 0 0 0 2.354 3.078.654.654 0 0 1 0 .9.7.7 0 0 1-.471.191m9.12-2.353a6.85 6.85 0 0 1-3.943-1.132 6.772 6.772 0 0 1-3.028-5.584.636.636 0 1 1 1.272 0 5.47 5.47 0 0 0 2.468 4.528 5.574 5.574 0 0 0 3.231.9 8.391 8.391 0 0 0 1.322-.127.639.639 0 0 1 .217 1.259 8.691 8.691 0 0 1-1.539.153m-2.557 2.62a.785.785 0 0 1-.165-.025 9.936 9.936 0 0 1-4.732-2.671 9.28 9.28 0 0 1-2.76-6.64 3.922 3.922 0 0 1 7.835 0 2.652 2.652 0 0 0 5.291 0 8.971 8.971 0 0 0-9.221-8.687 9.288 9.288 0 0 0-8.408 5.126 8.18 8.18 0 0 0-.75 3.561 12.644 12.644 0 0 0 .852 4.592.621.621 0 0 1-.369.814.631.631 0 0 1-.814-.369 14.175 14.175 0 0 1-.928-5.037 9.546 9.546 0 0 1 .865-4.121 10.555 10.555 0 0 1 9.552-5.851 10.246 10.246 0 0 1 10.495 9.96 3.922 3.922 0 0 1-7.835 0 2.652 2.652 0 0 0-5.291 0 8.012 8.012 0 0 0 2.378 5.737 8.656 8.656 0 0 0 4.16 2.353.632.632 0 0 1 .445.776.622.622 0 0 1-.6.483" style="fill-rule:evenodd;fill:#1171e0"/>
            <path data-name="Path 15024" d="M93.2 198.392H78.073a4.832 4.832 0 0 1-4.739-3.889l-3.306-16.621a.334.334 0 0 1 .43-.382 49.415 49.415 0 0 0 30.356 0 .334.334 0 0 1 .431.382L97.939 194.5a4.832 4.832 0 0 1-4.739 3.889" style="fill:#fff"/>
            <path data-name="Path 15025" d="M93.2 198.392H78.073a4.832 4.832 0 0 1-4.739-3.889l-3.306-16.621a.334.334 0 0 1 .43-.382 49.415 49.415 0 0 0 30.356 0 .334.334 0 0 1 .431.382L97.939 194.5a4.832 4.832 0 0 1-4.739 3.892z" style="stroke:#032643;stroke-miterlimit:10;fill:none"/>
            <path data-name="Path 15026" d="M91.423 197.784H78.06a4.268 4.268 0 0 1-4.186-3.435l-3.017-15.172z" style="fill:#d4dce3"/>
            <path data-name="Path 15027" d="M101.355 177.327c0 2.039-7.038 3.692-15.719 3.692s-15.719-1.653-15.719-3.692 7.038-3.692 15.719-3.692 15.719 1.653 15.719 3.692" style="fill:#fff"/>
            <ellipse data-name="Ellipse 5387" cx="15.719" cy="3.692" rx="15.719" ry="3.692" transform="translate(69.917 173.635)" style="stroke:#032643;stroke-miterlimit:10;fill:none"/>
            <path data-name="Path 15028" d="M95.645 165.441c-2.281 8.4-6.682 14.511-9.83 13.656s-3.85-8.355-1.569-16.752 6.682-14.511 9.83-13.656 3.85 8.355 1.569 16.752" style="fill:#1370df"/>
            <path data-name="Path 15029" d="M95.645 165.441c-2.281 8.4-6.682 14.511-9.83 13.656s-3.85-8.355-1.569-16.752 6.682-14.511 9.83-13.656 3.85 8.355 1.569 16.752z" style="stroke:#032643;stroke-miterlimit:10;fill:none"/>
            <path data-name="Path 15030" d="M87.185 162.2c2.493 8.337 1.981 15.852-1.144 16.787s-7.68-5.066-10.173-13.4-1.98-15.852 1.145-16.787 7.679 5.066 10.172 13.4" style="fill:#fddb30"/>
            <path data-name="Path 15031" d="M87.185 162.2c2.493 8.337 1.981 15.852-1.144 16.787s-7.68-5.066-10.173-13.4-1.98-15.852 1.145-16.787 7.679 5.063 10.172 13.4z" style="stroke:#032643;stroke-miterlimit:10;fill:none"/>
        </g>
    </g>
</svg>
