<svg xmlns="http://www.w3.org/2000/svg" width="96" height="96" viewBox="0 0 96 96">
    <g data-name="Group 22555">
        <path data-name="Rectangle 23128" style="fill:none" d="M0 0h96v96H0z"/>
        <g data-name="Group 22294">
            <path data-name="Rectangle 23129" style="opacity:.2;fill:none" d="M0 0h79.5v79.5H0z" transform="translate(7.5 7.5)"/>
            <g data-name="Group 22293">
                <path data-name="Path 13116" d="M2.984 27.854 27.854 0A27.854 27.854 0 1 1 0 27.854 27.854 27.854 0 0 1 27.854 0z" transform="translate(21.645 21.886)" style="fill:#147bf3"/>
                <path data-name="Union 37" d="M36.808 75.293a1.512 1.512 0 0 1-.163-.009c-.3.006-.577.009-.832.009a35.811 35.811 0 0 1-25.324-61.134A35.575 35.575 0 0 1 35.813 3.668c.29 0 .587.005.883.013.047-.005.095-.009.143-.011a52.292 52.292 0 0 1 8.009.944l-1.082-2.535A1.493 1.493 0 1 1 46.512.907L49.8 8.615l-2.781-.56C46.948 8.04 39.745 6.6 36.9 6.653h-.091v.016a34.504 34.504 0 0 0-1-.016A32.829 32.829 0 0 0 12.6 62.694a32.614 32.614 0 0 0 23.213 9.616c.329 0 .664 0 1-.014v.014h2.673a1.492 1.492 0 0 1 0 2.983z" transform="translate(11.936 10.104)" style="fill:#094771"/>
                <path data-name="Path 13117" d="M800.394 188.688a1.492 1.492 0 0 1-.382-2.935h.01a1.492 1.492 0 1 1 .767 2.884h-.011a1.493 1.493 0 0 1-.384.051zm9.185-3.775a1.492 1.492 0 0 1-.761-2.777l.009-.005a1.492 1.492 0 1 1 1.52 2.568l-.01.006a1.485 1.485 0 0 1-.758.207zm7.543-6.421a1.492 1.492 0 0 1-1.154-2.437l.007-.008a1.492 1.492 0 0 1 2.311 1.889l-.007.009a1.49 1.49 0 0 1-1.157.547zm4.8-8.667a1.493 1.493 0 0 1-1.409-1.984v-.01a1.492 1.492 0 0 1 2.818.981v.011a1.493 1.493 0 0 1-1.409 1.002zm1.925-9.742h-.107a1.492 1.492 0 0 1-1.383-1.594v-.011a1.492 1.492 0 1 1 2.977.211v.011a1.492 1.492 0 0 1-1.487 1.382zm-.311-9.939a1.493 1.493 0 0 1-1.476-1.286v-.01a1.492 1.492 0 0 1 2.956-.413v.011a1.492 1.492 0 0 1-1.272 1.684 1.508 1.508 0 0 1-.208.013zm-2.679-9.555a1.492 1.492 0 0 1-1.361-.879v-.009a1.492 1.492 0 0 1 2.72-1.227v.01a1.493 1.493 0 0 1-1.36 2.106zm-5.549-8.21a1.487 1.487 0 0 1-1.073-.455l-.007-.007a1.492 1.492 0 1 1 2.144-2.076l.008.008a1.492 1.492 0 0 1-1.072 2.53zm-7.972-5.9a1.486 1.486 0 0 1-.693-.171h-.009a1.492 1.492 0 1 1 1.387-2.643l.01.005a1.492 1.492 0 0 1-.7 2.814z" transform="translate(-741.207 -104.238)" style="fill:#094771"/>
                <path data-name="Path 13117" d="M1.369 21A1.369 1.369 0 0 1 0 19.629V1.369a1.37 1.37 0 0 1 2.74 0V18.26h16.89a1.37 1.37 0 1 1 0 2.74z" transform="translate(46.5 31.5)" style="fill:#fff"/>
            </g>
        </g>
    </g>
</svg>
