<svg data-name="Share with family" xmlns="http://www.w3.org/2000/svg" width="40" height="40" viewBox="0 0 40 40">
    <defs>
        <clipPath id="zfqubdmxna">
            <path data-name="Rectangle 24635" style="fill:#dedede" d="M0 0h40v40H0z"/>
        </clipPath>
        <clipPath id="bbm11dy8tb">
            <path data-name="Rectangle 27297" style="fill:#bfbfbf" d="M0 0h33.333v33.333H0z"/>
        </clipPath>
        <clipPath id="bwyt8e19cc">
            <path data-name="Rectangle 27298" style="fill:none" d="M0 0h29.93v31.026H0z"/>
        </clipPath>
    </defs>
    <g data-name="Mask Group 6025" style="clip-path:url(#zfqubdmxna)">
        <g data-name="Mask Group 6024" transform="translate(3.333 3.333)" style="clip-path:url(#bbm11dy8tb)">
            <g data-name="Group 29519">
                <g data-name="Group 29518" style="clip-path:url(#bwyt8e19cc)" transform="translate(1.667 .834)">
                    <path data-name="Path 18204" d="M13.009 16.428H3.567A3.569 3.569 0 0 1 0 12.86V3.568A3.569 3.569 0 0 1 3.567 0h9.442a3.568 3.568 0 0 1 3.568 3.568v9.292a3.568 3.568 0 0 1-3.568 3.568" style="fill:#fcec95"/>
                    <path data-name="Path 18205" d="M8.777 31.9a.625.625 0 0 1-.625-.625V23.2c0-1.554 1.169-2.891 3.382-3.866a14.355 14.355 0 0 1 5.324-1.167 14.352 14.352 0 0 1 5.324 1.167c2.212.975 3.381 2.311 3.381 3.866a.625.625 0 0 1-1.25 0c0-1.358-1.651-2.288-2.635-2.722a13.178 13.178 0 0 0-4.82-1.061 13.18 13.18 0 0 0-4.82 1.061c-.985.43-2.638 1.361-2.638 2.722v8.08a.625.625 0 0 1-.623.62z" transform="translate(-1.359 -3.028)" style="fill:#094771"/>
                    <path data-name="Line 708" d="M-.125 8.809a.625.625 0 0 1-.625-.625V-.125A.625.625 0 0 1-.125-.75.625.625 0 0 1 .5-.125v8.309a.625.625 0 0 1-.625.625z" transform="translate(11.216 21.028)" style="fill:#094771"/>
                    <path data-name="Path 18206" d="M32.64 22.429a.625.625 0 0 1-.625-.625v-1.452c0-.806-.965-1.371-1.54-1.636a7.833 7.833 0 0 0-2.977-.677 6.912 6.912 0 0 0-3.99 1.315.625.625 0 0 1-.838-.927 8.09 8.09 0 0 1 4.83-1.638c1.948 0 5.767 1.076 5.767 3.563V21.8a.625.625 0 0 1-.627.629z" transform="translate(-3.744 -2.798)" style="fill:#094771"/>
                    <path data-name="Path 18207" d="M8.6 13.516a4.149 4.149 0 0 1-4.113-3.6 4.1 4.1 0 0 1 .832-3.061 4.185 4.185 0 0 1 5.26-1.131.625.625 0 0 1-.586 1.1 2.935 2.935 0 0 0-3.693.795 2.872 2.872 0 0 0 .528 4.048A2.943 2.943 0 0 0 9.826 12a.625.625 0 1 1 .518 1.138 4.179 4.179 0 0 1-1.2.341 4.25 4.25 0 0 1-.544.037z" transform="translate(-.741 -.873)" style="fill:#094771"/>
                    <path data-name="Path 18208" d="M27.38 13.516a4.252 4.252 0 0 1-.551-.036 4.177 4.177 0 0 1-1.2-.341A.625.625 0 1 1 26.15 12a2.943 2.943 0 0 0 2.995-.334 2.872 2.872 0 0 0 .528-4.048 2.935 2.935 0 0 0-3.686-.792.625.625 0 0 1-.586-1.1 4.185 4.185 0 0 1 5.26 1.131 4.122 4.122 0 0 1-.761 5.803 4.141 4.141 0 0 1-2.52.856z" transform="translate(-4.178 -.873)" style="fill:#094771"/>
                    <path data-name="Path 18209" d="M2.183 29.057a.625.625 0 0 1-.625-.625v-8.08c0-2.487 3.818-3.563 5.766-3.563a8.093 8.093 0 0 1 4.828 1.638.625.625 0 0 1-.838.928 6.726 6.726 0 0 0-3.99-1.316 7.831 7.831 0 0 0-2.976.677c-.575.265-1.539.83-1.539 1.636v8.08a.625.625 0 0 1-.626.625z" transform="translate(-.26 -2.798)" style="fill:#094771"/>
                    <path data-name="Path 18210" d="M11.8 9.049a5.666 5.666 0 1 1 5.666 5.625A5.645 5.645 0 0 1 11.8 9.049" transform="translate(-1.966 -.571)" style="fill:#147bf3"/>
                    <path data-name="Path 18211" d="M21.489 28.875a6.011 6.011 0 1 1 6.011 5.969 5.99 5.99 0 0 1-6.011-5.968" transform="translate(-3.582 -3.818)" style="fill:#147bf3"/>
                    <path data-name="Path 18212" d="M29.134 31.445a.931.931 0 0 1 0-.1l-1.934-1.2a.984.984 0 1 1-.041-1.391l.052.052 1.928-1.172a1 1 0 1 1 1.13.841 1.04 1.04 0 0 1-.144.011 1 1 0 0 1-.8-.392l-1.887 1.147a.978.978 0 0 1 0 .471l1.872 1.158a.982.982 0 1 1-.182.568zm.5 0a.5.5 0 1 0 .5-.493.5.5 0 0 0-.503.493zm-3.648-1.97a.5.5 0 1 0 .5-.492h-.006a.5.5 0 0 0-.5.492m3.648-1.969a.5.5 0 1 0 .5-.492h.002a.5.5 0 0 0-.5.492" transform="translate(-4.251 -4.417)" style="fill:#fff"/>
                </g>
            </g>
        </g>
    </g>
</svg>
