<svg xmlns="http://www.w3.org/2000/svg" width="48" height="48" viewBox="0 0 48 48">
    <g data-name="Group 22429">
        <path data-name="Rectangle 23664" style="fill:none" d="M0 0h48v48H0z"/>
        <g data-name="Group 22428">
            <path data-name="Rectangle 23665" transform="translate(4 4)" style="opacity:.2;fill:none" d="M0 0h40v40H0z"/>
            <g data-name="Group 22427" transform="translate(19036 -4758)">
                <rect data-name="Rectangle 23680" width="24" height="24" rx="12" transform="translate(-19032 4778)" style="fill:#fedd31;opacity:.5"/>
                <path data-name="Path 13275" d="M4 34a4 4 0 0 1-4-4V4a4 4 0 0 1 4-4h13.943l.007.008Q18.17 0 18.392 0a12 12 0 0 1 9.327 19.552l.021.02 6.06 6.056a.734.734 0 0 1-.023 1.038.765.765 0 0 1-.54.227.7.7 0 0 1-.5-.2L26.7 20.657q-.339.326-.7.624V30a4.005 4.005 0 0 1-4 4zM1.5 4v26A2.5 2.5 0 0 0 4 32.5h18a2.5 2.5 0 0 0 2.5-2.5v-7.668a12 12 0 0 1-14.319-1.582H5a.75.75 0 1 1 0-1.5h3.83a11.972 11.972 0 0 1-1.839-3.5H5a.75.75 0 1 1 0-1.5h1.6A12.02 12.02 0 0 1 12.578 1.5H4A2.5 2.5 0 0 0 1.5 4zm6.393 8a10.5 10.5 0 1 0 10.5-10.5A10.512 10.512 0 0 0 7.893 12zM5 25.75a.75.75 0 1 1 0-1.5h10a.75.75 0 0 1 0 1.5z" transform="translate(-19026 4762)" style="fill:#094771"/>
                <path data-name="Subtraction 67" d="M6.49 15a.856.856 0 0 1-.391-.1 21.708 21.708 0 0 1-3.589-2.376C.844 11.136 0 9.866 0 8.751V3.173a.871.871 0 0 1 .726-.846A16.946 16.946 0 0 0 6.046.146a.771.771 0 0 1 .912.006 16.1 16.1 0 0 0 5.312 2.182.861.861 0 0 1 .73.841v5.908c0 2.059-4.4 4.894-6.1 5.813a.863.863 0 0 1-.41.104zM4.119 5.905a.728.728 0 0 0-.518.215.738.738 0 0 0 0 1.038l2.568 2.575 4.156-4.163a.734.734 0 0 0-.519-1.254.727.727 0 0 0-.517.214l-3.12 3.127-1.533-1.536a.723.723 0 0 0-.517-.216z" transform="translate(-19014 4767)" style="fill:#0275e9;stroke:transparent;stroke-miterlimit:10"/>
            </g>
        </g>
    </g>
</svg>
