<svg xmlns="http://www.w3.org/2000/svg" width="48" height="48" viewBox="0 0 48 48">
    <path data-name="Rectangle 27174" style="fill:none" d="M0 0h48v48H0z"/>
    <g data-name="Group 29406">
        <path data-name="Rectangle 27175" transform="translate(4 4)" style="opacity:.2;fill:none" d="M0 0h40v40H0z"/>
        <g data-name="Group 29405" transform="translate(8985 2862)">
            <circle data-name="Ellipse 5204" cx="17" cy="17" r="17" transform="translate(-8975 -2858)" style="fill:#fcec95"/>
            <path data-name="Path 13029" d="M13.946 22.775c5.1 5.1 9.967 6.178 11.765 6.275a13.149 13.149 0 0 0 1.961-4.313 16.311 16.311 0 0 0-4.707-3.137L21 23.56a11.71 11.71 0 0 1-4.7-3.137 11.738 11.738 0 0 1-3.138-4.706l1.961-1.962a16.334 16.334 0 0 0-3.138-4.705 13.182 13.182 0 0 0-4.314 1.961c.098 1.797 1.176 6.667 6.275 11.764z" transform="translate(-8981.671 -2854.05)" style="fill:#147bf3"/>
            <path data-name="Path 18094" d="M32.5 12.86a15.614 15.614 0 0 0-11.1 4.38A15.1 15.1 0 0 0 17 28.1c0 4.987 1.35 8.6 4.128 11.046a2.468 2.468 0 0 1 .539 2.392c-.012.076-.03.187-.035.239v1.994a6.219 6.219 0 0 0 .965-.3l2.559-1.26a1.639 1.639 0 0 1 1.175-.477 1.6 1.6 0 0 1 .931.292c.3.09.618.19.949.295a18.533 18.533 0 0 0 4.289 1.011 15.614 15.614 0 0 0 11.1-4.379A15.1 15.1 0 0 0 48 28.1a15.1 15.1 0 0 0-4.4-10.86 15.614 15.614 0 0 0-11.1-4.38m0-1.5c9.734 0 17 7.255 17 16.736s-7.266 16.736-17 16.736c-1.749 0-4.607-1.094-6.182-1.521.292-.127-.306-.082 0 0l-3.091 1.521c-.9.387-3.06.965-3.091 0v-3.043c-.014-.373.282-1.272 0-1.521C16.774 37.307 15.5 33.055 15.5 28.1c0-9.484 7.266-16.74 17-16.74z" transform="translate(-8996.5 -2863.36)" style="fill:#094771"/>
        </g>
    </g>
</svg>