<svg xmlns="http://www.w3.org/2000/svg" width="174" height="304" viewBox="0 0 174 304">
    <defs>
        <clipPath id="md0ptnc85a">
            <path data-name="Rectangle 24229" transform="translate(-15783 -20059.209)" style="fill:#fff" d="M0 0h174v304H0z"/>
        </clipPath>
        <clipPath id="058nas7s4b">
            <path data-name="Rectangle 24228" style="fill:none" d="M0 0h142.949v281.406H0z"/>
        </clipPath>
    </defs>
    <g data-name="Mask Group 6037" transform="translate(15783 20059.209)" style="clip-path:url(#md0ptnc85a)">
        <g data-name="Group 23917">
            <g data-name="Group 23916" style="clip-path:url(#058nas7s4b)" transform="translate(-15767.61 -20033.691)">
                <path data-name="Path 14657" d="m63.363 43.148 2.958 5.052a1.564 1.564 0 0 1-1.35 2.355h-5.406l-.191.268a32.091 32.091 0 0 1-58.239-18.1 31.8 31.8 0 0 1 32-31.592 31.8 31.8 0 0 1 32.01 31.595 31.2 31.2 0 0 1-1.687 10.146zm.7-.071 2.81 4.806a2.2 2.2 0 0 1-1.9 3.31h-5.08A32.726 32.726 0 0 1 .5 32.726 32.436 32.436 0 0 1 33.14.5a32.437 32.437 0 0 1 32.641 32.226 31.8 31.8 0 0 1-1.721 10.351" transform="translate(.269 .269)" style="fill-rule:evenodd;fill:#002b47"/>
                <path data-name="Path 14658" d="M33.409 65.994a33.517 33.517 0 0 1-23.62-9.661 32.866 32.866 0 0 1-7.162-10.489 32.728 32.728 0 0 1 0-25.7A32.868 32.868 0 0 1 9.789 9.66a33.77 33.77 0 0 1 36.622-7.069 33.325 33.325 0 0 1 10.62 7.069 32.867 32.867 0 0 1 7.162 10.488 32.747 32.747 0 0 1 .978 23.112l2.633 4.5a2.969 2.969 0 0 1-2.563 4.468h-4.684a33.5 33.5 0 0 1-27.148 13.766zm0-63.82a31.342 31.342 0 0 0-22.092 9.034 30.706 30.706 0 0 0-6.69 9.8 30.546 30.546 0 0 0 0 23.982 30.7 30.7 0 0 0 6.69 9.8 31.342 31.342 0 0 0 22.092 9.034A31.32 31.32 0 0 0 59.016 50.65l.422-.592h5.8a.8.8 0 0 0 .685-1.2L62.79 43.5l.21-.61a30.536 30.536 0 0 0-7.5-31.683 31.344 31.344 0 0 0-22.091-9.033z" transform="translate(0 -.001)" style="fill:#002b47"/>
                <path data-name="Path 14659" d="M30.717 26.183a3.348 3.348 0 1 1 3.4-3.347 3.374 3.374 0 0 1-3.4 3.347m0 .636a3.983 3.983 0 1 1 4.034-3.983 4.01 4.01 0 0 1-4.034 3.983" transform="translate(14.38 10.161)" style="fill-rule:evenodd;fill:#002b47"/>
                <path data-name="Path 14660" d="M30.987 27.858a4.753 4.753 0 1 1 4.8-4.752 4.784 4.784 0 0 1-4.8 4.752zm0-7.33a2.578 2.578 0 1 0 2.629 2.578 2.606 2.606 0 0 0-2.629-2.578z" transform="translate(14.111 9.891)" style="fill:#002b47"/>
                <path data-name="Path 14661" d="M18.58 22.835a4.035 4.035 0 1 0 4.032-3.983 4.008 4.008 0 0 0-4.032 3.983" transform="translate(10.014 10.16)" style="fill:#1272e2"/>
                <path data-name="Path 14662" d="M22.882 27.857a4.753 4.753 0 1 1 4.806-4.757 4.783 4.783 0 0 1-4.806 4.757zm0-7.966a3.214 3.214 0 1 0 3.267 3.209 3.242 3.242 0 0 0-3.267-3.209z" transform="translate(9.744 9.891)" style="fill:#002b47"/>
                <path data-name="Path 14663" d="M10.478 22.835a4.035 4.035 0 1 0 4.034-3.983 4.009 4.009 0 0 0-4.034 3.983" transform="translate(5.647 10.16)" style="fill:#1272e2"/>
                <path data-name="Path 14664" d="M14.781 27.857a4.753 4.753 0 1 1 4.8-4.752 4.783 4.783 0 0 1-4.8 4.752zm0-7.966a3.214 3.214 0 1 0 3.266 3.209 3.243 3.243 0 0 0-3.266-3.209z" transform="translate(5.378 9.891)" style="fill:#002b47"/>
                <path data-name="Path 14665" d="m22.572 121.5 12.542 9.281 7.005-7.005-14.482-7.241a.7.7 0 0 0-.768 1.159l10 8.534-13.6-5.933a.7.7 0 0 0-.7 1.205" transform="translate(12.009 62.763)" style="fill:#fff"/>
                <path data-name="Path 14666" d="m35.459 132.062-13.075-9.676a1.441 1.441 0 0 1-.527-1.631 1.469 1.469 0 0 1 1.386-1.027 1.5 1.5 0 0 1 .6.129l8.857 3.863-6.06-5.173a1.432 1.432 0 0 1-.431-1.616 1.455 1.455 0 0 1 2.043-.816l15.436 7.718-3.908 3.908 1.791 1.529-2.311-1.008zm-11.67-10.55 11.519 8.525 2.436-2.436zm4.282-3.766 10.534 8.994 2.484-2.484z" transform="translate(11.739 62.493)" style="fill:#002b47"/>
                <path data-name="Path 14667" d="m38.4 128.71-6.3-8.41 12.96-13.66 6.656 12.61-8.056 15.059-16.161 5.2a.7.7 0 0 1-.66-1.207z" transform="translate(14.324 57.476)" style="fill:#fff"/>
                <path data-name="Path 14668" d="M27.538 140.773a1.471 1.471 0 0 1-1.372-.981 1.451 1.451 0 0 1 .448-1.625l11-9.124-6.252-8.343 14.145-14.909 7.347 13.92-8.4 15.694L28 140.7a1.515 1.515 0 0 1-.462.073zm5.835-19.953 6.355 8.472-11.856 9.832 15.523-4.99 7.717-14.424-5.965-11.3z" transform="translate(14.055 57.018)" style="fill:#002b47"/>
                <path data-name="Path 14669" d="M54.427 140.329V99l-16.113 14.006L53.7 128.068l-15.386 14.711-19.42-23.96a13.491 13.491 0 0 1 .7-18C29.623 90.6 46.7 74.367 58.63 69.223c6.051-2.61 16.813-1.4 16.813-1.4l18.215 2.1s11.3.414 16.113 4.2c14.663 11.544 4.038 62.549 1.54 73.559l5.465 96.539-43.083-.566-25.921.351H13.095z" transform="translate(7.058 36.402)" style="fill:#1272e2"/>
                <path data-name="Path 14670" d="M70.1 67.042a57.431 57.431 0 0 1 5.828.284l18.188 2.1c.8.031 11.657.529 16.53 4.366 6.427 5.06 8.95 17.724 7.5 37.64a264.962 264.962 0 0 1-5.658 36.588l5.505 97.254-43.9-.577-25.921.351H12.357l41.7-104.6v-11.005l-15.418 14.738-19.945-24.608a14.57 14.57 0 0 1-3.267-9.676 14.008 14.008 0 0 1 4.011-9.349C24.03 95.87 31.03 88.995 38.3 82.8c8.2-6.993 15.077-11.708 20.422-14.014 2.683-1.158 6.511-1.744 11.378-1.744zm46.26 176.671-5.424-95.823.024-.106a263.492 263.492 0 0 0 5.648-36.465 99.74 99.74 0 0 0-.42-21.99c-1.088-6.973-3.276-11.794-6.496-14.329-4.562-3.592-15.555-4.034-15.665-4.039h-.06l-18.215-2.1c-.022 0-2.484-.274-5.654-.274-3.2 0-7.666.281-10.767 1.618-11.985 5.17-29.451 21.909-38.8 31.427a12.472 12.472 0 0 0-3.571 8.325 13.031 13.031 0 0 0 2.925 8.653l18.894 23.311 14.208-13.584-15.41-15.095 18.017-15.666v43.17l-.055.137-40.911 102.625h33.537l25.926-.351h.01zm-62.3-116.494v-26.265l-14.214 12.355z" transform="translate(6.66 36.132)" style="fill:#002b47"/>
                <path data-name="Path 14671" d="M71.549 84.564a2.1 2.1 0 0 0-2.039-1.591h-36.6a2.1 2.1 0 0 0-2.028 2.647l13.58 50.439a2.1 2.1 0 0 0 2.028 1.556h35.63A2.1 2.1 0 0 0 84.159 135z" transform="translate(16.604 44.719)" style="fill:#fedd31"/>
                <path data-name="Path 14672" d="M33.18 82.473h36.6a2.867 2.867 0 0 1 2.786 2.174l12.61 50.439a2.872 2.872 0 0 1-2.786 3.568H46.76a2.873 2.873 0 0 1-2.772-2.126L30.408 86.09a2.87 2.87 0 0 1 2.771-3.617zm49.21 54.642a1.333 1.333 0 0 0 1.293-1.656L71.072 85.02a1.33 1.33 0 0 0-1.293-1.008H33.18a1.331 1.331 0 0 0-1.285 1.677l13.58 50.44a1.332 1.332 0 0 0 1.285.986z" transform="translate(16.335 44.449)" style="fill:#002b47"/>
                <path data-name="Path 14673" d="M91.537 62.552a13.777 13.777 0 0 0 3.581.472c7.932 0 14.362-6.744 14.362-15.062S103.05 32.9 95.118 32.9a14.2 14.2 0 0 0-12.089 6.93A25.435 25.435 0 0 0 67.1 34.3c-13.735 0-24.87 10.663-24.868 23.818s11.13 23.82 24.868 23.82c12.153 0 22.272-8.35 24.44-19.386" transform="translate(22.76 17.731)" style="fill-rule:evenodd;fill:#002b47"/>
                <path data-name="Path 14674" d="M58.034 77.168s-7.842 1.262-12.29-4.868-.591-14.828-.591-14.828l6.413-17.849s7.873 4.4 10.813 9.766c4.855 8.858 9.974 8.007 9.974 8.007s10.554-5.029 11.324 4.443c.543 6.693-7.215 8.707-7.215 8.707l1.416 13.229s-1.4 7.589-10.808 7.692c-9.689.108-9.9-5.314-9.9-5.314z" transform="translate(23.5 21.353)" style="fill:#fff"/>
                <path data-name="Path 14675" d="M67.055 92.625c-4.126 0-7.121-.977-8.9-2.905a5.338 5.338 0 0 1-1.482-3.15v-.052l.778-8.106c-.25.014-.541.024-.866.024-2.745 0-7.85-.688-11.192-5.3-1.937-2.672-2.664-6.224-2.1-10.272a21.867 21.867 0 0 1 1.419-5.292l6.711-18.679.793.443c.329.184 8.1 4.574 11.112 10.068 3.88 7.079 7.811 7.63 8.923 7.63.071 0 .129 0 .171-.005a15.623 15.623 0 0 1 5.825-1.351 6.383 6.383 0 0 1 4.2 1.343 7.131 7.131 0 0 1 2.271 5.141 8.173 8.173 0 0 1-3.723 7.551 13.888 13.888 0 0 1-3.427 1.763l1.361 12.714-.02.11a10.288 10.288 0 0 1-2.031 4.148c-1.5 1.873-4.363 4.117-9.526 4.174zm-8.842-6.077a3.945 3.945 0 0 0 1.145 2.206c1.472 1.525 4.133 2.332 7.7 2.332h.275c3.631-.04 6.423-1.231 8.3-3.541a9.094 9.094 0 0 0 1.741-3.424l-1.479-13.766.642-.167a12.252 12.252 0 0 0 3.592-1.75 6.616 6.616 0 0 0 3.05-6.15c-.277-3.411-1.892-5.07-4.937-5.07a14.382 14.382 0 0 0-5.289 1.259l-.1.046-.107.018a3.25 3.25 0 0 1-.5.033 7.97 7.97 0 0 1-4.153-1.345 18.684 18.684 0 0 1-6.119-7.084c-2.263-4.13-7.7-7.745-9.73-9L46.125 58.17a20.556 20.556 0 0 0-1.319 4.947c-.5 3.681.112 6.748 1.829 9.117 2.941 4.056 7.494 4.662 9.946 4.662a11.467 11.467 0 0 0 1.6-.1l.981-.155-.094.988z" transform="translate(23.231 20.962)" style="fill:#002b47"/>
                <path data-name="Path 14676" d="m53.048 71.695.306-6.685 11.487-4.268z" transform="translate(28.59 32.737)" style="fill:#002b47"/>
                <path data-name="Path 14677" d="M50.38 46.685c-.742-.248-1.661.5-2.053 1.677s-.111 2.328.631 2.576 1.661-.5 2.053-1.677.111-2.328-.631-2.576" transform="translate(25.951 25.135)" style="fill:#002b47"/>
                <path data-name="Path 14678" d="M56.226 49.427c-.742-.248-1.661.5-2.053 1.677s-.111 2.328.631 2.576 1.661-.5 2.053-1.677.111-2.328-.631-2.576" transform="translate(29.101 26.613)" style="fill:#002b47"/>
                <path data-name="Path 14679" d="m78.085 201.7-5.817-55.852-11.249 55.469z" transform="translate(32.887 78.608)" style="fill:#fedd31"/>
                <path data-name="Path 14680" d="m79.269 204.273-18.858-.429 12.43-61.29zm-16.984-1.925 15.273.347-5.207-49.985z" transform="translate(32.559 76.83)" style="fill:#002b47"/>
                <path data-name="Path 14681" d="M53.782 47.459s.436 6.35-5.416 8.093l4.011 1.831" transform="translate(26.067 25.578)" style="fill-rule:evenodd;fill:#fff"/>
                <path data-name="Path 14682" d="M52.646 58.423a.766.766 0 0 1-.319-.07l-4.011-1.831a.769.769 0 0 1 .1-1.437 6.339 6.339 0 0 0 4.378-4.166 8.884 8.884 0 0 0 .49-3.139.769.769 0 0 1 1.535-.1 10.292 10.292 0 0 1-.554 3.7 7.876 7.876 0 0 1-3.7 4.483l2.406 1.1a.77.77 0 0 1-.32 1.47z" transform="translate(25.798 25.309)" style="fill:#002b47"/>
                <path data-name="Line 1090" transform="translate(98.616 81.917)" style="fill:#fff" d="M5.349 0 0 4.874"/>
                <path data-name="Line 1091" d="M.27 5.913a.769.769 0 0 1-.519-1.338L5.1-.3A.769.769 0 0 1 6.137.838L.788 5.712a.767.767 0 0 1-.518.201z" transform="translate(98.347 81.647)" style="fill:#002b47"/>
                <path data-name="Path 14683" d="m58.271 103.871-8.6-4.518a2.136 2.136 0 0 0-1.565-.169l-1.148.317 5.748 7.265a2.135 2.135 0 0 0 1.211.762l2.886.646a2.141 2.141 0 0 0 2.609-2.034l.008-.32a2.14 2.14 0 0 0-1.145-1.948" transform="translate(25.307 53.414)" style="fill:#fff"/>
                <path data-name="Path 14684" d="M57.736 109.265a2.931 2.931 0 0 1-.641-.071l-2.885-.646a2.917 2.917 0 0 1-1.647-1.036l-6.467-8.175 2.267-.626a2.936 2.936 0 0 1 2.129.23l8.6 4.518a2.892 2.892 0 0 1 1.556 2.648l-.008.32a2.927 2.927 0 0 1-2.904 2.838zm-8.994-9.065 5.028 6.355a1.374 1.374 0 0 0 .776.488l2.885.646a1.368 1.368 0 0 0 1.671-1.3l.008-.319a1.363 1.363 0 0 0-.733-1.248l-8.6-4.519a1.38 1.38 0 0 0-1-.109z" transform="translate(24.843 53.145)" style="fill:#002b47"/>
                <path data-name="Path 14685" d="M49.175 56.664a2.281 2.281 0 1 0 4.561 0" transform="translate(26.503 30.539)" style="fill-rule:evenodd;fill:#fff"/>
                <path data-name="Path 14686" d="M51.725 59.984a3.054 3.054 0 0 1-3.05-3.05.769.769 0 0 1 1.539 0 1.511 1.511 0 1 0 3.022 0 .769.769 0 1 1 1.539 0 3.054 3.054 0 0 1-3.05 3.05z" transform="translate(26.234 30.27)" style="fill:#002b47"/>
                <path data-name="Path 14687" d="m45.449 118.02 19.68 3.266a2.16 2.16 0 0 0 2.485-1.777l1.927-11.609a2.16 2.16 0 0 0-1.777-2.485l-19.68-3.266a2.16 2.16 0 0 0-2.485 1.777l-1.927 11.608a2.16 2.16 0 0 0 1.778 2.485" transform="translate(23.521 55.037)" style="fill:#fff"/>
                <path data-name="Rectangle 24227" d="M2.93 0H14.7a2.933 2.933 0 0 1 2.93 2.93v19.949a2.934 2.934 0 0 1-2.93 2.93H2.93A2.934 2.934 0 0 1 0 22.879V2.93A2.933 2.933 0 0 1 2.93 0zM14.7 24.271a1.393 1.393 0 0 0 1.391-1.391V2.93A1.393 1.393 0 0 0 14.7 1.539H2.93A1.392 1.392 0 0 0 1.539 2.93v19.949a1.393 1.393 0 0 0 1.391 1.392z" transform="rotate(-80.57 135.162 47.734)" style="fill:#002b47"/>
                <path data-name="Path 14688" d="m69.425 84.872 15.411 33.976-30.473-3.5 3.152 22.767 38.92 7.215a13.809 13.809 0 0 0 15.63-18.161c-7.31-20.619-17.73-48.656-21.973-53.5" transform="translate(29.299 39.702)" style="fill:#1272e2"/>
                <path data-name="Path 14689" d="M99.378 146.519a15.175 15.175 0 0 1-2.769-.256l-39.466-7.316-3.364-24.3 30.109 3.459-14.849-32.738 1.4-.636 15.972 35.213-30.835-3.545 2.94 21.234 38.374 7.113a13.025 13.025 0 0 0 12.416-4.371 12.855 12.855 0 0 0 2.348-12.777C100.773 96.91 93.021 78 89.827 74.348l1.158-1.014c4.254 4.861 14.377 31.914 22.119 53.753a14.571 14.571 0 0 1-13.726 19.431z" transform="translate(28.985 39.524)" style="fill:#002b47"/>
                <path data-name="Line 1092" transform="translate(69.38 160.572)" style="fill:#fff" d="M9.777 1.853 0 0"/>
                <path data-name="Line 1093" d="M10.047 2.892a.773.773 0 0 1-.147-.014L.126 1.026A.769.769 0 1 1 .413-.486l9.777 1.852a.77.77 0 0 1-.142 1.526z" transform="translate(69.111 160.302)" style="fill:#002b47"/>
                <path data-name="Line 1094" transform="translate(68.975 164.409)" style="fill:#fff" d="M9.777 1.853 0 0"/>
                <path data-name="Line 1095" d="M10.047 2.892a.773.773 0 0 1-.147-.014L.126 1.026A.769.769 0 1 1 .413-.486l9.777 1.852a.77.77 0 0 1-.142 1.526z" transform="translate(68.705 164.139)" style="fill:#002b47"/>
                <path data-name="Line 1096" transform="translate(68.061 168.221)" style="fill:#fff" d="M9.777 1.853 0 0"/>
                <path data-name="Line 1097" d="M10.047 2.892a.773.773 0 0 1-.147-.014L.126 1.026A.769.769 0 1 1 .413-.486l9.777 1.852a.77.77 0 0 1-.142 1.526z" transform="translate(67.792 167.952)" style="fill:#002b47"/>
            </g>
        </g>
    </g>
</svg>
